/* XPM */
static char *result[] = {
/* columns rows colors chars-per-pixel */
"48 60 81 1 ",
"  c #45210E",
". c #472410",
"X c #4A2612",
"o c #4D2914",
"O c #4E2D18",
"+ c #502B15",
"@ c #522E19",
"# c #54321C",
"$ c #59351D",
"% c #57381F",
"& c #5B381F",
"* c #553621",
"= c #593720",
"- c #573924",
"; c #5C3B22",
": c #5C3E29",
"> c #613E24",
", c #5F4126",
"< c #5D412C",
"1 c #5D4431",
"2 c #624126",
"3 c #63442B",
"4 c #68472D",
"5 c #66482E",
"6 c #6A4A2E",
"7 c #614632",
"8 c #654A34",
"9 c #6B4D32",
"0 c #654E3A",
"q c #6A4F39",
"w c #6E5135",
"e c #67523E",
"r c #6B523C",
"t c #715335",
"y c #735639",
"u c #76593B",
"i c #795C3D",
"p c #7C603F",
"a c #6B5642",
"s c #6E5945",
"d c #6F5C48",
"f c #705741",
"g c #735B44",
"h c #7B5E41",
"j c #745E49",
"k c #766047",
"l c #7E6241",
"z c #75624D",
"x c #7A634C",
"c c #776551",
"v c #7A6651",
"b c #7B6A55",
"n c #7E6D59",
"m c #816544",
"M c #846947",
"N c #82664A",
"B c #856B49",
"V c #896E4B",
"C c #8B714E",
"Z c #836D54",
"A c #816F5A",
"S c #8D7452",
"D c #84725D",
"F c #88745E",
"G c #8D785F",
"H c #937B57",
"J c #947D58",
"K c #857662",
"L c #8A7761",
"P c #867964",
"I c #8A7A65",
"U c #8C7D69",
"Y c #907E67",
"T c #8F816D",
"R c #91836E",
"E c #938571",
"W c #958873",
"Q c #988A74",
"! c #9C8F7A",
"~ c #9D907B",
"^ c #72751B",
/* pixels */
"^^^^^^^^^^^^^^^^^^^^^^^^^^^^^^^^^^^^^^^^^^^^^^^^",
"^^^^^^^^^^^^^^^^^^^^^^^^^^^^^^^^^^^^^^^^^^^^^^^^",
"^^^^^^^^^^^^^^^^^^^^^^^^^^^^^^^^^^^^^^^^^^^^^^^^",
"^^^^^^^^^^^^^^^^^^^^^^^^^^^^^^^^^^^^^^^^^^^^^^^^",
"^^^^^^^^^^^^^^^^^^^^^^^^^^^^^^^^^^^^^^^^^^^^^^^^",
"^^^^^^^^^^^^^^^^^^^^^^^^^^^^^^^^^^^^^^^^^^^^^^^^",
"^^^^^^^^^^^^^^^^^^^^^^^^^^^^^^^^^^^^^^^^^^^^^^^^",
"^^^^^^^^^^^^^^^^^^^^^^^^^^^^^^^^^^^^^^^^^^^^^^^^",
"^^^^^^^^^^^^^^^^^^^^^^^^^^^^^^^^^^^^^^^^^^^^^^^^",
"^^^^^^^^^^^^^^^^^^^^^^^^^^^^^^^^^^^^^^^^^^^^^^^^",
"^^^^^^^^^^^^^^^^^^^^^^^^^^^^^^^^^^^^^^^^^^^^^^^^",
"^^^^^^^^^^^^^^^^^^^^^^^^^^^^^^^^^^^^^^^^^^^^^^^^",
"^^^^^^^^^^^^^^^^^^^7737>3:332:^^^^^^^^^^^^^^^^^^",
"^^^^^^^^^^^^^^^>>:7bZbzccccxcf3::^^^^^^^^^^^^^^^",
"^^^^^^^^^^^^^^^gggjjxhjjjjjjjfrqq0^^^^^^^^^^^^^^",
"^^^^^^^^^^^^^^8IYYL>&;;&;>>>;8bbbf2^^^^^^^^^^^^^",
"^^^^^^^^^^^^=yD4>>>>6iiiiipm6>2249j3^^^^^^^^^^^^",
"^^^^^^^^^^^@ajr9tw9>tpppmmmM66puyufg8^^^^^^^^^^^",
"^^^^^^^^^^^8gf4uiii>tmimpmmBttSMmmuha8^^^^^^^^^^",
"^^^^^^^^^^>A94iiiim>tpmimmmMuhSMmmmtjg3^^^^^^^^^",
"^^^^^^^^+:a;6uiiiip9ummmmmmBiiCBmMMmugv:^^^^^^^^",
"^^^^^^^^o:s@4iiiiip9upmmmmmBumSBMMMVygn;^^^^^^^^",
"^^^^^^^^#7f@4iiipmm9ummmmmmByhSVMBVByhDe4^^^^^^^",
"^^^^^^^o:as@4imhmmm9immmmmmBumSVVBVVikTb8:^^^^^^",
"^^^^^^^o:aa@9hhhmBB9immmmmmMimHVVVVViNUb8:^^^^^^",
"^^^^^^^o:0a034hlmBMwummmmMMMipHSCCVmZDDv8;^^^^^^",
"^^^^^^^o%7ez08tmmmM9iMMmMMMVipHSSVMZLLvf4;^^^^^^",
"^^^^^^^oo%eazf2hlmMwiMmmMMVCipHSVMNRLvj2;;^^^^^^",
"^^^^^^^+&,$eszc72tB9iBMMMMBSihHuyBWUDk3w3;^^^^^^",
"^^^^^^^o&,@rsjczxgt49tttttyhttmGYTYLDj2w2;^^^^^^",
"^^^^^^^o&2$7edzbnvyfggjjhhjNNNNQ!RPKvy9y2;^^^^^^",
"^^^^^^^+;23@<adcbnPIRWWWWQ!!!~!QWUDDy6yt3:^^^^^^",
"^^^^^o+1=$3&$#=zvnnnKPPPPTTRYY!YYF>9>9u9hf4:^^^^",
"^^^^^oo7*$5=;,><<37vnPKFPPTTYSjgNxhh>4u9jg>>^^^^",
"^^^^^oO7:*;=264;&;2rdkjjjlvvNmtttumm4>tfxg>4^^^^",
"^^^^^oO<8<##266wryu:;>>>>>22>tSVVNmm9>qvvf:>^^^^",
"^^^^^oXO<00#,56wwyu,wpiippmm6tSVVVNN>yAAq>=>^^^^",
"^^^^^Xo$*<e1;$%9wru3tpplmMmmtuSVVmtfgZZf9>=>^^^^",
"^^^^^Xo2==7a1-;33wu2tpplmmMMttVlmmgNZNa>t4==^^^^",
"^^^^^oo23;O1aaa;=3t29uuipllm6tMutNYYFf>fi6=>^^^^",
"^^^^^.O,3,$O1asddr;$$;:2449966uUYUAAt>4uu4$$^^^^",
"^^^^^.o,2,%&=-<dzjfgjxxvvbZDFDFRWA9qy99tu4$$^^^^",
"^^^^^XX,3,%2;%$10abnKPPPIUUERETAAj46uu9uu6@@^^^^",
"^^^^^.X;,,-3333#O:sdcbbbbbnADDAw9umimy9wt>++^^^^",
"^^^^^..XXO;3555593O#@##$==;2449mmmmmhy4>&$++^^^^",
"^^^^^^^.#%O,3536w5$23444999ty62mmNmhhy>f>&^^^^^^",
"^^^^^^^ *:#%,356w5&wyyuuiihlmt4BNmmmftyb8;^^^^^^",
"^^^^^^^ *11O-336w6;wyytuihipiu9BNmmhtfAj7&^^^^^^",
"^^^^^^^ .*11*#18r5,wytyyuihhluwBNmh9xnc:$@^^^^^^",
"^^^^^^^ o#O11*O*55,wytywuiihhuwBhwyvZj8>=@^^^^^^",
"^^^^^^^ OOO-11**<,&355699wrtyw9hgjjKcq:>=^^^^^^^",
"^^^^^^^^ X%X-0ee1%%*&*,<33499989ZYYAq>7@^^^^^^^^",
"^^^^^^^^ o%%O-eaadddzcvnAnAIIUUUKKA8483#^^^^^^^^",
"^^^^^^^^^XO-*OO*1sdzzcvbbbnPUUUUj8844>$^^^^^^^^^",
"^^^^^^^^^^.O-%O#:<<101000qeaasjj8>:82;+^^^^^^^^^",
"^^^^^^^^^^^ O,,6#. XXXXOO@@O#@X$9tt4=+^^^^^^^^^^",
"^^^^^^^^^^^^.#,31*X<36599wwyy6%9ry9#^^^^^^^^^^^^",
"^^^^^^^^^^^^^XO#,,X3868ttyuppw;w>==^^^^^^^^^^^^^",
"^^^^^^^^^^^^^^  *#.--,,,,31562$,$Xo^^^^^^^^^^^^^",
"^^^^^^^^^^^^^^^^        .... X.X^^^^^^^^^^^^^^^^"
};
