/* XPM */
static char *result[] = {
/* columns rows colors chars-per-pixel */
"48 60 252 2 ",
"   c #776E3B",
".  c #71693F",
"X  c #766E3F",
"o  c #776F3F",
"O  c #796F3A",
"+  c #7B7039",
"@  c #7A703A",
"#  c #79713F",
"$  c #8E7F2E",
"%  c #847734",
"&  c #857833",
"*  c #857933",
"=  c #867932",
"-  c #877A32",
";  c #867A33",
":  c #877A33",
">  c #897B31",
",  c #887B32",
"<  c #897B32",
"1  c #8A7C33",
"2  c #8C7F39",
"3  c #887D3D",
"4  c #8A7E3E",
"5  c #8B7F3E",
"6  c #AD971D",
"7  c #AE971C",
"8  c #B69E17",
"9  c #B89F16",
"0  c #B19A1A",
"q  c #B29A1A",
"w  c #B49C18",
"e  c #B59D18",
"r  c #B59E1C",
"t  c #BEA413",
"y  c #BAA015",
"u  c #BAA115",
"i  c #BBA215",
"p  c #B8A016",
"a  c #BCA214",
"s  c #BEA81B",
"d  c #9D8B25",
"f  c #9C8A27",
"g  c #9F8C25",
"h  c #93832B",
"j  c #90812D",
"k  c #91812D",
"l  c #92822C",
"z  c #92822D",
"x  c #90812E",
"c  c #97872F",
"v  c #988729",
"b  c #998828",
"n  c #8B853E",
"m  c #8C863E",
"M  c #9A8B36",
"N  c #94863E",
"B  c #978B3A",
"V  c #918B3D",
"C  c #96883D",
"Z  c #9C8E3C",
"A  c #9C8E3D",
"S  c #9F903B",
"D  c #9A953D",
"F  c #9C963D",
"G  c #9C973E",
"H  c #A69121",
"J  c #A69221",
"K  c #AA972F",
"L  c #A5963B",
"P  c #A59A3D",
"I  c #AC9C3C",
"U  c #AE9E3C",
"Y  c #B9A327",
"T  c #B7A431",
"R  c #B2A13C",
"E  c #BDAB3B",
"W  c #B6B23D",
"Q  c #BAB63C",
"!  c #BDB93C",
"~  c #C4A80F",
"^  c #C6AA0E",
"/  c #C7AA0E",
"(  c #CBAE0B",
")  c #CCAE0B",
"_  c #C8AB0D",
"`  c #CFB109",
"'  c #D2B307",
"]  c #D3B407",
"[  c #D6B605",
"{  c #D6B705",
"}  c #D7B705",
"|  c #D4B506",
" . c #D5B506",
".. c #D9B903",
"X. c #DAB903",
"o. c #DCBA02",
"O. c #DCBB02",
"+. c #DDBC01",
"@. c #DEBC00",
"#. c #DFBD00",
"$. c #DEBC01",
"%. c #DFBE00",
"&. c #DFBE01",
"*. c #DDBC03",
"=. c #D8B804",
"-. c #D9B804",
";. c #DABA05",
":. c #DBBC07",
">. c #DDBC04",
",. c #DFBF04",
"<. c #D0B109",
"1. c #D0B208",
"2. c #D1B308",
"3. c #D5B608",
"4. c #D6B709",
"5. c #D7B909",
"6. c #C1A611",
"7. c #C0A612",
"8. c #C3A910",
"9. c #C5AB11",
"0. c #C6AC13",
"q. c #C8AE11",
"w. c #C3A918",
"e. c #D2B615",
"r. c #D2B516",
"t. c #E0BE01",
"y. c #E0BF02",
"u. c #E0BF03",
"i. c #E1BF04",
"p. c #C5AE2B",
"a. c #CAB22A",
"s. c #C9B537",
"d. c #C7B33B",
"f. c #D2BD3A",
"g. c #DFC319",
"h. c #E0C003",
"j. c #E0C004",
"k. c #E1C104",
"l. c #E1C005",
"z. c #E1C204",
"x. c #E1C006",
"c. c #E1C107",
"v. c #E2C406",
"b. c #E2C108",
"n. c #E2C209",
"m. c #E0C00A",
"M. c #E5CA0B",
"N. c #E3C80C",
"B. c #E6CC0D",
"V. c #E7CC0D",
"C. c #E7CD0E",
"Z. c #E5C510",
"A. c #E5C610",
"S. c #E6C611",
"D. c #E6C712",
"F. c #E6C713",
"G. c #E7C813",
"H. c #E7C815",
"J. c #E8CB14",
"K. c #E8CC15",
"L. c #E1CB1C",
"P. c #E9CB1B",
"I. c #EACC1C",
"U. c #EACC1D",
"Y. c #E9D112",
"T. c #E9D014",
"R. c #EAD114",
"E. c #EAD215",
"W. c #EBD515",
"Q. c #EBD616",
"!. c #ECD717",
"~. c #EDDA19",
"^. c #EDDB1A",
"/. c #EFDE1C",
"(. c #EFDF1E",
"). c #D7C035",
"_. c #D0CD3C",
"`. c #DFD630",
"'. c #D7D13B",
"]. c #D7D53B",
"[. c #ECCE20",
"{. c #EDD023",
"}. c #EDD024",
"|. c #EDD125",
" X c #EFD32A",
".X c #F0D32A",
"XX c #F0D42A",
"oX c #F0D52D",
"OX c #F1DA29",
"+X c #E5CE39",
"@X c #E8CF39",
"#X c #EFD637",
"$X c #EAD139",
"%X c #E0DE3B",
"&X c #E8D93A",
"*X c #F2D731",
"=X c #F0D636",
"-X c #F3D832",
";X c #F3D833",
":X c #F4DF30",
">X c #F3D935",
",X c #F4D934",
"<X c #F4D935",
"1X c #F4DA35",
"2X c #F4DA36",
"3X c #F5DA36",
"4X c #F5DB37",
"5X c #F4DC36",
"6X c #F1DB39",
"7X c #F5DB38",
"8X c #F5DC38",
"9X c #F0E120",
"0X c #F3E624",
"qX c #F3E725",
"wX c #F3E526",
"eX c #F5EA27",
"rX c #F5E72A",
"tX c #F4E02E",
"yX c #F7ED2B",
"uX c #F7EF2B",
"iX c #F7EE2C",
"pX c #F7EF2C",
"aX c #F8F02C",
"sX c #F8F12D",
"dX c #EEE731",
"fX c #E5E33B",
"gX c #EFEE3B",
"hX c #F7E238",
"jX c #F7E338",
"kX c #F8E439",
"lX c #FAEC39",
"zX c #FBEF39",
"xX c #FAF531",
"cX c #FBF632",
"vX c #FBF336",
"bX c #FDFA36",
"nX c #FDFC37",
"mX c #F4F33A",
"MX c #F5F43A",
"NX c #FBF139",
"BX c #FBF239",
"VX c #F8F53A",
"CX c #FCF53A",
"ZX c #F8F83A",
"AX c #FDFA39",
"SX c #FEFB3A",
"DX c #FEFE39",
"FX c #FDFD3A",
"GX c #FEFC3A",
"HX c #FEFD3A",
"JX c #FFFF3A",
"KX c None",
/* pixels */
"KXKXKXKXKXKXKXKXKXKXKXKXKXKXKXKXKXKXKXKXKXKXKXKXKXKXKXKXKXKXKXKXKXKXKXKXKXKXKXKXKXKXKXKXKXKXKXKX",
"KXKXKXKXKXKXKXKXKXKXKXKXKXKXKXKXKXKXKXKXKXKXKXKXKXKXKXKXKXKXKXKXKXKXKXKXKXKXKXKXKXKXKXKXKXKXKXKX",
"KXKXKXKXKXKXKXKXKXKXKXKXKXKXKXKXKXKXKXKXKXKXKXKXKXKXKXKXKXKXKXKXKXKXKXKXKXKXKXKXKXKXKXKXKXKXKXKX",
"KXKXKXKXKXKXKXKXKXKXKXKXKXKXKXKXKXKXKXKXKX. . . . . . KXKXKXKXKXKXKXKXKXKXKXKXKXKXKXKXKXKXKXKXKX",
"KXKXKXKXKXKXKXKXKXKXKXKXKXKXKXKXKXKXKXKXKX. . . . . . KXKXKXKXKXKXKXKXKXKXKXKXKXKXKXKXKXKXKXKXKX",
"KXKXKXKXKXKXKXKXKXKXKXKXKXKXKXKXKXKXKXKX3 I R R R R U 4 KXKXKXKXKXKXKXKXKXKXKXKXKXKXKXKXKXKXKXKX",
"KXKXKXKXKXKXKXKXKXKXKXKXKXKXKXKXKXKXKXn P +X7X7X7X7X$XL 2 1 < : KXKXKXKXKXKXKXKXKXKXKXKXKXKXKXKX",
"KXKXKXKXKXKXKXKXKXKXKXKXKXKXKXKXKXKXm W '.6X8X8X8X4X=X).a.w.7.0 @ KXKXKXKXKXKXKXKXKXKXKXKXKXKXKX",
"KXKXKXKXKXKXKXKXKXKXKXKXKXKXKXKXKXV ! %XVXzXlXlXlXtXU.P.D.l.#.~ + KXKXKXKXKXKXKXKXKXKXKXKXKXKXKX",
"KXKXKXKXKXKXKXKXKXKXKXKXKXKXKXKX# D fXZXFXGXSXSXAXwXx.x.i.&.#._ > KXKXKXKXKXKXKXKXKXKXKXKXKXKXKX",
"KXKXKXKXKXKXKXKXKXKXKXKXKXKXKXKX# F gXJXJXJXJXJXDX0X#.#.#.#.#.] w k . KXKXKXKXKXKXKXKXKXKXKXKXKX",
"KXKXKXKXKXKXKXKXKXKXKXKXKXKXKXKXG Q mXJXJXJXJXnXuX~.o.^ t 6.] +.#.b . KXKXKXKXKXKXKXKXKXKXKXKXKX",
"KXKXKXKXKXKXKXKXKXKXKXKXKXKXKXX _.MXFXJXJXJXbXpXC.k.{ d & , a ..#.b . KXKXKXKXKXKXKXKXKXKXKXKXKX",
"KXKXKXKXKXKXKXKXKXKXKXKXKXKXKXX ].JXJXJXJXJXeX!.z.#.X.8 v ; 9 -.#.b . KXKXKXKXKXKXKXKXKXKXKXKXKX",
"KXKXKXKXKXKXKXKXKXKXKXKXKXKXKXX ].JXJXJXJXJX^.k.#.#.#.[ w $ 9 -.#.b . KXKXKXKXKXKXKXKXKXKXKXKXKX",
"KXKXKXKXKXKXKXKXKXKXKXKXKXKXKXo ].JXJXJXJXJX~.h.#.#.#.=.8 x p -.#.b . KXKXKXKXKXKXKXKXKXKXKXKXKX",
"KXKXKXKXKXKXKXKXKXKXKXKXKX. N E &XNXHXJXJXJX~.h.#.#.#.>.r.p.e.*.#.b . KXKXKXKXKXKXKXKXKXKXKXKXKX",
"KXKXKXKXKXKXKXKXKXKXKXKXKX. A 7X8XjXBXCXvXiXY.y.#.#.#.j.K.OXJ.u.#.b . KXKXKXKXKXKXKXKXKXKXKXKXKX",
"KXKXKXKXKXKXKXKXKXKXKXKXKX. Z ,X1X5XhXkX:XT.v.%.#.#.#.k.E.rXR.,.-.v . KXKXKXKXKXKXKXKXKXKXKXKXKX",
"KXKXKXKXKXKXKXKXKXKXKXKXKX. M {.}. X2X7XoXn.#.#.#.#.#.k.Q.yXW.5.y l . KXKXKXKXKXKXKXKXKXKXKXKXKX",
"KXKXKXKXKXKXKXKXKXKXKXKXKX. c Z.S.I.-X-X|.c.#.#.#.#.t.M./.aXW.q.% KXKXKXKXKXKXKXKXKXKXKXKXKXKXKX",
"KXKXKXKXKXKXKXKXKXKXKXKXKX. M }.|..X*X{.F.u.#.#.#.#.z.(.sXxXW.0.+ KXKXKXKXKXKXKXKXKXKXKXKXKXKXKX",
"KXKXKXKXKXKXKXKXKXKXKXKXKX. A 7X7X7X;X}.G.u.#.#.@.` s dXcXqXV.9.+ KXKXKXKXKXKXKXKXKXKXKXKXKXKXKX",
"KXKXKXKXKXKXKXKXKXKXKXKXKX. A 7X7X7X7X3XXXb.#.O.1.r B `.9XN.3.i + KXKXKXKXKXKXKXKXKXKXKXKXKXKXKX",
"KXKXKXKXKXKXKXKXKXKXKXKXKX. A 7X7X7X7X7XoXn.#.| H K s.L.B.:.q b KXKXKXKXKXKXKXKXKXKXKXKXKXKXKXKX",
"KXKXKXKXKXKXKXKXKXKXKXKXKX. C d.@X7X7X7XoXn.#.| J Y [.m.<.u z O KXKXKXKXKXKXKXKXKXKXKXKXKXKXKXKX",
"KXKXKXKXKXKXKXKXKXKXKXKXKXKXKX5 f.#X>X<X Xb.#.O.2.4.b.;.a h KXKXKXKXKXKXKXKXKXKXKXKXKXKXKXKXKXKX",
"KXKXKXKXKXKXKXKXKXKXKXKXKXKXKXKXS T g.H.A.u.#.#.#.#.#.=.8 = KXKXKXKXKXKXKXKXKXKXKXKXKXKXKXKXKXKX",
"KXKXKXKXKXKXKXKXKXKXKXKXKXKXKXKX  j 8.( ( ) } $.#.=.) / 7 * KXKXKXKXKXKXKXKXKXKXKXKXKXKXKXKXKXKX",
"KXKXKXKXKXKXKXKXKXKXKXKXKXKXKXKXKXKX- , , , e '  .y , - & KXKXKXKXKXKXKXKXKXKXKXKXKXKXKXKXKXKXKX",
"KXKXKXKXKXKXKXKXKXKXKXKXKXKXKXKXKXKXKX. . . f 6 7 g . . KXKXKXKXKXKXKXKXKXKXKXKXKXKXKXKXKXKXKXKX",
"KXKXKXKXKXKXKXKXKXKXKXKXKXKXKXKXKXKXKXKXKXKXKX@ @ KXKXKXKXKXKXKXKXKXKXKXKXKXKXKXKXKXKXKXKXKXKXKX",
"KXKXKXKXKXKXKXKXKXKXKXKXKXKXKXKXKXKXKXKXKXKXKXKXKXKXKXKXKXKXKXKXKXKXKXKXKXKXKXKXKXKXKXKXKXKXKXKX",
"KXKXKXKXKXKXKXKXKXKXKXKXKXKXKXKXKXKXKXKXKXKXKXKXKXKXKXKXKXKXKXKXKXKXKXKXKXKXKXKXKXKXKXKXKXKXKXKX",
"KXKXKXKXKXKXKXKXKXKXKXKXKXKXKXKXKXKXKXKXKXKXKXKXKXKXKXKXKXKXKXKXKXKXKXKXKXKXKXKXKXKXKXKXKXKXKXKX",
"KXKXKXKXKXKXKXKXKXKXKXKXKXKXKXKXKXKXKXKXKXKXKXKXKXKXKXKXKXKXKXKXKXKXKXKXKXKXKXKXKXKXKXKXKXKXKXKX",
"KXKXKXKXKXKXKXKXKXKXKXKXKXKXKXKXKXKXKXKXKXKXKXKXKXKXKXKXKXKXKXKXKXKXKXKXKXKXKXKXKXKXKXKXKXKXKXKX",
"KXKXKXKXKXKXKXKXKXKXKXKXKXKXKXKXKXKXKXKXKXKXKXKXKXKXKXKXKXKXKXKXKXKXKXKXKXKXKXKXKXKXKXKXKXKXKXKX",
"KXKXKXKXKXKXKXKXKXKXKXKXKXKXKXKXKXKXKXKXKXKXKXKXKXKXKXKXKXKXKXKXKXKXKXKXKXKXKXKXKXKXKXKXKXKXKXKX",
"KXKXKXKXKXKXKXKXKXKXKXKXKXKXKXKXKXKXKXKXKXKXKXKXKXKXKXKXKXKXKXKXKXKXKXKXKXKXKXKXKXKXKXKXKXKXKXKX",
"KXKXKXKXKXKXKXKXKXKXKXKXKXKXKXKXKXKXKXKXKXKXKXKXKXKXKXKXKXKXKXKXKXKXKXKXKXKXKXKXKXKXKXKXKXKXKXKX",
"KXKXKXKXKXKXKXKXKXKXKXKXKXKXKXKXKXKXKXKXKXKXKXKXKXKXKXKXKXKXKXKXKXKXKXKXKXKXKXKXKXKXKXKXKXKXKXKX",
"KXKXKXKXKXKXKXKXKXKXKXKXKXKXKXKXKXKXKXKXKXKXKXKXKXKXKXKXKXKXKXKXKXKXKXKXKXKXKXKXKXKXKXKXKXKXKXKX",
"KXKXKXKXKXKXKXKXKXKXKXKXKXKXKXKXKXKXKXKXKXKXKXKXKXKXKXKXKXKXKXKXKXKXKXKXKXKXKXKXKXKXKXKXKXKXKXKX",
"KXKXKXKXKXKXKXKXKXKXKXKXKXKXKXKXKXKXKXKXKXKXKXKXKXKXKXKXKXKXKXKXKXKXKXKXKXKXKXKXKXKXKXKXKXKXKXKX",
"KXKXKXKXKXKXKXKXKXKXKXKXKXKXKXKXKXKXKXKXKXKXKXKXKXKXKXKXKXKXKXKXKXKXKXKXKXKXKXKXKXKXKXKXKXKXKXKX",
"KXKXKXKXKXKXKXKXKXKXKXKXKXKXKXKXKXKXKXKXKXKXKXKXKXKXKXKXKXKXKXKXKXKXKXKXKXKXKXKXKXKXKXKXKXKXKXKX",
"KXKXKXKXKXKXKXKXKXKXKXKXKXKXKXKXKXKXKXKXKXKXKXKXKXKXKXKXKXKXKXKXKXKXKXKXKXKXKXKXKXKXKXKXKXKXKXKX",
"KXKXKXKXKXKXKXKXKXKXKXKXKXKXKXKXKXKXKXKXKXKXKXKXKXKXKXKXKXKXKXKXKXKXKXKXKXKXKXKXKXKXKXKXKXKXKXKX",
"KXKXKXKXKXKXKXKXKXKXKXKXKXKXKXKXKXKXKXKXKXKXKXKXKXKXKXKXKXKXKXKXKXKXKXKXKXKXKXKXKXKXKXKXKXKXKXKX",
"KXKXKXKXKXKXKXKXKXKXKXKXKXKXKXKXKXKXKXKXKXKXKXKXKXKXKXKXKXKXKXKXKXKXKXKXKXKXKXKXKXKXKXKXKXKXKXKX",
"KXKXKXKXKXKXKXKXKXKXKXKXKXKXKXKXKXKXKXKXKXKXKXKXKXKXKXKXKXKXKXKXKXKXKXKXKXKXKXKXKXKXKXKXKXKXKXKX",
"KXKXKXKXKXKXKXKXKXKXKXKXKXKXKXKXKXKXKXKXKXKXKXKXKXKXKXKXKXKXKXKXKXKXKXKXKXKXKXKXKXKXKXKXKXKXKXKX",
"KXKXKXKXKXKXKXKXKXKXKXKXKXKXKXKXKXKXKXKXKXKXKXKXKXKXKXKXKXKXKXKXKXKXKXKXKXKXKXKXKXKXKXKXKXKXKXKX",
"KXKXKXKXKXKXKXKXKXKXKXKXKXKXKXKXKXKXKXKXKXKXKXKXKXKXKXKXKXKXKXKXKXKXKXKXKXKXKXKXKXKXKXKXKXKXKXKX",
"KXKXKXKXKXKXKXKXKXKXKXKXKXKXKXKXKXKXKXKXKXKXKXKXKXKXKXKXKXKXKXKXKXKXKXKXKXKXKXKXKXKXKXKXKXKXKXKX",
"KXKXKXKXKXKXKXKXKXKXKXKXKXKXKXKXKXKXKXKXKXKXKXKXKXKXKXKXKXKXKXKXKXKXKXKXKXKXKXKXKXKXKXKXKXKXKXKX",
"KXKXKXKXKXKXKXKXKXKXKXKXKXKXKXKXKXKXKXKXKXKXKXKXKXKXKXKXKXKXKXKXKXKXKXKXKXKXKXKXKXKXKXKXKXKXKXKX",
"KXKXKXKXKXKXKXKXKXKXKXKXKXKXKXKXKXKXKXKXKXKXKXKXKXKXKXKXKXKXKXKXKXKXKXKXKXKXKXKXKXKXKXKXKXKXKXKX",
"KXKXKXKXKXKXKXKXKXKXKXKXKXKXKXKXKXKXKXKXKXKXKXKXKXKXKXKXKXKXKXKXKXKXKXKXKXKXKXKXKXKXKXKXKXKXKXKX"
};
