/* XPM */
static char *result[] = {
/* columns rows colors chars-per-pixel */
"48 60 253 2 ",
"   c #71693F",
".  c #756C3D",
"X  c #7B7139",
"o  c #7A703A",
"O  c #79713D",
"+  c #7A723F",
"@  c #7A733F",
"#  c #7D733F",
"$  c #7C753F",
"%  c #8E7F2E",
"&  c #827635",
"*  c #837635",
"=  c #807436",
"-  c #817536",
";  c #857833",
":  c #867932",
">  c #877932",
",  c #867933",
"<  c #877A32",
"1  c #887A31",
"2  c #897B31",
"3  c #887A32",
"4  c #887B32",
"5  c #8C7D30",
"6  c #83783E",
"7  c #857A3E",
"8  c #857B3E",
"9  c #857D3E",
"0  c #847E3E",
"q  c #867F3E",
"w  c #897E3E",
"e  c #A9941F",
"r  c #AA941E",
"t  c #AB951E",
"y  c #AC951D",
"u  c #AC961D",
"i  c #AD971D",
"p  c #AE971D",
"a  c #B69E17",
"s  c #B79E17",
"d  c #B79F17",
"f  c #B89F16",
"g  c #B19A1A",
"h  c #B29A1A",
"j  c #B29B1A",
"k  c #B59D19",
"l  c #B69E18",
"z  c #B69E1C",
"x  c #BFA512",
"c  c #BEA413",
"v  c #B9A116",
"b  c #BBA217",
"n  c #BDA314",
"m  c #9E8B25",
"M  c #9E8B26",
"N  c #9F8C24",
"B  c #95842A",
"V  c #95852A",
"C  c #94842B",
"Z  c #97862A",
"A  c #92822C",
"S  c #92832C",
"D  c #93832C",
"F  c #988729",
"G  c #998729",
"H  c #98872C",
"J  c #998828",
"K  c #9A8828",
"L  c #9B8A2A",
"P  c #8F8032",
"I  c #8E833D",
"U  c #8F833D",
"Y  c #90843D",
"T  c #91853D",
"R  c #93873D",
"E  c #94873D",
"W  c #908A3E",
"Q  c #94883D",
"!  c #938D3E",
"~  c #A28E23",
"^  c #A38F23",
"/  c #A08D24",
"(  c #A59121",
")  c #A69121",
"_  c #A79320",
"`  c #AC9620",
"'  c #A9972F",
"]  c #B19B23",
"[  c #B39E2C",
"{  c #A59330",
"}  c #AD9B30",
"|  c #A8993C",
" . c #AD9D3C",
".. c #AE9E3C",
"X. c #B09D30",
"o. c #B9A326",
"O. c #A8A23D",
"+. c #AAA63D",
"@. c #B1A03B",
"#. c #B4A23B",
"$. c #B6A53B",
"%. c #B1A13C",
"&. c #B2A13C",
"*. c #B1AC3D",
"=. c #BBA93B",
"-. c #BEAC3B",
";. c #B5B13D",
":. c #B8B33C",
">. c #BCB93C",
",. c #C5A90F",
"<. c #C7AB0E",
"1. c #CBAE0B",
"2. c #CDAF0A",
"3. c #CCAE0B",
"4. c #C9AC0C",
"5. c #CBAD0C",
"6. c #CCAF0C",
"7. c #CFB109",
"8. c #CEB00A",
"9. c #D3B407",
"0. c #D5B605",
"q. c #D7B704",
"w. c #D4B406",
"e. c #D4B506",
"r. c #D5B506",
"t. c #D4B407",
"y. c #D5B606",
"u. c #D6B706",
"i. c #D7B804",
"p. c #D9B903",
"a. c #DAB903",
"s. c #DBBA02",
"d. c #DBBA03",
"f. c #DCBB01",
"g. c #DDBB01",
"h. c #DCBA02",
"j. c #DCBB02",
"k. c #DCBB03",
"l. c #DDBC01",
"z. c #DEBC00",
"x. c #DFBD00",
"c. c #DEBC01",
"v. c #DFBD01",
"b. c #DFBE01",
"n. c #DFBD03",
"m. c #DFBE02",
"M. c #D8B804",
"N. c #DABA05",
"B. c #DFBE04",
"V. c #D0B108",
"C. c #D0B109",
"Z. c #D0B208",
"A. c #D1B208",
"S. c #D1B308",
"D. c #D0B209",
"F. c #D2B308",
"G. c #DFBF0D",
"H. c #C1A611",
"J. c #C2A711",
"K. c #C0A512",
"L. c #C0A612",
"P. c #C3A810",
"I. c #C9AE16",
"U. c #CDB111",
"Y. c #E0BE02",
"T. c #E0BF03",
"R. c #E0BF04",
"E. c #E1BF04",
"W. c #C1AD34",
"Q. c #C8B332",
"!. c #C3B930",
"~. c #CFBA3A",
"^. c #D1BC3A",
"/. c #D3BD3A",
"(. c #DFC117",
"). c #E1C104",
"_. c #E1C005",
"`. c #E1C006",
"'. c #E2C107",
"]. c #E2C108",
"[. c #E3C30A",
"{. c #E3C30B",
"}. c #E4C40C",
"|. c #E5CA0C",
" X c #E6CC0D",
".X c #E2C310",
"XX c #E3C411",
"oX c #E5C610",
"OX c #E6C611",
"+X c #E6C712",
"@X c #E8CA18",
"#X c #E9CA18",
"$X c #E9CB1B",
"%X c #EACC1C",
"&X c #EACD1E",
"*X c #E8D010",
"=X c #EAD117",
"-X c #DBC022",
";X c #DDC221",
":X c #DFC423",
">X c #CCC93C",
",X c #D6C039",
"<X c #D7C43A",
"1X c #D8C239",
"2X c #DBC53A",
"3X c #DCC53A",
"4X c #DBD03A",
"5X c #DEDC3B",
"6X c #E6CC2C",
"7X c #EDD024",
"8X c #EED126",
"9X c #EED227",
"0X c #EED228",
"qX c #EFD329",
"wX c #F0D72A",
"eX c #F0D52C",
"rX c #E2CB39",
"tX c #E7CF39",
"yX c #EAD139",
"uX c #E0DF3B",
"iX c #E1DF3B",
"pX c #F2D730",
"aX c #F2D731",
"sX c #F3D833",
"dX c #F3D934",
"fX c #F4DA35",
"gX c #F4DA36",
"hX c #F4DA37",
"jX c #F5DB37",
"kX c #F1D738",
"lX c #F2D838",
"zX c #F3D938",
"xX c #F5DB38",
"cX c #F4DC38",
"vX c #F2E727",
"bX c #F3E927",
"nX c #F5EA28",
"mX c #F7EE2C",
"MX c #E8E73B",
"NX c #EBEA3B",
"BX c #F7E639",
"VX c #F8E638",
"CX c #FCF935",
"ZX c #F2F13B",
"AX c #F3F23A",
"SX c #FBF539",
"DX c #FCF738",
"FX c #F9F93A",
"GX c #FEFD38",
"HX c #FDFD3A",
"JX c #FEFD3A",
"KX c #FFFF3A",
"LX c None",
/* pixels */
"LXLXLXLXLXLXLXLXLXLXLXLXLXLXLXLXLXLXLXLXLXLXLXLXLXLXLXLXLXLXLXLXLXLXLXLXLXLXLXLXLXLXLXLXLXLXLXLX",
"LXLXLXLXLXLXLXLXLXLXLXLXLXLXLXLXLXLXLXLXLXLXLXLXLXLXLXLXLXLXLXLXLXLXLXLXLXLXLXLXLXLXLXLXLXLXLXLX",
"LXLXLXLXLXLXLXLXLXLXLXLXLXLXLXLXLXLXLXLXLXLX              LXLXLXLXLXLXLXLXLXLXLXLXLXLXLXLXLXLXLX",
"LXLXLXLXLXLXLXLXLXLXLXLXLXLXLXLXLXLXLXLXLXLXI E Q Q Q E Y LXLXLXLXLXLXLXLXLXLXLXLXLXLXLXLXLXLXLX",
"LXLXLXLXLXLXLXLXLXLXLXLXLXLXLXLXLXLX        @./.,X,X,X^.$.w LXLXLXLXLXLXLXLXLXLXLXLXLXLXLXLXLXLX",
"LXLXLXLXLXLXLXLXLXLXLXLXLXLXLXLXLXU ..&.&.&.1XlXxXxXxXkX3X=.R LXLXLXLXLXLXLXLXLXLXLXLXLXLXLXLXLX",
"LXLXLXLXLXLXLXLXLXLXLXLXLXLXLXLXT  .yXxXxXxXxXxXxXsXeXeXeX6X} P LXLXLXLXLXLXLXLXLXLXLXLXLXLXLXLX",
"LXLXLXLXLXLXLXLXLXLXLXLXLXLXLX# -.2XkXxXxXxXhXgXfX9XoXoXoX.XU.k = LXLXLXLXLXLXLXLXLXLXLXLXLXLXLX",
"LXLXLXLXLXLXLXLXLXLXLXLXLXLXT #.rXxXxXxXxXxXqX&X%X+Xx.x.x.x.x.S.y % LXLXLXLXLXLXLXLXLXLXLXLXLXLX",
"LXLXLXLXLXLXLXLXLXLXLXLXLX7 | tXkXxXjXdXaXpX#X].`.R.x.x.x.x.x.j.w.~ & LXLXLXLXLXLXLXLXLXLXLXLXLX",
"LXLXLXLXLXLXLXLXLXLXLXLX6 %.~.xXxXxXdX8X$X@X[.b.x.x.x.x.x.x.x.x.x.H.e - LXLXLXLXLXLXLXLXLXLXLXLX",
"LXLXLXLXLXLXLXLXLXLXLXLX7 ,XzXxXjXsX7XOXT.x.x.x.x.x.x.g.9.<.9.l.x.x.A.M 5 LXLXLXLXLXLXLXLXLXLXLX",
"LXLXLXLXLXLXLXLXLXLXLXLX8 <XcXxXgXqX{.Y.x.x.x.x.x.x.x.a.x / f Z.c.x.g.C.r     LXLXLXLXLXLXLXLXLX",
"LXLXLXLXLXLXLXLXLXLXLXLX9 4XBXxXgX9X`.x.x.x.x.x.x.x.x.j.2.l ) g p.x.x.M.p     LXLXLXLXLXLXLXLXLX",
"LXLXLXLXLXLXLXLXLXLXLX! +.MXSXVXwX$XE.x.x.x.x.x.x.x.x.x.c.9.J C y.x.x.M.p     LXLXLXLXLXLXLXLXLX",
"LXLXLXLXLXLXLXLXLXLX+ *.uXFXJXDX=X'.b.x.x.x.x.x.x.x.x.x.x.r.F D y.x.x.M.p     LXLXLXLXLXLXLXLXLX",
"LXLXLXLXLXLXLXLXLXLX+ :.ZXKXKXGX*Xx.x.x.x.x.x.x.x.x.x.x.x.r.F D y.x.x.M.p     LXLXLXLXLXLXLXLXLX",
"LXLXLXLXLXLXLXLXLXLX+ :.ZXKXCXnX|.x.x.x.x.x.x.x.x.x.x.x.x.r.F D y.x.p.H.^     LXLXLXLXLXLXLXLXLX",
"LXLXLXLXLXLXLXLXLXLX+ ;.NXHXmX X).x.x.x.x.x.x.x.x.x.x.x.f.D.L H u.x.C.F , LXLXLXLXLXLXLXLXLXLXLX",
"LXLXLXLXLXLXLXLXLXLX+ O.>XAXbXx.x.x.x.x.x.x.x.x.x.x.x.f.7.b ' [ N.x.1.*   LXLXLXLXLXLXLXLXLXLXLX",
"LXLXLXLXLXLXLXLXLXLXLX$ W iXvXx.x.x.j.9.V.h.x.x.x.x.l.6.z { Q.:XB.F.n & LXLXLXLXLXLXLXLXLXLXLXLX",
"LXLXLXLXLXLXLXLXLXLXLXLXq 5XvXx.x.x.r.s u w.x.x.x.x.i.` ' W.-XXXm.h V LXLXLXLXLXLXLXLXLXLXLXLXLX",
"LXLXLXLXLXLXLXLXLXLXLXLX0 >.!.f t.x.0.d ( j a a d I.(.] o.;X}.Y.x.J   LXLXLXLXLXLXLXLXLXLXLXLXLX",
"LXLXLXLXLXLXLXLXLXLXLXLXLX@ O X J.x.z.s.4.B 1 1 2 X.0XG.k.n.v.d.C.Z   LXLXLXLXLXLXLXLXLXLXLXLXLX",
"LXLXLXLXLXLXLXLXLXLXLXLXLXLX  . L.x.x.x.q.c s s d I.+X_.x.x.x.8.N 2 LXLXLXLXLXLXLXLXLXLXLXLXLXLX",
"LXLXLXLXLXLXLXLXLXLXLXLXLXLXLX. t P.s.x.x.x.x.x.x.x.x.j.C.c s t o LXLXLXLXLXLXLXLXLXLXLXLXLXLXLX",
"LXLXLXLXLXLXLXLXLXLXLXLXLXLXLXLX> m 7.M.a.c.x.x.x.g.M.9.v S * & LXLXLXLXLXLXLXLXLXLXLXLXLXLXLXLX",
"LXLXLXLXLXLXLXLXLXLXLXLXLXLXLXLXLX< F K _ e.x.x.c.,.K G A LXLXLXLXLXLXLXLXLXLXLXLXLXLXLXLXLXLXLX",
"LXLXLXLXLXLXLXLXLXLXLXLXLXLXLXLXLXLX    , K.3.3.5.i       LXLXLXLXLXLXLXLXLXLXLXLXLXLXLXLXLXLXLX",
"LXLXLXLXLXLXLXLXLXLXLXLXLXLXLXLXLXLXLXLXLX: 4 4 3 ; LXLXLXLXLXLXLXLXLXLXLXLXLXLXLXLXLXLXLXLXLXLX",
"LXLXLXLXLXLXLXLXLXLXLXLXLXLXLXLXLXLXLXLXLXLX      LXLXLXLXLXLXLXLXLXLXLXLXLXLXLXLXLXLXLXLXLXLXLX",
"LXLXLXLXLXLXLXLXLXLXLXLXLXLXLXLXLXLXLXLXLXLXLXLXLXLXLXLXLXLXLXLXLXLXLXLXLXLXLXLXLXLXLXLXLXLXLXLX",
"LXLXLXLXLXLXLXLXLXLXLXLXLXLXLXLXLXLXLXLXLXLXLXLXLXLXLXLXLXLXLXLXLXLXLXLXLXLXLXLXLXLXLXLXLXLXLXLX",
"LXLXLXLXLXLXLXLXLXLXLXLXLXLXLXLXLXLXLXLXLXLXLXLXLXLXLXLXLXLXLXLXLXLXLXLXLXLXLXLXLXLXLXLXLXLXLXLX",
"LXLXLXLXLXLXLXLXLXLXLXLXLXLXLXLXLXLXLXLXLXLXLXLXLXLXLXLXLXLXLXLXLXLXLXLXLXLXLXLXLXLXLXLXLXLXLXLX",
"LXLXLXLXLXLXLXLXLXLXLXLXLXLXLXLXLXLXLXLXLXLXLXLXLXLXLXLXLXLXLXLXLXLXLXLXLXLXLXLXLXLXLXLXLXLXLXLX",
"LXLXLXLXLXLXLXLXLXLXLXLXLXLXLXLXLXLXLXLXLXLXLXLXLXLXLXLXLXLXLXLXLXLXLXLXLXLXLXLXLXLXLXLXLXLXLXLX",
"LXLXLXLXLXLXLXLXLXLXLXLXLXLXLXLXLXLXLXLXLXLXLXLXLXLXLXLXLXLXLXLXLXLXLXLXLXLXLXLXLXLXLXLXLXLXLXLX",
"LXLXLXLXLXLXLXLXLXLXLXLXLXLXLXLXLXLXLXLXLXLXLXLXLXLXLXLXLXLXLXLXLXLXLXLXLXLXLXLXLXLXLXLXLXLXLXLX",
"LXLXLXLXLXLXLXLXLXLXLXLXLXLXLXLXLXLXLXLXLXLXLXLXLXLXLXLXLXLXLXLXLXLXLXLXLXLXLXLXLXLXLXLXLXLXLXLX",
"LXLXLXLXLXLXLXLXLXLXLXLXLXLXLXLXLXLXLXLXLXLXLXLXLXLXLXLXLXLXLXLXLXLXLXLXLXLXLXLXLXLXLXLXLXLXLXLX",
"LXLXLXLXLXLXLXLXLXLXLXLXLXLXLXLXLXLXLXLXLXLXLXLXLXLXLXLXLXLXLXLXLXLXLXLXLXLXLXLXLXLXLXLXLXLXLXLX",
"LXLXLXLXLXLXLXLXLXLXLXLXLXLXLXLXLXLXLXLXLXLXLXLXLXLXLXLXLXLXLXLXLXLXLXLXLXLXLXLXLXLXLXLXLXLXLXLX",
"LXLXLXLXLXLXLXLXLXLXLXLXLXLXLXLXLXLXLXLXLXLXLXLXLXLXLXLXLXLXLXLXLXLXLXLXLXLXLXLXLXLXLXLXLXLXLXLX",
"LXLXLXLXLXLXLXLXLXLXLXLXLXLXLXLXLXLXLXLXLXLXLXLXLXLXLXLXLXLXLXLXLXLXLXLXLXLXLXLXLXLXLXLXLXLXLXLX",
"LXLXLXLXLXLXLXLXLXLXLXLXLXLXLXLXLXLXLXLXLXLXLXLXLXLXLXLXLXLXLXLXLXLXLXLXLXLXLXLXLXLXLXLXLXLXLXLX",
"LXLXLXLXLXLXLXLXLXLXLXLXLXLXLXLXLXLXLXLXLXLXLXLXLXLXLXLXLXLXLXLXLXLXLXLXLXLXLXLXLXLXLXLXLXLXLXLX",
"LXLXLXLXLXLXLXLXLXLXLXLXLXLXLXLXLXLXLXLXLXLXLXLXLXLXLXLXLXLXLXLXLXLXLXLXLXLXLXLXLXLXLXLXLXLXLXLX",
"LXLXLXLXLXLXLXLXLXLXLXLXLXLXLXLXLXLXLXLXLXLXLXLXLXLXLXLXLXLXLXLXLXLXLXLXLXLXLXLXLXLXLXLXLXLXLXLX",
"LXLXLXLXLXLXLXLXLXLXLXLXLXLXLXLXLXLXLXLXLXLXLXLXLXLXLXLXLXLXLXLXLXLXLXLXLXLXLXLXLXLXLXLXLXLXLXLX",
"LXLXLXLXLXLXLXLXLXLXLXLXLXLXLXLXLXLXLXLXLXLXLXLXLXLXLXLXLXLXLXLXLXLXLXLXLXLXLXLXLXLXLXLXLXLXLXLX",
"LXLXLXLXLXLXLXLXLXLXLXLXLXLXLXLXLXLXLXLXLXLXLXLXLXLXLXLXLXLXLXLXLXLXLXLXLXLXLXLXLXLXLXLXLXLXLXLX",
"LXLXLXLXLXLXLXLXLXLXLXLXLXLXLXLXLXLXLXLXLXLXLXLXLXLXLXLXLXLXLXLXLXLXLXLXLXLXLXLXLXLXLXLXLXLXLXLX",
"LXLXLXLXLXLXLXLXLXLXLXLXLXLXLXLXLXLXLXLXLXLXLXLXLXLXLXLXLXLXLXLXLXLXLXLXLXLXLXLXLXLXLXLXLXLXLXLX",
"LXLXLXLXLXLXLXLXLXLXLXLXLXLXLXLXLXLXLXLXLXLXLXLXLXLXLXLXLXLXLXLXLXLXLXLXLXLXLXLXLXLXLXLXLXLXLXLX",
"LXLXLXLXLXLXLXLXLXLXLXLXLXLXLXLXLXLXLXLXLXLXLXLXLXLXLXLXLXLXLXLXLXLXLXLXLXLXLXLXLXLXLXLXLXLXLXLX",
"LXLXLXLXLXLXLXLXLXLXLXLXLXLXLXLXLXLXLXLXLXLXLXLXLXLXLXLXLXLXLXLXLXLXLXLXLXLXLXLXLXLXLXLXLXLXLXLX",
"LXLXLXLXLXLXLXLXLXLXLXLXLXLXLXLXLXLXLXLXLXLXLXLXLXLXLXLXLXLXLXLXLXLXLXLXLXLXLXLXLXLXLXLXLXLXLXLX",
"LXLXLXLXLXLXLXLXLXLXLXLXLXLXLXLXLXLXLXLXLXLXLXLXLXLXLXLXLXLXLXLXLXLXLXLXLXLXLXLXLXLXLXLXLXLXLXLX",
"LXLXLXLXLXLXLXLXLXLXLXLXLXLXLXLXLXLXLXLXLXLXLXLXLXLXLXLXLXLXLXLXLXLXLXLXLXLXLXLXLXLXLXLXLXLXLXLX"
};
