/* XPM */
static char *result[] = {
/* columns rows colors chars-per-pixel */
"48 60 253 2 ",
"   c #776E3B",
".  c #71693F",
"X  c #766C3C",
"o  c #766E3F",
"O  c #786F3B",
"+  c #79703D",
"@  c #79713E",
"#  c #79703F",
"$  c #7A723F",
"%  c #7E753E",
"&  c #7F753E",
"*  c #8E7F2E",
"=  c #8E7F2F",
"-  c #837734",
";  c #827635",
":  c #837635",
">  c #817637",
",  c #867933",
"<  c #897B31",
"1  c #887B32",
"2  c #8C7D30",
"3  c #847C3B",
"4  c #83793E",
"5  c #857A3E",
"6  c #877C3E",
"7  c #8A7E3E",
"8  c #8A7F3E",
"9  c #AA941E",
"0  c #AE971C",
"q  c #AE971D",
"w  c #AF991B",
"e  c #B79E17",
"r  c #B79F17",
"t  c #B89F16",
"y  c #B39B19",
"u  c #B19A1A",
"i  c #B29A1A",
"p  c #B59D18",
"a  c #BFA512",
"s  c #BDA314",
"d  c #BBA41A",
"f  c #9B8927",
"g  c #9D8B26",
"h  c #9C8A27",
"j  c #9E8B26",
"k  c #94832B",
"l  c #978629",
"z  c #95852A",
"x  c #94842B",
"c  c #95842B",
"v  c #96852A",
"b  c #97862A",
"n  c #92822D",
"m  c #988729",
"M  c #998828",
"N  c #9A8828",
"B  c #8C803E",
"V  c #8C853E",
"C  c #92853D",
"Z  c #918B3E",
"A  c #95883D",
"S  c #96893D",
"D  c #9B8E3D",
"F  c #A38F23",
"G  c #A08D24",
"H  c #A08C25",
"J  c #A69121",
"K  c #A89320",
"L  c #A89422",
"P  c #AB9925",
"I  c #A69D3B",
"U  c #A19B3D",
"Y  c #A9993C",
"T  c #AC9C3C",
"R  c #AD9D3C",
"E  c #AF9F3C",
"W  c #B09F3B",
"Q  c #ACA73D",
"!  c #B0A530",
"~  c #B3A134",
"^  c #B3A933",
"/  c #B2A13C",
"(  c #B3A23C",
")  c #B5A33C",
"_  c #B4AF3D",
"`  c #BFAC3B",
"'  c #B8B33C",
"]  c #C5A90F",
"[  c #C7AB0E",
"{  c #CBAE0B",
"}  c #CCAE0B",
"|  c #CAAD0C",
" . c #CFB109",
".. c #CDB00A",
"X. c #CEB00A",
"o. c #D2B307",
"O. c #D3B407",
"+. c #D5B605",
"@. c #D6B605",
"#. c #D7B705",
"$. c #D4B506",
"%. c #D9B803",
"&. c #D9B903",
"*. c #DAB903",
"=. c #DBBA02",
"-. c #DBBA03",
";. c #DCBB01",
":. c #DDBB01",
">. c #DCBA02",
",. c #DCBB02",
"<. c #DDBC01",
"1. c #DEBC00",
"2. c #DEBD00",
"3. c #DFBD00",
"4. c #DFBD01",
"5. c #DFBD02",
"6. c #DFBD03",
"7. c #DFBE03",
"8. c #D8B804",
"9. c #D9B904",
"0. c #DFBD04",
"q. c #DEBD05",
"w. c #DFBD05",
"e. c #DFBD06",
"r. c #DEBD07",
"t. c #D0B109",
"y. c #D1B208",
"u. c #D2B308",
"i. c #D2B50C",
"p. c #DFBD08",
"a. c #DEBC0E",
"s. c #C0A511",
"d. c #C1A611",
"f. c #C0A512",
"g. c #DEBC10",
"h. c #DEBC11",
"j. c #E0BF02",
"k. c #E0BE03",
"l. c #E1BF04",
"z. c #C6B33A",
"x. c #CAB63A",
"c. c #CDB93A",
"v. c #CFBA3A",
"b. c #DEC716",
"n. c #E0C003",
"m. c #E1C104",
"M. c #E1C005",
"N. c #E1C204",
"B. c #E1C205",
"V. c #E1C00B",
"C. c #E1C20D",
"Z. c #E5CA0C",
"A. c #E6CC0D",
"S. c #E7CD0E",
"D. c #E5C610",
"F. c #E6C712",
"G. c #E6C814",
"H. c #E7C814",
"J. c #E7CE1E",
"K. c #E9CB18",
"L. c #EACF19",
"P. c #E9D112",
"I. c #E9D212",
"U. c #E9D213",
"Y. c #E9D115",
"T. c #E9D215",
"R. c #ECD716",
"E. c #ECD717",
"W. c #E8D218",
"Q. c #EAD719",
"!. c #EBD01C",
"~. c #ECD11D",
"^. c #EDD81A",
"/. c #EDD91A",
"(. c #DBC42C",
"). c #D5C92B",
"_. c #D6C039",
"`. c #DBC539",
"'. c #DCC639",
"]. c #DDC739",
"[. c #D5D33B",
"{. c #EBD020",
"}. c #EED124",
"|. c #EED226",
" X c #E7DB27",
".X c #EFDD20",
"XX c #EFD328",
"oX c #EFD329",
"OX c #EFD32D",
"+X c #F0D42B",
"@X c #F0D52C",
"#X c #F0D52D",
"$X c #F1D62F",
"%X c #F1D72F",
"&X c #E2CA39",
"*X c #E6CE39",
"=X c #E4DF35",
"-X c #EED538",
";X c #EFD638",
":X c #F4DD33",
">X c #F3D934",
",X c #F2D835",
"<X c #F4D935",
"1X c #F4DA37",
"2X c #F4DD34",
"3X c #F0D738",
"4X c #F2D838",
"5X c #F3D938",
"6X c #F5DB38",
"7X c #EAE12C",
"8X c #F1E021",
"9X c #F2E322",
"0X c #F2E423",
"qX c #F4E927",
"wX c #F5EA27",
"eX c #F2E128",
"rX c #F3E229",
"tX c #F3E72B",
"yX c #F5EA28",
"uX c #F4EA29",
"iX c #F5EC29",
"pX c #F6EC2A",
"aX c #F6ED2A",
"sX c #F7EE2B",
"dX c #F7EE2C",
"fX c #F8F12D",
"gX c #F9F22F",
"hX c #E4E138",
"jX c #F6E237",
"kX c #F7EE31",
"lX c #F0ED37",
"zX c #F7E238",
"xX c #F7E338",
"cX c #FAF430",
"vX c #FAF136",
"bX c #FBF237",
"nX c #FBF835",
"mX c #FCF834",
"MX c #FCF935",
"NX c #FCFA35",
"BX c #FCF937",
"VX c #FDFA36",
"CX c #FDFB37",
"ZX c #FDFC37",
"AX c #F5F53A",
"SX c #FCF539",
"DX c #FEFC38",
"FX c #FEFD38",
"GX c #FEFE39",
"HX c #FFFE39",
"JX c #FFFE3A",
"KX c #FFFF3A",
"LX c #72751B",
/* pixels */
"LXLXLXLXLXLXLXLXLXLXLXLXLXLXLXLXLXLXLXLXLX. . . . . . LXLXLXLXLXLXLXLXLXLXLXLXLXLXLXLXLXLXLXLXLX",
"LXLXLXLXLXLXLXLXLXLXLXLXLXLXLXLXLXLXLXLXLX% & & & & & LXLXLXLXLXLXLXLXLXLXLXLXLXLXLXLXLXLXLXLXLX",
"LXLXLXLXLXLXLXLXLXLXLXLXLXLXLXLXLXLXLXLX6 R ( ( ( ( E 8 LXLXLXLXLXLXLXLXLXLXLXLXLXLXLXLXLXLXLXLX",
"LXLXLXLXLXLXLXLXLXLXLXLXLXLXLXLXLXLXA S Y &X;X;X;X;X*XT S A 7 LXLXLXLXLXLXLXLXLXLXLXLXLXLXLXLXLX",
"LXLXLXLXLXLXLXLXLXLXLXLXLXLXLX. o S c._.'.3X6X6X6X6X4X]._.v.D # . LXLXLXLXLXLXLXLXLXLXLXLXLXLXLX",
"LXLXLXLXLXLXLXLXLXLXLXLXLXLXC / ) z.-X6X6X6X6X6X6X6X6X6X6X;Xx.~ L * LXLXLXLXLXLXLXLXLXLXLXLXLXLX",
"LXLXLXLXLXLXLXLXLXLXLXLXLXB W 6X6X>X%X:XjXxXxXxXzX2X@X@X@X#X>XoXM.K 1 LXLXLXLXLXLXLXLXLXLXLXLXLX",
"LXLXLXLXLXLXLXLXLXLXLXLX4 ` `.6X<X+X!.rXvXSXSXSXbXeXD.D.D.G.XX|.M.{ p ; LXLXLXLXLXLXLXLXLXLXLXLX",
"LXLXLXLXLXLXLXLXLXLXLXLX5 _.5X1X}.~.8XfXDXKXKXVX0XI.3.3.3.k.F.H.k.3.{ : . LXLXLXLXLXLXLXLXLXLXLX",
"LXLXLXLXLXLXLXLXLXLXLXLX5 _.,X$XL.^.cXZXHXKXNXdXS.B.6.4.3.4.l.l.4.3.{ : . LXLXLXLXLXLXLXLXLXLXLX",
"LXLXLXLXLXLXLXLXLXLXLXLX5 _.OXK..XiXZXKXKXKXwXR.N.e.a.0.3.3.3.3.3.3.{ : . LXLXLXLXLXLXLXLXLXLXLX",
"LXLXLXLXLXLXLXLXLXLXLXZ I (.{.U.gXKXKXKXCXsXP.j.3.r.g.0.3.3.3.3.3.3.y.j 2 LXLXLXLXLXLXLXLXLXLXLX",
"LXLXLXLXLXLXLXLXLXLX$ _ =XW./.mXFXKXGXVXaXA.n.3.3.4.6.3.3.3.3.3.3.3.:.t.9 . . LXLXLXLXLXLXLXLXLX",
"LXLXLXLXLXLXLXLXLXLX$ ' lXqXpXKXKXKXNXwXE.m.3.3.3.3.3.3.3.3.3.3.3.3.3.8.q . . LXLXLXLXLXLXLXLXLX",
"LXLXLXLXLXLXLXLXLXLX@ ^ 7XMXGXKXJXBXtXT.B.3.3.3.3.3.3.3.3.3.3.3.3.3.3.8.q . . LXLXLXLXLXLXLXLXLX",
"LXLXLXLXLXLXLXLXLXLXO P b.gXGXKXDXkXJ.C.7.3.3.3.3.3.3.3.3.3.3.3.3.3.3.8.q . . LXLXLXLXLXLXLXLXLX",
"LXLXLXLXLXLXLXLXLXLX+ !  XmXJXGX9XY.V.w.4.3.3.3.3.3.3.3.3.3.3.3.3.3.3.8.q . . LXLXLXLXLXLXLXLXLX",
"LXLXLXLXLXLXLXLXLXLX$ Q [.AXnXyXZ.3.3.3.3.3.3.3.3.3.3.3.3.3.3.3.3.3.&.d.F . . LXLXLXLXLXLXLXLXLX",
"LXLXLXLXLXLXLXLXLXLXLXV U hXuXA.m.:.*.,.2.3.3.3.3.4.4.3.3.3.3.3.3.3.t.m , LXLXLXLXLXLXLXLXLXLXLX",
"LXLXLXLXLXLXLXLXLXLXLXLX3 ).Q.3.<.o.f...>.3.3.3.3.0.p.5.3.3.3.3.3.3.{ : . LXLXLXLXLXLXLXLXLXLXLX",
"LXLXLXLXLXLXLXLXLXLXLXLX> d i.3.,.[ G u ] | @.1.3.r.h.q.3.3.3.3.3.u.s ; LXLXLXLXLXLXLXLXLXLXLXLX",
"LXLXLXLXLXLXLXLXLXLXLXLXLXx w 3.<.O.t J f m f.>.3.0.p.5.3.3.3.3.3.i z LXLXLXLXLXLXLXLXLXLXLXLXLX",
"LXLXLXLXLXLXLXLXLXLXLXLXLX. v 3.3.3.+.r H N d.>.3.3.3.3.3.3.3.3.3.M . LXLXLXLXLXLXLXLXLXLXLXLXLX",
"LXLXLXLXLXLXLXLXLXLXLXLXLX. k X. .O.,.=.9.8.;.3.3.3.3.3.3.<.$. .X.b . LXLXLXLXLXLXLXLXLXLXLXLXLX",
"LXLXLXLXLXLXLXLXLXLXLXLXLXLX1 M h 0 #.3.3.3.3.3.3.3.3.3.3.8.i g M < LXLXLXLXLXLXLXLXLXLXLXLXLXLX",
"LXLXLXLXLXLXLXLXLXLXLXLXLXLXLX. X = i e a %.3.3.3.3.-.s.e y n   . LXLXLXLXLXLXLXLXLXLXLXLXLXLXLX",
"LXLXLXLXLXLXLXLXLXLXLXLXLXLXLXLXLXLX; : c } 8.8.8.8.t.m : ; LXLXLXLXLXLXLXLXLXLXLXLXLXLXLXLXLXLX",
"LXLXLXLXLXLXLXLXLXLXLXLXLXLXLXLXLXLXLXLXLXl N N N N m - LXLXLXLXLXLXLXLXLXLXLXLXLXLXLXLXLXLXLXLX",
"LXLXLXLXLXLXLXLXLXLXLXLXLXLXLXLXLXLXLXLXLX. . . . . . LXLXLXLXLXLXLXLXLXLXLXLXLXLXLXLXLXLXLXLXLX",
"LXLXLXLXLXLXLXLXLXLXLXLXLXLXLXLXLXLXLXLXLXLXLXLXLXLXLXLXLXLXLXLXLXLXLXLXLXLXLXLXLXLXLXLXLXLXLXLX",
"LXLXLXLXLXLXLXLXLXLXLXLXLXLXLXLXLXLXLXLXLXLXLXLXLXLXLXLXLXLXLXLXLXLXLXLXLXLXLXLXLXLXLXLXLXLXLXLX",
"LXLXLXLXLXLXLXLXLXLXLXLXLXLXLXLXLXLXLXLXLXLXLXLXLXLXLXLXLXLXLXLXLXLXLXLXLXLXLXLXLXLXLXLXLXLXLXLX",
"LXLXLXLXLXLXLXLXLXLXLXLXLXLXLXLXLXLXLXLXLXLXLXLXLXLXLXLXLXLXLXLXLXLXLXLXLXLXLXLXLXLXLXLXLXLXLXLX",
"LXLXLXLXLXLXLXLXLXLXLXLXLXLXLXLXLXLXLXLXLXLXLXLXLXLXLXLXLXLXLXLXLXLXLXLXLXLXLXLXLXLXLXLXLXLXLXLX",
"LXLXLXLXLXLXLXLXLXLXLXLXLXLXLXLXLXLXLXLXLXLXLXLXLXLXLXLXLXLXLXLXLXLXLXLXLXLXLXLXLXLXLXLXLXLXLXLX",
"LXLXLXLXLXLXLXLXLXLXLXLXLXLXLXLXLXLXLXLXLXLXLXLXLXLXLXLXLXLXLXLXLXLXLXLXLXLXLXLXLXLXLXLXLXLXLXLX",
"LXLXLXLXLXLXLXLXLXLXLXLXLXLXLXLXLXLXLXLXLXLXLXLXLXLXLXLXLXLXLXLXLXLXLXLXLXLXLXLXLXLXLXLXLXLXLXLX",
"LXLXLXLXLXLXLXLXLXLXLXLXLXLXLXLXLXLXLXLXLXLXLXLXLXLXLXLXLXLXLXLXLXLXLXLXLXLXLXLXLXLXLXLXLXLXLXLX",
"LXLXLXLXLXLXLXLXLXLXLXLXLXLXLXLXLXLXLXLXLXLXLXLXLXLXLXLXLXLXLXLXLXLXLXLXLXLXLXLXLXLXLXLXLXLXLXLX",
"LXLXLXLXLXLXLXLXLXLXLXLXLXLXLXLXLXLXLXLXLXLXLXLXLXLXLXLXLXLXLXLXLXLXLXLXLXLXLXLXLXLXLXLXLXLXLXLX",
"LXLXLXLXLXLXLXLXLXLXLXLXLXLXLXLXLXLXLXLXLXLXLXLXLXLXLXLXLXLXLXLXLXLXLXLXLXLXLXLXLXLXLXLXLXLXLXLX",
"LXLXLXLXLXLXLXLXLXLXLXLXLXLXLXLXLXLXLXLXLXLXLXLXLXLXLXLXLXLXLXLXLXLXLXLXLXLXLXLXLXLXLXLXLXLXLXLX",
"LXLXLXLXLXLXLXLXLXLXLXLXLXLXLXLXLXLXLXLXLXLXLXLXLXLXLXLXLXLXLXLXLXLXLXLXLXLXLXLXLXLXLXLXLXLXLXLX",
"LXLXLXLXLXLXLXLXLXLXLXLXLXLXLXLXLXLXLXLXLXLXLXLXLXLXLXLXLXLXLXLXLXLXLXLXLXLXLXLXLXLXLXLXLXLXLXLX",
"LXLXLXLXLXLXLXLXLXLXLXLXLXLXLXLXLXLXLXLXLXLXLXLXLXLXLXLXLXLXLXLXLXLXLXLXLXLXLXLXLXLXLXLXLXLXLXLX",
"LXLXLXLXLXLXLXLXLXLXLXLXLXLXLXLXLXLXLXLXLXLXLXLXLXLXLXLXLXLXLXLXLXLXLXLXLXLXLXLXLXLXLXLXLXLXLXLX",
"LXLXLXLXLXLXLXLXLXLXLXLXLXLXLXLXLXLXLXLXLXLXLXLXLXLXLXLXLXLXLXLXLXLXLXLXLXLXLXLXLXLXLXLXLXLXLXLX",
"LXLXLXLXLXLXLXLXLXLXLXLXLXLXLXLXLXLXLXLXLXLXLXLXLXLXLXLXLXLXLXLXLXLXLXLXLXLXLXLXLXLXLXLXLXLXLXLX",
"LXLXLXLXLXLXLXLXLXLXLXLXLXLXLXLXLXLXLXLXLXLXLXLXLXLXLXLXLXLXLXLXLXLXLXLXLXLXLXLXLXLXLXLXLXLXLXLX",
"LXLXLXLXLXLXLXLXLXLXLXLXLXLXLXLXLXLXLXLXLXLXLXLXLXLXLXLXLXLXLXLXLXLXLXLXLXLXLXLXLXLXLXLXLXLXLXLX",
"LXLXLXLXLXLXLXLXLXLXLXLXLXLXLXLXLXLXLXLXLXLXLXLXLXLXLXLXLXLXLXLXLXLXLXLXLXLXLXLXLXLXLXLXLXLXLXLX",
"LXLXLXLXLXLXLXLXLXLXLXLXLXLXLXLXLXLXLXLXLXLXLXLXLXLXLXLXLXLXLXLXLXLXLXLXLXLXLXLXLXLXLXLXLXLXLXLX",
"LXLXLXLXLXLXLXLXLXLXLXLXLXLXLXLXLXLXLXLXLXLXLXLXLXLXLXLXLXLXLXLXLXLXLXLXLXLXLXLXLXLXLXLXLXLXLXLX",
"LXLXLXLXLXLXLXLXLXLXLXLXLXLXLXLXLXLXLXLXLXLXLXLXLXLXLXLXLXLXLXLXLXLXLXLXLXLXLXLXLXLXLXLXLXLXLXLX",
"LXLXLXLXLXLXLXLXLXLXLXLXLXLXLXLXLXLXLXLXLXLXLXLXLXLXLXLXLXLXLXLXLXLXLXLXLXLXLXLXLXLXLXLXLXLXLXLX",
"LXLXLXLXLXLXLXLXLXLXLXLXLXLXLXLXLXLXLXLXLXLXLXLXLXLXLXLXLXLXLXLXLXLXLXLXLXLXLXLXLXLXLXLXLXLXLXLX",
"LXLXLXLXLXLXLXLXLXLXLXLXLXLXLXLXLXLXLXLXLXLXLXLXLXLXLXLXLXLXLXLXLXLXLXLXLXLXLXLXLXLXLXLXLXLXLXLX",
"LXLXLXLXLXLXLXLXLXLXLXLXLXLXLXLXLXLXLXLXLXLXLXLXLXLXLXLXLXLXLXLXLXLXLXLXLXLXLXLXLXLXLXLXLXLXLXLX",
"LXLXLXLXLXLXLXLXLXLXLXLXLXLXLXLXLXLXLXLXLXLXLXLXLXLXLXLXLXLXLXLXLXLXLXLXLXLXLXLXLXLXLXLXLXLXLXLX",
"LXLXLXLXLXLXLXLXLXLXLXLXLXLXLXLXLXLXLXLXLXLXLXLXLXLXLXLXLXLXLXLXLXLXLXLXLXLXLXLXLXLXLXLXLXLXLXLX"
};
