/* XPM */
static char *result[] = {
/* columns rows colors chars-per-pixel */
"48 60 89 1 ",
"  c #71693F",
". c #786F3F",
"X c #7C733E",
"o c #7F783E",
"O c #827635",
"+ c #867933",
"@ c #8C7D30",
"# c #857B3E",
"$ c #8A7F3E",
"% c #AD961D",
"& c #BDA314",
"* c #BFA71F",
"= c #9E8B26",
"- c #95852A",
"; c #988729",
": c #8F833E",
"> c #9C8E31",
", c #92863E",
"< c #96893D",
"1 c #9B8D3C",
"2 c #9C913C",
"3 c #9F993D",
"4 c #A28F23",
"5 c #A2933C",
"6 c #A39C3D",
"7 c #AC9C3C",
"8 c #B09F3C",
"9 c #BAA62E",
"0 c #BDA82A",
"q c #BEB02A",
"w c #BAAD31",
"e c #B3A23C",
"r c #BFAC3B",
"t c #BEB53C",
"y c #CBAE0B",
"u c #DCBB02",
"i c #D0B109",
"p c #C2A711",
"a c #DABE1C",
"s c #E0BE02",
"d c #C1AE3B",
"f c #C6B23B",
"g c #CAB63A",
"h c #C2BE3C",
"j c #CEB93A",
"k c #D1BC3A",
"l c #DFCA1B",
"z c #E2C106",
"x c #E4C50D",
"c c #E6C712",
"v c #E7C914",
"b c #E8C916",
"n c #E2C81B",
"m c #EACC1B",
"M c #EDD61F",
"N c #EEDA1D",
"B c #CECA3C",
"V c #D6C039",
"C c #DBC539",
"Z c #DDC939",
"A c #ECCF21",
"S c #EED325",
"D c #EFD329",
"F c #F1D52C",
"G c #F3DD2F",
"H c #E3CB39",
"J c #EBD338",
"K c #EFDE39",
"L c #F2D731",
"P c #F4DA35",
"I c #F0D638",
"U c #F5DB38",
"Y c #E8E02E",
"T c #F5E927",
"R c #F6EB2D",
"E c #EBE93B",
"W c #F7E533",
"Q c #F9EC36",
"! c #F6E238",
"~ c #F8E539",
"^ c #F2ED39",
"/ c #F9EB39",
"( c #F5F237",
") c #FAF434",
"_ c #FDFA35",
"` c #F3F33B",
"' c #FCF439",
"] c #FFFE3A",
"[ c #72751B",
/* pixels */
"[[[[[[[[[[[[[[[[[[[        [[[[[[[[[[[[[[[[[[[[[",
"[[[[[[[[[[[[[[[[[[[oX#X#X.#[[[[[[[[[[[[[[[[[[[[[",
"[[[[[[[[[[[[[[[[[[#57eeeee8$[[[[[[[[[[[[[[[[[[[[",
"[[[[[[[[[[[[[[[[[[5gJIIJIIH7<<$[[[[[[[[[[[[[[[[[",
"[[[[[[[[[[[[[[[[.<kJUUUUUUIZVk1X[[[[[[[[[[[[[[[[",
"[[[[[[[[[[[[[[[ 7fJUUUUUUUUUUJg7X[[[[[[[[[[[[[[[",
"[[[[[[[[[[[[[[[,VUUUUUUUUU!UUUUZ1#[[[[[[[[[[[[[[",
"[[[[[[[[[[[[[.1kJUUUUUUUU~'!UUUJk1.[[[[[[[[[[[[[",
"[[[[[[[[[[[[#5gUUUUUUUUU/']/~UULA04O[[[[[[[[[[[[",
"[[[[[[[[[[[[#kJUUPLPUUU~']]]'~PSsupO[[[[[[[[[[[[",
"[[[[[[[[[[[[#kIUUFmFPU~']]]]])SvssyO [[[[[[[[[[[",
"[[[[[[[[[[[:5HUUFAmDP~']]]]]]_Ncssi=@[[[[[[[[[[[",
"[[[[[[[[[[X7ZIUPmcFP!']]]]]]]]WSzsuy%  [[[[[[[[[",
"[[[[[[[[[[.eJUUUccL~']]]]]]]'/PFzusu%  [[[[[[[[[",
"[[[[[[[[[[XeJUUPvvW']]]]]]]'/!UFvuuu%  [[[[[[[[[",
"[[[[[[[[[[.eHUUPcv)]]]]]]]]~!PUUFcuu%  [[[[[[[[[",
"[[[[[[[[[[.eHUUUqq`]]]]]]]~!FmFPUvuu%  [[[[[[[[[",
"[[[[[[[[[[.7jJU!2>Y_]]]]'~PPFmFPUvup4  [[[[[[[[[",
"[[[[[[[[[[[$5Z~`6>lT)]]'~!UPLFPPUvi;O[[[[[[[[[[[",
"[[[[[[[[[[[[#Z^]B9nNT_]'!UPFFPUUUmyO [[[[[[[[[[[",
"[[[[[[[[[[[[$BE]`EPNN)WGFFFmmLUUUa&O[[[[[[[[[[[[",
"[[[[[[[[[[[[[3h]]_)RTWSbbcbAFPUUU9-[[[[[[[[[[[[[",
"[[[[[[[[[[[[[[2B`]]]/USbbbmFUUUJg< [[[[[[[[[[[[[",
"[[[[[[[[[[[[[[[oBE'~!UPPPPPUUIJg#[[[[[[[[[[[[[[[",
"[[[[[[[[[[[[[[[[6tU!UUUUPUUUUJd5[[[[[[[[[[[[[[[[",
"[[[[[[[[[[[[[[[[[,rffdHIUUIjfd1.[[[[[[[[[[[[[[[[",
"[[[[[[[[[[[[[[[[[[####dJJJH5##[[[[[[[[[[[[[[[[[[",
"[[[[[[[[[[[[[[[[[[[[[[15555#[[[[[[[[[[[[[[[[[[[[",
"[[[[[[[[[[[[[[[[[[[[[[[    [[[[[[[[[[[[[[[[[[[[[",
"[[[[[[[[[[[[[[[[[[[[[[[[[[[[[[[[[[[[[[[[[[[[[[[[",
"[[[[[[[[[[[[[[[[[[[[[[[[[[[[[[[[[[[[[[[[[[[[[[[[",
"[[[[[[[[[[[[[[[[[[[[[[[[[[[[[[[[[[[[[[[[[[[[[[[[",
"[[[[[[[[[[[[[[[[[[[[[[[[[[[[[[[[[[[[[[[[[[[[[[[[",
"[[[[[[[[[[[[[[[[[[[[[[[[[[[[[[[[[[[[[[[[[[[[[[[[",
"[[[[[[[[[[[[[[[[[[[[[[[[[[[[[[[[[[[[[[[[[[[[[[[[",
"[[[[[[[[[[[[[[[[[[[[[[[[[[[[[[[[[[[[[[[[[[[[[[[[",
"[[[[[[[[[[[[[[[[[[[[[[[[[[[[[[[[[[[[[[[[[[[[[[[[",
"[[[[[[[[[[[[[[[[[[[[[[[[[[[[[[[[[[[[[[[[[[[[[[[[",
"[[[[[[[[[[[[[[[[[[[[[[[[[[[[[[[[[[[[[[[[[[[[[[[[",
"[[[[[[[[[[[[[[[[[[[[[[[[[[[[[[[[[[[[[[[[[[[[[[[[",
"[[[[[[[[[[[[[[[[[[[[[[[[[[[[[[[[[[[[[[[[[[[[[[[[",
"[[[[[[[[[[[[[[[[[[[[[[[[[[[[[[[[[[[[[[[[[[[[[[[[",
"[[[[[[[[[[[[[[[[[[[[[[[[[[[[[[[[[[[[[[[[[[[[[[[[",
"[[[[[[[[[[[[[[[[[[[[[[[[[[[[[[[[[[[[[[[[[[[[[[[[",
"[[[[[[[[[[[[[[[[[[[[[[[[[[[[[[[[[[[[[[[[[[[[[[[[",
"[[[[[[[[[[[[[[[[[[[[[[[[[[[[[[[[[[[[[[[[[[[[[[[[",
"[[[[[[[[[[[[[[[[[[[[[[[[[[[[[[[[[[[[[[[[[[[[[[[[",
"[[[[[[[[[[[[[[[[[[[[[[[[[[[[[[[[[[[[[[[[[[[[[[[[",
"[[[[[[[[[[[[[[[[[[[[[[[[[[[[[[[[[[[[[[[[[[[[[[[[",
"[[[[[[[[[[[[[[[[[[[[[[[[[[[[[[[[[[[[[[[[[[[[[[[[",
"[[[[[[[[[[[[[[[[[[[[[[[[[[[[[[[[[[[[[[[[[[[[[[[[",
"[[[[[[[[[[[[[[[[[[[[[[[[[[[[[[[[[[[[[[[[[[[[[[[[",
"[[[[[[[[[[[[[[[[[[[[[[[[[[[[[[[[[[[[[[[[[[[[[[[[",
"[[[[[[[[[[[[[[[[[[[[[[[[[[[[[[[[[[[[[[[[[[[[[[[[",
"[[[[[[[[[[[[[[[[[[[[[[[[[[[[[[[[[[[[[[[[[[[[[[[[",
"[[[[[[[[[[[[[[[[[[[[[[[[[[[[[[[[[[[[[[[[[[[[[[[[",
"[[[[[[[[[[[[[[[[[[[[[[[[[[[[[[[[[[[[[[[[[[[[[[[[",
"[[[[[[[[[[[[[[[[[[[[[[[[[[[[[[[[[[[[[[[[[[[[[[[[",
"[[[[[[[[[[[[[[[[[[[[[[[[[[[[[[[[[[[[[[[[[[[[[[[[",
"[[[[[[[[[[[[[[[[[[[[[[[[[[[[[[[[[[[[[[[[[[[[[[[["
};
