/* XPM */
static char *result[] = {
/* columns rows colors chars-per-pixel */
"48 60 248 2 ",
"   c #71693F",
".  c #756C3D",
"X  c #766E3C",
"o  c #786E3B",
"O  c #7E7337",
"+  c #7F7437",
"@  c #7C733A",
"#  c #7D7439",
"$  c #8E7F2F",
"%  c #827635",
"&  c #837635",
"*  c #817536",
"=  c #807437",
"-  c #827736",
";  c #877A32",
":  c #827937",
">  c #897B31",
",  c #8A7B31",
"<  c #887A32",
"1  c #897B32",
"2  c #887D35",
"3  c #857C3B",
"4  c #867F3E",
"5  c #A8931F",
"6  c #AC961D",
"7  c #AE971C",
"8  c #B79E17",
"9  c #B89F17",
"0  c #B0991B",
"q  c #B19A1B",
"w  c #B29A1A",
"e  c #B69D18",
"r  c #BFA412",
"t  c #BFA512",
"y  c #BEA413",
"u  c #B9A015",
"i  c #B9A21A",
"p  c #BBA61C",
"a  c #BBAC1E",
"s  c #9A8927",
"d  c #9C8927",
"f  c #9D8B26",
"g  c #9F8C25",
"h  c #93832B",
"j  c #978629",
"k  c #94842A",
"l  c #96852A",
"z  c #92822C",
"x  c #93822C",
"c  c #988629",
"v  c #988729",
"b  c #958A2F",
"n  c #978B2E",
"m  c #978C2E",
"M  c #998828",
"N  c #9A8828",
"B  c #8C8133",
"V  c #8D8233",
"C  c #87803E",
"Z  c #8C8339",
"A  c #8A833E",
"S  c #8E873E",
"D  c #8E883E",
"F  c #928630",
"G  c #948935",
"H  c #928939",
"J  c #90893D",
"K  c #9A943D",
"L  c #9B953E",
"P  c #A28E23",
"I  c #A38F23",
"U  c #A08C24",
"Y  c #A79220",
"T  c #A79927",
"R  c #AB9A22",
"E  c #AD9A23",
"W  c #A29529",
"Q  c #A49728",
"!  c #A49729",
"~  c #A2962C",
"^  c #A49C34",
"/  c #A49E3D",
"(  c #B1A323",
")  c #B3A422",
"_  c #B5A621",
"`  c #B3A125",
"'  c #B7A820",
"]  c #A5A03D",
"[  c #B9B53C",
"{  c #B9B63C",
"}  c #C5A90F",
"|  c #C6A90F",
" . c #C5AA0F",
".. c #CBAE0B",
"X. c #CCAE0B",
"o. c #C8AB0D",
"O. c #C9AC0C",
"+. c #CAAD0C",
"@. c #CCB00C",
"#. c #CDB20F",
"$. c #D3B407",
"%. c #D7B705",
"&. c #D4B406",
"*. c #D9B803",
"=. c #D9B903",
"-. c #DAB903",
";. c #DBBA02",
":. c #DCBB02",
">. c #DDBB02",
",. c #DDBC01",
"<. c #DEBC00",
"1. c #DEBD00",
"2. c #DFBD00",
"3. c #DEBC01",
"4. c #DFBE00",
"5. c #D8B804",
"6. c #D9B804",
"7. c #D1B308",
"8. c #D2B40A",
"9. c #DBBF09",
"0. c #C2A611",
"q. c #C2A711",
"w. c #C0A612",
"e. c #C4A810",
"r. c #C5B519",
"t. c #D0BF14",
"y. c #D0BF15",
"u. c #D4BE16",
"i. c #E0BE00",
"p. c #E0BF00",
"a. c #E0BE01",
"s. c #E0BF01",
"d. c #E0BF02",
"f. c #C4BC33",
"g. c #C1BD3C",
"h. c #DFC109",
"j. c #DCCA0F",
"k. c #DDCA0F",
"l. c #DECB0F",
"z. c #D4C213",
"x. c #D5C313",
"c. c #D8C512",
"v. c #E1C000",
"b. c #E2C200",
"n. c #E3C300",
"m. c #E1C103",
"M. c #E3C602",
"N. c #E5C500",
"B. c #E5C600",
"V. c #E6C700",
"C. c #E2C305",
"Z. c #E2C406",
"A. c #E3C507",
"S. c #E7CA05",
"D. c #E8C900",
"F. c #E8CA00",
"G. c #EACD00",
"H. c #E3C508",
"J. c #E3C608",
"K. c #E4C80A",
"L. c #E5CB0C",
"P. c #E7CF0F",
"I. c #ECD405",
"U. c #E6D30B",
"Y. c #E3D00C",
"T. c #EDD60C",
"R. c #F0D400",
"E. c #F1D600",
"W. c #F3D900",
"Q. c #F5DA00",
"!. c #F4DA02",
"~. c #F5DC00",
"^. c #F6DD00",
"/. c #F0DC07",
"(. c #F4DF05",
"). c #F8DF00",
"_. c #F2DB08",
"`. c #F1DF0D",
"'. c #E2CD17",
"]. c #E5CF16",
"[. c #EAD314",
"{. c #EAD415",
"}. c #ECD717",
"|. c #ECD818",
" X c #EDDA19",
".X c #EDDA1A",
"XX c #EEDB1B",
"oX c #EFDE1B",
"OX c #EBD91C",
"+X c #EFDE1D",
"@X c #F5E004",
"#X c #F9E000",
"$X c #F8E303",
"%X c #FCE500",
"&X c #FCE600",
"*X c #FDE600",
"=X c #FDE700",
"-X c #FCE701",
";X c #F9E304",
":X c #FFE800",
">X c #FFE900",
",X c #FEE801",
"<X c #FFEA00",
"1X c #F0E01F",
"2X c #F2E31F",
"3X c #FDF21E",
"4X c #DBCF29",
"5X c #DCD029",
"6X c #C8C136",
"7X c #CDCA3B",
"8X c #CCC93C",
"9X c #DDD632",
"0X c #D4D13C",
"qX c #D8D63B",
"wX c #DFDD3B",
"eX c #F1E120",
"rX c #F3E624",
"tX c #F5EA28",
"yX c #F7EF2C",
"uX c #F8EF2C",
"iX c #F8F02D",
"pX c #F9F22F",
"aX c #EAE533",
"sX c #E1E03B",
"dX c #E4E038",
"fX c #E5E43B",
"gX c #E6E43A",
"hX c #EFEE3B",
"jX c #F9F430",
"kX c #FAF430",
"lX c #FAF531",
"zX c #FAF532",
"xX c #FBF733",
"cX c #FCF834",
"vX c #FCFA35",
"bX c #FDFB35",
"nX c #FDFB37",
"mX c #FEFC37",
"MX c #F6F539",
"NX c #FBFA3A",
"BX c #FBFB3A",
"VX c #FEFC38",
"CX c #FEFD38",
"ZX c #FEFD39",
"AX c #FEFE39",
"SX c #FFFE39",
"DX c #FFFF3A",
"FX c None",
/* pixels */
"FXFXFXFXFXFXFXFXFXFXFXFXFXFXFXFXFXFXFXFXFXFXFXFXFXFXFXFXFXFXFXFXFXFXFXFXFXFXFXFXFXFXFXFXFXFXFXFX",
"FXFXFXFXFXFXFXFXFXFXFXFXFXFXFXFXFXFXFXFXFXFXFXFXFXFXFXFXFXFXFXFXFXFXFXFXFXFXFXFXFXFXFXFXFXFXFXFX",
"FXFXFXFXFXFXFXFXFXFXFXFXFXFXFXFXFXFXFXFXFX          FXFXFXFXFXFXFXFXFXFXFXFXFXFXFXFXFXFXFXFXFXFX",
"FXFXFXFXFXFXFXFXFXFXFXFXFXFXFXFXFXFXFXFXFXb m m n F FXFXFXFXFXFXFXFXFXFXFXFXFXFXFXFXFXFXFXFXFXFX",
"FXFXFXFXFXFXFXFXFXFXFXFXFXFXFXFXFXFX    B t.l.l.k.a     FXFXFXFXFXFXFXFXFXFXFXFXFXFXFXFXFXFXFXFX",
"FXFXFXFXFXFXFXFXFXFXFXFXFXFXFXFXX F ) ' r.(.>X>X,XY.' _ T 2 FXFXFXFXFXFXFXFXFXFXFXFXFXFXFXFXFXFX",
"FXFXFXFXFXFXFXFXFXFXFXFXFXFXFX1 $ R I.).).).%X>X>X>X>X$Xx.! FXFXFXFXFXFXFXFXFXFXFXFXFXFXFXFXFXFX",
"FXFXFXFXFXFXFXFXFXFXFXFXFX  z w.q.@.M.F.F.F.Q.*X>X>X<X-X/.c.W : FXFXFXFXFXFXFXFXFXFXFXFXFXFXFXFX",
"FXFXFXFXFXFXFXFXFXFXFXFXFX  l 2.2.2.2.2.2.2.F.E.%X>X>X<X>X$Xy.( @ FXFXFXFXFXFXFXFXFXFXFXFXFXFXFX",
"FXFXFXFXFXFXFXFXFXFXFXFXFX= U 2.1.-.&.5.3.2.v.V.^.%X>X<X<X,X@Xz.# FXFXFXFXFXFXFXFXFXFXFXFXFXFXFX",
"FXFXFXFXFXFXFXFXFXFXFX  O Y t 2.:.X.0 e.-.2.2.v.G.W.>X>X>X<X>Xj.# FXFXFXFXFXFXFXFXFXFXFXFXFXFXFX",
"FXFXFXFXFXFXFXFXFXFXFX  =  .,.3.| q P y 6.2.2.2.4.D.^.*X>X<X>XU.Q V FXFXFXFXFXFXFXFXFXFXFXFXFXFX",
"FXFXFXFXFXFXFXFXFXFXFX  =  .,.:.d j ..-.<.2.2.2.2.p.B.#X>X:X&X;X`.~   FXFXFXFXFXFXFXFXFXFXFXFXFX",
"FXFXFXFXFXFXFXFXFXFXFX  =  .,.;.k x $.2.2.2.2.2.2.2.b.).>X=XW._.3X^   FXFXFXFXFXFXFXFXFXFXFXFXFX",
"FXFXFXFXFXFXFXFXFXFXFX  =  .,.;.k x $.2.2.2.2.2.2.2.v.R.~.!.T.oXbXg.L FXFXFXFXFXFXFXFXFXFXFXFXFX",
"FXFXFXFXFXFXFXFXFXFXFX  =  .,.;.k x $.2.2.2.2.2.2.2.i.n.N.S.2XjXSXhX0X4   FXFXFXFXFXFXFXFXFXFXFX",
"FXFXFXFXFXFXFXFXFXFXFX  =  .,.;.k x $.2.2.2.2.2.2.2.2.d.L.+XlXZXDXDXfXC   FXFXFXFXFXFXFXFXFXFXFX",
"FXFXFXFXFXFXFXFXFXFXFX  + w O.>.5 g r 7.:.2.2.2.2.2.d.P.eXxXDXDXDXDXfXC   FXFXFXFXFXFXFXFXFXFXFX",
"FXFXFXFXFXFXFXFXFXFXFXFXFX> Y 3.+.e I y 6.2.2.2.2.s.J.rXzXVXDXDXDXVXdX4   FXFXFXFXFXFXFXFXFXFXFX",
"FXFXFXFXFXFXFXFXFXFXFXFXFX  l 2.:.+.6 0.=.2.2.2.2.J. XzXDXDXDXDXDXyX4X3   FXFXFXFXFXFXFXFXFXFXFX",
"FXFXFXFXFXFXFXFXFXFXFXFXFX  h ..*.:.5.;.<.2.2.d.K.XXvXAXDXDXDXmXkX{.#.-   FXFXFXFXFXFXFXFXFXFXFX",
"FXFXFXFXFXFXFXFXFXFXFXFXFXFX< s ..2.2.2.2.2.2.Z.1XiXDXDXDXDXDXlX|.H...%   FXFXFXFXFXFXFXFXFXFXFX",
"FXFXFXFXFXFXFXFXFXFXFXFXFXFXFX. w.2.2.2.2.2.o.p 6XwXDXDXDXCXyX+Xm.} 7 *   FXFXFXFXFXFXFXFXFXFXFX",
"FXFXFXFXFXFXFXFXFXFXFXFXFXFXFX. 9 $.,.2.d.A.` H J { DXSXnXpX[.C.4.f o FXFXFXFXFXFXFXFXFXFXFXFXFX",
"FXFXFXFXFXFXFXFXFXFXFXFXFXFXFXFXc 7 %.2.A.1X9X7X8XwXDXVXyX.XH.a.2.M   FXFXFXFXFXFXFXFXFXFXFXFXFX",
"FXFXFXFXFXFXFXFXFXFXFXFXFXFXFXFXFX$ i u.OXcXDXDXDXDXVXtX}.h.} u 8 z   FXFXFXFXFXFXFXFXFXFXFXFXFX",
"FXFXFXFXFXFXFXFXFXFXFXFXFXFXFXFXFXFXG f.aXMXBXDXDXAXzX].9.8.I < & FXFXFXFXFXFXFXFXFXFXFXFXFXFXFX",
"FXFXFXFXFXFXFXFXFXFXFXFXFXFXFXFXFXFXFXK / ] qXNXSXuX'.E N v > FXFXFXFXFXFXFXFXFXFXFXFXFXFXFXFXFX",
"FXFXFXFXFXFXFXFXFXFXFXFXFXFXFXFXFXFXFXFX    [ sXgX5Xe.,     FXFXFXFXFXFXFXFXFXFXFXFXFXFXFXFXFXFX",
"FXFXFXFXFXFXFXFXFXFXFXFXFXFXFXFXFXFXFXFXFXFXA S D Z ; FXFXFXFXFXFXFXFXFXFXFXFXFXFXFXFXFXFXFXFXFX",
"FXFXFXFXFXFXFXFXFXFXFXFXFXFXFXFXFXFXFXFXFXFXFX      FXFXFXFXFXFXFXFXFXFXFXFXFXFXFXFXFXFXFXFXFXFX",
"FXFXFXFXFXFXFXFXFXFXFXFXFXFXFXFXFXFXFXFXFXFXFXFXFXFXFXFXFXFXFXFXFXFXFXFXFXFXFXFXFXFXFXFXFXFXFXFX",
"FXFXFXFXFXFXFXFXFXFXFXFXFXFXFXFXFXFXFXFXFXFXFXFXFXFXFXFXFXFXFXFXFXFXFXFXFXFXFXFXFXFXFXFXFXFXFXFX",
"FXFXFXFXFXFXFXFXFXFXFXFXFXFXFXFXFXFXFXFXFXFXFXFXFXFXFXFXFXFXFXFXFXFXFXFXFXFXFXFXFXFXFXFXFXFXFXFX",
"FXFXFXFXFXFXFXFXFXFXFXFXFXFXFXFXFXFXFXFXFXFXFXFXFXFXFXFXFXFXFXFXFXFXFXFXFXFXFXFXFXFXFXFXFXFXFXFX",
"FXFXFXFXFXFXFXFXFXFXFXFXFXFXFXFXFXFXFXFXFXFXFXFXFXFXFXFXFXFXFXFXFXFXFXFXFXFXFXFXFXFXFXFXFXFXFXFX",
"FXFXFXFXFXFXFXFXFXFXFXFXFXFXFXFXFXFXFXFXFXFXFXFXFXFXFXFXFXFXFXFXFXFXFXFXFXFXFXFXFXFXFXFXFXFXFXFX",
"FXFXFXFXFXFXFXFXFXFXFXFXFXFXFXFXFXFXFXFXFXFXFXFXFXFXFXFXFXFXFXFXFXFXFXFXFXFXFXFXFXFXFXFXFXFXFXFX",
"FXFXFXFXFXFXFXFXFXFXFXFXFXFXFXFXFXFXFXFXFXFXFXFXFXFXFXFXFXFXFXFXFXFXFXFXFXFXFXFXFXFXFXFXFXFXFXFX",
"FXFXFXFXFXFXFXFXFXFXFXFXFXFXFXFXFXFXFXFXFXFXFXFXFXFXFXFXFXFXFXFXFXFXFXFXFXFXFXFXFXFXFXFXFXFXFXFX",
"FXFXFXFXFXFXFXFXFXFXFXFXFXFXFXFXFXFXFXFXFXFXFXFXFXFXFXFXFXFXFXFXFXFXFXFXFXFXFXFXFXFXFXFXFXFXFXFX",
"FXFXFXFXFXFXFXFXFXFXFXFXFXFXFXFXFXFXFXFXFXFXFXFXFXFXFXFXFXFXFXFXFXFXFXFXFXFXFXFXFXFXFXFXFXFXFXFX",
"FXFXFXFXFXFXFXFXFXFXFXFXFXFXFXFXFXFXFXFXFXFXFXFXFXFXFXFXFXFXFXFXFXFXFXFXFXFXFXFXFXFXFXFXFXFXFXFX",
"FXFXFXFXFXFXFXFXFXFXFXFXFXFXFXFXFXFXFXFXFXFXFXFXFXFXFXFXFXFXFXFXFXFXFXFXFXFXFXFXFXFXFXFXFXFXFXFX",
"FXFXFXFXFXFXFXFXFXFXFXFXFXFXFXFXFXFXFXFXFXFXFXFXFXFXFXFXFXFXFXFXFXFXFXFXFXFXFXFXFXFXFXFXFXFXFXFX",
"FXFXFXFXFXFXFXFXFXFXFXFXFXFXFXFXFXFXFXFXFXFXFXFXFXFXFXFXFXFXFXFXFXFXFXFXFXFXFXFXFXFXFXFXFXFXFXFX",
"FXFXFXFXFXFXFXFXFXFXFXFXFXFXFXFXFXFXFXFXFXFXFXFXFXFXFXFXFXFXFXFXFXFXFXFXFXFXFXFXFXFXFXFXFXFXFXFX",
"FXFXFXFXFXFXFXFXFXFXFXFXFXFXFXFXFXFXFXFXFXFXFXFXFXFXFXFXFXFXFXFXFXFXFXFXFXFXFXFXFXFXFXFXFXFXFXFX",
"FXFXFXFXFXFXFXFXFXFXFXFXFXFXFXFXFXFXFXFXFXFXFXFXFXFXFXFXFXFXFXFXFXFXFXFXFXFXFXFXFXFXFXFXFXFXFXFX",
"FXFXFXFXFXFXFXFXFXFXFXFXFXFXFXFXFXFXFXFXFXFXFXFXFXFXFXFXFXFXFXFXFXFXFXFXFXFXFXFXFXFXFXFXFXFXFXFX",
"FXFXFXFXFXFXFXFXFXFXFXFXFXFXFXFXFXFXFXFXFXFXFXFXFXFXFXFXFXFXFXFXFXFXFXFXFXFXFXFXFXFXFXFXFXFXFXFX",
"FXFXFXFXFXFXFXFXFXFXFXFXFXFXFXFXFXFXFXFXFXFXFXFXFXFXFXFXFXFXFXFXFXFXFXFXFXFXFXFXFXFXFXFXFXFXFXFX",
"FXFXFXFXFXFXFXFXFXFXFXFXFXFXFXFXFXFXFXFXFXFXFXFXFXFXFXFXFXFXFXFXFXFXFXFXFXFXFXFXFXFXFXFXFXFXFXFX",
"FXFXFXFXFXFXFXFXFXFXFXFXFXFXFXFXFXFXFXFXFXFXFXFXFXFXFXFXFXFXFXFXFXFXFXFXFXFXFXFXFXFXFXFXFXFXFXFX",
"FXFXFXFXFXFXFXFXFXFXFXFXFXFXFXFXFXFXFXFXFXFXFXFXFXFXFXFXFXFXFXFXFXFXFXFXFXFXFXFXFXFXFXFXFXFXFXFX",
"FXFXFXFXFXFXFXFXFXFXFXFXFXFXFXFXFXFXFXFXFXFXFXFXFXFXFXFXFXFXFXFXFXFXFXFXFXFXFXFXFXFXFXFXFXFXFXFX",
"FXFXFXFXFXFXFXFXFXFXFXFXFXFXFXFXFXFXFXFXFXFXFXFXFXFXFXFXFXFXFXFXFXFXFXFXFXFXFXFXFXFXFXFXFXFXFXFX",
"FXFXFXFXFXFXFXFXFXFXFXFXFXFXFXFXFXFXFXFXFXFXFXFXFXFXFXFXFXFXFXFXFXFXFXFXFXFXFXFXFXFXFXFXFXFXFXFX",
"FXFXFXFXFXFXFXFXFXFXFXFXFXFXFXFXFXFXFXFXFXFXFXFXFXFXFXFXFXFXFXFXFXFXFXFXFXFXFXFXFXFXFXFXFXFXFXFX",
"FXFXFXFXFXFXFXFXFXFXFXFXFXFXFXFXFXFXFXFXFXFXFXFXFXFXFXFXFXFXFXFXFXFXFXFXFXFXFXFXFXFXFXFXFXFXFXFX"
};
