/* XPM */
static char *result[] = {
/* columns rows colors chars-per-pixel */
"48 60 177 2 ",
"   c #71693F",
".  c #766D3F",
"X  c #766E3F",
"o  c #7A6F3A",
"O  c #7B7039",
"+  c #7A703A",
"@  c #7B703A",
"#  c #7B713A",
"$  c #79713F",
"%  c #7C733E",
"&  c #7C743F",
"*  c #7D763F",
"=  c #807437",
"-  c #827737",
";  c #857933",
":  c #80793E",
">  c #857D3D",
",  c #857E3E",
"<  c #857F3E",
"1  c #897E3D",
"2  c #BFA512",
"3  c #8F802E",
"4  c #9F8C25",
"5  c #96852A",
"6  c #90812D",
"7  c #87813E",
"8  c #88813E",
"9  c #8B813E",
"0  c #8B843E",
"q  c #8E873D",
"w  c #8F843E",
"e  c #8D873E",
"r  c #908A3E",
"t  c #95893D",
"y  c #958F3E",
"u  c #998C3D",
"i  c #9A8D3D",
"p  c #9C8E3D",
"a  c #9D9639",
"s  c #99933D",
"d  c #9B963E",
"f  c #9C963D",
"g  c #9D973D",
"h  c #A79220",
"j  c #B19E22",
"k  c #A4963D",
"l  c #A29D3D",
"z  c #A49E3D",
"x  c #A59F3D",
"c  c #A6A03D",
"v  c #ACA53A",
"b  c #A9A33D",
"n  c #B4A33B",
"m  c #B0AC3D",
"M  c #BDB737",
"N  c #BAB53A",
"B  c #B8B43D",
"V  c #BAB63C",
"C  c #C4A80F",
"Z  c #C5AA0F",
"A  c #CCAE0B",
"S  c #DABA03",
"D  c #DBBA03",
"F  c #DEBD00",
"G  c #DFBD00",
"H  c #D8B804",
"J  c #C0A611",
"K  c #C1A611",
"L  c #C8AE1A",
"P  c #C3B63B",
"I  c #C6B73B",
"U  c #C0BC3C",
"Y  c #C0BD3C",
"T  c #C2BF3C",
"R  c #D3BD35",
"E  c #D4C11D",
"W  c #E4C40D",
"Q  c #E5C90A",
"!  c #E4C80B",
"~  c #E9D112",
"^  c #EAD414",
"/  c #EEDC1B",
"(  c #EADA1F",
")  c #C7C33A",
"_  c #C9C63C",
"`  c #CCC93C",
"'  c #CFCD3C",
"]  c #D4CB30",
"[  c #D5C03A",
"{  c #D0CD3A",
"}  c #D2CF3B",
"|  c #D0CC3C",
" . c #D1CF3C",
".. c #D7D43A",
"X. c #D6D43B",
"o. c #D7D53B",
"O. c #D2D03C",
"+. c #D4D23C",
"@. c #DDD63B",
"#. c #D8D63C",
"$. c #DAD83C",
"%. c #EFD823",
"&. c #EFD428",
"*. c #E7DD29",
"=. c #E8DF2E",
"-. c #E1CA39",
";. c #E8CF39",
":. c #EFDE39",
">. c #F3D832",
",. c #F4DA36",
"<. c #F1D938",
"1. c #F0DA39",
"2. c #F5DB38",
"3. c #F5DC38",
"4. c #F6DD38",
"5. c #F2E322",
"6. c #F2E223",
"7. c #F3E624",
"8. c #F4E725",
"9. c #F6ED2A",
"0. c #F7ED2B",
"q. c #EEE831",
"w. c #EEE933",
"e. c #E8E73B",
"r. c #E9E73B",
"t. c #EAE93B",
"y. c #EDEB39",
"u. c #EFEE3B",
"i. c #F4EF33",
"p. c #F6E038",
"a. c #F7E138",
"s. c #F7E338",
"d. c #F8E438",
"f. c #F8E539",
"g. c #F8E638",
"h. c #F3E939",
"j. c #FAEC38",
"k. c #FAF531",
"l. c #FAF533",
"z. c #FBF837",
"x. c #FDFA36",
"c. c #FDFB36",
"v. c #FDFB37",
"b. c #FDFC37",
"n. c #F2F13A",
"m. c #F3F23A",
"M. c #F3F33A",
"N. c #F4F33A",
"B. c #F6F33A",
"V. c #F5F43A",
"C. c #F5F53A",
"Z. c #F7F63A",
"A. c #FBF039",
"S. c #FBF139",
"D. c #FBF23A",
"F. c #FCF239",
"G. c #FCF439",
"H. c #FDF639",
"J. c #FBFA3A",
"K. c #FBFB3A",
"L. c #FDF839",
"P. c #FDF939",
"I. c #FDF93A",
"U. c #FDFA3A",
"Y. c #FEFB3A",
"T. c #FEFC38",
"R. c #FEFD38",
"E. c #FEFE39",
"W. c #FFFE39",
"Q. c #FDFC3A",
"!. c #FDFD3A",
"~. c #FEFC3A",
"^. c #FEFD3A",
"/. c #FEFE3A",
"(. c #FFFE3A",
"). c #FFFF3A",
"_. c None",
/* pixels */
"_._._._._._._._._._._._._._._._._._._._._._._._._._._._._._._._._._._._._._._._._._._._._._._._.",
"_._._._._._._._._._._._._._._._._._._._._._._._._._._._._._._._._._._._._._._._._._._._._._._._.",
"_._._._._._._._._._._._._._._._._._._._._._._._._._._._._._._._._._._._._._._._._._._._._._._._.",
"_._._._._._._._._._._._._._._._._._._._._.            _._._._._._._._._._._._._._._._._._._._._.",
"_._._._._._._._._._._._._._._._._._._._._.u p p p p i _._._._._._._._._._._._._._._._._._._._._.",
"_._._._._._._._._._._._._._._._._._.X X w -.2.2.2.2.;.t . _._._._._._._._._._._._._._._._._._._.",
"_._._._._._._._._._._._._._._._.: g ' o.@.1.2.2.3.3.<.[ n 1 _._._._._._._._._._._._._._._._._._.",
"_._._._._._._._._._._._._._._._.g V N.).L.a.2.4.d.g.g.:.I 9 _._._._._._._._._._._._._._._._._._.",
"_._._._._._._._._._._._._._.  X ' N.!.).I.f.p.d.H.Y.Y.B.| d _._._._._._._._._._._._._._._._._._.",
"_._._._._._._._._._._._._._.  X o.).).).~.D.A.F.~.).).K.e._ s _._._._._._._._._._._._._._._._._.",
"_._._._._._._._._._._._._._.  X X.Z.t.m.Q.^.~.~.(.).)./.J.t.l & _._._._._._._._._._._._._._._._.",
"_._._._._._._._._._._._._._.  X O.$.c ` C.).).).).).).).).n.z & _._._._._._._._._._._._._._._._.",
"_._._._._._._._._._._._._._.  X  .+.y T M.).).).).).).).).n.z & _._._._._._._._._._._._._._._._.",
"_._._._._._._._._._._._._._.  X  .+.y T M.).).).).).).).).n.z & _._._._._._._._._._._._._._._._.",
"_._._._._._._._._._._._._._.  X  .+.y T M.).).).).(.(.(.(.n.x * _._._._._._._._._._._._._._._._.",
"_._._._._._._._._._._._._._.  X  .+.y T M.).).^.G.S.S.S.S.h.P k _._._._._._._._._._._._._._._._.",
"_._._._._._._._._._._._._._.  X } ..a ) N.).).I.a.,.>.>.>.>.>.R %   _._._._._._._._._._._._._._.",
"_._._._._._._._._._._._._._.  X { =.E *.z.).).U.s.&.W W W W W L #   _._._._._._._._._._._._._._.",
"_._._._._._._._._._._._._._._.X N ] ( 0.b.).).Y.j.%.G G G G G C O   _._._._._._._._._._._._._._.",
"_._._._._._._._._._._._._._._._.q v w.x.W.).).(.P.6.G G G G G C O   _._._._._._._._._._._._._._.",
"_._._._._._._._._._._._._._._._.$ f u.).).).).).E.7.G G G G G C O   _._._._._._._._._._._._._._.",
"_._._._._._._._._._._._._._._._.$ f u.).).).).).E.7.G G G G G C O   _._._._._._._._._._._._._._.",
"_._._._._._._._._._._._._._._._.$ f u.).).).).).E.7.G G G G G C O   _._._._._._._._._._._._._._.",
"_._._._._._._._._._._._._._._._._.e m #.i./ 9.R.E.7.G G G G G C O   _._._._._._._._._._._._._._.",
"_._._._._._._._._._._._._._._._._._.8 T q.~ 8.T.E.7.G G G G G C O   _._._._._._._._._._._._._._.",
"_._._._._._._._._._._._._._._._._._.7 U y.l.c.W.v.5.G G G F D J @   _._._._._._._._._._._._._._.",
"_._._._._._._._._._._._._._._._._._., b _ V.).x.7.^ G G G S 2 h + _._._._._._._._._._._._._._._.",
"_._._._._._._._._._._._._._._._._._._.  r r.).k.Q H A A A Z 5 o _._._._._._._._._._._._._._._._.",
"_._._._._._._._._._._._._._._._._._._.  r r.).k.! K 6 6 6 3 ; _._._._._._._._._._._._._._._._._.",
"_._._._._._._._._._._._._._._._._._._._.0 B Y M j 4         _._._._._._._._._._._._._._._._._._.",
"_._._._._._._._._._._._._._._._._._._._._., < > - = _._._._._._._._._._._._._._._._._._._._._._.",
"_._._._._._._._._._._._._._._._._._._._._._._._._._._._._._._._._._._._._._._._._._._._._._._._.",
"_._._._._._._._._._._._._._._._._._._._._._._._._._._._._._._._._._._._._._._._._._._._._._._._.",
"_._._._._._._._._._._._._._._._._._._._._._._._._._._._._._._._._._._._._._._._._._._._._._._._.",
"_._._._._._._._._._._._._._._._._._._._._._._._._._._._._._._._._._._._._._._._._._._._._._._._.",
"_._._._._._._._._._._._._._._._._._._._._._._._._._._._._._._._._._._._._._._._._._._._._._._._.",
"_._._._._._._._._._._._._._._._._._._._._._._._._._._._._._._._._._._._._._._._._._._._._._._._.",
"_._._._._._._._._._._._._._._._._._._._._._._._._._._._._._._._._._._._._._._._._._._._._._._._.",
"_._._._._._._._._._._._._._._._._._._._._._._._._._._._._._._._._._._._._._._._._._._._._._._._.",
"_._._._._._._._._._._._._._._._._._._._._._._._._._._._._._._._._._._._._._._._._._._._._._._._.",
"_._._._._._._._._._._._._._._._._._._._._._._._._._._._._._._._._._._._._._._._._._._._._._._._.",
"_._._._._._._._._._._._._._._._._._._._._._._._._._._._._._._._._._._._._._._._._._._._._._._._.",
"_._._._._._._._._._._._._._._._._._._._._._._._._._._._._._._._._._._._._._._._._._._._._._._._.",
"_._._._._._._._._._._._._._._._._._._._._._._._._._._._._._._._._._._._._._._._._._._._._._._._.",
"_._._._._._._._._._._._._._._._._._._._._._._._._._._._._._._._._._._._._._._._._._._._._._._._.",
"_._._._._._._._._._._._._._._._._._._._._._._._._._._._._._._._._._._._._._._._._._._._._._._._.",
"_._._._._._._._._._._._._._._._._._._._._._._._._._._._._._._._._._._._._._._._._._._._._._._._.",
"_._._._._._._._._._._._._._._._._._._._._._._._._._._._._._._._._._._._._._._._._._._._._._._._.",
"_._._._._._._._._._._._._._._._._._._._._._._._._._._._._._._._._._._._._._._._._._._._._._._._.",
"_._._._._._._._._._._._._._._._._._._._._._._._._._._._._._._._._._._._._._._._._._._._._._._._.",
"_._._._._._._._._._._._._._._._._._._._._._._._._._._._._._._._._._._._._._._._._._._._._._._._.",
"_._._._._._._._._._._._._._._._._._._._._._._._._._._._._._._._._._._._._._._._._._._._._._._._.",
"_._._._._._._._._._._._._._._._._._._._._._._._._._._._._._._._._._._._._._._._._._._._._._._._.",
"_._._._._._._._._._._._._._._._._._._._._._._._._._._._._._._._._._._._._._._._._._._._._._._._.",
"_._._._._._._._._._._._._._._._._._._._._._._._._._._._._._._._._._._._._._._._._._._._._._._._.",
"_._._._._._._._._._._._._._._._._._._._._._._._._._._._._._._._._._._._._._._._._._._._._._._._.",
"_._._._._._._._._._._._._._._._._._._._._._._._._._._._._._._._._._._._._._._._._._._._._._._._.",
"_._._._._._._._._._._._._._._._._._._._._._._._._._._._._._._._._._._._._._._._._._._._._._._._.",
"_._._._._._._._._._._._._._._._._._._._._._._._._._._._._._._._._._._._._._._._._._._._._._._._.",
"_._._._._._._._._._._._._._._._._._._._._._._._._._._._._._._._._._._._._._._._._._._._._._._._."
};
