/* XPM */
static char *result[] = {
/* columns rows colors chars-per-pixel */
"48 60 72 1 ",
"  c #71693F",
". c #736A3F",
"X c #7C7238",
"o c #7D7238",
"O c #8D7E2F",
"+ c #897B31",
"@ c #887B33",
"# c #8B7D31",
"$ c #8A7C33",
"% c #8A7E33",
"& c #8D7F31",
"* c #8B7E36",
"= c #BFA616",
"- c #BCA318",
"; c #8E8131",
": c #8E8135",
"> c #8D803B",
", c #8D813D",
"< c #8C813E",
"1 c #8D813E",
"2 c #8D823E",
"3 c #8E823E",
"4 c #8E833E",
"5 c #8F873C",
"6 c #91843B",
"7 c #91853C",
"8 c #91843E",
"9 c #92853E",
"0 c #92873E",
"q c #938B3B",
"w c #90883E",
"e c #908A3E",
"r c #948D3E",
"t c #958F3E",
"y c #CEB00A",
"u c #D3B407",
"i c #DFBD00",
"p c #D6B80E",
"a c #C6AC12",
"s c #D1B411",
"d c #D2B913",
"f c #D8BF10",
"g c #D4B91C",
"h c #DBBE19",
"j c #D3BE3A",
"k c #E2C209",
"l c #E5C90A",
"z c #E7C815",
"x c #DDC430",
"c c #DEC735",
"v c #D8C23A",
"b c #F1D62E",
"n c #E3CA30",
"m c #E5CD35",
"M c #E0C939",
"N c #E2CB39",
"B c #E1CD39",
"V c #E7CF39",
"C c #E4DD32",
"Z c #E8D439",
"A c #F3D833",
"S c #F5DB38",
"D c #F9F22F",
"F c #EBE431",
"G c #E7E03A",
"H c #E9E73B",
"J c #EEE73A",
"K c #F6E038",
"L c #F0EF3B",
"P c #FDF63A",
"I c #FFFF3A",
"U c None",
/* pixels */
"UUUUUUUUUUUUUUUUUUUUUUUUUUUUUUUUUUUUUUUUUUUUUUUU",
"UUUUUUUUUUUUUUUUUUUUUUUUUUUUUUUUUUUUUUUUUUUUUUUU",
"UUUUUUUUUUUUUUUUUUUUUUUUUUUUUUUUUUUUUUUUUUUUUUUU",
"UUUUUUUUUUUUUUUUUUUUUUUUUUUUUUUUUUUUUUUUUUUUUUUU",
"UUUUUUUUUUUUUUUUUUUUUUUUUUUUUUUUUUUUUUUUUUUUUUUU",
"UUUUUUUUUUUUUUUUUUUUUUUUUUUUUUUUUUUUUUUUUUUUUUUU",
"UUUUUUUUUUUUUUUUUUUUU......UUUUUUUUUUUUUUUUUUUUU",
"UUUUUUUUUUUUUUUUUUUUU133331UUUUUUUUUUUUUUUUUUUUU",
"UUUUUUUUUUUUUUUUUUUU<jNNNNv8 UUUUUUUUUUUUUUUUUUU",
"UUUUUUUUUUUUUUUUUUU 2MSSSSV9 UUUUUUUUUUUUUUUUUUU",
"UUUUUUUUUUUUUUUUUUU 4BKKKKZ0 UUUUUUUUUUUUUUUUUUU",
"UUUUUUUUUUUUUUUUUUU wGPPPPJr UUUUUUUUUUUUUUUUUUU",
"UUUUUUUUUUUUUUUUUUU eHIIIILt UUUUUUUUUUUUUUUUUUU",
"UUUUUUUUUUUUUUUUUUU eHIIIILt UUUUUUUUUUUUUUUUUUU",
"UUUUUUUUUUUUUUUUUUU eHIIIILt UUUUUUUUUUUUUUUUUUU",
"UUUUUUUUUUUUUUUUUUU eHIIIILt UUUUUUUUUUUUUUUUUUU",
"UUUUUUUUUUUUUUUUUUU eHIIIILt UUUUUUUUUUUUUUUUUUU",
"UUUUUUUUUUUUUUUUUUU eHIIIILt UUUUUUUUUUUUUUUUUUU",
"UUUUUUUUUUUUUUUUUUU eHIIIILt UUUUUUUUUUUUUUUUUUU",
"UUUUUUUUUUUUUUUUUUU eHIIIILt UUUUUUUUUUUUUUUUUUU",
"UUUUUUUUUUUUUUUUUUU eHIIIILt UUUUUUUUUUUUUUUUUUU",
"UUUUUUUUUUUUUUUUUUU 5CDDDDFq UUUUUUUUUUUUUUUUUUU",
"UUUUUUUUUUUUUUUUUUU %dllllf; UUUUUUUUUUUUUUUUUUU",
"UUUUUUUUUUUUUUUUUUU +yiiiiuO UUUUUUUUUUUUUUUUUUU",
"UUUUUUUUUUUUUUUUUUU $skkkkp& UUUUUUUUUUUUUUUUUUU",
"UUUUUUUUUUUUUUUUUUU >xbbbbn6 UUUUUUUUUUUUUUUUUUU",
"UUUUUUUUUUUUUUUUUUU 2MSSSSV9 UUUUUUUUUUUUUUUUUUU",
"UUUUUUUUUUUUUUUUUUU 2MSSSSV9 UUUUUUUUUUUUUUUUUUU",
"UUUUUUUUUUUUUUUUUUU 2MSSSSV9 UUUUUUUUUUUUUUUUUUU",
"UUUUUUUUUUUUUUUUUUU 2MSSSSV9 UUUUUUUUUUUUUUUUUUU",
"UUUUUUUUUUUUUUUUUUU ,cAAAAm7 UUUUUUUUUUUUUUUUUUU",
"UUUUUUUUUUUUUUUUUUU *gzzzzh: UUUUUUUUUUUUUUUUUUU",
"UUUUUUUUUUUUUUUUUUUU@-aaaa=#UUUUUUUUUUUUUUUUUUUU",
"UUUUUUUUUUUUUUUUUUUUUXooooXUUUUUUUUUUUUUUUUUUUUU",
"UUUUUUUUUUUUUUUUUUUUUUUUUUUUUUUUUUUUUUUUUUUUUUUU",
"UUUUUUUUUUUUUUUUUUUUUUUUUUUUUUUUUUUUUUUUUUUUUUUU",
"UUUUUUUUUUUUUUUUUUUUUUUUUUUUUUUUUUUUUUUUUUUUUUUU",
"UUUUUUUUUUUUUUUUUUUUUUUUUUUUUUUUUUUUUUUUUUUUUUUU",
"UUUUUUUUUUUUUUUUUUUUUUUUUUUUUUUUUUUUUUUUUUUUUUUU",
"UUUUUUUUUUUUUUUUUUUUUUUUUUUUUUUUUUUUUUUUUUUUUUUU",
"UUUUUUUUUUUUUUUUUUUUUUUUUUUUUUUUUUUUUUUUUUUUUUUU",
"UUUUUUUUUUUUUUUUUUUUUUUUUUUUUUUUUUUUUUUUUUUUUUUU",
"UUUUUUUUUUUUUUUUUUUUUUUUUUUUUUUUUUUUUUUUUUUUUUUU",
"UUUUUUUUUUUUUUUUUUUUUUUUUUUUUUUUUUUUUUUUUUUUUUUU",
"UUUUUUUUUUUUUUUUUUUUUUUUUUUUUUUUUUUUUUUUUUUUUUUU",
"UUUUUUUUUUUUUUUUUUUUUUUUUUUUUUUUUUUUUUUUUUUUUUUU",
"UUUUUUUUUUUUUUUUUUUUUUUUUUUUUUUUUUUUUUUUUUUUUUUU",
"UUUUUUUUUUUUUUUUUUUUUUUUUUUUUUUUUUUUUUUUUUUUUUUU",
"UUUUUUUUUUUUUUUUUUUUUUUUUUUUUUUUUUUUUUUUUUUUUUUU",
"UUUUUUUUUUUUUUUUUUUUUUUUUUUUUUUUUUUUUUUUUUUUUUUU",
"UUUUUUUUUUUUUUUUUUUUUUUUUUUUUUUUUUUUUUUUUUUUUUUU",
"UUUUUUUUUUUUUUUUUUUUUUUUUUUUUUUUUUUUUUUUUUUUUUUU",
"UUUUUUUUUUUUUUUUUUUUUUUUUUUUUUUUUUUUUUUUUUUUUUUU",
"UUUUUUUUUUUUUUUUUUUUUUUUUUUUUUUUUUUUUUUUUUUUUUUU",
"UUUUUUUUUUUUUUUUUUUUUUUUUUUUUUUUUUUUUUUUUUUUUUUU",
"UUUUUUUUUUUUUUUUUUUUUUUUUUUUUUUUUUUUUUUUUUUUUUUU",
"UUUUUUUUUUUUUUUUUUUUUUUUUUUUUUUUUUUUUUUUUUUUUUUU",
"UUUUUUUUUUUUUUUUUUUUUUUUUUUUUUUUUUUUUUUUUUUUUUUU",
"UUUUUUUUUUUUUUUUUUUUUUUUUUUUUUUUUUUUUUUUUUUUUUUU",
"UUUUUUUUUUUUUUUUUUUUUUUUUUUUUUUUUUUUUUUUUUUUUUUU"
};
