/* XPM */
static char *result[] = {
/* columns rows colors chars-per-pixel */
"48 60 70 1 ",
"  c #4D2712",
". c #4E2812",
"X c #522C15",
"o c #532F18",
"O c #56321A",
"+ c #5A351D",
"@ c #5C381F",
"# c #613B1F",
"$ c #573620",
"% c #583721",
"& c #5D3B22",
"* c #5B3F2A",
"= c #613E24",
"- c #5D402B",
"; c #5F4531",
": c #634126",
"> c #654429",
", c #69462A",
"< c #67492D",
"1 c #6A4A2D",
"2 c #624631",
"3 c #644A35",
"4 c #6C4E31",
"5 c #644E3A",
"6 c #694E39",
"7 c #704F32",
"8 c #6E5234",
"9 c #66513E",
"0 c #6C523B",
"q c #715436",
"w c #735739",
"e c #755A3B",
"r c #795D3E",
"t c #7B603F",
"y c #675340",
"u c #6A5542",
"i c #6C5A46",
"p c #6D5C49",
"a c #725B44",
"s c #7A5F40",
"d c #715E48",
"f c #7D6241",
"g c #74624C",
"h c #7B624C",
"j c #776650",
"k c #796751",
"l c #7B6A55",
"z c #7D6D59",
"x c #7F705D",
"c c #816645",
"v c #816749",
"b c #856B4B",
"n c #886E4E",
"m c #8A714F",
"M c #806A55",
"N c #816E5A",
"B c #8D7453",
"V c #82725D",
"C c #907756",
"Z c #917857",
"A c #927A5B",
"S c #827461",
"D c #887766",
"F c #867866",
"G c #877A68",
"H c #897B69",
"J c #978061",
"K c #988162",
"L c #8F8170",
"P c #72751B",
/* pixels */
"PPPPPPPPPPPPPPPP,rrrtt7#7rrrr77PPPPPPPPPPPPPPPPP",
"PPPPPPPPPPPP,11==bbbcnc#rnmmmm777wePPPPPPPPPPPPP",
"PPPPPPPPPP>:wsr7=bbbmnc#tmmCmC,tZZZ777PPPPPPPPPP",
"PPPPPPP&+>weesr7=CAAAAm#bCZAAA7rZZCCme==PPPPPPPP",
"PPPPPP&1:,rnMnne#bcccct#fctcnc,cAKKACq,e7PPPPPPP",
"PPPPP=,4,7vvbfrq:fttttr#rrrrrr#rmCAmCr1ct7PPPPPP",
"PPPP=>8e1qbtce1>,ttctrq#rrtttt77fcmrce7mme7PPPPP",
"PPPP=qevq8rtrce<7tctttr,rrtttt77fcnrr,7Cmb7,PPPP",
"PPPP:wvf88sfsffs7ttcttt#rfffft77cfcbf1,tAMq,PPPP",
"PP+>wvff88ssfffw7ttfcft,rffftf77cccnt1,rrnc7,PPP",
"PP+4ffttqqsffrfe7tfttct,rtttfc7rcccvc71recvs,PPP",
"PP=wvtfrq8sssffe7tffftt,rtfftc77cfcfcq7eeebv7PPP",
"PO4svrttqwtsfrfw7ttttcr7rfrftt77ccfcfe7eeecvs=,P",
"POavtrttwwftfffw7ttcctt#rffftt7tfcccfw7eeeecv==P",
"POevrtttwwtfftfw7cctccc7rffrtt7efcccfe7eeeess=,P",
"PX4frrrfqwttt48w7tctffc=rcrftt7ee7cffe7eeeeeq+=P",
"PX&>>,><,,111ft17tttccc,tttttr77rk771,>,,,,==++P",
"P.:6400806wauVlw,ttctcc,ttttrt77bVeuaeww6076,++P",
"PX6hkzlklllVVlxx7ttctcc,ttttre7nVNVVNVNlzllku++P",
"PX<iigdgddgkkllzC#tttcc7ttrrr,MNlNlllllhghda4+OP",
"PX2aiggghdgkjjlw#tctccc,rsrsre=0lzlllkkghhaa4OOP",
"PXO+@@@@&&&&-t0:,ctcctc,rssrrc7=4h*&*=&&%%&&$OOP",
"PX+&@-&=&===#---7ttttcc,rsssssq,:<=#=@@@&&@&+oOP",
"PX:1177444q48:<87tcttcc,rsrsrsq7,=qqq,:81111>ooP",
"PX>qqeeeqwttt6ww1ctcffc1rsssar7488ttf3<qeeew7XoP",
"PX<wwwqqqwttttfe7fttfcb,eserrr748tttt81qqeew1ooP",
"PX<wwweqqqttttfw7ttftcv1ssrrrew48trrtq4eeqww1ooP",
"PX>qwwwqq0eeetre7tfttcv1esrrrs717rrtrq4qqewq7XoP",
"PX>qqwwq8wttertr8tttscv,esrreaq7qteetq8qeeqe1XoP",
"Po>qqqqq8qettrrw8tttrcv,rseeseqqeeettq1wqqqq4XXP",
"Po>qqqqq88etertr8tftrrs>qwweeeqqetettq8qwwqw1XXP",
"PX;0qqqw88tetetrqttt1#===+,eee7qeewetq1wwwww1XXP",
"P.<888qq8qttwttw8tt1exxVVVt<ee7qeqeetq1wwqqq1XXP",
"Po>8888848wttwte8tt:qlzzzze:ee88qeewtq4wqw8t1XoP",
"PX>8q88818wwwtte8tt>3gd<dg6-ee88wwewt88qwqwq<oXP",
"P.>8088818wrwwtw8ee:<ddo9g1#ee88qwwqtw4wqwqq<.XP",
"PX:8888814eetwtw8qe#;9eO0d<+ee8qeqwqtq4qwqqw1X.P",
"P.-8888844eewttw8qe@-e999w-+ee48qqwwtq8wqqwq<.XP",
"P.:88888<4eer18w8qq<&++++@@<qw444>qwtq4qqw8w1X.P",
"P.@-&:&:==><>ae44eeq<&&o@@;qwe418g>>>>-::-::@..P",
"P.&3<33466660lhw<eqeq8<&<88www<4gV000083383<-..P",
"P.3gglljkklzNkzl48qeqee:qwwww84hVkVVxxxllllj0..P",
"P.;wippiipagjggzV:qqqeq>8www8-kxkkgjgggdpg003..P",
"P.;ueidpapdggjg0$8weeqq-8ewwqq&0lklgjggdppi03..P",
"P.O%++$$%%%@%05%&qqqqqq:8wwqqw:&3p&&&&$%%%$++..P",
"P.o++++@++@@%--=>8qqqqq-8qqqqq<&&>&&+@+@@+++o..P",
"P.@:>>><->141&:1>qqqqqq-8qqqqq><>&484-&1<<:,=..P",
"P.&81444>1eer8q8>88qqq8%8qqqqq<18<888>:81888>..P",
"P.=44441>1eeeee7>888qq8%4w7qqq>188w80<>81q11,..P",
"P.*44424:<weeee4:888884O47w08q>1qq8881:888qq>..P",
"P o++@&&$&**:::*%*=&&@$o%=&&*&&&--:-:=&>:**&@..P",
"P %22332355556666640999X*55y4336983466656435-..P",
"P yzlllzzzzzxxzxxxxSSSVXzGxxzxxxzzlzzlzllllli..P",
"P yxxxxxxxxxxxxxGHHHLLFOxHHHGGGGGSSSSSSSSSxxd..P",
"P *y5yyyyuuupppppppppppXppppppiiiiiyyyyyyyyy3..P",
"P *y;5y5yuuuuiipippppgp.ypppiiiuiiiyyyyy9y99;..P",
"P *559yyyyyiuiiippipiddoupppiiiiiuiyuyyuy999;..P",
"P -559yyyiyiiiiiipppppp.ipppuiiiiuuuyuuuy999; .P",
"P *;;;3333335;555595599.59555535555;;9;;;;;;- .P",
"P                   .... .  ...  .... X       .P"
};
