/* XPM */
static char *result[] = {
/* columns rows colors chars-per-pixel */
"48 60 223 2 ",
"   c #3E1D03",
".  c #35190E",
"X  c #391B0A",
"o  c #2B131C",
"O  c #331813",
"+  c #1D0B2D",
"@  c #11053C",
"#  c #1A0A36",
"$  c #0F043E",
"%  c #220E26",
"&  c #210E29",
"*  c #27023E",
"=  c #2C162D",
"-  c #3B2939",
";  c #401F01",
":  c #531F06",
">  c #671813",
",  c #7C1017",
"<  c #781519",
"1  c #7B1613",
"2  c #452201",
"3  c #4B2404",
"4  c #532A01",
"5  c #582B07",
"6  c #542A13",
"7  c #5D331D",
"8  c #4F3218",
"9  c #673802",
"0  c #6B3A01",
"q  c #643606",
"w  c #733F07",
"e  c #673A17",
"r  c #6C3213",
"t  c #771629",
"y  c #6D112D",
"u  c #593223",
"i  c #482C37",
"p  c #512F3A",
"a  c #52303A",
"s  c #51342B",
"d  c #743437",
"f  c #754100",
"g  c #7B4500",
"h  c #7C450B",
"j  c #784311",
"k  c #4A423B",
"l  c #7B4620",
"z  c #0B0145",
"x  c #0A024A",
"c  c #170C57",
"v  c #1A105F",
"b  c #291153",
"n  c #3E265D",
"m  c #35204D",
"M  c #241769",
"N  c #362369",
"B  c #2F2179",
"V  c #2E2177",
"C  c #312075",
"Z  c #302179",
"A  c #372D77",
"S  c #3A3377",
"D  c #4D1D59",
"F  c #501E57",
"G  c #7A1C41",
"H  c #492A48",
"J  c #4C3549",
"K  c #462A56",
"L  c #6E3051",
"P  c #5E2D72",
"I  c #493668",
"U  c #6E2D6C",
"Y  c #524D4E",
"T  c #795351",
"R  c #675F66",
"E  c #5B6167",
"W  c #9E0B0F",
"Q  c #8C0E13",
"!  c #870E14",
"~  c #920D11",
"^  c #9C0D18",
"/  c #871618",
"(  c #931119",
")  c #A30A0D",
"_  c #AB0A0B",
"`  c #BC0807",
"'  c #B50909",
"]  c #B90909",
"[  c #A60C16",
"{  c #B41618",
"}  c #8B271D",
"|  c #893616",
" . c #A73316",
".. c #981633",
"X. c #902E30",
"o. c #BB2828",
"O. c #AE2E3A",
"+. c #B01830",
"@. c #C40806",
"#. c #CD0805",
"$. c #C60B0A",
"%. c #D40804",
"&. c #DC0803",
"*. c #DB0B0C",
"=. c #C71113",
"-. c #D51314",
";. c #C9110C",
":. c #E30802",
">. c #ED0801",
",. c #F00800",
"<. c #EA170D",
"1. c #F0180E",
"2. c #EA1A13",
"3. c #C42625",
"4. c #C43535",
"5. c #DA3834",
"6. c #D62420",
"7. c #D02912",
"8. c #834A00",
"9. c #8A4E00",
"0. c #834A08",
"q. c #8A5200",
"w. c #935400",
"e. c #9A5F00",
"r. c #864618",
"t. c #945A1D",
"y. c #86501F",
"u. c #A45919",
"i. c #B35F1F",
"p. c #AC6412",
"a. c #9A5624",
"s. c #974035",
"d. c #A44928",
"f. c #B75A36",
"g. c #AB6729",
"h. c #B76526",
"j. c #B87635",
"k. c #C35C18",
"l. c #CF5728",
"z. c #ED4025",
"x. c #C56824",
"c. c #C87229",
"v. c #D2742B",
"b. c #C87838",
"n. c #D97B33",
"m. c #CA6F33",
"M. c #8D1D44",
"N. c #8F4E4E",
"B. c #B55E57",
"V. c #B76D4B",
"C. c #9E7B62",
"Z. c #BF7377",
"A. c #AD6D71",
"S. c #CA4B4B",
"D. c #F15954",
"F. c #E7504B",
"G. c #CA7645",
"H. c #CC6D6E",
"J. c #E47C7A",
"K. c #D9863A",
"L. c #C2833E",
"P. c #C78549",
"I. c #D98643",
"U. c #CE8D4F",
"Y. c #E58A46",
"T. c #E6994C",
"R. c #ED8353",
"E. c #ECA55B",
"W. c #EBA55A",
"Q. c #C79572",
"!. c #E3A767",
"~. c #EAB677",
"^. c #F4BA79",
"/. c #ECB070",
"(. c #2F2A87",
"). c #312A85",
"_. c #302E8D",
"`. c #302681",
"'. c #333188",
"]. c #303395",
"[. c #313A9D",
"{. c #363999",
"}. c #2F308F",
"|. c #313EA4",
" X c #2F3EA4",
".X c #483990",
"XX c #2F40A8",
"oX c #2F40A7",
"OX c #3140A7",
"+X c #3141A9",
"@X c #3547B1",
"#X c #384CB8",
"$X c #3B50BD",
"%X c #3E55C4",
"&X c #4058C7",
"*X c #8D9097",
"=X c #B58082",
"-X c #9A9EA5",
";X c #9EA1A9",
":X c #A4A6AE",
">X c #A8A6AC",
",X c #ABACB4",
"<X c #B5B6BC",
"1X c #B6AFB3",
"2X c #C89799",
"3X c #D68E8F",
"4X c #E8BD8F",
"5X c #E9B9B8",
"6X c #EAAAA9",
"7X c #DBACAE",
"8X c #F6C78C",
"9X c #F8CC93",
"0X c #EDC59D",
"qX c #C6C5CA",
"wX c #D2D3D7",
"eX c #CECACE",
"rX c #E6DCDD",
"tX c #DFDFE2",
"yX c #E0DEE0",
"uX c #E7E7E9",
"iX c #F4F4F5",
"pX c #F9F9F9",
"aX c #72751B",
/* pixels */
"aXaXaXaXaXaXaXaXaXaXaXaXaXaXaXaXaX&.>.,.,.aXaXaXaXaXaXaXaXaXaXaXaXaXaXaXaXaXaXaXaXaXaXaXaXaXaXaX",
"aXaXaXaXaXaXaXaXaXaXaXaXaXaXaXaX@.&.>.,.,.aXaXaXaXaXaXaXaXaXaXaXaXaXaXaXaXaXaXaXaXaXaXaXaXaXaXaX",
"aXaXaXaXaXaXaXaXaXaXaXaXaXaXaXaX%.:.,.,.,.,.aXaXaXaXaXaXaXaXaXaXaXaXaXaXaXaXaXaXaXaXaXaXaXaXaXaX",
"aXaXaXaXaXaXaXaXaXaXaXaXaXaXaX@.:.>.,.,.,.,.,.,.aXaXaXaXaXaXaXaXaXaXaXaXaXaXaXaXaXaXaXaXaXaXaXaX",
"aXaXaXaXaXaXaXaXaXaXaXaXaXaX] $.:.,.,.,.,.,.,.,.,.,.aXaXaXaXaXaXaXaXaXaXaXaXaXaXaXaXaXaXaXaXaXaX",
"aXaXaXaXaXaXaXaXaXaXaXaXaX3.{ ;.:.>.,.,.,.,.,.,.,.,.,.aXaXaXaXaXaXaXaXaXaXaXaXaXaXaXaXaXaXaXaXaX",
"aXaXaXaXaXaXaXaXaXaXaXaXaXJ.S.3.%.:.>.,.,.,.,.,.,.,.,.:.aXaXaXaXaXaXaXaXaXaXaXaXaXaXaXaXaXaXaXaX",
"aXaXaXaXaXaXaXaXaXaXaXaXaX7X3X4.` %.>.,.,.,.,.,.,.,.>.:.@.aXaXaXaXaXaXaXaXaXaXaXaXaXaXaXaXaXaXaX",
"aXaXaXaXaXaXaXaXaXaXaX] O.2X3Xo.` #.>.>.>.,.,.,.,.,.,.:.#.` aXaXaXaXaXaXaXaXaXaXaXaXaXaXaXaXaXaX",
"aXaXaXaXaXaXaXaXaXaX:.%.o.Z.H.o.] @.%.:.>.,.,.,.,.,.>.>.&.@.@.%.:.aXaXaXaXaXaXaXaXaXaXaXaXaXaXaX",
"aXaXaXaXaXaXaXaXaXaX>.>.6.H.Z.o.' ` @.%.>.>.>.>.,.,.,.,.:.@.@.&.>.>.aXaXaXaXaXaXaXaXaXaXaXaXaXaX",
"aXaXaXaXaXaXaXaXaXaX>.>.<.5.4.{ ] ] ` @.%.%.:.>.>.>.,.:.%.@.#.>.>.,.aXaXaXaXaXaXaXaXaXaXaXaXaXaX",
"aXaXaXaXaXaXaXaXaXaX,.,.>.2.-.#.] ] ] ] ` @.%.:.:.&.:.%.@.@.%.>.>.,.aXaXaXaXaXaXaXaXaXaXaXaXaXaX",
"aXaXaXaXaXaXaXaXaXaX,.,.,.,.:.&.@.' ' ] ' ` @.@.#.#.#.@.` ` #.:.>.>.aXaXaXaXaXaXaXaXaXaXaXaXaXaX",
"aXaXaXaXaXaXaXaXaXaXaX,.,.,.>.:.@.' ' ' ` ' ' ` ` ` ] ` ] ] @.%.&.%.aXaXaXaXaXaXaXaXaXaXaXaXaXaX",
"aXaXaXaXaXaXaXaXaXaXaX1.1.>.>.:.%.] W ) _ ' ' ' ' ' ] ] ] ] ] @.$.] aXaXaXaXaXaXaXaXaXaXaXaXaXaX",
"aXaXaXaXaXaXaXaXaXaXaXaXz.2.&.<.#.' / ~ ) ) ) ) _ ' ' ' ' ' _ _ ) W aXaXaXaXaXaXaXaXaXaXaXaXaXaX",
"aXaXaXaXaXaXaXaXaXaX9X^.Y.l.7.` _ [ } } / Q Q Q Q W _ _ _ ) W ~ ! ! aXaXaXaXaXaXaXaXaXaXaXaXaXaX",
"aXaXaXaXaXaXaXaXaX9X9X8X^.Y.l. .> s.B.d.} } / , ! ! ~ ~ Q Q ! , , t aXaXaXaXaXaXaXaXaXaXaXaXaXaX",
"aXaXaXaXaXaXaXaXaX8X9X8X^.E.K.t.8 N.Q.G.f.d.} < < < / < , , , < t d aXaXaXaXaXaXaXaXaXaXaXaXaXaX",
"aXaXaXaXaXaXaXaX/.^.^.^./.W.K.h.l C.4X!.U.j.| > < } d.X.} < > > d T aXaXaXaXaXaXaXaXaXaXaXaXaXaX",
"aXaXaXaXaXaXaXaXaXE.E.E.W.T.K.c.g.Q.0X~.!.G.j 4 q d.G.V.X.t > s Y R aXaXaXaXaXaXaXaXaXaXaXaXaXaX",
"aXaXaXaXaXaXaXaXaXY.Y.K.b.c.g.i.h.P.4X4X~.L.h 5 j h.v.P.V.e 8 a Y E aXaXaXaXaXaXaXaXaXaXaXaXaXaX",
"aXaXaXaXaXaXaXaXaXaXg.a.y.j 0 0 r.a.P.~./.U.t.h u.x.c.b.P.e 8 k Y aXaXaXaXaXaXaXaXaXaXaXaXaXaXaX",
"aXaXaXaXaXaXaXaXaXaXaX6 5 4   X 3 r j.!.E.T.c.i.v.n.n.j.g.e 8 Y aXaXaXaXaXaXaXaXaXaXaXaXaXaXaXaX",
"aXaXaXaXaXaXaXaXaXaXaXaXq 5 3 3 6 r.b.T.T.Y.n.v.v.L.b.u.j q aXaXaXaXaXaXaXaXaXaXaXaXaXaXaXaXaXaX",
"aXaXaXaXaXaXaXaXaXaXaXaXaX| h r.a.h.K.Y.Y.G.m.f.i.t.y.e 5 aXaXaXaXaXaXaXaXaXaXaXaXaXaXaXaXaXaXaX",
"aXaXaXaXaXiXpXpXpXaXaXaXaXaXaXx.x.v.n.G.N.N.T l e 5 8 aXaXaXaXaXaXaXaXaXaXaXaXaXaXaXaXaXaXaXaXaX",
"aXaXaXaXtXuXpXpXpXpXuXaXaXaXaXaXk.l.f.N.L D D D - - - aXaXaXaXaXaXaXaXaXaXaXaXaXaXaXaXaXaXaXaXaX",
"aXaXaX:XqXuXiXpXpXiXrXqX>XA.aXaXaX .X.X.t t y G I S '.aXaXaXaXaXaXaXaXaXaXaXaXaXaXaXaXaXaXaXaXaX",
"aXaX*X:XeXuXiXpXpXiXrXeX2XB.o.=.$.] [ ^ ^ ) ( G {.+X|.]._.aXaXaXaXaXaXaXaXaXaXaXaXaXaXaXaXaXaXaX",
"aXaX;X<XwXuXiXiXiXiXrX5X3X5.*.*.&.%.$.] ' [ M.P {.+X|.|.[.aXaXaXaXaXaXaXaXaXaXaXaXaXaXaXaXaXaXaX",
"aXaX<X<XqXwXtXuXuXuXrX5XD.1.,.,.>.:.:.#.=...P |.|.|.#X|.#XaXaXaXaXaXaXaXaXaXaXaXaXaXaXaXaXaXaXaX",
"aXaX:X:X,X<XqXwXqXqXeX6XD.1.,.,.,.:.-.+.M.U .X|.|.|.|.&X%X%XaXaXaXaXaXaXaXaXaXaXaXaXaXaXaXaXaXaX",
"aXaXaX-X:X,X<X<X,X:X1X2XF.2.>.>.*.-.O.U .X.X|.|.#X|.|.&X%X%XaXaXaXaXaXaXaXaXaXaXaXaXaXaXaXaXaXaX",
"aXaXaXaX:X:X:X,X;X*X*X=XS.=.] { ..X.L .X|.|.|.|. X|.|.&X%X%X%XaXaXaXaXaXaXaXaXaXaXaXaXaXaXaXaXaX",
"aXaXaXaXaXaXaXaXaXaXaXaX.., y y D K I .XoXOXoXoX X X#X%X%X%X|.aXaXaXaXaXaXaXaXaXaXaXaXaXaXaXaXaX",
"aXaXaXaXaXaXaXaXaXaXaXaXaXb b z M V '.|.OXoXoXoX X X X X%X X X XaXaXaXaXaXaXaXaXaXaXaXaXaXaXaXaX",
"aXaXaXaXaXaXaXaXaXaXaXaXaXz $ z c M (.[.|.XXOXOX#X X X%X X X].(.aXaXaXaXaXaXaXaXaXaXaXaXaXaXaXaX",
"aXaXaXaXaXaXaXaXaXaXaXaXo @ z x x v B }.[.|.OXoX X X X X X}.(.`.aXaXaXaXaXaXaXaXaXaXaXaXaXaXaXaX",
"aXaXaXaXaXaXaXaXaX;   . % @ z z x c M B }.}.[. X|.|.|._.(.`.Z Z aXaXaXaXaXaXaXaXaXaXaXaXaXaXaXaX",
"aXaXaXaXaXaXaXaXaX;   O + z z x x x c M V B _.[.].]._.`.Z V Z Z aXaXaXaXaXaXaXaXaXaXaXaXaXaXaXaX",
"aXaXaXaXaXaXaXaX; ; ; . + $ z z x x x b M N ).).(.(.`.Z Z Z Z Z Z aXaXaXaXaXaXaXaXaXaXaXaXaXaXaX",
"aXaXaXaXaXaXaXaX; ; ; X o + $ z z x x # = m V B B B Z V Z B V Z Z aXaXaXaXaXaXaXaXaXaXaXaXaXaXaX",
"aXaXaXaXaXaXaXaX; ; 2   X o % + @ z # % O aXaXaXZ Z Z Z Z V C V Z Z aXaXaXaXaXaXaXaXaXaXaXaXaXaX",
"aXaXaXaXaXaXaXaX; ;   ;   X . O & & o .   aXaXaXaXaXaXZ Z C Z Z Z C aXaXaXaXaXaXaXaXaXaXaXaXaXaX",
"aXaXaXaXaXaXaXaXaX2 2 2 2 ;   X . . .   2 aXaXaXaXaXaXaXZ Z Z Z Z Z Z Z aXaXaXaXaXaXaXaXaXaXaXaX",
"aXaXaXaXaXaXaXaXaX4 4 4 2 2 2 2       ; ; aXaXaXaXaXaXaXaXC Z C C Z Z `.S J u aXaXaXaXaXaXaXaXaX",
"aXaXaXaXaXaXaXaXaXaXaXaX4 4 4 4     2   aXaXaXaXaXaXaXaXaXZ Z Z Z C Z Z A I J p aXaXaXaXaXaXaXaX",
"aXaXaXaXaXaXaXaXaXaXaXaXaXaX9 5 2 ; aXaXaXaXaXaXaXaXaXaXaXaXZ C Z Z Z Z )._.A H e q.e.aXaXaXaXaX",
"aXaXaXaXaXaXaXaXaXaXaXaXaXaXaXaXaXaXaXaXaXaXaXaXaXaXaXaXaXaXaXC C C C Z B '.A K e f e.aXaXaXaXaX",
"aXaXaXaXaXaXaXaXaXaXaXaXaXaXaXaXaXaXaXaXaXaXaXaXaXaXaXaXaXaXaXN N C C Z ).).A H 7 f q.e.aXaXaXaX",
"aXaXaXaXaXaXaXaXaXaXaXaXaXaXaXaXaXaXaXaXaXaXaXaXaXaXaXaXaXaXaXp H n N V B A K u q w 8.e.aXaXaXaX",
"aXaXaXaXaXaXaXaXaXaXaXaXaXaXaXaXaXaXaXaXaXaXaXaXaXaXaXaXaXaX0.w e p n N A n i q 0 f 8.aXaXaXaXaX",
"aXaXaXaXaXaXaXaXaXaXaXaXaXaXaXaXaXaXaXaXaXaXaXaXaXaXaXaXaXw.w.9.0.l p n n H u q f 8.9.aXaXaXaXaX",
"aXaXaXaXaXaXaXaXaXaXaXaXaXaXaXaXaXaXaXaXaXaXaXaXaXaXaXaXaXw.w.w.q.h j 7 7 7 8 f f 8.aXaXaXaXaXaX",
"aXaXaXaXaXaXaXaXaXaXaXaXaXaXaXaXaXaXaXaXaXaXaXaXaXaXaXaXaXaXw.w.q.9.g 0 9 9 0 0 g aXaXaXaXaXaXaX",
"aXaXaXaXaXaXaXaXaXaXaXaXaXaXaXaXaXaXaXaXaXaXaXaXaXaXaXaXaXaXaXq.q.8.w 0 9 9 0 0 aXaXaXaXaXaXaXaX",
"aXaXaXaXaXaXaXaXaXaXaXaXaXaXaXaXaXaXaXaXaXaXaXaXaXaXaXaXaXaXaXg 8.w 0 0 9 0 0 aXaXaXaXaXaXaXaXaX",
"aXaXaXaXaXaXaXaXaXaXaXaXaXaXaXaXaXaXaXaXaXaXaXaXaXaXaXaXaXaXaXaX0 0 0 0 0 0 aXaXaXaXaXaXaXaXaXaX"
};
