/* XPM */
static char *result[] = {
/* columns rows colors chars-per-pixel */
"48 60 224 2 ",
"   c #210900",
".  c #290E01",
"X  c #2D1001",
"o  c #3D1D02",
"O  c #35180A",
"+  c #321917",
"@  c #2B141B",
"#  c #3A2013",
"$  c #0F043F",
"%  c #150737",
"&  c #1D0C2D",
"*  c #261121",
"=  c #391F30",
"-  c #401F01",
";  c #4E1B06",
":  c #561C09",
">  c #7B0F16",
",  c #751116",
"<  c #791117",
"1  c #781018",
"2  c #7C161B",
"3  c #651810",
"4  c #442101",
"5  c #4A2500",
"6  c #4B2608",
"7  c #572B05",
"8  c #5F3200",
"9  c #573018",
"0  c #633501",
"q  c #683700",
"w  c #683800",
"e  c #673800",
"r  c #713E00",
"t  c #723909",
"y  c #723110",
"u  c #421D31",
"i  c #6C1330",
"p  c #543139",
"a  c #6B3433",
"s  c #7B4400",
"d  c #744100",
"f  c #744815",
"g  c #7B5029",
"h  c #564333",
"j  c #090046",
"k  c #080048",
"l  c #120953",
"z  c #231F58",
"x  c #1C1061",
"c  c #3B1D6C",
"v  c #2B1C72",
"b  c #24176A",
"n  c #2F2078",
"m  c #2F2077",
"M  c #312076",
"N  c #302078",
"B  c #362975",
"V  c #362B68",
"C  c #4E1950",
"Z  c #681643",
"A  c #45294B",
"S  c #552D4E",
"D  c #6B3247",
"F  c #501E63",
"G  c #452665",
"H  c #532860",
"J  c #5E327F",
"K  c #502D72",
"L  c #602C6E",
"P  c #595A5D",
"I  c #744D4A",
"U  c #48496F",
"Y  c #515961",
"T  c #514A73",
"R  c #6C6B6C",
"E  c #675765",
"W  c #9B0B0F",
"Q  c #8D0D12",
"!  c #860E15",
"~  c #920D13",
"^  c #861C1A",
"/  c #9E1F1D",
"(  c #A30A0D",
")  c #AD090B",
"_  c #BB0807",
"`  c #B40809",
"'  c #B80808",
"]  c #AE1510",
"[  c #821F23",
"{  c #8D1939",
"}  c #95322A",
"|  c #B22E2E",
" . c #A52017",
".. c #C40806",
"X. c #CA0805",
"o. c #C00C0F",
"O. c #D30804",
"+. c #DC0803",
"@. c #D70E12",
"#. c #CA171A",
"$. c #DA130D",
"%. c #E40801",
"&. c #ED0800",
"*. c #F00800",
"=. c #EC1109",
"-. c #C02014",
";. c #CB2D2B",
":. c #F1241D",
">. c #834A01",
",. c #884B05",
"<. c #8E5100",
"1. c #945500",
"2. c #9A5A01",
"3. c #975906",
"4. c #8C4A11",
"5. c #AC5713",
"6. c #AB6C02",
"7. c #A36500",
"8. c #B37300",
"9. c #B97900",
"0. c #A85927",
"q. c #B1582F",
"w. c #87633A",
"e. c #A26B29",
"r. c #BB7029",
"t. c #8C5F28",
"y. c #C76B1D",
"u. c #C86C24",
"i. c #D6772B",
"p. c #CC6530",
"a. c #DD7D3A",
"s. c #D87634",
"d. c #CD7332",
"f. c #E67F36",
"g. c #913045",
"h. c #A42E4A",
"j. c #864E56",
"k. c #B44D49",
"l. c #8B694D",
"z. c #B77451",
"x. c #8A686D",
"c. c #CF5D5D",
"v. c #D74947",
"b. c #E75C58",
"n. c #AC8724",
"m. c #C79900",
"M. c #D3A702",
"N. c #CF8231",
"B. c #E78239",
"V. c #EFD100",
"C. c #94867F",
"Z. c #CA924B",
"A. c #D68A4A",
"S. c #EA8B41",
"D. c #EB9549",
"F. c #EA984A",
"G. c #EB9E52",
"H. c #EDA256",
"J. c #F0A959",
"K. c #F0A758",
"L. c #CB986F",
"P. c #E29A65",
"I. c #E9AA68",
"U. c #F1AE63",
"Y. c #F2B26A",
"T. c #F4BD7B",
"R. c #E4AD76",
"E. c #302782",
"W. c #302E8D",
"Q. c #302986",
"!. c #303395",
"~. c #30369A",
"^. c #313B9E",
"/. c #393C97",
"(. c #2F2E8D",
"). c #323EA3",
"_. c #2F3FA7",
"`. c #493B87",
"'. c #543282",
"]. c #3B4398",
"[. c #2F40A8",
"{. c #3241A5",
"}. c #3040A8",
"|. c #3D4CA6",
" X c #71708D",
".X c #4956A8",
"XX c #777FA3",
"oX c #50579F",
"OX c #817A82",
"+X c #7C838A",
"@X c #87898C",
"#X c #828A92",
"$X c #878C90",
"%X c #8C919A",
"&X c #918F8F",
"*X c #AF9499",
"=X c #AFA493",
"-X c #8F94A7",
";X c #9EA1A9",
":X c #B0B1B8",
">X c #B7B7BD",
",X c #AAABB3",
"<X c #CFAF8D",
"1X c #EBBD89",
"2X c #DA8787",
"3X c #F6C689",
"4X c #F6CD95",
"5X c #F8D098",
"6X c #F1D0AB",
"7X c #BABBC1",
"8X c #ABAEC6",
"9X c #BFC1C6",
"0X c #C4C4C9",
"qX c #D7D8DC",
"wX c #E9D4D5",
"eX c #DEDEE1",
"rX c #E1E1E4",
"tX c #EAEAEC",
"yX c #EFEFF0",
"uX c #F4F4F4",
"iX c #F9F9F9",
"pX c #F8F5F5",
"aX c #F8E6E6",
"sX c #72751B",
/* pixels */
"sXsXsXsXsXsXsXsXsXsXsXsXsXsXsXsXsXo.+.*.*.*.sXsXsXsXsXsXsXsXsXsXsXsXsXsXsXsXsXsXsXsXsXsXsXsXsXsX",
"sXsXsXsXsXsXsXsXsXsXsXsXsXsXsXsXX.%.&.*.*.*.*.*.sXsXsXsXsXsXsXsXsXsXsXsXsXsXsXsXsXsXsXsXsXsXsXsX",
"sXsXsXsXsXsXsXsXsXsXsXsXsXsXsX' ..&.*.*.*.*.*.*.&.*.sXsXsXsXsXsXsXsXsXsXsXsXsXsXsXsXsXsXsXsXsXsX",
"sXsXsXsXsXsXsXsXsXsXsXsXsXsX' ' ..&.*.*.*.*.*.*.*.*.*.*.sXsXsXsXsXsXsXsXsXsXsXsXsXsXsXsXsXsXsXsX",
"sXsXsXsXsXsXsXsXsXsXsXsXsXsX' ' X.&.*.*.*.*.*.*.*.*.*.*.*.sXsXsXsXsXsXsXsXsXsXsXsXsXsXsXsXsXsXsX",
"sXsXsXsXsXsXsXsXsXsXsXsXsXsX2X;._ O.%.*.*.*.*.*.*.*.*.*.*.%.sXsXsXsXsXsXsXsXsXsXsXsXsXsXsXsXsXsX",
"sXsXsXsXsXsXsXsXsXsXsXsXsXsXiXc.' ..O.*.*.*.*.*.*.*.*.&.*.+...sXsXsXsXsXsXsXsXsXsXsXsXsXsXsXsXsX",
"sXsXsXsXsXsXsXsXsXsXsX' W [ pXc.' _ O.*.*.*.*.*.*.*.*.*.*.+._ ' sXsXsXsXsXsXsXsXsXsXsXsXsXsXsXsX",
"sXsXsXsXsXsXsXsXsXsX&.%.X. .0Xk.' ' _ +.&.*.&.*.*.*.*.*.*.&.%.' ' ' %.sXsXsXsXsXsXsXsXsXsXsXsXsX",
"sXsXsXsXsXsXsXsXsXsX*.*.+.@.:Xk.' ' ' X.+.&.*.*.*.*.*.*.*.*.*._ ..X.%.*.sXsXsXsXsXsXsXsXsXsXsXsX",
"sXsXsXsXsXsXsXsXsXsX*.*.*.=.,X| ' ' ' ' ' +.%.%.&.*.*.*.*.&.&.' X.*.*.*.*.sXsXsXsXsXsXsXsXsXsXsX",
"sXsXsXsXsXsXsXsXsXsX*.*.*.*.v.#.' ' ' ' ' ..O.X.&.*.*.*.*.%.O.' X.*.*.*.*.sXsXsXsXsXsXsXsXsXsXsX",
"sXsXsXsXsXsXsXsXsXsX| O.&.*.*.%.O.' ' ' ' ' ' ' O.O.O.O.O.X._ ' X.*.*.*.*.sXsXsXsXsXsXsXsXsXsXsX",
"sXsXsXsXsXsXsXsXsXsXj.#.*.&.*.*.+.' ' ' ' ' ' ' ' ' ' ' ' ' ' ' X.%.*.&.%.sXsXsXsXsXsXsXsXsXsXsX",
"sXsXsXsXsXsXsXsXsX+Xx.;.*.*.*.*.%._ ' ' ' ' ' ' ' ' ' ' ' ' ' ' _ ..%.+.X.sXsXsXsXsXsXsXsXsXsXsX",
"sXsXsXsXsXsXsXsX#X+XOXj.| *.*.*.&.O.` Q Q ) ' ' ' ' ' ' ' ' ' ' ' ' ..` Q sXsXsXsXsXsXsXsXsXsXsX",
"sXsXsXsXsXsXsX+X#X+X+XR } &.*.*.&.%.) < > ( ` ` ` ` ` ` ` _ _ ` ' ` ) W 1 sXsXsXsXsXsXsXsXsXsXsX",
"sXsXsXsXsXsX#X#X$X=X4X5X3XK.#.] ) ( ] / ^ 1 1 1 1 1 ! ( ) ) ) ) W 1 > 1 1 sXsXsXsXsXsXsXsXsXsXsX",
"sXsXsXsXsXsX@X$X=X<X4X5X4XT.s.5.^ 3 j.q.5.! > > 1 1 > Q Q Q Q ~ ! > 1 < 1 sXsXsXsXsXsXsXsXsXsXsX",
"sXsXsXsXsXsX+X&X<X5X4X5X4X3XJ.u.>.O E <Xd.0.} } 1 1 1 1 1 1 1 > 1 1 1 1 sXsXsXsXsXsXsXsXsXsXsXsX",
"sXsXsXsXsXsXR @XL.Y.4X4XT.J.J.N.1.9 @X6XH.G.A.i., , , ! ^ ! 1 > 1 , 1 sXsXsXsXsXsXsXsXsXsXsXsXsX",
"sXsXsXsXsXsXY R Z.A.U.U.U.J.J.B.u.0.<X6XY.T.Z.5.6 ; y q.L.z.[ 1 3 ; sXsXsXsXsXsXsXsXsXsXsXsXsXsX",
"sXsXsXsXsXsXY P l.z.D.D.D.D.N.u.u.d.P.1XT.3XZ.1.4 5 t r.A.A.z.3 : sXsXsXsXsXsXsXsXsXsXsXsXsXsXsX",
"sXsXsXsXsXsXsXY P l.a.a.N.a.3.3.5.i.B.I.3X4XZ.3.5 7 4.5.u.A.R.6 sXsXsXsXsXsXsXsXsXsXsXsXsXsXsXsX",
"sXsXsXsXsXsXsXsXsXsXo .     - X     o l.1XY.K.K.7.u.f.f.y.i.F.sXsXsXsXsXsXsXsXsXsXsXsXsXsXsXsXsX",
"sXsXsXsXsXsXsXsXsXsXsXsX4 7 X .   . 7 z.I.U.G.D.u.i.S.S.s.u.e.sXsXsXsXsXsXsXsXsXsXsXsXsXsXsXsXsX",
"sXsXsXsXsXsXsXsXsXsXsXsXsX<.      X t N.G.J.D.a.B.B.S.G.S.0.7 0 sXsXsXsXsXsXsXsXsXsXsXsXsXsXsXsX",
"sXsXsXsXsXsXsXsXsXsXsXsXsXsX5.u.i.s.s.f.B.f.a.a.5.5.,.7 6 6 4 sXsXsXsXsXsXsXsXsXsXsXsXsXsXsXsXsX",
"sXsXsXsXsXsXsXsXsXsXsXsXsXsXsXsXi.i.i.f.f.i.q.j.D a y 3 u = sXsXsXsXsXsXsXsXsXsXsXsXsXsXsXsXsXsX",
"sXsXsXsXsXsXsXsXsXsXsXsXsXsXsXsXsX0.q.p.p.q.D E.F i ! ! Z F sXsXsXsXsXsXsXsXsXsXsXsXsXsXsXsXsXsX",
"sXsXsXsXsXsXsXsXsXsXsXsXsXsXsXsXsXG Z ^ ^ C B N i W ` ` ) { '.sXsXsXsXsXsXsXsXsXsXsXsXsXsXsXsXsX",
"sXsXsXsXsXsXsXsXsXsXsXsXsXsXsXsXsXG Z ) ) i G ~.K { ` ` @.#.#.=.sXsXsXsXsXsXsXsXsXsXsXsXsXsXsXsX",
"sXsXsXsXsXsXsXsXsXsXsXsXsXsXsXsXsXc Z ) ` Q H _.).L { X.&.*.*.*.*.sXsXsXsXsXsXsXsXsXsXsXsXsXsXsX",
"sXsXsXsXsXsXsXsXsXsXsXsXsXsXsXsXsXB C W ) Q H _._._.'.#.*.*.*.*.*.*.sXsXsXsXsXsXsXsXsXsXsXsXsXsX",
"sXsXsXsXsXsXsXsXsXsXsXsXsXsXsXsXsX4.p M c i G _._._.'.@.*.*.*.wXaXaXiXsXsXsXsXsXsXsXsXsXsXsXsXsX",
"sXsXsXsXsXsXsXsXsXsXsXsXsXsXsXsXsX4.a m c a g R _._.'.h.%.:.b.wXrXrXrXrXsXsXsXsXsXsXsXsXsXsXsXsX",
"sXsXsXsXsXsXsXsXsXsXsXsXsXsXsXsXsXg S n B g m.V.`..X}.|.h.c.wX7X0X9X0XqXiXiXsXsXsXsXsXsXsXsXsXsX",
"sXsXsXsXsXsXsXsXsXsXsXsXsXsXsXsXsXG c (./.w.M.V.t.T }.}. X;X7XtXtXyXyXyXiXiXiXsXsXsXsXsXsXsXsXsX",
"sXsXsXsXsXsXsXsXsXsXsXsXsXsXsXsXsXsXN W.).E n.M.I K [.|.OX8X0XpXiXiXiXiXiXiXiXyXsXsXsXsXsXsXsXsX",
"sXsXsXsXsXsXsXsXsXsXsXsXsXsXsXsXsXsXsXW.).}.E w._._.|..X8XrXuXiXyXeXuXiXuXrXeXqX:XsXsXsXsXsXsXsX",
"sXsXsXsXsXsXsXsXsXsXsXsXsXsXsXsXsXsXsXW.)._.].].[.[..X-XqXuXiXiXrX>XyXiXtX0X7X>X:XsXsXsXsXsXsXsX",
"sXsXsXsXsXsXsXsXsXsXsXsXsXsXsXsXsXsXsXE.Q.^._._.[.[..X+X7X9X:XuXuXrX>X7X9X;X,X:XsXsXsXsXsXsXsXsX",
"sXsXsXsXsXsXsXsXsXsXsXsXsXsXsXsXsXsXsXN n !.~.^.[.[.|. X%X%X+XrXtXrX-X-X;X$X$X@XsXsXsXsXsXsXsXsX",
"sXsXsXsXsXsXsXsXsXsXsXsXsXsXsXsXsXN m N n N n N [.[.[.[.U Y Y ,X:X:X$X#X+X@Xh 5 e sXsXsXsXsXsXsX",
"sXsXsXsXsXsXsXsXsXsXsXsXsXsXsXsXN N N N N N N N !.E.E.E.B B B $X%X%XV z z z + 4 4 0 sXsXsXsXsXsX",
"sXsXsXsXsXsXsXsXsXsXsXsXsXsXsXsXN N N N N N N v E.E.E.v n v x U U U l j k j @ 4 - 8 w sXsXsXsXsX",
"sXsXsXsXsXsXsXsXsXsXsXsXsXsXsXN N N N N N N N N N N v v v x k k k k $ j j $ + - 4 8 w sXsXsXsXsX",
"sXsXsXsXsXsXsXsXsXsXw w w 0 N N N N N N N N sXsXsXsXsXl l l k j k j j j $ @ o - o 8 w sXsXsXsXsX",
"sXsXsXsXsXsXsXsXsX1.<.3.1.s N W.W.N N N N N sXsXsXsXsXsXk k j j k k k k % O o o o 0 e sXsXsXsXsX",
"sXsXsXsXsXsXsXsXsX2.7.8.8.3.M ~.~.N N N N N sXsXsXsXsXsX& % % j k k j $ & O o 4 5 8 sXsXsXsXsXsX",
"sXsXsXsXsXsXsXsXsX2.8.9.8.6.N ^.~.N N N N sXsXsXsXsXsXsX+ O + j k k k & # o 4 5 0 sXsXsXsXsXsXsX",
"sXsXsXsXsXsXsXsX1.2.7.8.9.8.h `.~.N N N N sXsXsXsXsXsXsXo 4 4 * * * * + o o o 5 w sXsXsXsXsXsXsX",
"sXsXsXsXsXsXsX1.<.<.2.6.8.8.3.U !.Q.n n N sXsXsXsXsXsXsX4 o 4 o o 4 o 4 4 o 5 5 w sXsXsXsXsXsXsX",
"sXsXsXsXsXsXsX<.s d 1.1.1.1.1.S Q.^.!.n N sXsXsXsXsXsXsXo 4 o 4 4 o 4 o o 4 8 w sXsXsXsXsXsXsXsX",
"sXsXsXsXsXsXsX<.s w s <.1.1.1.t p n n n c p sXsXsXsXsXsXsXsX4 o o 4 o 4 4 o sXsXsXsXsXsXsXsXsXsX",
"sXsXsXsXsXsXsX<.>.d w s >.>.>.d 9 A A A A 9 sXsXsXsXsXsXsXsXsXo 4 o 4 o o 4 sXsXsXsXsXsXsXsXsXsX",
"sXsXsXsXsXsXsXsXsX<.d w d e e e w w w w w w sXsXsXsXsXsXsXsXsX4 o 4 o sXsXsXsXsXsXsXsXsXsXsXsXsX",
"sXsXsXsXsXsXsXsXsXsX7.3.s w e e w w e w w w sXsXsXsXsXsXsXsXsXsXsXsXsXsXsXsXsXsXsXsXsXsXsXsXsXsX",
"sXsXsXsXsXsXsXsXsXsXsXsX<.s s d w w w w w w sXsXsXsXsXsXsXsXsXsXsXsXsXsXsXsXsXsXsXsXsXsXsXsXsXsX",
"sXsXsXsXsXsXsXsXsXsXsXsXsXe.e.t.g g f e w sXsXsXsXsXsXsXsXsXsXsXsXsXsXsXsXsXsXsXsXsXsXsXsXsXsXsX"
};
