/* XPM */
static char *result[] = {
/* columns rows colors chars-per-pixel */
"48 60 186 2 ",
"   c #411E01",
".  c #4A1C05",
"X  c #5D170C",
"o  c #571A09",
"O  c #541D10",
"+  c #61160E",
"@  c #601E01",
"#  c #661410",
"$  c #6D1313",
"%  c #731116",
"&  c #791016",
"*  c #771019",
"=  c #781018",
"-  c #7B120F",
";  c #452201",
":  c #4A2501",
">  c #4E2904",
",  c #522A01",
"<  c #572702",
"1  c #5D3101",
"2  c #5E330F",
"3  c #5E3412",
"4  c #5D331A",
"5  c #542217",
"6  c #643603",
"7  c #683700",
"8  c #673800",
"9  c #6A3900",
"0  c #62350C",
"q  c #703D00",
"w  c #7D3A09",
"e  c #653813",
"r  c #722C00",
"t  c #79133C",
"y  c #6A1A35",
"u  c #563126",
"i  c #4C2C3C",
"p  c #4E2D37",
"a  c #562C31",
"s  c #673D35",
"d  c #774204",
"f  c #794300",
"g  c #3C255E",
"h  c #3F2866",
"j  c #38256B",
"k  c #3B346F",
"l  c #2F2077",
"z  c #2F2079",
"x  c #322376",
"c  c #352973",
"v  c #302078",
"b  c #3B3676",
"n  c #771C45",
"m  c #5E214B",
"M  c #4D3845",
"N  c #412956",
"B  c #453050",
"V  c #451C66",
"C  c #4B276B",
"Z  c #423F6B",
"A  c #413D76",
"S  c #50296F",
"D  c #642968",
"F  c #4A4D64",
"G  c #434169",
"H  c #4E5561",
"J  c #515961",
"K  c #545A67",
"L  c #7E5C73",
"P  c #5D646C",
"I  c #666D75",
"U  c #696F77",
"Y  c #6A7179",
"T  c #60666E",
"R  c #9C0C0E",
"E  c #840E14",
"W  c #8D0D12",
"Q  c #9A0C13",
"!  c #811F13",
"~  c #8E130B",
"^  c #AB090B",
"/  c #A30B0D",
"(  c #BB0807",
")  c #B60809",
"_  c #B80808",
"`  c #B41500",
"'  c #B01217",
"]  c #932200",
"[  c #BC3A0D",
"{  c #AA270F",
"}  c #981327",
"|  c #BE2727",
" . c #A62F31",
".. c #C30806",
"X. c #CC0805",
"o. c #D40803",
"O. c #DC0802",
"+. c #E40801",
"@. c #ED0800",
"#. c #F00800",
"$. c #C53838",
"%. c #864B00",
"&. c #894D00",
"*. c #864308",
"=. c #8E5105",
"-. c #945400",
";. c #834B16",
":. c #95490B",
">. c #A7540D",
",. c #A75119",
"<. c #BF6619",
"1. c #A56E33",
"2. c #C4691C",
"3. c #C56921",
"4. c #851C43",
"5. c #90535D",
"6. c #BB585B",
"7. c #C9595A",
"8. c #D57777",
"9. c #D68739",
"0. c #ECA95E",
"q. c #EFA857",
"w. c #F0A858",
"e. c #F4BE7C",
"r. c #2F2985",
"t. c #2F2C8A",
"y. c #302986",
"u. c #302E8C",
"i. c #302580",
"p. c #37378A",
"a. c #2F3293",
"s. c #2F399D",
"d. c #2F3598",
"f. c #303394",
"g. c #313A9E",
"h. c #373A97",
"j. c #2F3CA3",
"k. c #313DA3",
"l. c #463388",
"z. c #403E90",
"x. c #2F40A7",
"c. c #2F40A8",
"v. c #3140A5",
"b. c #3041A9",
"n. c #3649B4",
"m. c #394EBA",
"M. c #3649B4",
"N. c #3B51BE",
"B. c #655886",
"V. c #757892",
"C. c #3E54C3",
"Z. c #4058C7",
"A. c #4058C8",
"S. c #7D848C",
"D. c #828991",
"F. c #898F97",
"G. c #8F949B",
"H. c #B8949A",
"J. c #9898A2",
"K. c #888AA1",
"L. c #9EA1A9",
"P. c #ACACB4",
"I. c #A7ABB1",
"U. c #B3B4BB",
"Y. c #B5B8BD",
"T. c #B7B3BA",
"R. c #A2A3AB",
"E. c #D89696",
"W. c #C1979B",
"Q. c #D7B4B6",
"!. c #C2AAAD",
"~. c #E7B6B6",
"^. c #F5C181",
"/. c #F7D098",
"(. c #F8D098",
"). c #BABBC2",
"_. c #C4C5CA",
"`. c #CCCCD1",
"'. c #D5D6D9",
"]. c #DEDEE1",
"[. c #E2E3E5",
"{. c #E6E6E8",
"}. c #EAEAEB",
"|. c #F3F3F4",
" X c #F9F9F9",
".X c None",
/* pixels */
".X.X.X.X.X.X.X.X.X.X.X.X.X.X.X.X.X.X.X.X#.#.#.#.#.#.#..X.X.X.X.X.X.X.X.X.X.X.X.X.X.X.X.X.X.X.X.X",
".X.X.X.X.X.X.X.X.X.X.X.X.X.X.X.X.X.X#.#.#.#.#.@.#.#.#.#.#.#..X.X.X.X.X.X.X.X.X.X.X.X.X.X.X.X.X.X",
".X.X.X.X.X.X.X.X.X.X.X.X.X.X.X.X#.#.#.@.#.#.#.#.#.#.#.#.#.#.#..X.X.X.X.X.X.X.X.X.X.X.X.X.X.X.X.X",
".X.X.X.X.X.X.X.X.X.X.X.X.X.X.X.X#.#.#.#.#.#.#.#.#.#.#.#.#.#.#.#..X.X.X.X.X.X.X.X.X.X.X.X.X.X.X.X",
".X.X.X.X.X.X.X.X.X.X.X.X.X.X.X#.#.#.#.#.#.#.#.#.#.#.#.#.#.#.#.#..X.X.X.X.X.X.X.X.X.X.X.X.X.X.X.X",
".X.X.X.X.X.X.X.X.X.X.X.X.X.X.X@.#.#.#.#.#.#.#.#.#.#.#.#.#.#.#.#..X.X.X.X.X.X.X.X.X.X.X.X.X.X.X.X",
".X.X.X.X.X.X.X.X.X.X.X.X.X.X..@.#.#.#.#.#.#.#.#.#.#.#.#.#.#.#.#.o.( .X.X.X.X.X.X.X.X.X.X.X.X.X.X",
".X.X.X.X.X.X.X.X.X.X.X.X.X.X..+.#.#.#.#.#.#.#.#.#.#.#.#.#.#.#.#.o.( .X.X.X.X.X.X.X.X.X.X.X.X.X.X",
".X.X.X.X.X.X.X.X.X.X.X.X.X.X..+.#.#.#.#.#.#.#.#.#.#.#.#.#.#.#.@.o.( .X.X.X.X.X.X.X.X.X.X.X.X.X.X",
".X.X.X.X.X.X.X.X.X.X.X.X) _ _ _ o.+.#.#.#.#.#.#.#.#.#.#.#.#.+.X._ _ _ .X.X.X.X.X.X.X.X.X.X.X.X.X",
".X.X.X.X.X.X.X.X.X.X.X.X) _ _ _ ..O.#.#.#.#.#.#.#.#.#.#.#.#.X.( _ _ _ .X.X.X.X.X.X.X.X.X.X.X.X.X",
".X.X.X.X.X.X.X.X.X.X.X.X) ) ) _ _ ..+.+.+.#.#.#.#.#.@.+.+.O._ _ _ _ _ .X.X.X.X.X.X.X.X.X.X.X.X.X",
".X.X.X.X.X.X.X.X.X.X.X.X_ _ _ _ _ _ ( ( X.+.+.+.+.+.O.X._ _ _ _ _ _ _ .X.X.X.X.X.X.X.X.X.X.X.X.X",
".X.X.X.X.X.X.X.X.X.X.X_ _ _ _ _ _ _ _ _ ( ..X...X.....( _ _ _ _ _ _ _ _ .X.X.X.X.X.X.X.X.X.X.X.X",
".X.X.X.X.X.X.X.X.X.X.X_ _ _ _ _ _ _ _ _ _ X.O.+.O.X.( _ ) ) _ _ _ _ _ _ _ .X.X.X.X.X.X.X.X.X.X.X",
".X.X.X.X.X.X.X.X.X.X.X_ _ _ _ _ _ _ ( X.X.O.+.#.#.+.X.X..._ _ _ _ _ _ _ _ .X.X.X.X.X.X.X.X.X.X.X",
".X.X.X.X.X.X.X.X.X.X.X_ _ _ ) _ _ _ X.+.#.#.#.#.#.#.#.#.+..._ _ _ _ _ _ .X.X.X.X.X.X.X.X.X.X.X.X",
".X.X.X.X.X.X.X.X.X.X.X.X_ ) ) _ _ X.+.#.#.#.#.#.#.#.#.#.+.+._ _ _ _ _ .X.X.X.X.X.X.X.X.X.X.X.X.X",
".X.X.X.X.X.X.X.X.X.X.X.X[ { Q ) _ ( O.+.#.#.#.#.#.#.#.#.+.o._ _ / R [ .X.X.X.X.X.X.X.X.X.X.X.X.X",
".X.X.X.X.X.X.X.X.X.X.X.X2.,.& / ^ ) ..+.+.+.#.#.#.#.+.+.o._ ^ ^ W ! 2..X.X.X.X.X.X.X.X.X.X.X.X.X",
".X.X.X.X.X.X.X.X.X.X.X/.0.1.. % = W _ _ _ X.+.#.#.O.( _ ) ) * % o e q.^.(..X.X.X.X.X.X.X.X.X.X.X",
".X.X.X.X.X.X.X.X.X.X.X/.0.9.:.< + & E E E R ) ....) W E E E % X w ,.q.^.(..X.X.X.X.X.X.X.X.X.X.X",
".X.X.X.X.X.X.X.X.X.X.X/.0.9.>., o + $ % & E R R R Q & = $ + X . *.2.q.e..X.X.X.X.X.X.X.X.X.X.X.X",
".X.X.X.X.X.X.X.X.X.X.X.X.X.X>.7 :   . X # $ % = * $ # # o     , *.<..X.X.X.X.X.X.X.X.X.X.X.X.X.X",
".X.X.X.X.X.X.X.X.X.X.X.X.X.X.X&.1       . X % & & $ . .     : 9 .X.X.X.X.X.X.X.X.X.X.X.X.X.X.X.X",
".X.X.X.X.X.X.X.X.X.X.X.X.X.X.X.X                              .X.X.X.X.X.X.X.X.X.X.X.X.X.X.X.X.X",
".X.X.X.X.X.X.X.X.X.X.X.X.X.X.X.X< : :                   ; > < .X.X.X.X.X.X.X.X.X.X.X.X.X.X.X.X.X",
".X.X.X.X.X.X.X.X.X.X.X.X.X.X.X#.] 6 1 ; ; : :     : :   , 9 r ` .X.X.X.X.X.X.X.X.X.X.X.X.X.X.X.X",
".X.X.X.X.X.X.X.X.X.X.X.X.X.X#.#.~ < 1 ; > 1 1 ; , 1 1 > > 0 @ ` #.#..X.X.X.X.X.X.X.X.X.X.X.X.X.X",
".X.X.X.X.X.X.X.X.X.X.X.X.Xo.#.#.~ a b b M 1 > + < > 3 B b A - ( #.@._ .X.X.X.X.X.X.X.X.X.X.X.X.X",
".X.X.X.X.X.X.X.X.X.X.X.X_ o.@.O.R m c.v.A u O * # 5 M z.c.v.E ) +.+._ .X.X.X.X.X.X.X.X.X.X.X.X.X",
".X.X.X.X.X.X.X.X.X.X.X.X_ X.+...W m b.c.c.C y * * y k.c.b.v.E R o.+._ .X.X.X.X.X.X.X.X.X.X.X.X.X",
".X.X.X.X.X.X.X.X.X.X.X_ _ _ _ _ D k.k.b.b.k.k.* S v.v.v.b.j.l.4.( _ _ _ _ .X.X.X.X.X.X.X.X.X.X.X",
".X.X.X.X.X.X.X.X.X.X.X( _ ) ^ t l.k.b.c.c.b.c.S h.v.b.b.b.b.h.S } ) _ _ $..X.X.X.X.X.X.X.X.X.X.X",
".X.X.X.X.X.X.X.X.X{.Q._ _ _ Q V d.k.b.b.c.b.b.b.b.b.v.b.c.b.k.y.t ' _ _ 7.{..X.X.X.X.X.X.X.X.X.X",
".X.X.X.X.X.X.X.X.XY.H.$._ ' } C s.b.c.c.b.b.b.b.b.b.c.b.c.j.k.u.n ' ( ' 6.Y..X.X.X.X.X.X.X.X.X.X",
".X.X.X.X.X.X.X.X.X_.T.~.$. .L h.j.j.c.j.k.b.m.C.N.m.c.b.b.c.b.j.B.5.( 8.Q.T.}..X.X.X.X.X.X.X.X.X",
".X.X.X.X.X.X.X.X X{.'.Y.E.H.K.z.j.j.M.n.C.C.C.A.A.C.N.m.M.b.j.d.V.J.E.!._.].|..X.X.X.X.X.X.X.X.X",
".X.X.X.X.X.X.X.X}. X[.G._.T.S.l.d.k.b.C.C.C.A.A.A.Z.Z.C.M.b.j.t.B.J.`.P.Y. X X[..X.X.X.X.X.X.X.X",
".X.X.X.X.X.X.X).'. X{.I.D.U F x d.k.j.k.n.C.C.A.C.C.N.b.x.x.d.r.A K V.L._. X|.`._..X.X.X.X.X.X.X",
".X.X.X.X.X.X.XY._.}.[.J.Y P F c y.f.b.b.M.M.n.n.M.M.n.b.b.k.y.y.Z K I D.).|.'.)._..X.X.X.X.X.X.X",
".X.X.X.X.X.X.X.XT._.).I I P H G c y.u.u.u.d.k.k.k.k.f.u.f.u.v k F J U U F.`.Y.U..X.X.X.X.X.X.X.X",
".X.X.X.X.X.X.X.XP.T.R.T S.Y H H k v v v x u.s.k.k.d.i.v v v c Z H K S.U D.U.P..X.X.X.X.X.X.X.X.X",
".X.X.X.X.X.X.X.XD.J.P.U.D.Y H H k v v l l l l l z l v v v x c G J K D.L.P.I.F..X.X.X.X.X.X.X.X.X",
".X.X.X.X.X.X.X.X.XY U U P P .X.Xv v v l l v v v l l v z l l v .X.X.XP I U U .X.X.X.X.X.X.X.X.X.X",
".X.X.X.X.X.X.X.X.X.XJ J J .X.X.Xv v v v v v l v v v v l l l l .X.X.XJ J J .X.X.X.X.X.X.X.X.X.X.X",
".X.X.X.X.X.X.X.X.X.X.X.X.X.X.X.Xv l v l v l l .X.Xv v l l l l .X.X.X.X.X.X.X.X.X.X.X.X.X.X.X.X.X",
".X.X.X.X.X.X.X.X.X.X.X.X.X.X.X.Xv l v v v v v .X.Xl v v l l v .X.X.X.X.X.X.X.X.X.X.X.X.X.X.X.X.X",
".X.X.X.X.X.X.X.X.X.X.X.X.X.X.X.Xg l l l l v .X.X.X.Xv z v v j i .X.X.X.X.X.X.X.X.X.X.X.X.X.X.X.X",
".X.X.X.X.X.X.X.X.X.X.X.X.X.X.X4 g x l l l .X.X.X.X.Xv x v l j B .X.X.X.X.X.X.X.X.X.X.X.X.X.X.X.X",
".X.X.X.X.X.X.X.X.X.X.X.X.X.X;.h x l l l x v .X.X.X.Xl l l l v v s =..X.X.X.X.X.X.X.X.X.X.X.X.X.X",
".X.X.X.X.X.X.X.X.X.X.X.X.X-.;.C x l l l v v v .X.Xl v v v v v v s =.-..X.X.X.X.X.X.X.X.X.X.X.X.X",
".X.X.X.X.X.X.X.X.X.X.X.X-.%.e h u.u.l v v y.f..X.Xf.x l x x f.y.p d -..X.X.X.X.X.X.X.X.X.X.X.X.X",
".X.X.X.X.X.X.X.X.X.X.X.X%.w 0 B y.a.y.y.y.u.d..X.Xf.r.r.y.y.u.j u 9 %..X.X.X.X.X.X.X.X.X.X.X.X.X",
".X.X.X.X.X.X.X.X.X.X.X.X9 9 6 3 N u.k.k.g.f.y..X.Xy.s.k.j.s.c M e 9 q .X.X.X.X.X.X.X.X.X.X.X.X.X",
".X.X.X.X.X.X.X.X.X.X.X.X.X.X8 7 0 p x i.x N u .X.Xa x i.i.v 0 6 9 9 .X.X.X.X.X.X.X.X.X.X.X.X.X.X",
".X.X.X.X.X.X.X.X.X.X.X.X.X.X9 9 9 e i i i u 6 .X.Xe p i i i 9 9 9 9 .X.X.X.X.X.X.X.X.X.X.X.X.X.X",
".X.X.X.X.X.X.X.X.X.X.X.X.X.X9 q 9 9 7 7 9 9 q .X.X9 7 9 9 9 9 9 9 9 .X.X.X.X.X.X.X.X.X.X.X.X.X.X",
".X.X.X.X.X.X.X.X.X.X.X.X.X.X.X=.f 9 9 9 9 f &..X.X%.9 9 9 9 9 %..X.X.X.X.X.X.X.X.X.X.X.X.X.X.X.X",
".X.X.X.X.X.X.X.X.X.X.X.X.X.X.X.X&.%.%.%.&.%..X.X.X.X%.&.%.%.%..X.X.X.X.X.X.X.X.X.X.X.X.X.X.X.X.X"
};
