/* XPM */
static char *result[] = {
/* columns rows colors chars-per-pixel */
"48 60 222 2 ",
"   c #250C02",
".  c #391704",
"X  c #2A1813",
"o  c #33221E",
"O  c #322522",
"+  c #441E09",
"@  c #7D0F16",
"#  c #791017",
"$  c #781018",
"%  c #771018",
"&  c #492102",
"*  c #5A2A06",
"=  c #5D3315",
"-  c #652E08",
";  c #673602",
":  c #683700",
">  c #693800",
",  c #683609",
"<  c #723D01",
"1  c #783C0C",
"2  c #683415",
"3  c #763818",
"4  c #712B0B",
"5  c #4D2D38",
"6  c #593334",
"7  c #532F2B",
"8  c #633B37",
"9  c #6E1C38",
"0  c #754100",
"q  c #7A4500",
"w  c #764214",
"e  c #734A30",
"r  c #37246B",
"t  c #2F2079",
"y  c #2F2077",
"u  c #302077",
"i  c #302078",
"p  c #372C74",
"a  c #3E3479",
"s  c #3F2658",
"d  c #61174F",
"f  c #611F58",
"g  c #4A2E54",
"h  c #552D53",
"j  c #77224F",
"k  c #482466",
"l  c #463169",
"z  c #44377E",
"x  c #5C307B",
"c  c #451E69",
"v  c #75574A",
"b  c #515961",
"n  c #5D506C",
"m  c #4F5066",
"M  c #5B636C",
"N  c #676D75",
"B  c #6B727A",
"V  c #7A7967",
"C  c #65595C",
"Z  c #8A0E13",
"A  c #840E15",
"S  c #851719",
"D  c #951013",
"F  c #AB0A0B",
"G  c #A20B0D",
"H  c #B60809",
"J  c #B80808",
"K  c #BE0807",
"L  c #A80F1C",
"P  c #B41716",
"I  c #932E15",
"U  c #B3271D",
"Y  c #B23411",
"T  c #950E24",
"R  c #981221",
"E  c #8F182F",
"W  c #8E2C2A",
"Q  c #BC2626",
"!  c #A62B2E",
"~  c #AC152B",
"^  c #C50906",
"/  c #CC0805",
"(  c #C40A0A",
")  c #D20804",
"_  c #D90A06",
"`  c #C7151A",
"'  c #E50802",
"]  c #EE0800",
"[  c #F00800",
"{  c #EF140D",
"}  c #C72A18",
"|  c #C42B2A",
" . c #D13634",
".. c #854B00",
"X. c #8A4E01",
"o. c #89450A",
"O. c #97470C",
"+. c #945400",
"@. c #9B5C00",
"#. c #935508",
"$. c #884919",
"%. c #895318",
"&. c #924F0F",
"*. c #A6580B",
"=. c #AC5A18",
"-. c #B44E10",
";. c #9D6202",
":. c #9F6A16",
">. c #AA6B00",
",. c #A56503",
"<. c #B47400",
"1. c #BA7900",
"2. c #BA6518",
"3. c #AE6E19",
"4. c #8B492D",
"5. c #A6592A",
"6. c #91662C",
"7. c #B76A2F",
"8. c #C9581A",
"9. c #C16213",
"0. c #C96B1C",
"q. c #C77326",
"w. c #D6772C",
"e. c #DA7B35",
"r. c #CC6F2F",
"t. c #D96829",
"y. c #8D1F47",
"u. c #A51D41",
"i. c #895145",
"p. c #81664D",
"a. c #AA7048",
"s. c #896C74",
"d. c #A95C61",
"f. c #CD4E45",
"g. c #C76C50",
"h. c #CF6B6C",
"j. c #B8921A",
"k. c #AA8422",
"l. c #D5AE06",
"z. c #DA853A",
"x. c #E88239",
"c. c #E08239",
"v. c #C5A514",
"b. c #F0D300",
"n. c #D89345",
"m. c #D4904E",
"M. c #E69648",
"N. c #E79B56",
"B. c #EDA356",
"V. c #D2A57A",
"C. c #F0A863",
"Z. c #F2B36B",
"A. c #EFB577",
"S. c #2F2A87",
"D. c #312681",
"F. c #312B86",
"G. c #302D8C",
"H. c #383389",
"J. c #2F3396",
"K. c #303394",
"L. c #30369A",
"P. c #31399D",
"I. c #2F2F90",
"U. c #2F3EA5",
"Y. c #303EA6",
"T. c #473687",
"R. c #543383",
"E. c #433992",
"W. c #3F4593",
"Q. c #2F40A8",
"!. c #3141A9",
"~. c #3947A0",
"^. c #374BB6",
"/. c #3B51BF",
"(. c #434B93",
"). c #514D86",
"_. c #737B83",
"`. c #767D8A",
"'. c #73758F",
"]. c #414CA1",
"[. c #3D54C2",
"{. c #4058C7",
"}. c #4058C8",
"|. c #4057C8",
" X c #90728E",
".X c #C57D80",
"XX c #7B828B",
"oX c #868C94",
"OX c #8C929A",
"+X c #A88B8A",
"@X c #9A9CA4",
"#X c #9EA2AA",
"$X c #A6A6AE",
"%X c #A6A8AF",
"&X c #ACADB5",
"*X c #B1B2B9",
"=X c #A79EA6",
"-X c #DA8787",
";X c #D99394",
":X c #F1B982",
">X c #CFAEAF",
",X c #E2A4A4",
"<X c #E9BFBF",
"1X c #F5C487",
"2X c #F8D098",
"3X c #F8D097",
"4X c #F6CC96",
"5X c #F4CFAC",
"6X c #BBBBC2",
"7X c #DABEC0",
"8X c #C7C7CC",
"9X c #CCCCD1",
"0X c #D8D8DC",
"qX c #EDD3CD",
"wX c #F7E6D1",
"eX c #DDDDE0",
"rX c #EBEBED",
"tX c #E5E2E4",
"yX c #F3F3F4",
"uX c #F9F9F9",
"iX c #F9F7F5",
"pX c None",
/* pixels */
"pXpXpXpXpXpXpXpXpXpXpXpXpXpXpXpXpXpXpXpX[ [ [ [ ] ] ] pXpXpXpXpXpXpXpXpXpXpXpXpXpXpXpXpXpXpXpXpX",
"pXpXpXpXpXpXpXpXpXpXpXpXpXpXpXpXpXpX] [ [ [ [ ] ] [ [ [ [ [ pXpXpXpXpXpXpXpXpXpXpXpXpXpXpXpXpXpX",
"pXpXpXpXpXpXpXpXpXpXpXpXpXpXpXpX[ [ [ [ [ [ ] [ [ [ [ [ [ [ [ [ pXpXpXpXpXpXpXpXpXpXpXpXpXpXpXpX",
"pXpXpXpXpXpXpXpXpXpXpXpXpXpXpX] [ [ [ [ [ [ [ [ ] [ [ [ ] ] [ [ [ pXpXpXpXpXpXpXpXpXpXpXpXpXpXpX",
"pXpXpXpXpXpXpXpXpXpXpXpXpXpX] [ [ ] [ ] ] { { { { { ] ] ] [ [ [ [ ] pXpXpXpXpXpXpXpXpXpXpXpXpXpX",
"pXpXpXpXpXpXpXpXpXpXpXpXJ J ^ _ ' ' ' K Q ;XtXrXrX,XQ P ) ' ' ' ) J J pXpXpXpXpXpXpXpXpXpXpXpXpX",
"pXpXpXpXpXpXpXpXpXpXpXpXJ J K / / / / P h.>X9X9X9X7X;X| ( / / / ^ H J pXpXpXpXpXpXpXpXpXpXpXpXpX",
"pXpXpXpXpXpXpXpXpXpXpXpXJ J J H J J J Q h.6X6X&X&X6X>XQ H J J J J J H A pXpXpXpXpXpXpXpXpXpXpXpX",
"pXpXpXpXpXpXpXpXpXpXpX# F H H J J J J L d.=X%X*X&X$X XQ H H J J J H F A pXpXpXpXpXpXpXpXpXpXpXpX",
"pXpXpXpXpXpXpXpXpXpXpX$ A G H J J J J S W s.OX*X@Xs.W S G J J H J F Z @ pXpXpXpXpXpXpXpXpXpXpXpX",
"pXpXpXpXpXpXpXpXpXpXpX$ # A Z Z Z G J F K `  . . .| ^ F H F Z Z Z S $ $ pXpXpXpXpXpXpXpXpXpXpXpX",
"pXpXpXpXpXpXpXpXpXpXpXpX% # % % Z G ) ) ' [ ] ] ] ] ] ) / ( Z $ $ $ $ $ pXpXpXpXpXpXpXpXpXpXpXpX",
"pXpXpXpXpXpXpXpXpXpXpXpX# $ % S F / [ [ [ [ [ [ [ [ [ [ [ ' F S S $ $ pXpXpXpXpXpXpXpXpXpXpXpXpX",
"pXpXpXpXpXpXpXpXpXpXpXpX% $ S -.P / [ [ [ [ [ [ [ [ [ [ [ ' K -.I $ $ pXpXpXpXpXpXpXpXpXpXpXpXpX",
"pXpXpXpXpXpXpXpXpXpXpXpXg.$.4 =.8.g.h./ ^ / / ) ) / / / f.g.8.8.&.3 5.4XpXpXpXpXpXpXpXpXpXpXpXpX",
"pXpXpXpXpXpXpXpXpXpXpX2Xz.%.* *.e.V.9X! ! U } } } U ~ ! +X>Xc.2.o.w r.1XpXpXpXpXpXpXpXpXpXpXpXpX",
"pXpXpXpXpXpXpXpXpXpXpX2X9.1 * X.z.4XuXXXN a.g.x.x.7.M XX6XwXz.3.0 , *.:XpXpXpXpXpXpXpXpXpXpXpXpX",
"pXpXpXpXpXpXpXpXpXpXpXZ.e.&.0 #.w.:XiXo X 4.z.x.x.5.X O @XwXw.,...o.r.B.pXpXpXpXpXpXpXpXpXpXpXpX",
"pXpXpXpXpXpXpXpXpXpXpXpXx.2.X.@.w.A.wXO   $.e.M.x.5.  O +X5Xw.,.+.=.w.B.pXpXpXpXpXpXpXpXpXpXpXpX",
"pXpXpXpXpXpXpXpXpXpXpXpXpX0.0.2.c.C.2Xp.e 7.N.Z.Z.7.= p.V.:Xn.q.2.0.w.pXpXpXpXpXpXpXpXpXpXpXpXpX",
"pXpXpXpXpXpXpXpXpXpXpXpXpXpX0.n.N.Z.2Xm.7.m.A.3X1XN.=.m.A.1XB.M.z.9.pXpXpXpXpXpXpXpXpXpXpXpXpXpX",
"pXpXpXpXpXpXpXpXpXpXpXpXpXpXpXe.&.&.9.0.z.:X4X3X2X:XM.q.2.=.%.q.x.pXpXpXpXpXpXpXpXpXpXpXpXpXpXpX",
"pXpXpXpXpXpXpXpXpXpXpXpXpXpXpXe., & - 1 7.B.A.3X1XC.e.1 - - , 7.x.pXpXpXpXpXpXpXpXpXpXpXpXpXpXpX",
"pXpXpXpXpXpXpXpXpXpXpXpXpXpXpXe.3 +   . w z.B.1XB.n.5.+     , 7.pXpXpXpXpXpXpXpXpXpXpXpXpXpXpXpX",
"pXpXpXpXpXpXpXpXpXpXpXpXpXpXpXpXt.$.. + . $.r.x.e.5.. . . * t.pXpXpXpXpXpXpXpXpXpXpXpXpXpXpXpXpX",
"pXpXpXpXpXpXpXpXpXpXpXpXpXpXpXpX} Y O.$.* + * *.w .   I #.O.} pXpXpXpXpXpXpXpXpXpXpXpXpXpXpXpXpX",
"pXpXpXpXpXpXpXpXpXpXpXpXpXpXpXpX/ U i.4.2 * - *.1 * - 4.i.4.) pXpXpXpXpXpXpXpXpXpXpXpXpXpXpXpXpX",
"pXpXpXpXpXpXpXpXpXpXpXpXpXpXpX[ [ u.Y.r 4.9.2.9.2.9.=.k K.R.[ [ [ pXpXpXpXpXpXpXpXpXpXpXpXpXpXpX",
"pXpXpXpXpXpXpXpXpXpXpXpXpXpX] ' T f U.H.y.G A S A G ~ T.Y.E.T ) ] ] pXpXpXpXpXpXpXpXpXpXpXpXpXpX",
"pXpXpXpXpXpXpXpXpXpXpXpXpX' [ { j T.Y.E.y./ ( K K ^ ` R.Y.E.j ` ] ' ^ pXpXpXpXpXpXpXpXpXpXpXpXpX",
"pXpXpXpXpXpXpXpXpXpXpXpXJ ^ / ( x !.!.E.y.K ) ) ) ( R T.Y.U.R.~ _ / K pXpXpXpXpXpXpXpXpXpXpXpXpX",
"pXpXpXpXpXpXpXpXpXpXpXJ J J H L R.~.(.T.h T L L L R 9 T.(.(.T.y.F J J J pXpXpXpXpXpXpXpXpXpXpXpX",
"pXpXpXpXpXpXpXpXpXpX,X| H J T c Y.s.b.%.b !.Y.!.!.!.W.%.l.v.U.i d J J J -XuXpXpXpXpXpXpXpXpXpXpX",
"pXpXpXpXpXpXpXpXpX0X,X| J J T k e j.b.:.C ^./././.^.(.6.l.l.i.l d H J H -XrX6XpXpXpXpXpXpXpXpXpX",
"pXpXpXpXpXpXpXpX9XeX<Xh.J J T k v k.l.v )./.{.{.{./.W.v j.v.v l d H J f.,XyX9XpXpXpXpXpXpXpXpXpX",
"pXpXpXpXpXpXpXpXyXuXyXyX| | E c L.M 3.!./.{.{.{.{.{.[.^.C 6.K.D.f Q Q qXyXuXuXpXpXpXpXpXpXpXpXpX",
"pXpXpXpXpXpXpX*XrXuXtX8XqX>X Xa t H.).!./.}.}.}.{.{.[.!.(.(.D.i ).>X<X6XeXuXyX9XpXpXpXpXpXpXpXpX",
"pXpXpXpXpXpXpX*X9XtXrXeX6X$X'.H.t G.Q.Q.^.[.[.[.{.[.^.!.Y.K.t t ).@X*X0XrXyX0X6XpXpXpXpXpXpXpXpX",
"pXpXpXpXpXpXpX*X6X8XrXtXOXoX'.).p S.L.U.U.^.[.[./.^.!.!.U.I.i a ).OXOXeXrX0X*X*XpXpXpXpXpXpXpXpX",
"pXpXpXpXpXpXpXpX$X$X&X*X@X=XOXoXT.t y P.L.U.U.Y.!.U.P.P.S.t z '.OX=X@X&X%X$X%XpXpXpXpXpXpXpXpXpX",
"pXpXpXpXpXpXpXpXOXOX@X&XB N _._.T.u u D.D.J.Y.U.U.L.D.D.t y H.'._.N N $X#XoXOXpXpXpXpXpXpXpXpXpX",
"pXpXpXpXpXpXpXpXpXXXoXOX_.M m M a u u u i D.S.S.S.D.t u t y p m M M B oXoXoXpXpXpXpXpXpXpXpXpXpX",
"pXpXpXpXpXpXpXpXpXpXXX_._.M b m p u u u y u u i t t u u t t p m b M B _.XXpXpXpXpXpXpXpXpXpXpXpX",
"pXpXpXpXpXpXpXpXpXpXpXb b b b pXt u t t i u u pXpXt u t t y i pXpXb b b pXpXpXpXpXpXpXpXpXpXpXpX",
"pXpXpXpXpXpXpXpXpXpXpXpXpXpXpXpXt u t t i pXpXpXpXpXi i y i y pXpXpXpXpXpXpXpXpXpXpXpXpXpXpXpXpX",
"pXpXpXpXpXpXpXpXpXpXpXpXpXpXpXpXu t u u i pXpXpXpXpXu t u i u pXpXpXpXpXpXpXpXpXpXpXpXpXpXpXpXpX",
"pXpXpXpXpXpXpXpXpXpXpXpXpXpXpXi t t u t i pXpXpXpXpXt t i i i i u pXpXpXpXpXpXpXpXpXpXpXpXpXpXpX",
"pXpXpXpXpXpXpXpXpXpXpXpXpXpXpXi i t t u u i i pXpXu t u i i i i i pXpXpXpXpXpXpXpXpXpXpXpXpXpXpX",
"pXpXpXpXpXpXpXpXpXpXpXpXpXpXF.J.L.G.y y y y y pXpXi u i i t L.L.K.pXpXpXpXpXpXpXpXpXpXpXpXpXpXpX",
"pXpXpXpXpXpXpXpXpXpXpXpXpX6 s a I.I.G.G.D.y t pXpXu i G.I.K.K.K.p 6 pXpXpXpXpXpXpXpXpXpXpXpXpXpX",
"pXpXpXpXpXpXpXpXpXpXpXpX+.X.w h g p L.L.F.r s pXpXr t J.L.H.g g 6 X.+.pXpXpXpXpXpXpXpXpXpXpXpXpX",
"pXpXpXpXpXpXpXpXpXpXpXpX@.>.>.#.#.e r r r 5 = pXpX7 r r r g #.#.,.>.@.pXpXpXpXpXpXpXpXpXpXpXpXpX",
"pXpXpXpXpXpXpXpXpXpXpXpX>.<.<.>.>.%.8 5 5 = , pXpX2 5 5 6 e >.>.<.<.>.pXpXpXpXpXpXpXpXpXpXpXpXpX",
"pXpXpXpXpXpXpXpXpXpXpX+.,.<.1.1.>.,.+.q 0 : : pXpX> > q X.@.>.<.1.<.>.+.pXpXpXpXpXpXpXpXpXpXpXpX",
"pXpXpXpXpXpXpXpXpXpXpX+.+.>.<.<.,.+.+...0 > : pXpX> > ..X.+.,.>.<.<.@.+.pXpXpXpXpXpXpXpXpXpXpXpX",
"pXpXpXpXpXpXpXpXpXpXpX> > q +.+.+...> > > pXpXpXpXpX> > : < +.+.+...< > pXpXpXpXpXpXpXpXpXpXpXpX",
"pXpXpXpXpXpXpXpXpXpXpX: : > q q 0 < : : > pXpXpXpXpX> > > > q q 0 < > : pXpXpXpXpXpXpXpXpXpXpXpX",
"pXpXpXpXpXpXpXpXpXpXpX> : : : : : : > < > pXpXpXpXpX> 0 > > > > : : : : pXpXpXpXpXpXpXpXpXpXpXpX",
"pXpXpXpXpXpXpXpXpXpXpXpX; 0 q q 0 < < +.pXpXpXpXpXpXpXpXq > 0 0 q 0 > pXpXpXpXpXpXpXpXpXpXpXpXpX",
"pXpXpXpXpXpXpXpXpXpXpXpXpX;.>.>.+.X.X.pXpXpXpXpXpXpXpXpXX.X.+.,.>.,.pXpXpXpXpXpXpXpXpXpXpXpXpXpX"
};
