/* XPM */
static char *result[] = {
/* columns rows colors chars-per-pixel */
"48 60 210 2 ",
"   c #230A00",
".  c #3B1C08",
"X  c #321713",
"o  c #3D2211",
"O  c #190A31",
"+  c #342B3D",
"@  c #401F01",
"#  c #5D170D",
"$  c #7E0F16",
"%  c #781018",
"&  c #771018",
"*  c #671411",
"=  c #492500",
"-  c #472304",
";  c #532809",
":  c #5A321D",
">  c #5E3416",
",  c #452C15",
"<  c #683601",
"1  c #673801",
"2  c #693900",
"3  c #64320C",
"4  c #653600",
"5  c #733F00",
"6  c #753708",
"7  c #792914",
"8  c #673613",
"9  c #7A172B",
"0  c #4C2724",
"q  c #503232",
"w  c #754100",
"e  c #7A4401",
"r  c #7E4508",
"t  c #794215",
"y  c #75513C",
"u  c #0C0243",
"i  c #351F4E",
"p  c #341F54",
"a  c #2D1B58",
"s  c #3E2759",
"d  c #33325A",
"f  c #241866",
"g  c #36246C",
"h  c #2F2078",
"j  c #2F2077",
"k  c #322275",
"l  c #302078",
"z  c #372C77",
"x  c #3D3671",
"c  c #5F1C4F",
"v  c #631F41",
"b  c #45294C",
"n  c #5E214B",
"m  c #522C57",
"M  c #6B2E4F",
"N  c #4C2C6A",
"B  c #582C6C",
"V  c #4F3366",
"C  c #6D2A68",
"Z  c #642A69",
"A  c #772A66",
"S  c #773B6B",
"D  c #4A4C6A",
"F  c #54596B",
"G  c #504373",
"H  c #5B626A",
"J  c #7A7875",
"K  c #53504D",
"L  c #890D15",
"P  c #930D12",
"I  c #901513",
"U  c #A30B0E",
"Y  c #AA0A0B",
"T  c #BC0807",
"R  c #B70808",
"E  c #B80808",
"W  c #BA1616",
"Q  c #AB100D",
"!  c #92241E",
"~  c #AE2E12",
"^  c #861C28",
"/  c #862D2D",
"(  c #AD2222",
")  c #C20806",
"_  c #CB0805",
"`  c #C50909",
"'  c #D20804",
"]  c #DB0803",
"[  c #CF1C19",
"{  c #E20801",
"}  c #EC0800",
"|  c #F00800",
" . c #EA160B",
".. c #C13435",
"X. c #EE2A13",
"o. c #894A03",
"O. c #984F0C",
"+. c #8D5000",
"@. c #945400",
"#. c #9E5E00",
"$. c #945705",
"%. c #864818",
"&. c #8A551B",
"*. c #985C12",
"=. c #A85D18",
"-. c #B35D1C",
";. c #9F6216",
":. c #AA6D02",
">. c #A26200",
",. c #B27200",
"<. c #8E5337",
"1. c #A85B2A",
"2. c #B3512F",
"3. c #BB6726",
"4. c #B46F2D",
"5. c #C66619",
"6. c #DA403E",
"7. c #C46C2F",
"8. c #CA7026",
"9. c #D8752B",
"0. c #CA7037",
"q. c #DA7B34",
"w. c #D7633A",
"e. c #E47D34",
"r. c #995055",
"t. c #AA5C46",
"y. c #B45A5E",
"u. c #94754A",
"i. c #AF6E4A",
"p. c #B85F62",
"a. c #8E7376",
"s. c #B36970",
"d. c #D87E7E",
"f. c #D8B70A",
"g. c #D7BD16",
"h. c #D68336",
"j. c #CF8B3C",
"k. c #E6863B",
"l. c #8E8956",
"z. c #999662",
"x. c #D48F4C",
"c. c #ED9A4D",
"v. c #E69245",
"b. c #EB8F44",
"n. c #ECA35C",
"m. c #EAA55A",
"M. c #F0A959",
"N. c #C69A68",
"B. c #DDAF70",
"V. c #E7AA68",
"C. c #F1AE63",
"Z. c #F3B56D",
"A. c #E5AE77",
"S. c #F4BD7A",
"D. c #E8B073",
"F. c #F5C07E",
"G. c #2F2A88",
"H. c #302986",
"J. c #302E8D",
"K. c #303394",
"L. c #303B9D",
"P. c #363794",
"I. c #2F3FA6",
"U. c #313EA4",
"Y. c #493889",
"T. c #3C469E",
"R. c #2F40A8",
"E. c #2F40A7",
"W. c #3141A9",
"Q. c #384CB8",
"!. c #4F4C89",
"~. c #686389",
"^. c #737985",
"/. c #4452AA",
"(. c #6873A1",
"). c #737BAF",
"_. c #3D53C1",
"`. c #4258C2",
"'. c #868994",
"]. c #93969E",
"[. c #8B9199",
"{. c #999AA7",
"}. c #908DB1",
"|. c #B09FA4",
" X c #9FA5B9",
".X c #B3B3BA",
"XX c #ACAAAF",
"oX c #C29598",
"OX c #EEBB8D",
"+X c #CFBFB4",
"@X c #E6B4B4",
"#X c #F4C389",
"$X c #F7CD94",
"%X c #F8CF98",
"&X c #F8D098",
"*X c #F7D098",
"=X c #BFBEC9",
"-X c #B3AFC4",
";X c #C0C0C6",
":X c #C7C7CC",
">X c #C8CACE",
",X c #D0D0D5",
"<X c #D7D7DA",
"1X c #DDCACC",
"2X c #E8D9DB",
"3X c #DCDEE0",
"4X c #E7E8E9",
"5X c #F4F4F5",
"6X c #F9F9F9",
"7X c #72751B",
/* pixels */
"7X7X7X7X7X7X7X7X7X7X7X7X7X7X7X7X7X7X7X7X7X7X7X| | | { ' 7X7X7X7X7X7X7X7X7X7X7X7X7X7X7X7X7X7X7X7X",
"7X7X7X7X7X7X7X7X7X7X7X7X7X7X7X7X7X7X7X7X7X| | | | | | } ) 7X7X7X7X7X7X7X7X7X7X7X7X7X7X7X7X7X7X7X",
"7X7X7X7X7X7X7X7X7X7X7X7X7X7X7X7X7X7X7X| | | | | | | | | ) E 7X7X7X7X7X7X7X7X7X7X7X7X7X7X7X7X7X7X",
"7X7X7X7X7X7X7X7X7X7X7X7X7X7X7X7X7X| | | | | | | | | | | ) E 7X7X7X7X7X7X7X7X7X7X7X7X7X7X7X7X7X7X",
"7X7X7X7X7X7X7X7X7X7X7X7X7X7X7X7X7X| | | | | | | | | } { T ..7X7X7X7X7X7X7X7X7X7X7X7X7X7X7X7X7X7X",
"7X7X7X7X7X7X7X7X7X7X7X7X7X7X7X7X) | | | } | | | | | ] ) E d.2X7X7X7X7X7X7X7X7X7X7X7X7X7X7X7X7X7X",
"7X7X7X7X7X7X7X7X7X7X7X7X7X7X7XT ) | | | | | | | | | { ) ) d.oX/ R 7X7X7X7X7X7X7X7X7X7X7X7X7X7X7X",
"7X7X7X7X7X7X7X7X7X7X7X7X| T T ' } } | | | | | | } ] T T E p.s.( } | 7X7X7X7X7X7X7X7X7X7X7X7X7X7X",
"7X7X7X7X7X7X7X7X7X7X7X| } ' ` ' | | | | | } | | { _ E E E s.d.[ | | 7X7X7X7X7X7X7X7X7X7X7X7X7X7X",
"7X7X7X7X7X7X7X7X7X7X7X| } } ' ) ] | | | | } ] ] ` E E E E ( ..{ | | 7X7X7X7X7X7X7X7X7X7X7X7X7X7X",
"7X7X7X7X7X7X7X7X7X7X7X| | } _ E ) | } | | { T E E E E E T { | | | | 7X7X7X7X7X7X7X7X7X7X7X7X7X7X",
"7X7X7X7X7X7X7X7X7X7X7X} | { _ E E E E R R E E R E E E E } | | | | 7X7X7X7X7X7X7X7X7X7X7X7X7X7X7X",
"7X7X7X7X7X7X7X7X7X7X7X] } _ T E E E E E R R R E R R T T { | | | | 7X7X7X7X7X7X7X7X7X7X7X7X7X7X7X",
"7X7X7X7X7X7X7X7X7X7X7XY ` E E E E E E R R R R R U P Q ` } | | | 7X7X7X7X7X7X7X7X7X7X7X7X7X7X7X7X",
"7X7X7X7X7X7X7X7X7X7X7XL U Y R E E E R Y Y Y Y U L % U _ { {  .X.7X7X7X7X7X7X7X7X7X7X7X7X7X7X7X7X",
"7X7X7X7X7X7X7X7X7X7X7X& & $ P Y Y Y Y L % % % & I ! ~ U Q W w.V.&X&X7X7X7X7X7X7X7X7X7X7X7X7X7X7X",
"7X7X7X7X7X7X7X7X7X7X7X% % & & L L & $ & & & % % O.i.a.0 ! 3.C.F.%X%X%X%X7X7X7X7X7X7X7X7X7X7X7X7X",
"7X7X7X7X7X7X7X7X7X7X7X7X% % & & % % & & & ! 2.0.b.A.XXq $.h.M.F.%X%XF.Z.7X7X7X7X7X7X7X7X7X7X7X7X",
"7X7X7X7X7X7X7X7X7X7X7X7X7X* * $ ^ t.2.7 # 7 3.m.C.#X+Xy 5.j.M.M.S.S.V.c.7X7X7X7X7X7X7X7X7X7X7X7X",
"7X7X7X7X7X7X7X7X7X7X7X7X7X@ * / t.V.b.6 - ; $.B.S.OXOXq.8.j.v.v.c.c.b.7X7X7X7X7X7X7X7X7X7X7X7X7X",
"7X7X7X7X7X7X7X7X7X7X7X7X7X7X7Xl.A.5.5.O.2 1 ;.V.$XD.7.7.+.o.;.3.7.q.7X7X7X7X7X7X7X7X7X7X7X7X7X7X",
"7X7X7X7X7X7X7X7X7X7X7X7X7X7X7Xx.c.5.9.9.=.*.j.m.#XN.3 ; - - ; ; ; 7X7X7X7X7X7X7X7X7X7X7X7X7X7X7X",
"7X7X7X7X7X7X7X7X7X7X7X7X7X7X7Xt &.q.v.k.q.9.k.m.C.x.w .     - 4 7X7X7X7X7X7X7X7X7X7X7X7X7X7X7X7X",
"7X7X7X7X7X7X7X7X7X7X7X7X7X7X7X= = 1.4.4.8.e.k.v.c.k.-./ 8 3 < o.7X7X7X7X7X7X7X7X7X7X7X7X7X7X7X7X",
"7X7X7X7X7X7X7X7X7X7X7X7X7X7X7X7X@ @ @ < %.<.t.0.e.k.e.9.k.9.7X7X7X7X7X7X7X7X7X7X7X7X7X7X7X7X7X7X",
"7X7X7X7X7X7X7X7X7X7X7X7X7X7X7X7X7X7X@ = q N B 1.9.e.e.5.7X7X7X7X7X7X7X7X7X7X7X7X7X7X7X7X7X7X7X7X",
"7X7X7X7X7X7X7X7X7X7X7X7X7X7X7X7X7X7XU.L.N L U c 9 9 I Q Y.7X7X7X7X7X7X7X7X7X7X7X7X7X7X7X7X7X7X7X",
"7X7X7X7X7X7X7X7X7X7X7X7X7X7X7X7X7X7XI.I.B Y ` 9 N n P T Y.7X7X7X7X7X7X7X7X7X7X7X7X7X7X7X7X7X7X7X",
"7X7X7X7X7X7X7X7X7X7X7X7X7X7X7X7X7X7XW.W.C ] { Y B Y.M ~ u.J 7X7X7X7X7X7X7X7X7X7X7X7X7X7X7X7X7X7X",
"7X7X7X7X7X7X7X7X7X7X7X7X7X7X7X7X7X7XW.E.A } } _ Z W.V %.f.l.7X7X7X7X7X7X7X7X7X7X7X7X7X7X7X7X7X7X",
"7X7X7X7X7X7X7X7X7X7X7X7X7X7X7X7X7XR.I.W.A } } } A W.G y f.z.7X7X7X7X7X7X7X7X7X7X7X7X7X7X7X7X7X7X",
"7X7X7X7X7X7X7X7X7X7X7X7X7X7X7X7X7XR.I.W.C ' { ' C W./.!.g.z.7X7X7X7X7X7X7X7X7X7X7X7X7X7X7X7X7X7X",
"7X7X7X7X7X7X7X7X7X7X7X7X7X7X7X7X7XW.I.N ^ E _ T Z I.W._.^.(.7X7X7X7X7X7X7X7X7X7X7X7X7X7X7X7X7X7X",
"7X7X7X7X7X7X7X7X7X7X7X7X7X7X7X7X7XI.R.n L E E E Z I.W._.`.`.7X7X7X7X7X7X7X7X7X7X7X7X7X7X7X7X7X7X",
"7X7X7X7X7X7X7X7X7X7X7X7X7X7X7X7X7XU.U.B ^ E E E S /.I.I.Q.Q.7X7X7X7X7X7X7X7X7X7X7X7X7X7X7X7X7X7X",
"7X7X7X7X7X7X7X7X7X7X7X7X7X7X7X7X7XG.K.~.r.[ W W s.).I.I.W.P.7X7X7X7X7X7X7X7X7X7X7X7X7X7X7X7X7X7X",
"7X7X7X7X7X7X7X7X7X7X7X7X7X7X7X7X7Xl H. X1X@X@X@XXX(.I.J.G.G.7X7X7X7X7X7X7X7X7X7X7X7X7X7X7X7X7X7X",
"7X7X7X7X7X7X7X7X7X7X7X7X7X7X7X7X7X7X}.=X,X,X,X,X>X X!.N l 7X7X7X7X7X7X7X7X7X7X7X7X7X7X7X7X7X7X7X",
"7X7X7X7X7X7X7X7X7X7X7X7X7X7X7X7X7X7X6X<X:X:X:X:X4X3X).Y.l 7X7X7X7X7X7X7X7X7X7X7X7X7X7X7X7X7X7X7X",
"7X7X7X7X7X7X7X7X7X7X7X7X7X7X7X7X7X7X5X5X6X5X6X6X5X4X-X!.7X7X7X7X7X7X7X7X7X7X7X7X7X7X7X7X7X7X7X7X",
"7X7X7X7X7X7X7X7X7X7X7X7X7X7X7X7X7X7X=X4X5X6X6X6X<X.XJ q 7X7X7X7X7X7X7X7X7X7X7X7X7X7X7X7X7X7X7X7X",
"7X7X7X7X7X7X7X7X7X7X7X7X7X7X7X7X7X7X[..X;X;X;X;X.X].K , - 7X7X7X7X7X7X7X7X7X7X7X7X7X7X7X7X7X7X7X",
"7X7X7X7X7X7X7X7X7X7X7X7X7X7X7X7X7X7XG ^.'.[.].XX.X'.+ o . @ 7X7X7X7X7X7X7X7X7X7X7X7X7X7X7X7X7X7X",
"7X7X7X7X7X7X7X7X7X7X7X7X7X7X7X7X7X7Xu d D F ^.].{.~.O . - @ 7X7X7X7X7X7X7X7X7X7X7X7X7X7X7X7X7X7X",
"7X7X7X7X7X7X7X7X7X7X7X7X7X7X7X7X7XX O f z x F H G s . . - . 7X7X7X7X7X7X7X7X7X7X7X7X7X7X7X7X7X7X",
"7X7X7X7X7X7X7X7X7X7X7X7X7X7X7X7X7X. O f j j j j h s . . . . 7X7X7X7X7X7X7X7X7X7X7X7X7X7X7X7X7X7X",
"7X7X7X7X7X7X7X7X7X7X7X7X7X7X7X7X7X. X a j j j j k i - . . - 7X7X7X7X7X7X7X7X7X7X7X7X7X7X7X7X7X7X",
"7X7X7X7X7X7X7X7X7X7X7X7X7X7X7X7X7X@ . i j j j j j i - . - 7X7X7X7X7X7X7X7X7X7X7X7X7X7X7X7X7X7X7X",
"7X7X7X7X7X7X7X7X7X7X7X7X7X7X7X7X7X- . p l l l l h a o - = 7X7X7X7X7X7X7X7X7X7X7X7X7X7X7X7X7X7X7X",
"7X7X7X7X7X7X7X7X7X7X7X7X7X7X7X7X7X7Xl l l l l l h h s > +.7X7X7X7X7X7X7X7X7X7X7X7X7X7X7X7X7X7X7X",
"7X7X7X7X7X7X7X7X7X7X7X7X7X7X7X7X7X7Xl h h l l l J.K.m *.@.@.7X7X7X7X7X7X7X7X7X7X7X7X7X7X7X7X7X7X",
"7X7X7X7X7X7X7X7X7X7X7X7X7X7X7X7X7X: s h l l l K.K.V &.,.,.>.7X7X7X7X7X7X7X7X7X7X7X7X7X7X7X7X7X7X",
"7X7X7X7X7X7X7X7X7X7X7X7X7X7X7X7X7X8 q g l H.H.K.z q >.,.,.>.7X7X7X7X7X7X7X7X7X7X7X7X7X7X7X7X7X7X",
"7X7X7X7X7X7X7X7X7X7X7X7X7X7X7X7X7X4 4 b J.I.I.H.q w >.,.#.@.7X7X7X7X7X7X7X7X7X7X7X7X7X7X7X7X7X7X",
"7X7X7X7X7X7X7X7X7X7X7X7X7X7X7X7X7X2 1 b k k g q r +.@.@.@.e 7X7X7X7X7X7X7X7X7X7X7X7X7X7X7X7X7X7X",
"7X7X7X7X7X7X7X7X7X7X7X7X7X7X7X7X7X4 2 8 : : : < 2 5 5 w w 2 7X7X7X7X7X7X7X7X7X7X7X7X7X7X7X7X7X7X",
"7X7X7X7X7X7X7X7X7X7X7X7X7X7X7X7X7X2 < 2 2 2 1 < 2 2 2 2 2 2 7X7X7X7X7X7X7X7X7X7X7X7X7X7X7X7X7X7X",
"7X7X7X7X7X7X7X7X7X7X7X7X7X7X7X7X7X7X7X1 2 e e w 2 2 2 w e 7X7X7X7X7X7X7X7X7X7X7X7X7X7X7X7X7X7X7X",
"7X7X7X7X7X7X7X7X7X7X7X7X7X7X7X7X7X7X7X7X7X@.@.@.e w e +.@.7X7X7X7X7X7X7X7X7X7X7X7X7X7X7X7X7X7X7X",
"7X7X7X7X7X7X7X7X7X7X7X7X7X7X7X7X7X7X7X7X7X7X7X7X7X:.:.7X7X7X7X7X7X7X7X7X7X7X7X7X7X7X7X7X7X7X7X7X"
};
