/* XPM */
static char *result[] = {
/* columns rows colors chars-per-pixel */
"48 60 210 2 ",
"   c #230A00",
".  c #3B1C08",
"X  c #321713",
"o  c #3D2211",
"O  c #190A31",
"+  c #342B3D",
"@  c #401F01",
"#  c #5D170D",
"$  c #7E0F16",
"%  c #781018",
"&  c #771018",
"*  c #671411",
"=  c #492500",
"-  c #472304",
";  c #532809",
":  c #5A321D",
">  c #5E3416",
",  c #452C15",
"<  c #683601",
"1  c #673801",
"2  c #693900",
"3  c #64320C",
"4  c #653600",
"5  c #733F00",
"6  c #753708",
"7  c #792914",
"8  c #673613",
"9  c #7A172B",
"0  c #4C2724",
"q  c #503232",
"w  c #754100",
"e  c #7A4401",
"r  c #7E4508",
"t  c #794215",
"y  c #75513C",
"u  c #0C0243",
"i  c #351F4E",
"p  c #341F54",
"a  c #2D1B58",
"s  c #3E2759",
"d  c #33325A",
"f  c #241866",
"g  c #36246C",
"h  c #2F2078",
"j  c #2F2077",
"k  c #322275",
"l  c #302078",
"z  c #372C77",
"x  c #3D3671",
"c  c #5F1C4F",
"v  c #631F41",
"b  c #45294C",
"n  c #5E214B",
"m  c #522C57",
"M  c #6B2E4F",
"N  c #4C2C6A",
"B  c #582C6C",
"V  c #4F3366",
"C  c #6D2A68",
"Z  c #642A69",
"A  c #772A66",
"S  c #773B6B",
"D  c #4A4C6A",
"F  c #54596B",
"G  c #504373",
"H  c #5B626A",
"J  c #7A7875",
"K  c #53504D",
"L  c #890D15",
"P  c #930D12",
"I  c #901513",
"U  c #A30B0E",
"Y  c #AA0A0B",
"T  c #BC0807",
"R  c #B70808",
"E  c #B80808",
"W  c #BA1616",
"Q  c #AB100D",
"!  c #92241E",
"~  c #AE2E12",
"^  c #861C28",
"/  c #862D2D",
"(  c #AD2222",
")  c #C20806",
"_  c #CB0805",
"`  c #C50909",
"'  c #D20804",
"]  c #DB0803",
"[  c #CF1C19",
"{  c #E20801",
"}  c #EC0800",
"|  c #F00800",
" . c #EA160B",
".. c #C13435",
"X. c #EE2A13",
"o. c #894A03",
"O. c #984F0C",
"+. c #8D5000",
"@. c #945400",
"#. c #9E5E00",
"$. c #945705",
"%. c #864818",
"&. c #8A551B",
"*. c #985C12",
"=. c #A85D18",
"-. c #B35D1C",
";. c #9F6216",
":. c #AA6D02",
">. c #A26200",
",. c #B27200",
"<. c #8E5337",
"1. c #A85B2A",
"2. c #B3512F",
"3. c #BB6726",
"4. c #B46F2D",
"5. c #C66619",
"6. c #DA403E",
"7. c #C46C2F",
"8. c #CA7026",
"9. c #D8752B",
"0. c #CA7037",
"q. c #DA7B34",
"w. c #D7633A",
"e. c #E47D34",
"r. c #995055",
"t. c #AA5C46",
"y. c #B45A5E",
"u. c #94754A",
"i. c #AF6E4A",
"p. c #B85F62",
"a. c #8E7376",
"s. c #B36970",
"d. c #D87E7E",
"f. c #D8B70A",
"g. c #D7BD16",
"h. c #D68336",
"j. c #CF8B3C",
"k. c #E6863B",
"l. c #8E8956",
"z. c #999662",
"x. c #D48F4C",
"c. c #ED9A4D",
"v. c #E69245",
"b. c #EB8F44",
"n. c #ECA35C",
"m. c #EAA55A",
"M. c #F0A959",
"N. c #C69A68",
"B. c #DDAF70",
"V. c #E7AA68",
"C. c #F1AE63",
"Z. c #F3B56D",
"A. c #E5AE77",
"S. c #F4BD7A",
"D. c #E8B073",
"F. c #F5C07E",
"G. c #2F2A88",
"H. c #302986",
"J. c #302E8D",
"K. c #303394",
"L. c #303B9D",
"P. c #363794",
"I. c #2F3FA6",
"U. c #313EA4",
"Y. c #493889",
"T. c #3C469E",
"R. c #2F40A8",
"E. c #2F40A7",
"W. c #3141A9",
"Q. c #384CB8",
"!. c #4F4C89",
"~. c #686389",
"^. c #737985",
"/. c #4452AA",
"(. c #6873A1",
"). c #737BAF",
"_. c #3D53C1",
"`. c #4258C2",
"'. c #868994",
"]. c #93969E",
"[. c #8B9199",
"{. c #999AA7",
"}. c #908DB1",
"|. c #B09FA4",
" X c #9FA5B9",
".X c #B3B3BA",
"XX c #ACAAAF",
"oX c #C29598",
"OX c #EEBB8D",
"+X c #CFBFB4",
"@X c #E6B4B4",
"#X c #F4C389",
"$X c #F7CD94",
"%X c #F8CF98",
"&X c #F8D098",
"*X c #F7D098",
"=X c #BFBEC9",
"-X c #B3AFC4",
";X c #C0C0C6",
":X c #C7C7CC",
">X c #C8CACE",
",X c #D0D0D5",
"<X c #D7D7DA",
"1X c #DDCACC",
"2X c #E8D9DB",
"3X c #DCDEE0",
"4X c #E7E8E9",
"5X c #F4F4F5",
"6X c #F9F9F9",
"7X c #72751B",
/* pixels */
"7X7X7X7X7X7X7X7X7X7X7X7X7X7X7X7X7X7X7X7X_ { | | | 7X7X7X7X7X7X7X7X7X7X7X7X7X7X7X7X7X7X7X7X7X7X7X",
"7X7X7X7X7X7X7X7X7X7X7X7X7X7X7X7X7X7X7X) | | | | | | | 7X7X7X7X7X7X7X7X7X7X7X7X7X7X7X7X7X7X7X7X7X",
"7X7X7X7X7X7X7X7X7X7X7X7X7X7X7X7X7X7XE ) | | | | | | | | | 7X7X7X7X7X7X7X7X7X7X7X7X7X7X7X7X7X7X7X",
"7X7X7X7X7X7X7X7X7X7X7X7X7X7X7X7X7X7XR ) | | | | | | | | | | | 7X7X7X7X7X7X7X7X7X7X7X7X7X7X7X7X7X",
"7X7X7X7X7X7X7X7X7X7X7X7X7X7X7X7X7X7X..) { } | | | | | | | | | 7X7X7X7X7X7X7X7X7X7X7X7X7X7X7X7X7X",
"7X7X7X7X7X7X7X7X7X7X7X7X7X7X7X7X7X2Xd.E ) { | | | | | } | | | ) 7X7X7X7X7X7X7X7X7X7X7X7X7X7X7X7X",
"7X7X7X7X7X7X7X7X7X7X7X7X7X7X7XR / oXd.E ) ] | | | | | | | | | ) E 7X7X7X7X7X7X7X7X7X7X7X7X7X7X7X",
"7X7X7X7X7X7X7X7X7X7X7X7X7X7X} } ( s.p.) E T ] | | | | | | | } } ' E T | 7X7X7X7X7X7X7X7X7X7X7X7X",
"7X7X7X7X7X7X7X7X7X7X7X7X7X7X| | ` d.y.E R R _ { | | | | | | | | ' ) ' } | 7X7X7X7X7X7X7X7X7X7X7X",
"7X7X7X7X7X7X7X7X7X7X7X7X7X7X| |  .6...E E E E ) ] ] } | | | | ] _ ' } } | 7X7X7X7X7X7X7X7X7X7X7X",
"7X7X7X7X7X7X7X7X7X7X7X7X7X7X} | } } ' E E E R E E T { } | } | ) R _ } } | 7X7X7X7X7X7X7X7X7X7X7X",
"7X7X7X7X7X7X7X7X7X7X7X7X7X7X7X| | } | { E E E R E E E E E E E E R _ { } } 7X7X7X7X7X7X7X7X7X7X7X",
"7X7X7X7X7X7X7X7X7X7X7X7X7X7X7X| | | | { R E E E E E E E R E E E R ) _ } ] 7X7X7X7X7X7X7X7X7X7X7X",
"7X7X7X7X7X7X7X7X7X7X7X7X7X7X7X7X| | | } ` Q P U R R E R E E E E R R R _ Y 7X7X7X7X7X7X7X7X7X7X7X",
"7X7X7X7X7X7X7X7X7X7X7X7X7X7X7X7XX. .{ { _ U % L Y Y Y Y Y R E R R R Y U L 7X7X7X7X7X7X7X7X7X7X7X",
"7X7X7X7X7X7X7X7X7X7X7X7X7X7X&X*XM.w.~ Q U ( ! L & & % % L Y Y Y Y P $ % % 7X7X7X7X7X7X7X7X7X7X7X",
"7X7X7X7X7X7X7X7X7X7X7X7X$X$X&X%XOXZ.8.! , a.i.~ % % % & % $ L $ L & & & % 7X7X7X7X7X7X7X7X7X7X7X",
"7X7X7X7X7X7X7X7X7X7X7X7XZ.#X&X%XC.M.h.#.+ XXD.h.0.3.! % % % & & % $ & & 7X7X7X7X7X7X7X7X7X7X7X7X",
"7X7X7X7X7X7X7X7X7X7X7X7Xc.n.S.S.M.M.h.3.<.+X#XC.V.3.7 # 7 2.t.^ $ * * 7X7X7X7X7X7X7X7X7X7X7X7X7X",
"7X7X7X7X7X7X7X7X7X7X7X7X7Xb.c.c.c.k.h.8.q.OXOXS.B.&.; = 6 j.m.t./ * @ 7X7X7X7X7X7X7X7X7X7X7X7X7X",
"7X7X7X7X7X7X7X7X7X7X7X7X7X7Xq.7.4.:.o.O.7.7.D.$XB.;.2 2 O.5.5.D.l.7X7X7X7X7X7X7X7X7X7X7X7X7X7X7X",
"7X7X7X7X7X7X7X7X7X7X7X7X7X7X7X; ; ; - @ ; 3 N.#XM.j.*.=.0.9.5.m.x.7X7X7X7X7X7X7X7X7X7X7X7X7X7X7X",
"7X7X7X7X7X7X7X7X7X7X7X7X7X7X7X7X4 =     . 6 x.V.M.k.9.q.k.k.e.&.t 7X7X7X7X7X7X7X7X7X7X7X7X7X7X7X",
"7X7X7X7X7X7X7X7X7X7X7X7X7X7X7X7Xo.4 3 8 6 3.b.v.b.k.e.8.4.4.1.; = 7X7X7X7X7X7X7X7X7X7X7X7X7X7X7X",
"7X7X7X7X7X7X7X7X7X7X7X7X7X7X7X7X7X7X9.k.e.e.k.e.0.t.r.o.4 . @ - 7X7X7X7X7X7X7X7X7X7X7X7X7X7X7X7X",
"7X7X7X7X7X7X7X7X7X7X7X7X7X7X7X7X7X7X7X7X5.9.e.9.1.V N 0 - . 7X7X7X7X7X7X7X7X7X7X7X7X7X7X7X7X7X7X",
"7X7X7X7X7X7X7X7X7X7X7X7X7X7X7X7X7X7X7XY.T I 9 v c U L B L.L.7X7X7X7X7X7X7X7X7X7X7X7X7X7X7X7X7X7X",
"7X7X7X7X7X7X7X7X7X7X7X7X7X7X7X7X7X7X7XY.` P c m 9 ` Q B E.W.7X7X7X7X7X7X7X7X7X7X7X7X7X7X7X7X7X7X",
"7X7X7X7X7X7X7X7X7X7X7X7X7X7X7X7X7X7XJ u.~ v Y.B Y { ] C E.W.7X7X7X7X7X7X7X7X7X7X7X7X7X7X7X7X7X7X",
"7X7X7X7X7X7X7X7X7X7X7X7X7X7X7X7X7X7Xl.f.%.G U.C _ } } A W.E.7X7X7X7X7X7X7X7X7X7X7X7X7X7X7X7X7X7X",
"7X7X7X7X7X7X7X7X7X7X7X7X7X7X7X7X7X7Xz.f.y !.W.A } } } A W.R.W.7X7X7X7X7X7X7X7X7X7X7X7X7X7X7X7X7X",
"7X7X7X7X7X7X7X7X7X7X7X7X7X7X7X7X7X7Xz.g.!.T.W.C ' { ' C E.R.R.7X7X7X7X7X7X7X7X7X7X7X7X7X7X7X7X7X",
"7X7X7X7X7X7X7X7X7X7X7X7X7X7X7X7X7X7X(.^.`.Q.I.Z T _ T ^ N E.E.7X7X7X7X7X7X7X7X7X7X7X7X7X7X7X7X7X",
"7X7X7X7X7X7X7X7X7X7X7X7X7X7X7X7X7X7X`.`.Q.W.I.B R E E L n E.E.7X7X7X7X7X7X7X7X7X7X7X7X7X7X7X7X7X",
"7X7X7X7X7X7X7X7X7X7X7X7X7X7X7X7X7X7XQ.Q.W.W./.S R R E ^ Z U.U.7X7X7X7X7X7X7X7X7X7X7X7X7X7X7X7X7X",
"7X7X7X7X7X7X7X7X7X7X7X7X7X7X7X7X7X7XK.W.I.W.).s.W W [ r.~.L.H.7X7X7X7X7X7X7X7X7X7X7X7X7X7X7X7X7X",
"7X7X7X7X7X7X7X7X7X7X7X7X7X7X7X7X7X7XH.H.J.U.(.|.@X@X@X1X XH.H.7X7X7X7X7X7X7X7X7X7X7X7X7X7X7X7X7X",
"7X7X7X7X7X7X7X7X7X7X7X7X7X7X7X7X7X7X7Xl z !. X>X,X,X,X,X=X}.7X7X7X7X7X7X7X7X7X7X7X7X7X7X7X7X7X7X",
"7X7X7X7X7X7X7X7X7X7X7X7X7X7X7X7X7X7X7Xl Y.[.3X4X=X:X:X:X<X5X7X7X7X7X7X7X7X7X7X7X7X7X7X7X7X7X7X7X",
"7X7X7X7X7X7X7X7X7X7X7X7X7X7X7X7X7X7X7X7X!.-X4X5X5X5X5X6X5X5X7X7X7X7X7X7X7X7X7X7X7X7X7X7X7X7X7X7X",
"7X7X7X7X7X7X7X7X7X7X7X7X7X7X7X7X7X7X7X7Xq ^..X<X6X6X6X6X4X=X7X7X7X7X7X7X7X7X7X7X7X7X7X7X7X7X7X7X",
"7X7X7X7X7X7X7X7X7X7X7X7X7X7X7X7X7X7X7X- , K {..X;X;X=X=XXX[.7X7X7X7X7X7X7X7X7X7X7X7X7X7X7X7X7X7X",
"7X7X7X7X7X7X7X7X7X7X7X7X7X7X7X7X7X7X. - , + '.-XXX{.[.'.^.D 7X7X7X7X7X7X7X7X7X7X7X7X7X7X7X7X7X7X",
"7X7X7X7X7X7X7X7X7X7X7X7X7X7X7X7X7X7X- . . O H {.].^.F D d u 7X7X7X7X7X7X7X7X7X7X7X7X7X7X7X7X7X7X",
"7X7X7X7X7X7X7X7X7X7X7X7X7X7X7X7X7X7X- - . . s G H F x g f O X 7X7X7X7X7X7X7X7X7X7X7X7X7X7X7X7X7X",
"7X7X7X7X7X7X7X7X7X7X7X7X7X7X7X7X7X7X. . - . i l k j h j f O X 7X7X7X7X7X7X7X7X7X7X7X7X7X7X7X7X7X",
"7X7X7X7X7X7X7X7X7X7X7X7X7X7X7X7X7X7X. - . - i h h h h h a X . 7X7X7X7X7X7X7X7X7X7X7X7X7X7X7X7X7X",
"7X7X7X7X7X7X7X7X7X7X7X7X7X7X7X7X7X7X7X. - . i j h h h j i @ - 7X7X7X7X7X7X7X7X7X7X7X7X7X7X7X7X7X",
"7X7X7X7X7X7X7X7X7X7X7X7X7X7X7X7X7X7X7X= - @ p h l l l j s . . 7X7X7X7X7X7X7X7X7X7X7X7X7X7X7X7X7X",
"7X7X7X7X7X7X7X7X7X7X7X7X7X7X7X7X7X7X7X@.> s h h l l l l h h 7X7X7X7X7X7X7X7X7X7X7X7X7X7X7X7X7X7X",
"7X7X7X7X7X7X7X7X7X7X7X7X7X7X7X7X7X7X@.$.&.m K.J.h l l l h h 7X7X7X7X7X7X7X7X7X7X7X7X7X7X7X7X7X7X",
"7X7X7X7X7X7X7X7X7X7X7X7X7X7X7X7X7X7X>.,.:.&.N J.K.l l l h s : 7X7X7X7X7X7X7X7X7X7X7X7X7X7X7X7X7X",
"7X7X7X7X7X7X7X7X7X7X7X7X7X7X7X7X7X7X>.,.,.>.q x P.H.H.l k q 3 7X7X7X7X7X7X7X7X7X7X7X7X7X7X7X7X7X",
"7X7X7X7X7X7X7X7X7X7X7X7X7X7X7X7X7X7X@.#.,.>.e q H.E.U.H.b 1 1 7X7X7X7X7X7X7X7X7X7X7X7X7X7X7X7X7X",
"7X7X7X7X7X7X7X7X7X7X7X7X7X7X7X7X7X7Xe @.@.@.+.r q g k k b 4 2 7X7X7X7X7X7X7X7X7X7X7X7X7X7X7X7X7X",
"7X7X7X7X7X7X7X7X7X7X7X7X7X7X7X7X7X7X2 w w w w 2 1 : : : > < 2 7X7X7X7X7X7X7X7X7X7X7X7X7X7X7X7X7X",
"7X7X7X7X7X7X7X7X7X7X7X7X7X7X7X7X7X7X1 2 2 1 2 2 2 2 2 1 2 < 2 7X7X7X7X7X7X7X7X7X7X7X7X7X7X7X7X7X",
"7X7X7X7X7X7X7X7X7X7X7X7X7X7X7X7X7X7X7Xw w 2 1 2 w e w 2 2 7X7X7X7X7X7X7X7X7X7X7X7X7X7X7X7X7X7X7X",
"7X7X7X7X7X7X7X7X7X7X7X7X7X7X7X7X7X7X7X@.+.e w o.$.@.@.7X7X7X7X7X7X7X7X7X7X7X7X7X7X7X7X7X7X7X7X7X",
"7X7X7X7X7X7X7X7X7X7X7X7X7X7X7X7X7X7X7X7X7X:.:.7X7X7X7X7X7X7X7X7X7X7X7X7X7X7X7X7X7X7X7X7X7X7X7X7X"
};
