/* XPM */
static char *result[] = {
/* columns rows colors chars-per-pixel */
"48 60 186 2 ",
"   c #3E1E04",
".  c #2D1518",
"X  c #190A3A",
"o  c #311A32",
"O  c #3F2534",
"+  c #411F01",
"@  c #4C1B06",
"#  c #4F1B08",
"$  c #541B09",
"%  c #5A180B",
"&  c #63150F",
"*  c #69170E",
"=  c #7D0F17",
"-  c #6D1313",
";  c #671710",
":  c #741116",
">  c #791116",
",  c #781118",
"<  c #781617",
"1  c #442101",
"2  c #4B2601",
"3  c #4A2807",
"4  c #5D3000",
"5  c #5A330D",
"6  c #462A18",
"7  c #57321A",
"8  c #5A2F00",
"9  c #672509",
"0  c #683700",
"q  c #693900",
"w  c #633504",
"e  c #713E00",
"r  c #692E13",
"t  c #761B26",
"y  c #522F2F",
"u  c #762629",
"i  c #764100",
"p  c #7A4401",
"a  c #7D4A05",
"s  c #7A4E1B",
"d  c #7D592F",
"f  c #1C1156",
"g  c #3F2F42",
"h  c #382F54",
"j  c #3F3149",
"k  c #2C1D6C",
"l  c #382869",
"z  c #2F217A",
"x  c #30227A",
"c  c #3E2F7C",
"v  c #383879",
"b  c #641D40",
"n  c #4C2D41",
"m  c #4A384A",
"M  c #572659",
"N  c #402855",
"B  c #463C65",
"V  c #4B2E71",
"C  c #433C75",
"Z  c #513170",
"A  c #5B444C",
"S  c #5C4956",
"D  c #6C484C",
"F  c #515961",
"G  c #5F676F",
"H  c #686564",
"J  c #75726C",
"K  c #666D75",
"L  c #74707D",
"P  c #9D0B0F",
"I  c #950D0D",
"U  c #830F15",
"Y  c #8C0D13",
"T  c #940C11",
"R  c #9B1D1F",
"E  c #AC0A0B",
"W  c #A50C0B",
"Q  c #BC0807",
"!  c #B50A0A",
"~  c #B80808",
"^  c #B40A07",
"/  c #A51513",
"(  c #882717",
")  c #8A3F07",
"_  c #A5201E",
"`  c #8F1629",
"'  c #BD3C25",
"]  c #A33D25",
"[  c #C30806",
"{  c #CB0805",
"}  c #D30804",
"|  c #DB0803",
" . c #E50801",
".. c #ED0800",
"X. c #F00800",
"o. c #F0140C",
"O. c #F11D15",
"+. c #D41722",
"@. c #C81421",
"#. c #F23D37",
"$. c #834B00",
"%. c #8B4E02",
"&. c #844807",
"*. c #8E5000",
"=. c #935400",
"-. c #995A00",
";. c #975D00",
":. c #A85019",
">. c #9C6100",
",. c #A26400",
"<. c #B96819",
"1. c #B76F36",
"2. c #C17135",
"3. c #955346",
"4. c #967F6D",
"5. c #CE4351",
"6. c #D77948",
"7. c #C26747",
"8. c #F27874",
"9. c #F4736F",
"0. c #9C8369",
"q. c #E89852",
"w. c #EEB473",
"e. c #EDAD69",
"r. c #2F2F8E",
"t. c #302986",
"y. c #302C8A",
"u. c #342880",
"i. c #31318E",
"p. c #2F2F90",
"a. c #303394",
"s. c #30369A",
"d. c #323C9D",
"f. c #383C97",
"g. c #303EA5",
"h. c #7A3C83",
"j. c #2F40A8",
"k. c #2F40A7",
"l. c #3041A9",
"z. c #3543A8",
"x. c #364AB4",
"c. c #394EBA",
"v. c #3446B0",
"b. c #3C51BD",
"n. c #5A5696",
"m. c #704A93",
"M. c #797694",
"N. c #4352BC",
"B. c #5666B1",
"V. c #3E54C3",
"C. c #4456C4",
"Z. c #4158C6",
"A. c #4058C8",
"S. c #4057C8",
"D. c #A86E81",
"F. c #7D848C",
"G. c #828A91",
"H. c #8C8D9A",
"J. c #8C9198",
"K. c #A09081",
"L. c #A6989C",
"P. c #979BA3",
"I. c #8D95AC",
"U. c #9EA1A9",
"Y. c #AAABB3",
"T. c #A3A2B7",
"R. c #B2B4BA",
"E. c #E88987",
"W. c #D0B085",
"Q. c #D4B7BA",
"!. c #F7C98E",
"~. c #B9BAC0",
"^. c #C9C9CE",
"/. c #C3C3C8",
"(. c #CCCCD1",
"). c #D6D6DA",
"_. c #DADBDE",
"`. c #D3CDD0",
"'. c #EED3D3",
"]. c #DDDEE0",
"[. c #DFE0E2",
"{. c #EAEAEC",
"}. c #E5E5E7",
"|. c #F5F5F6",
" X c #F9F9F9",
".X c None",
/* pixels */
".X.X.X.X.X.X.X.X.X.X.X.X.X.X.X.X.X.X.X.X.X.X.X.X.X.X.X.X.X.X.X.X.X.X.X.X.X.X.X.X.X.X.X.X.X.X.X.X",
".X.X.X.X.X.X.X.X.X.X.X.X.X.X.X.X.X.X.X.XX.X.X.X.X.X.X..X.X.X.X.X.X.X.X.X.X.X.X.X.X.X.X.X.X.X.X.X",
".X.X.X.X.X.X.X.X.X.X.X.X.X.X.X.X.X.X..X.X.X.X.X.X.X.X.X.X.X..X.X.X.X.X.X.X.X.X.X.X.X.X.X.X.X.X.X",
".X.X.X.X.X.X.X.X.X.X.X.X.X.X.X.X.XX.X.X.X.X.X.X.X.X.X.X.X.X.X..X.X.X.X.X.X.X.X.X.X.X.X.X.X.X.X.X",
".X.X.X.X.X.X.X.X.X.X.X.X.X.X.X.XX.X.X.X.X.X.X.X.X.X.X.X.X.X.X.X..X.X.X.X.X.X.X.X.X.X.X.X.X.X.X.X",
".X.X.X.X.X.X.X.X.X.X.X.X.X.X.XX.X.X.X.X.X.X.X.X.X.X.X.X.X.X.X.X..X.X.X.X.X.X.X.X.X.X.X.X.X.X.X.X",
".X.X.X.X.X.X.X.X.X.X.X.X.X.X.XX.X.X.X.X.X.X.X.X.X.X.X.X.X.X.X.X....X.X.X.X.X.X.X.X.X.X.X.X.X.X.X",
".X.X.X.X.X.X.X.X.X.X.X.X.X.X.XX.X.X.X.X...X.X.X.X.X.X.X.X.X.X... ..X.X.X.X.X.X.X.X.X.X.X.X.X.X.X",
".X.X.X.X.X.X.X.X.X.X.X.X.X.X~ ....X.X.X.X.X.X...X.X.X.X.X.X.X...| [ .X.X.X.X.X.X.X.X.X.X.X.X.X.X",
".X.X.X.X.X.X.X.X.X.X.X.X.X.XQ  ...X.X.X.X.X.X.X.X.X.X.X.X.X.X. .} [ .X.X.X.X.X.X.X.X.X.X.X.X.X.X",
".X.X.X.X.X.X.X.X.X.X.X.X.X~ ~ [ | ..X.X.X.X.X.X.X.X.X.X.X.....| [ Q ~ .X.X.X.X.X.X.X.X.X.X.X.X.X",
".X.X.X.X.X.X.X.X.X.X.X.X~ ~ ~ ~ [ | ..X.X.X.X.X.X.X.X.X.X...| [ ~ ~ ~ .X.X.X.X.X.X.X.X.X.X.X.X.X",
".X.X.X.X.X.X.X.X.X.X.X.X~ ~ ~ ~ Q [ | | ......X....... . .} [ Q ~ ^ ~ .X.X.X.X.X.X.X.X.X.X.X.X.X",
".X.X.X.X.X.X.X.X.X.X.X.X~ ~ ~ ~ Q Q [ [ }  ... ..... .{ [ Q ~ Q ~ ~ ~ .X.X.X.X.X.X.X.X.X.X.X.X.X",
".X.X.X.X.X.X.X.X.X.X.X.X~ ~ ~ ~ ~ ~ ~ Q [ [ { { { { { Q ~ ~ ~ ~ ~ ~ ~ ~ .X.X.X.X.X.X.X.X.X.X.X.X",
".X.X.X.X.X.X.X.X.X.X.X~ ~ ~ ~ ~ ~ ~ ~ ~ Q [ { } } { Q Q Q ~ ~ ~ ~ ~ ~ ~ ~ .X.X.X.X.X.X.X.X.X.X.X",
".X.X.X.X.X.X.X.X.X.X.X! ~ ~ ~ ~ ~ ~ ~ [ { }  ..... .} { [ Q ~ ~ ~ ~ ~ ~ ~ .X.X.X.X.X.X.X.X.X.X.X",
".X.X.X.X.X.X.X.X.X.XD R E ~ ~ ~ ~ Q [ }  . ...X.X... . .| [ ~ ~ ~ ! ~ ~ ~ .X.X.X.X.X.X.X.X.X.X.X",
".X.X.X.X.X.X.X.X.X.XS D _ ! ! ~ Q [ |  .X.X.X.X.X.X.X.X. .} [ ~ ! ! ! @..X.X.X.X.X.X.X.X.X.X.X.X",
".X.X.X.X.X.X.X.X.XF H 4.7.' / ~ ~ Q }  .X.X.X.X.X.X.X.X. .} Q ~ ! / ' 6..X.X.X.X.X.X.X.X.X.X.X.X",
".X.X.X.X.X.X.X.XF F J W.e.1.( W W E [ }  . ...X..... . .} Q E E I ( 2.w.!..X.X.X.X.X.X.X.X.X.X.X",
".X.X.X.X.X.X.X.XF F J W.e.1.9 = U T ~ Q [ {  ..... .} [ [ E T = - r 1.w.!..X.X.X.X.X.X.X.X.X.X.X",
".X.X.X.X.X.X.X.X.XF S 3.6.1.%.$ & = Y Y Y I Q { [ Q P Y Y Y = & 9 &.2.q..X.X.X.X.X.X.X.X.X.X.X.X",
".X.X.X.X.X.X.X.X.X.XA u ] :.=.1 $ & & - , = T P P T U , : & % % 4 %.<..X.X.X.X.X.X.X.X.X.X.X.X.X",
".X.X.X.X.X.X.X.X.X.XA t < ( &.1 + + @ % - : > > = = : - % @ + 1 8 a .X.X.X.X.X.X.X.X.X.X.X.X.X.X",
".X.X.X.X.X.X.X.X.X.X.X, < < < + +   + @ @ % - : : - % @ @ + + + 2 .X.X.X.X.X.X.X.X.X.X.X.X.X.X.X",
".X.X.X.X.X.X.X.X.X.X.X.X, , , & $ + 1 + + + @ $ $ # @ + + 1 1 + .X.X.X.X.X.X.X.X.X.X.X.X.X.X.X.X",
".X.X.X.X.X.X.X.X.X.X.X.X, , , , * 2 2 1 + + 1   + +     1 2 2 2 .X.X.X.X.X.X.X.X.X.X.X.X.X.X.X.X",
".X.X.X.X.X.X.X.X.X.X.X.X, , , , 9 w 4 2   + + +       1 2 4 w .X.X.X.X.X.X.X.X.X.X.X.X.X.X.X.X.X",
".X.X.X.X.X.X.X.X.X.X.X.X.X.X, , M d.d.f.m 5 6 h h 3 7 B V t W ^ .X.X.X.X.X.X.X.X.X.X.X.X.X.X.X.X",
".X.X.X.X.X.X.X.X.X.X.X.X.X.X.Xt M k.k.z.C m j v v O N C V ` ^ { [ .X.X.X.X.X.X.X.X.X.X.X.X.X.X.X",
".X.X.X.X.X.X.X.X.X.X.X.X.X.X.Xu V k.k.k.j.j.j.j.j.v.v.x.Z R | X. .} .X.X.X.X.X.X.X.X.X.X.X.X.X.X",
".X.X.X.X.X.X.X.X.X.X.X.X.X.X.Xf.d.l.g.l.l.g.g.v.j.v.x.N.h.@...X......X.X.X.X.X.X.X.X.X.X.X.X.X.X",
".X.X.X.X.X.X.X.X.X.X.X.X.X.X.Xk.j.j.l.l.l.l.l.v.c.V.V.C.h.+.X.o.o.o.O..X.X.X.X.X.X.X.X.X.X.X.X.X",
".X.X.X.X.X.X.X.X.X.X.X.X.X.X.Xl.l.g.l.j.j.g.x.V.A.S.V.C.h.+.X.#.9.8.8.E..X.X.X.X.X.X.X.X.X.X.X.X",
".X.X.X.X.X.X.X.X.X.X.X.X.X.X.Xg.g.l.j.j.j.v.V.V.A.S.S.C.h.+.O.8.'.'.'.`.^..X.X.X.X.X.X.X.X.X.X.X",
".X.X.X.X.X.X.X.X.X.X.X.X.X.X.Xt.s.g.j.j.l.l.b.V.A.S.V.C.m.5.E.Q.^.^.(.).}.|..X.X.X.X.X.X.X.X.X.X",
".X.X.X.X.X.X.X.X.X.X.X.X.X.X.Xx p.g.j.j.j.l.x.V.A.A.Z.C.m.4.Q.).].).].}.|. X X.X.X.X.X.X.X.X.X.X",
".X.X.X.X.X.X.X.X.X.X.X.X.X.X.Xx y.s.g.g.j.l.l.c.V.V.V.Z.B.I.~.].|. X X X X X X.X.X.X.X.X.X.X.X.X",
".X.X.X.X.X.X.X.X.X.X.X.X.X.X.Xx z y.d.d.g.l.l.z.z.v.c.N.B.T.).{. X X X X|.{.{..X.X.X.X.X.X.X.X.X",
".X.X.X.X.X.X.X.X.X.X.X.X.X.X.X.X.Xx y.y.a.g.z.g.g.g.g.g.n.T.[.|. X|.|.|.{.(.(..X.X.X.X.X.X.X.X.X",
".X.X.X.X.X.X.X.X.X.X.X.X.X.X.X.X.Xz z x t.y.a.a.a.p.y.t.n.T.`.{. X|.}.{.}.Y.Y..X.X.X.X.X.X.X.X.X",
".X.X.X.X.X.X.X.X.X.X.X.X.X.X.X.X.Xy.t.t.u.z z x u.x z k C M.Y.^.}._./.^./.J.H..X.X.X.X.X.X.X.X.X",
".X.X.X.X.X.X.X.X.X.X.X.X.X.X.Xx p.s.a.a.t.z x u.V k k f f F H.R.R.R.P.P.P.K K .X.X.X.X.X.X.X.X.X",
".X.X.X.X.X.X.X.X.X.X.X.X.X.X.Xs.a.p.r.y.u.x u.M.m.O o X X g M.J.U.U.F.K K F K .X.X.X.X.X.X.X.X.X",
".X.X.X.X.X.X.X.X.X.X.X.X.X.X.Xi.l j n n n n S L.0.7   . . 6 H G.J.P.F.K K F .X.X.X.X.X.X.X.X.X.X",
".X.X.X.X.X.X.X.X.X.X.X.X.X.X.XN y i a &.a a s 0.0.6     + .X.X.XG.G.F.F..X.X.X.X.X.X.X.X.X.X.X.X",
".X.X.X.X.X.X.X.X.X.X.X.X.X.Xq 7 i $.>.,.,.;.$.s d .X1   + .X.X.X.X.X.X.X.X.X.X.X.X.X.X.X.X.X.X.X",
".X.X.X.X.X.X.X.X.X.X.X.X.X.X0 0 a >.,.,.,.,.;.p .X.X.X.X.X.X.X.X.X.X.X.X.X.X.X.X.X.X.X.X.X.X.X.X",
".X.X.X.X.X.X.X.X.X.X.X.X.X.X0 0 %.,.;.=.=.-.>.$..X.X.X.X.X.X.X.X.X.X.X.X.X.X.X.X.X.X.X.X.X.X.X.X",
".X.X.X.X.X.X.X.X.X.X.X.X.X.Xq 0 p *.*.*.=.=.=.p .X.X.X.X.X.X.X.X.X.X.X.X.X.X.X.X.X.X.X.X.X.X.X.X",
".X.X.X.X.X.X.X.X.X.X.X.X.Xq 0 0 q i q i $.=.=.p .X.X.X.X.X.X.X.X.X.X.X.X.X.X.X.X.X.X.X.X.X.X.X.X",
".X.X.X.X.X.X.X.X.X.X.X.X0 0 0 0 e $.$.i q p i q .X.X.X.X.X.X.X.X.X.X.X.X.X.X.X.X.X.X.X.X.X.X.X.X",
".X.X.X.X.X.X.X.X.X.X.X.Xq 0 0 p %.=.%.$.p p p e .X.X.X.X.X.X.X.X.X.X.X.X.X.X.X.X.X.X.X.X.X.X.X.X",
".X.X.X.X.X.X.X.X.X.X.X.X.Xq q =.=.=.=.=.=.=.=..X.X.X.X.X.X.X.X.X.X.X.X.X.X.X.X.X.X.X.X.X.X.X.X.X",
".X.X.X.X.X.X.X.X.X.X.X.X.X.Xq =.=.=.=.=.=.=.=..X.X.X.X.X.X.X.X.X.X.X.X.X.X.X.X.X.X.X.X.X.X.X.X.X",
".X.X.X.X.X.X.X.X.X.X.X.X.X.Xq =.=.=.=.=.=.*.$..X.X.X.X.X.X.X.X.X.X.X.X.X.X.X.X.X.X.X.X.X.X.X.X.X",
".X.X.X.X.X.X.X.X.X.X.X.X.X.X.X%.=.=.=.=.%.$.e .X.X.X.X.X.X.X.X.X.X.X.X.X.X.X.X.X.X.X.X.X.X.X.X.X",
".X.X.X.X.X.X.X.X.X.X.X.X.X.X.Xe $.=.=.$.e e .X.X.X.X.X.X.X.X.X.X.X.X.X.X.X.X.X.X.X.X.X.X.X.X.X.X",
".X.X.X.X.X.X.X.X.X.X.X.X.X.X.X.X.X.X.X.X.X.X.X.X.X.X.X.X.X.X.X.X.X.X.X.X.X.X.X.X.X.X.X.X.X.X.X.X"
};
