/* XPM */
static char *result[] = {
/* columns rows colors chars-per-pixel */
"48 60 228 2 ",
"   c #280D02",
".  c #2A1106",
"X  c #391804",
"o  c #2B1619",
"O  c #351A12",
"+  c #3F220F",
"@  c #180933",
"#  c #38252C",
"$  c #240F23",
"%  c #401F01",
"&  c #591D09",
"*  c #7C0F17",
"=  c #761017",
"-  c #781018",
";  c #791219",
":  c #691412",
">  c #492407",
",  c #5A2C07",
"<  c #462919",
"1  c #6B3A01",
"2  c #66390A",
"3  c #723A04",
"4  c #643515",
"5  c #773B16",
"6  c #711923",
"7  c #6A1737",
"8  c #63353D",
"9  c #702A35",
"0  c #533B3E",
"q  c #754200",
"w  c #7E4700",
"e  c #744723",
"r  c #090149",
"t  c #0B0144",
"y  c #160B56",
"u  c #0F0651",
"i  c #2B1D73",
"p  c #28196E",
"a  c #30217A",
"s  c #352674",
"d  c #372C71",
"f  c #1D1161",
"g  c #501A4F",
"h  c #572D55",
"j  c #6A315A",
"k  c #563767",
"l  c #4E3574",
"z  c #6D2760",
"x  c #564E54",
"c  c #51565E",
"v  c #565A5F",
"b  c #564B53",
"n  c #655152",
"m  c #4D4E66",
"M  c #685469",
"N  c #636970",
"B  c #5B6066",
"V  c #890E13",
"C  c #940C11",
"Z  c #971A18",
"A  c #8F1415",
"S  c #A50A0C",
"D  c #AD090B",
"F  c #BC0907",
"G  c #B40909",
"H  c #B80808",
"J  c #A8121A",
"K  c #983418",
"L  c #8F1224",
"P  c #9A382E",
"I  c #AD332B",
"U  c #A62318",
"Y  c #C30806",
"T  c #C40C07",
"R  c #D40804",
"E  c #DD0802",
"W  c #D10F08",
"Q  c #C5130C",
"!  c #C31713",
"~  c #DB1107",
"^  c #E50801",
"/  c #EC0901",
"(  c #F00800",
")  c #EA110B",
"_  c #C82814",
"`  c #D3311C",
"'  c #EB2317",
"]  c #EB3314",
"[  c #D23634",
"{  c #F12D27",
"}  c #E9322D",
"|  c #824B00",
" . c #8A4B03",
".. c #87410A",
"X. c #964B0B",
"o. c #955500",
"O. c #9B5B00",
"+. c #925907",
"@. c #8A481D",
"#. c #8F5410",
"$. c #A65D0A",
"%. c #A74318",
"&. c #AD5B17",
"*. c #9F6400",
"=. c #A36300",
"-. c #AB6B00",
";. c #A66800",
":. c #B47400",
">. c #B97900",
",. c #BA681A",
"<. c #AD6D11",
"1. c #96502C",
"2. c #A65A28",
"3. c #B2532E",
"4. c #926B28",
"5. c #B76427",
"6. c #B97A37",
"7. c #AF6C2D",
"8. c #C64B16",
"9. c #C16317",
"0. c #C75C27",
"q. c #D95B28",
"w. c #C56C28",
"e. c #D66A27",
"r. c #C67727",
"t. c #D9782C",
"y. c #CA6833",
"u. c #D37237",
"i. c #E47C36",
"p. c #925359",
"a. c #B67543",
"s. c #AE7252",
"d. c #877B72",
"f. c #97664E",
"g. c #C87B46",
"h. c #D97878",
"j. c #D86564",
"k. c #B1891C",
"l. c #C69806",
"z. c #D6B710",
"x. c #D58438",
"c. c #CF833A",
"v. c #E88239",
"b. c #E7833B",
"n. c #AA8F6F",
"m. c #D68B45",
"M. c #DD9443",
"N. c #E7964B",
"B. c #EB9855",
"V. c #E48E41",
"C. c #ECA358",
"Z. c #F0A858",
"A. c #DF8A73",
"S. c #EC9B61",
"D. c #E8A96A",
"F. c #F3B978",
"G. c #EEB06E",
"H. c #F5C17F",
"J. c #312B87",
"K. c #353998",
"L. c #36348B",
"P. c #313EA4",
"I. c #2F3FA6",
"U. c #4A3A89",
"Y. c #3140A6",
"T. c #3141A9",
"R. c #3F4EAE",
"E. c #3649B4",
"W. c #394DBA",
"Q. c #3446B1",
"!. c #4D4C93",
"~. c #63618C",
"^. c #4455B8",
"/. c #4451AA",
"(. c #6F78B4",
"). c #3E54C3",
"_. c #4058C7",
"`. c #707BC1",
"'. c #957B80",
"]. c #7B828C",
"[. c #7580C5",
"{. c #98848C",
"}. c #818991",
"|. c #898F97",
" X c #8E939B",
".X c #90969E",
"XX c #8B8584",
"oX c #969AA4",
"OX c #9091B1",
"+X c #9FA1A6",
"@X c #A4A6AD",
"#X c #A5A7A9",
"$X c #ACADB5",
"%X c #B2B3BA",
"&X c #B7B8BF",
"*X c #B2A9AA",
"=X c #B49B9C",
"-X c #E39187",
";X c #EDB584",
":X c #D1B7A5",
">X c #F7BBB9",
",X c #C2979C",
"<X c #F6C88C",
"1X c #F6CC94",
"2X c #F8D098",
"3X c #EACCAF",
"4X c #BCBDC3",
"5X c #B1B2C1",
"6X c #A5ACD7",
"7X c #BEC1C6",
"8X c #C5C5CB",
"9X c #CACBD2",
"0X c #D5D6D9",
"qX c #D7D7DB",
"wX c #CFD1D4",
"eX c #F5DDC9",
"rX c #EBD9D5",
"tX c #E9D1CD",
"yX c #D5D7E8",
"uX c #DFE1EA",
"iX c #EBEBEC",
"pX c #E5E5E7",
"aX c #EFEFF0",
"sX c #F4F4F4",
"dX c #F9F9F9",
"fX c #F7F8F8",
"gX c #F1EFEF",
"hX c #72751B",
/* pixels */
"hXhXhXhXhXhXhXhXhXhXhXhXhXhXhXhXhXhXhXhXhXhXhXhXhXhXhXhXhXhXhXhXhXhXhXhXhXhXhXhXhXhXhXhXhXhXhXhX",
"hXhXhXhXhXhXhXhXhXhXhXhXhXhXhXhXhXhXhXhX( ( ( ( ( ( ( hXhXhXhXhXhXhXhXhXhXhXhXhXhXhXhXhXhXhXhXhX",
"hXhXhXhXhXhXhXhXhXhXhXhXhXhXhXhXhX( ( ( ( ( ( ( ( ( ( ( ( ( hXhXhXhXhXhXhXhXhXhXhXhXhXhXhXhXhXhX",
"hXhXhXhXhXhXhXhXhXhXhXhXhXhXhXhX( ( ( ( ( ( ( ( ( ( ( ( ( ( ( hXhXhXhXhXhXhXhXhXhXhXhXhXhXhXhXhX",
"hXhXhXhXhXhXhXhXhXhXhXhXhXhXhX( ( ( ( ( ( ( ( ( ( ( ( ( ( ( ( ( hXhXhXhXhXhXhXhXhXhXhXhXhXhXhXhX",
"hXhXhXhXhXhXhXhXhXhXhXhXhXhX^ ^ ( ( ( ( ^ ' { { { ' / ( ( ( ( / ^ hXhXhXhXhXhXhXhXhXhXhXhXhXhXhX",
"hXhXhXhXhXhXhXhXhXhXhXhXhXH Y R ( / ( ^ R h.>X>X>X-XW ^ ( / ( E Y H hXhXhXhXhXhXhXhXhXhXhXhXhXhX",
"hXhXhXhXhXhXhXhXhXhXhXhXhXH H Y R R R ` h.tXdXdXfXrXh.[ R R R Y H H H hXhXhXhXhXhXhXhXhXhXhXhXhX",
"hXhXhXhXhXhXhXhXhXhXhXH H H H F H H H [ tXgXsXsXgXgXtX[ H H H H H H H H hXhXhXhXhXhXhXhXhXhXhXhX",
"hXhXhXhXhXhXhXhXhXhXhXH H H H H H H H I *X%X%X%X5X5X@X[ J Y H H H H H H hXhXhXhXhXhXhXhXhXhXhXhX",
"hXhXhXhXhXhXhXhXhXhXhXC C F G G H H H J p.'.oX%X@X{.p.U H H H H H H S C hXhXhXhXhXhXhXhXhXhXhXhX",
"hXhXhXhXhXhXhXhXhXhX- - V D S S G H H G C p.'.=X'.p.L H Y H D G D S C - - hXhXhXhXhXhXhXhXhXhXhX",
"hXhXhXhXhXhXhXhXhXhX- - * * - V V D E / / ^ ) ) ) ^ / / R H V V * - * - ; hXhXhXhXhXhXhXhXhXhXhX",
"hXhXhXhXhXhXhXhXhXhX- = - - - A D Y ^ / / / ( ( ( ( / ( ^ R C V - - = - ; hXhXhXhXhXhXhXhXhXhXhX",
"hXhXhXhXhXhXhXhXhXhX- - - - - Z _ ~ ^ E E E E E E E E E ^ ^ ` Z - - - - ; hXhXhXhXhXhXhXhXhXhXhX",
"hXhXhXhXhXhXhXhXhXhXhX- = = ; K q._ ! ! Q Q F Q F Q ! ! ! ! e.I - = - ; hXhXhXhXhXhXhXhXhXhXhXhX",
"hXhXhXhXhXhXhXhXhXhXhX- : & K w.i.q.-X-Xu.8.%.q.8.8.u.-XA.y.i.w.%.& : = hXhXhXhXhXhXhXhXhXhXhXhX",
"hXhXhXhXhXhXhXhXhXhXhXs.1.>  .r.B.G.:X*Xs.y.e.i.t.e.s.=X:X;XN.e.$.> 5 3.hXhXhXhXhXhXhXhXhXhXhXhX",
"hXhXhXhXhXhXhXhXhXhX2X1Xn.> | ,.F.eXoXN v a.i.v.v.a.n B #XrXG.r.o.> 4.D.<XhXhXhXhXhXhXhXhXhXhXhX",
"hXhXhXhXhXhXhXhXhXhX2Xt.&.1  .,.S.eXd.. . 2.v.i.v.2.O . n.rXB.,.o.1 X.x.;Xn.hXhXhXhXhXhXhXhXhXhX",
"hXhXhXhXhXhXhXhXhXhX<Xt.,. .o.,.S.eXXX#   4.N.B.B.4.. o ].rXN.,.o. .&.x.D.n.c hXhXhXhXhXhXhXhXhX",
"hXhXhXhXhXhXhXhXhXhXZ.b.t.9.$.,.S.3X#XB O 6.G.1XF.c.< x #XrXN.r.$.9.e.b.m.f.c c hXhXhXhXhXhXhXhX",
"hXhXhXhXhXhXhXhXhXhXhXv.t.9.x.M.C.D.3X:Xg.D.<X2X1XD.g.:X3XF.B.N.M.,.e.y.e b v v c hXhXhXhXhXhXhX",
"hXhXhXhXhXhXhXhXhXhXhXhXhXhXN.c.u.C.;X;XN.F.2X2X2X;XB.;XF.C.6.c.V.%.%.P L 9 h c c hXhXhXhXhXhXhX",
"hXhXhXhXhXhXhXhXhXhXhXhXhXhXi.5.5 4.7.y.N.G.<X2X<XF.N.r.u.6.2 1.i.; ; ; ; ; 8 c c hXhXhXhXhXhXhX",
"hXhXhXhXhXhXhXhXhXhXhXhXhXhXi.2.X > < 2 i.C.G.1XF.Z.u.5 O + . #.i.; ; ; ; 8 x c hXhXhXhXhXhXhXhX",
"hXhXhXhXhXhXhXhXhXhXhXhXhXhX] ` e % . > 5 5.t.m.x.5.5 > . . @.1.P ; ; 6 8 b hXhXhXhXhXhXhXhXhXhX",
"hXhXhXhXhXhXhXhXhXhXhXhXhXhX( ] 8.5 , , X 3 X.X.X.3 > , , 4 3.P - ; ; 6 x hXhXhXhXhXhXhXhXhXhXhX",
"hXhXhXhXhXhXhXhXhXhXhXhXhX( / ) _ 0.w.X.X . . % X . X ..&.w.k g = = hXhXhXhXhXhXhXhXhXhXhXhXhXhX",
"hXhXhXhXhXhXhXhXhXhXhXhX( ( / ( W U j M 3.3.5.w.5.5.3.K j j s g * hXhXhXhXhXhXhXhXhXhXhXhXhXhXhX",
"hXhXhXhXhXhXhXhXhXhXhX} } } } } [ I l !.s.g.y.y.y.y.0.Z 7 p s g 7 hXhXhXhXhXhXhXhXhXhXhXhXhXhXhX",
"hXhXhXhXhXhXhXhXhXhX} ,X5X4XaXdXsX8X(.^.T.g = - * V V S S - h d d hXhXhXhXhXhXhXhXhXhXhXhXhXhXhX",
"hXhXhXhXhXhXhXhXhXhX>XrXpXpXsXdXsXpX0X6XW.L.l V C S S G S V k.4.e hXhXhXhXhXhXhXhXhXhXhXhXhXhXhX",
"hXhXhXhXhXhXhXhXhXhXdXdXfXfXfXaXuXsXfXyX(.R.L.C S H H H Z j z.l.;.hXhXhXhXhXhXhXhXhXhXhXhXhXhXhX",
"hXhXhXhXhXhXhXhXdXdXdXiXaXdXfXqX&XpXfXiX&X(.!.L J S S J z !.z.l.<.hXhXhXhXhXhXhXhXhXhXhXhXhXhXhX",
"hXhXhXhXhXhXhXhXdXdXdXwX0XfXfX0X@XuXfXiX&X@XOXl 7 V - z K.K.k.1.b hXhXhXhXhXhXhXhXhXhXhXhXhXhXhX",
"hXhXhXhXhXhXhXdXfXfXdX4X8XdXfXqX@X%X4X7XwXyX7XI.U.l U.U.P.P.M k i hXhXhXhXhXhXhXhXhXhXhXhXhXhXhX",
"hXhXhXhXhXhXhXfXsXsXdX8X8XpXiXqX@X.X.X$XiXfXuXE._._._.W.I.P.K.J.J.hXhXhXhXhXhXhXhXhXhXhXhXhXhXhX",
"hXhXhXhXhXhX8XiX9X9XgXsXqX.X4X4X@X X4XiXfXdXuX)._._._._.I.I.J.a i hXhXhXhXhXhXhXhXhXhXhXhXhXhXhX",
"hXhXhXhXhXhX4XiX&X#X4X9X8XoXoX XoX].$X0XfX6X`.E.^._._.I.W.I.J.a a hXhXhXhXhXhXhXhXhXhXhXhXhXhXhX",
"hXhXhXhXhXhX8XpX$X.X$X$X%X$X|.].].].oX5XyX`.I.T.W.).W.Q.T.Y.J.J.a hXhXhXhXhXhXhXhXhXhXhXhXhXhXhX",
"hXhXhXhXhXhXhX%X$X+X|.@X$X@XN c m d K.I.I.I.I.I.T.T.Q.T.W.).).).T.T.hXhXhXhXhXhXhXhXhXhXhXhXhXhX",
"hXhXhXhXhXhXhXhXoX.X}..XoXhXhXm d a J.J.J.P.I.I.T.Y.Q.E.).)._.).W.T.hXhXhXhXhXhXhXhXhXhXhXhXhXhX",
"hXhXhXhXhXhXhXhXhX}.}.].hXhXhXhXf p i i a J.K.K.P.T.R.W.^.!.~.~.~.m hXhXhXhXhXhXhXhXhXhXhXhXhXhX",
"hXhXhXhXhXhXhXhXhXhXhXhXhXhXhXhXr r f i i i i a L.W.W.^.M #.<.<.<.#.hXhXhXhXhXhXhXhXhXhXhXhXhXhX",
"hXhXhXhXhXhXhXhXhXhXhXhXhXhXhXhXr r u y y y y # L.W.^.N #.+.*.-.>.:.;.hXhXhXhXhXhXhXhXhXhXhXhXhX",
"hXhXhXhXhXhXhXhXhXhXhXhXhXhXhXhX@ @ r r r @ o + d Q.v e w w o.*.-.;.O.+.hXhXhXhXhXhXhXhXhXhXhXhX",
"hXhXhXhXhXhXhXhXhXhXhXhXhXhXhXhXo @ r r r o + < d m 4 1 q q  .O.o.O.o. .3 hXhXhXhXhXhXhXhXhXhXhX",
"hXhXhXhXhXhXhXhXhXhXhXhXhXhXhXhXhXO @ @ O X > hXK.l 2 2 w ;.:.:.:.:.o.1 1 hXhXhXhXhXhXhXhXhXhXhX",
"hXhXhXhXhXhXhXhXhXhXhXhXhXhXhXhXhX% o o X % % hXhX0 q w *.;.;.;.-.;.O.| q hXhXhXhXhXhXhXhXhXhXhX",
"hXhXhXhXhXhXhXhXhXhXhXhXhXhXhXhXhX% % % % % % hXhX1 q =.;.O.o.o.o.o.;.-.q hXhXhXhXhXhXhXhXhXhXhX",
"hXhXhXhXhXhXhXhXhXhXhXhXhXhXhXhXhXhXhX% % hXhXhXhX1 1  .+.+.o.o.o.o.o.o.o.hXhXhXhXhXhXhXhXhXhXhX",
"hXhXhXhXhXhXhXhXhXhXhXhXhXhXhXhXhXhXhXhXhXhXhXhXhX1 |  .o.o.o.o.o.o.o.o.o.hXhXhXhXhXhXhXhXhXhXhX",
"hXhXhXhXhXhXhXhXhXhXhXhXhXhXhXhXhXhXhXhXhXhXhXhXhXq o.o.o.o.o.o.o.o.o.o.o.hXhXhXhXhXhXhXhXhXhXhX",
"hXhXhXhXhXhXhXhXhXhXhXhXhXhXhXhXhXhXhXhXhXhXhXhXhXq o.o.o.O.o.o.o.o.o.o.hXhXhXhXhXhXhXhXhXhXhXhX",
"hXhXhXhXhXhXhXhXhXhXhXhXhXhXhXhXhXhXhXhXhXhXhXhXhXw -.-.-.-.o.o.o.o.o.hXhXhXhXhXhXhXhXhXhXhXhXhX",
"hXhXhXhXhXhXhXhXhXhXhXhXhXhXhXhXhXhXhXhXhXhXhXhXhX .-.-.-.-.;.=.=.=.hXhXhXhXhXhXhXhXhXhXhXhXhXhX",
"hXhXhXhXhXhXhXhXhXhXhXhXhXhXhXhXhXhXhXhXhXhXhXhXhXhXO.O.O.O.:.:.:.:.hXhXhXhXhXhXhXhXhXhXhXhXhXhX",
"hXhXhXhXhXhXhXhXhXhXhXhXhXhXhXhXhXhXhXhXhXhXhXhXhXhXhXo.o.o.O.O.O.hXhXhXhXhXhXhXhXhXhXhXhXhXhXhX",
"hXhXhXhXhXhXhXhXhXhXhXhXhXhXhXhXhXhXhXhXhXhXhXhXhXhXhXhXhXhXhXhXhXhXhXhXhXhXhXhXhXhXhXhXhXhXhXhX"
};
