/* XPM */
static char *result[] = {
/* columns rows colors chars-per-pixel */
"48 60 223 2 ",
"   c #3E1D03",
".  c #35190E",
"X  c #391B0A",
"o  c #2B131C",
"O  c #331813",
"+  c #1D0B2D",
"@  c #11053C",
"#  c #1A0A36",
"$  c #0F043E",
"%  c #220E26",
"&  c #210E29",
"*  c #27023E",
"=  c #2C162D",
"-  c #3B2939",
";  c #401F01",
":  c #531F06",
">  c #671813",
",  c #7C1017",
"<  c #781519",
"1  c #7B1613",
"2  c #452201",
"3  c #4B2404",
"4  c #532A01",
"5  c #582B07",
"6  c #542A13",
"7  c #5D331D",
"8  c #4F3218",
"9  c #673802",
"0  c #6B3A01",
"q  c #643606",
"w  c #733F07",
"e  c #673A17",
"r  c #6C3213",
"t  c #771629",
"y  c #6D112D",
"u  c #593223",
"i  c #482C37",
"p  c #512F3A",
"a  c #52303A",
"s  c #51342B",
"d  c #743437",
"f  c #754100",
"g  c #7B4500",
"h  c #7C450B",
"j  c #784311",
"k  c #4A423B",
"l  c #7B4620",
"z  c #0B0145",
"x  c #0A024A",
"c  c #170C57",
"v  c #1A105F",
"b  c #291153",
"n  c #3E265D",
"m  c #35204D",
"M  c #241769",
"N  c #362369",
"B  c #2F2179",
"V  c #2E2177",
"C  c #312075",
"Z  c #302179",
"A  c #372D77",
"S  c #3A3377",
"D  c #4D1D59",
"F  c #501E57",
"G  c #7A1C41",
"H  c #492A48",
"J  c #4C3549",
"K  c #462A56",
"L  c #6E3051",
"P  c #5E2D72",
"I  c #493668",
"U  c #6E2D6C",
"Y  c #524D4E",
"T  c #795351",
"R  c #675F66",
"E  c #5B6167",
"W  c #9E0B0F",
"Q  c #8C0E13",
"!  c #870E14",
"~  c #920D11",
"^  c #9C0D18",
"/  c #871618",
"(  c #931119",
")  c #A30A0D",
"_  c #AB0A0B",
"`  c #BC0807",
"'  c #B50909",
"]  c #B90909",
"[  c #A60C16",
"{  c #B41618",
"}  c #8B271D",
"|  c #893616",
" . c #A73316",
".. c #981633",
"X. c #902E30",
"o. c #BB2828",
"O. c #AE2E3A",
"+. c #B01830",
"@. c #C40806",
"#. c #CD0805",
"$. c #C60B0A",
"%. c #D40804",
"&. c #DC0803",
"*. c #DB0B0C",
"=. c #C71113",
"-. c #D51314",
";. c #C9110C",
":. c #E30802",
">. c #ED0801",
",. c #F00800",
"<. c #EA170D",
"1. c #F0180E",
"2. c #EA1A13",
"3. c #C42625",
"4. c #C43535",
"5. c #DA3834",
"6. c #D62420",
"7. c #D02912",
"8. c #834A00",
"9. c #8A4E00",
"0. c #834A08",
"q. c #8A5200",
"w. c #935400",
"e. c #9A5F00",
"r. c #864618",
"t. c #945A1D",
"y. c #86501F",
"u. c #A45919",
"i. c #B35F1F",
"p. c #AC6412",
"a. c #9A5624",
"s. c #974035",
"d. c #A44928",
"f. c #B75A36",
"g. c #AB6729",
"h. c #B76526",
"j. c #B87635",
"k. c #C35C18",
"l. c #CF5728",
"z. c #ED4025",
"x. c #C56824",
"c. c #C87229",
"v. c #D2742B",
"b. c #C87838",
"n. c #D97B33",
"m. c #CA6F33",
"M. c #8D1D44",
"N. c #8F4E4E",
"B. c #B55E57",
"V. c #B76D4B",
"C. c #9E7B62",
"Z. c #BF7377",
"A. c #AD6D71",
"S. c #CA4B4B",
"D. c #F15954",
"F. c #E7504B",
"G. c #CA7645",
"H. c #CC6D6E",
"J. c #E47C7A",
"K. c #D9863A",
"L. c #C2833E",
"P. c #C78549",
"I. c #D98643",
"U. c #CE8D4F",
"Y. c #E58A46",
"T. c #E6994C",
"R. c #ED8353",
"E. c #ECA55B",
"W. c #EBA55A",
"Q. c #C79572",
"!. c #E3A767",
"~. c #EAB677",
"^. c #F4BA79",
"/. c #ECB070",
"(. c #2F2A87",
"). c #312A85",
"_. c #302E8D",
"`. c #302681",
"'. c #333188",
"]. c #303395",
"[. c #313A9D",
"{. c #363999",
"}. c #2F308F",
"|. c #313EA4",
" X c #2F3EA4",
".X c #483990",
"XX c #2F40A8",
"oX c #2F40A7",
"OX c #3140A7",
"+X c #3141A9",
"@X c #3547B1",
"#X c #384CB8",
"$X c #3B50BD",
"%X c #3E55C4",
"&X c #4058C7",
"*X c #8D9097",
"=X c #B58082",
"-X c #9A9EA5",
";X c #9EA1A9",
":X c #A4A6AE",
">X c #A8A6AC",
",X c #ABACB4",
"<X c #B5B6BC",
"1X c #B6AFB3",
"2X c #C89799",
"3X c #D68E8F",
"4X c #E8BD8F",
"5X c #E9B9B8",
"6X c #EAAAA9",
"7X c #DBACAE",
"8X c #F6C78C",
"9X c #F8CC93",
"0X c #EDC59D",
"qX c #C6C5CA",
"wX c #D2D3D7",
"eX c #CECACE",
"rX c #E6DCDD",
"tX c #DFDFE2",
"yX c #E0DEE0",
"uX c #E7E7E9",
"iX c #F4F4F5",
"pX c #F9F9F9",
"aX c #72751B",
/* pixels */
"aXaXaXaXaXaXaXaXaXaXaXaXaXaXaXaXaXaXaXaXaXaXaXaXaXaXaX,.,.,.&.aXaXaXaXaXaXaXaXaXaXaXaXaXaXaXaXaX",
"aXaXaXaXaXaXaXaXaXaXaXaXaXaXaXaXaXaXaXaXaXaXaXaXaXaXaX,.,.>.&.@.aXaXaXaXaXaXaXaXaXaXaXaXaXaXaXaX",
"aXaXaXaXaXaXaXaXaXaXaXaXaXaXaXaXaXaXaXaXaXaXaXaXaXaX,.,.,.>.:.%.aXaXaXaXaXaXaXaXaXaXaXaXaXaXaXaX",
"aXaXaXaXaXaXaXaXaXaXaXaXaXaXaXaXaXaXaXaXaXaXaXaX,.,.,.,.,.,.>.:.$.aXaXaXaXaXaXaXaXaXaXaXaXaXaXaX",
"aXaXaXaXaXaXaXaXaXaXaXaXaXaXaXaXaXaXaXaXaXaX,.,.,.,.,.,.,.,.,.:.#.] aXaXaXaXaXaXaXaXaXaXaXaXaXaX",
"aXaXaXaXaXaXaXaXaXaXaXaXaXaXaXaXaXaXaXaXaX,.,.,.,.,.,.,.,.,.>.:.$.3.3.aXaXaXaXaXaXaXaXaXaXaXaXaX",
"aXaXaXaXaXaXaXaXaXaXaXaXaXaXaXaXaXaXaXaX:.,.,.,.,.,.,.,.>.>.:.#.3.S.Q.aXaXaXaXaXaXaXaXaXaXaXaXaX",
"aXaXaXaXaXaXaXaXaXaXaXaXaXaXaXaXaXaXaX#.&.,.,.,.,.,.,.,.,.>.%.$.3.3X7XaXaXaXaXaXaXaXaXaXaXaXaXaX",
"aXaXaXaXaXaXaXaXaXaXaXaXaXaXaXaXaXaX@.#.:.,.,.,.,.,.,.>.>.>.#.] 4.3X2XO.` aXaXaXaXaXaXaXaXaXaXaX",
"aXaXaXaXaXaXaXaXaXaXaXaXaXaXaX:.%.` @.&.>.,.,.,.,.,.,.>.:.%.@.] o.Z.Z.3.%.:.aXaXaXaXaXaXaXaXaXaX",
"aXaXaXaXaXaXaXaXaXaXaXaXaXaX>.>.&.#.@.:.>.>.,.,.,.>.>.:.&.@.] ] o.B.H.6.:.,.aXaXaXaXaXaXaXaXaXaX",
"aXaXaXaXaXaXaXaXaXaXaXaXaXaX>.>.:.#.@.&.:.>.>.>.>.:.&.%.@.] ] ] 3.O.5.2.,.,.aXaXaXaXaXaXaXaXaXaX",
"aXaXaXaXaXaXaXaXaXaXaXaXaXaX>.,.>.%.` @.%.:.&.:.&.%.@.` ] ] ] ] ;.-.<.,.,.,.aXaXaXaXaXaXaXaXaXaX",
"aXaXaXaXaXaXaXaXaXaXaXaXaXaX>.>.:.%.] ` @.#.#.#.#.@.' ` ] ] ] ` %.>.,.,.,.,.aXaXaXaXaXaXaXaXaXaX",
"aXaXaXaXaXaXaXaXaXaXaXaXaXaX&.&.%.@.] ] ` ` ` ` ` ' ' ' ' ' ] @.:.,.,.,.,.aXaXaXaXaXaXaXaXaXaXaX",
"aXaXaXaXaXaXaXaXaXaXaXaXaXaX' @.@.] ] ] ` ' ' ' ' ' ' _ ) ) ] #.:.,.,.1.1.aXaXaXaXaXaXaXaXaXaXaX",
"aXaXaXaXaXaXaXaXaXaXaXaXaXaX^ ) _ _ ' ' ' ' ' _ ) ) ) W ~ ^ ' #.&.:.2.z.aXaXaXaXaXaXaXaXaXaXaXaX",
"aXaXaXaXaXaXaXaXaXaXaXaXaXaX! ! Q W ) _ _ _ W Q Q Q Q / / X. ._ ;.7.l.R.^.9XaXaXaXaXaXaXaXaXaXaX",
"aXaXaXaXaXaXaXaXaXaXaXaXaXaX< < , ! ~ ~ Q Q ! ! , / } } d.V.X.1  .k.Y./.8X9X9XaXaXaXaXaXaXaXaXaX",
"aXaXaXaXaXaXaXaXaXaXaXaXaXaXd t , , , , / / 1 , < } d.f.G.Q.T 8 t.K.W.^.8X9X8XaXaXaXaXaXaXaXaXaX",
"aXaXaXaXaXaXaXaXaXaXaXaXaXaXT d > > < } s.s.} > > | b.U.!.4XC.l h.K.W./.^.^.^./.aXaXaXaXaXaXaXaX",
"aXaXaXaXaXaXaXaXaXaXaXaXaXaXR Y s > < X.V.b.d.r 3 j L.!.4X0XQ.g.c.K.T.W.E.E.E.aXaXaXaXaXaXaXaXaX",
"aXaXaXaXaXaXaXaXaXaXaXaXaXaXE Y i 6 7 V.P.n.i.w 5 h L.~.4X4XG.g.h.g.b.b.K.Y.Y.aXaXaXaXaXaXaXaXaX",
"aXaXaXaXaXaXaXaXaXaXaXaXaXaXaXY k 8 e P.b.v.x.u.h t.U./.!.U.a.r.q 0 h r.a.g.aXaXaXaXaXaXaXaXaXaX",
"aXaXaXaXaXaXaXaXaXaXaXaXaXaXaXaXY 8 7 g.c.n.K.c.i.c.T.E.!.j.e 3 X ; 3 5 5 aXaXaXaXaXaXaXaXaXaXaX",
"aXaXaXaXaXaXaXaXaXaXaXaXaXaXaXaXaXaXq j t.b.b.n.v.K.Y.E.T.b.r.6 ; : 5 5 aXaXaXaXaXaXaXaXaXaXaXaX",
"aXaXaXaXaXaXaXaXaXaXaXaXaXaXaXaXaXaXaX5 w y.t.u.h.c.n.I.Y.n.h.a.r.r.0.aXaXaXaXaXaXaXaXaXaXaXaXaX",
"aXaXaXaXaXaXaXaXaXaXaXaXaXaXaXaXaXaXaXaXaX6 6 e d N.N.N.G.n.v.x.x.aXaXaXaXaXaXpXpXpXpXaXaXaXaXaX",
"aXaXaXaXaXaXaXaXaXaXaXaXaXaXaXaXaXaXaXaXaX- - i F D D L N.f.l.k.aXaXaXaXaXuXiXpXpXiXuXuXaXaXaXaX",
"aXaXaXaXaXaXaXaXaXaXaXaXaXaXaXaXaXaXaXaXaX'.S S y t y t ..X. .aXaXaXA.:XqXtXiXpXpXiXuXqX:XaXaXaX",
"aXaXaXaXaXaXaXaXaXaXaXaXaXaXaXaXaXaXaX}.{.|.|.{.G ( [ ^ ^ [ ' $.=.o.B.2XeXtXiXpXpXiXuXqX:X*XaXaX",
"aXaXaXaXaXaXaXaXaXaXaXaXaXaXaXaXaXaXaX[.|.|.+X|.P M.[ ' ] $.%.&.&.-.5.J.5XuXiXiXpXiXuXwX<X;XaXaX",
"aXaXaXaXaXaXaXaXaXaXaXaXaXaXaXaXaXaXaX@X|.XXXX+X{.P ..=.%.*.>.>.>.:.2.D.5XrXrXuXuXuXwXqX<X,XaXaX",
"aXaXaXaXaXaXaXaXaXaXaXaXaXaXaXaXaXaX%X%X#X+X|.+X+X.XU M.+.=.:.,.,.,.1.D.6XeXqXeXwXeX<X,X:X:XaXaX",
"aXaXaXaXaXaXaXaXaXaXaXaXaXaXaXaXaXaX&X%X%X@XXXXX|.|..X.XU O.-.-.:.:.2.F.3X<X:X1X<X<X,X:X-XaXaXaX",
"aXaXaXaXaXaXaXaXaXaXaXaXaXaXaXaXaX%X%X%X%X@XXXXX@X|.|.|..XL X...[ $.$.S.=X*X*X;X:X:X:X:XaXaXaXaX",
"aXaXaXaXaXaXaXaXaXaXaXaXaXaXaXaXaX@X#X%X%X@X@X X|.|.+X+X{.I F D y y t X.aXaXaXaXaXaXaXaXaXaXaXaX",
"aXaXaXaXaXaXaXaXaXaXaXaXaXaXaXaX|. X@X#X@X X X X|.+X|.|.{.'.N M b b * aXaXaXaXaXaXaXaXaXaXaXaXaX",
"aXaXaXaXaXaXaXaXaXaXaXaXaXaXaXaX(.]. X@X X X@X X+X+X+X|.{._.M c z z z aXaXaXaXaXaXaXaXaXaXaXaXaX",
"aXaXaXaXaXaXaXaXaXaXaXaXaXaXaXaX`.(.]. X X X X X+X|.|.|.].Z v x z z @ o aXaXaXaXaXaXaXaXaXaXaXaX",
"aXaXaXaXaXaXaXaXaXaXaXaXaXaXaXaXB Z `._._.|.|.|. X[.}.}.B M c x z z @ % .   2 aXaXaXaXaXaXaXaXaX",
"aXaXaXaXaXaXaXaXaXaXaXaXaXaXaXaXC Z B Z B _.].].].}.B B M c x x x z $ + O     aXaXaXaXaXaXaXaXaX",
"aXaXaXaXaXaXaXaXaXaXaXaXaXaXaXZ C B B B Z `.(.(.(.B V b c x z x z z @ & .     ; aXaXaXaXaXaXaXaX",
"aXaXaXaXaXaXaXaXaXaXaXaXaXaXaXZ Z B V C B Z B B B C m - # x z z z $ + o X   2   aXaXaXaXaXaXaXaX",
"aXaXaXaXaXaXaXaXaXaXaXaXaXaXC B Z Z V Z Z Z B B aXaXaXO % # $ @ + % o X   2     aXaXaXaXaXaXaXaX",
"aXaXaXaXaXaXaXaXaXaXaXaXaXaXC Z V Z C Z Z aXaXaXaXaXaX  O o & & o . X         2 aXaXaXaXaXaXaXaX",
"aXaXaXaXaXaXaXaXaXaXaXaXZ Z Z Z C Z C Z aXaXaXaXaXaXaX2   X O O   ;   ; 2 2 2 aXaXaXaXaXaXaXaXaX",
"aXaXaXaXaXaXaXaXaXu J S `.Z V V Z B Z aXaXaXaXaXaXaXaX  ; ;     2 2 2 2 4 4 4 aXaXaXaXaXaXaXaXaX",
"aXaXaXaXaXaXaXaXa J S A A B C Z Z Z Z aXaXaXaXaXaXaXaXaX2 ; ; 2 4 4 4 4 aXaXaXaXaXaXaXaXaXaXaXaX",
"aXaXaXaXaXe.q.e H S '.Z B B C C Z V aXaXaXaXaXaXaXaXaXaXaXaX; 2 4 q aXaXaXaXaXaXaXaXaXaXaXaXaXaX",
"aXaXaXaXaXq.g e K A }.).B Z Z C C aXaXaXaXaXaXaXaXaXaXaXaXaXaXaXaXaXaXaXaXaXaXaXaXaXaXaXaXaXaXaX",
"aXaXaXaXe.q.f 7 i A '.B B Z C N N aXaXaXaXaXaXaXaXaXaXaXaXaXaXaXaXaXaXaXaXaXaXaXaXaXaXaXaXaXaXaX",
"aXaXaXaXe.8.f q u K A B Z C K H p aXaXaXaXaXaXaXaXaXaXaXaXaXaXaXaXaXaXaXaXaXaXaXaXaXaXaXaXaXaXaX",
"aXaXaXaXaXq.f 0 e p n C C K J e w 0.aXaXaXaXaXaXaXaXaXaXaXaXaXaXaXaXaXaXaXaXaXaXaXaXaXaXaXaXaXaX",
"aXaXaXaXaXq.8.f q u H K H p e 0.9.w.w.aXaXaXaXaXaXaXaXaXaXaXaXaXaXaXaXaXaXaXaXaXaXaXaXaXaXaXaXaX",
"aXaXaXaXaXaX8.f q q 7 u 7 r 0.w.w.w.w.aXaXaXaXaXaXaXaXaXaXaXaXaXaXaXaXaXaXaXaXaXaXaXaXaXaXaXaXaX",
"aXaXaXaXaXaXaXg 0 9 9 9 0 g 9.w.w.w.aXaXaXaXaXaXaXaXaXaXaXaXaXaXaXaXaXaXaXaXaXaXaXaXaXaXaXaXaXaX",
"aXaXaXaXaXaXaXaXf 9 9 9 0 w 8.9.q.aXaXaXaXaXaXaXaXaXaXaXaXaXaXaXaXaXaXaXaXaXaXaXaXaXaXaXaXaXaXaX",
"aXaXaXaXaXaXaXaXaX9 9 9 0 0 f g g aXaXaXaXaXaXaXaXaXaXaXaXaXaXaXaXaXaXaXaXaXaXaXaXaXaXaXaXaXaXaX",
"aXaXaXaXaXaXaXaXaXaX9 9 0 0 0 w aXaXaXaXaXaXaXaXaXaXaXaXaXaXaXaXaXaXaXaXaXaXaXaXaXaXaXaXaXaXaXaX"
};
