/* XPM */
static char *result[] = {
/* columns rows colors chars-per-pixel */
"48 60 224 2 ",
"   c #210900",
".  c #290E01",
"X  c #2D1001",
"o  c #3D1D02",
"O  c #35180A",
"+  c #321917",
"@  c #2B141B",
"#  c #3A2013",
"$  c #0F043F",
"%  c #150737",
"&  c #1D0C2D",
"*  c #261121",
"=  c #391F30",
"-  c #401F01",
";  c #4E1B06",
":  c #561C09",
">  c #7B0F16",
",  c #751116",
"<  c #791117",
"1  c #781018",
"2  c #7C161B",
"3  c #651810",
"4  c #442101",
"5  c #4A2500",
"6  c #4B2608",
"7  c #572B05",
"8  c #5F3200",
"9  c #573018",
"0  c #633501",
"q  c #683700",
"w  c #683800",
"e  c #673800",
"r  c #713E00",
"t  c #723909",
"y  c #723110",
"u  c #421D31",
"i  c #6C1330",
"p  c #543139",
"a  c #6B3433",
"s  c #7B4400",
"d  c #744100",
"f  c #744815",
"g  c #7B5029",
"h  c #564333",
"j  c #090046",
"k  c #080048",
"l  c #120953",
"z  c #231F58",
"x  c #1C1061",
"c  c #3B1D6C",
"v  c #2B1C72",
"b  c #24176A",
"n  c #2F2078",
"m  c #2F2077",
"M  c #312076",
"N  c #302078",
"B  c #362975",
"V  c #362B68",
"C  c #4E1950",
"Z  c #681643",
"A  c #45294B",
"S  c #552D4E",
"D  c #6B3247",
"F  c #501E63",
"G  c #452665",
"H  c #532860",
"J  c #5E327F",
"K  c #502D72",
"L  c #602C6E",
"P  c #595A5D",
"I  c #744D4A",
"U  c #48496F",
"Y  c #515961",
"T  c #514A73",
"R  c #6C6B6C",
"E  c #675765",
"W  c #9B0B0F",
"Q  c #8D0D12",
"!  c #860E15",
"~  c #920D13",
"^  c #861C1A",
"/  c #9E1F1D",
"(  c #A30A0D",
")  c #AD090B",
"_  c #BB0807",
"`  c #B40809",
"'  c #B80808",
"]  c #AE1510",
"[  c #821F23",
"{  c #8D1939",
"}  c #95322A",
"|  c #B22E2E",
" . c #A52017",
".. c #C40806",
"X. c #CA0805",
"o. c #C00C0F",
"O. c #D30804",
"+. c #DC0803",
"@. c #D70E12",
"#. c #CA171A",
"$. c #DA130D",
"%. c #E40801",
"&. c #ED0800",
"*. c #F00800",
"=. c #EC1109",
"-. c #C02014",
";. c #CB2D2B",
":. c #F1241D",
">. c #834A01",
",. c #884B05",
"<. c #8E5100",
"1. c #945500",
"2. c #9A5A01",
"3. c #975906",
"4. c #8C4A11",
"5. c #AC5713",
"6. c #AB6C02",
"7. c #A36500",
"8. c #B37300",
"9. c #B97900",
"0. c #A85927",
"q. c #B1582F",
"w. c #87633A",
"e. c #A26B29",
"r. c #BB7029",
"t. c #8C5F28",
"y. c #C76B1D",
"u. c #C86C24",
"i. c #D6772B",
"p. c #CC6530",
"a. c #DD7D3A",
"s. c #D87634",
"d. c #CD7332",
"f. c #E67F36",
"g. c #913045",
"h. c #A42E4A",
"j. c #864E56",
"k. c #B44D49",
"l. c #8B694D",
"z. c #B77451",
"x. c #8A686D",
"c. c #CF5D5D",
"v. c #D74947",
"b. c #E75C58",
"n. c #AC8724",
"m. c #C79900",
"M. c #D3A702",
"N. c #CF8231",
"B. c #E78239",
"V. c #EFD100",
"C. c #94867F",
"Z. c #CA924B",
"A. c #D68A4A",
"S. c #EA8B41",
"D. c #EB9549",
"F. c #EA984A",
"G. c #EB9E52",
"H. c #EDA256",
"J. c #F0A959",
"K. c #F0A758",
"L. c #CB986F",
"P. c #E29A65",
"I. c #E9AA68",
"U. c #F1AE63",
"Y. c #F2B26A",
"T. c #F4BD7B",
"R. c #E4AD76",
"E. c #302782",
"W. c #302E8D",
"Q. c #302986",
"!. c #303395",
"~. c #30369A",
"^. c #313B9E",
"/. c #393C97",
"(. c #2F2E8D",
"). c #323EA3",
"_. c #2F3FA7",
"`. c #493B87",
"'. c #543282",
"]. c #3B4398",
"[. c #2F40A8",
"{. c #3241A5",
"}. c #3040A8",
"|. c #3D4CA6",
" X c #71708D",
".X c #4956A8",
"XX c #777FA3",
"oX c #50579F",
"OX c #817A82",
"+X c #7C838A",
"@X c #87898C",
"#X c #828A92",
"$X c #878C90",
"%X c #8C919A",
"&X c #918F8F",
"*X c #AF9499",
"=X c #AFA493",
"-X c #8F94A7",
";X c #9EA1A9",
":X c #B0B1B8",
">X c #B7B7BD",
",X c #AAABB3",
"<X c #CFAF8D",
"1X c #EBBD89",
"2X c #DA8787",
"3X c #F6C689",
"4X c #F6CD95",
"5X c #F8D098",
"6X c #F1D0AB",
"7X c #BABBC1",
"8X c #ABAEC6",
"9X c #BFC1C6",
"0X c #C4C4C9",
"qX c #D7D8DC",
"wX c #E9D4D5",
"eX c #DEDEE1",
"rX c #E1E1E4",
"tX c #EAEAEC",
"yX c #EFEFF0",
"uX c #F4F4F4",
"iX c #F9F9F9",
"pX c #F8F5F5",
"aX c #F8E6E6",
"sX c #72751B",
/* pixels */
"sXsXsXsXsXsXsXsXsXsXsXsXsXsXsXsXsXsXsXsXsXsXsXsXsXsX*.*.*.+...sXsXsXsXsXsXsXsXsXsXsXsXsXsXsXsXsX",
"sXsXsXsXsXsXsXsXsXsXsXsXsXsXsXsXsXsXsXsXsXsXsXsX*.*.*.*.*.&.+.X.sXsXsXsXsXsXsXsXsXsXsXsXsXsXsXsX",
"sXsXsXsXsXsXsXsXsXsXsXsXsXsXsXsXsXsXsXsXsXsX&.*.*.*.*.*.*.*.&.X.' sXsXsXsXsXsXsXsXsXsXsXsXsXsXsX",
"sXsXsXsXsXsXsXsXsXsXsXsXsXsXsXsXsXsXsXsX*.*.*.*.*.*.*.*.*.*.&...' ' sXsXsXsXsXsXsXsXsXsXsXsXsXsX",
"sXsXsXsXsXsXsXsXsXsXsXsXsXsXsXsXsXsXsX*.*.*.*.*.*.*.*.*.*.*.&...] ' sXsXsXsXsXsXsXsXsXsXsXsXsXsX",
"sXsXsXsXsXsXsXsXsXsXsXsXsXsXsXsXsXsX%.*.*.*.*.*.*.*.*.*.*.%.O...;.2XsXsXsXsXsXsXsXsXsXsXsXsXsXsX",
"sXsXsXsXsXsXsXsXsXsXsXsXsXsXsXsXsX_ +.*.*.*.*.*.*.*.*.*.*.O._ ' c.iXsXsXsXsXsXsXsXsXsXsXsXsXsXsX",
"sXsXsXsXsXsXsXsXsXsXsXsXsXsXsXsX' ..+.&.*.*.*.&.*.*.*.*.*.O._ ' c.iX[ W ' sXsXsXsXsXsXsXsXsXsXsX",
"sXsXsXsXsXsXsXsXsXsXsXsXsX%._ _ ' %.&.*.*.*.*.*.*.*.*.&.O._ ' ' v.9X] o.%.*.sXsXsXsXsXsXsXsXsXsX",
"sXsXsXsXsXsXsXsXsXsXsXsX*.&.X._ _ *.*.*.*.*.*.*.*.*.&.+.X.' ' ' k.8Xo.%.*.*.sXsXsXsXsXsXsXsXsXsX",
"sXsXsXsXsXsXsXsXsXsXsX*.*.*.*.X.' %.*.*.*.*.*.*.&.&.+.' ' ' ' ' q.*X=.*.*.*.sXsXsXsXsXsXsXsXsXsX",
"sXsXsXsXsXsXsXsXsXsXsX*.*.*.*.X._ O.%.*.*.*.*.*.X.X...' ' ' ' ' #.v.=.*.*.*.sXsXsXsXsXsXsXsXsXsX",
"sXsXsXsXsXsXsXsXsXsXsX*.*.*.*.X.' _ ..O.O.X.O.X.' ' ' ' ' ' _ X.%.&.*.*.$.| sXsXsXsXsXsXsXsXsXsX",
"sXsXsXsXsXsXsXsXsXsXsX&.&.&.%.X.' ' _ _ ' ' _ _ ' ` ' ' ' ' ' %.&.*.&.*.#.I sXsXsXsXsXsXsXsXsXsX",
"sXsXsXsXsXsXsXsXsXsXsX..+.%..._ ' ' _ ' ' ' ' ' ' ' ' ' ' ' _ %.*.*.*.&.;.x.+XsXsXsXsXsXsXsXsXsX",
"sXsXsXsXsXsXsXsXsXsXsXQ ` ..' ' ' ' ' ' ' ' ' ' ' ' ) ~ Q ` O.&.*.*.*.-.j.OX+X#XsXsXsXsXsXsXsXsX",
"sXsXsXsXsXsXsXsXsXsXsX1 W ) ` ` ' ' ' ' ' ` ` ' ` ` ( > 1 ) %.&.&.&.*.} R +X#X+X#XsXsXsXsXsXsXsX",
"sXsXsXsXsXsXsXsXsXsXsX1 1 1 1 W ) ) ) ) ( ! < < 1 , 1 ! / ] ( ) ] #.J.3X5X5X=X$X#X#XsXsXsXsXsXsX",
"sXsXsXsXsXsXsXsXsXsXsX1 1 1 1 ! Q Q Q Q Q < < < , > ^ 5.z.g.3 ^ 5.s.T.3X5X5X<X=X%X+XsXsXsXsXsXsX",
"sXsXsXsXsXsXsXsXsXsXsXsX1 1 1 1 1 1 1 , < , < < } } 0.d.L.R # s r.K.3X4X5X5X4X<X&X+XsXsXsXsXsXsX",
"sXsXsXsXsXsXsXsXsXsXsXsXsX1 1 1 1 < ! [ ^ 1 , , i.A.H.I.6XC.6 4.N.J.J.T.4X4XY.L.@XR sXsXsXsXsXsX",
"sXsXsXsXsXsXsXsXsXsXsXsXsXsX; 3 2 [ z.L.q.y ; : 5.Z.T.I.6X<X0.u.B.J.J.U.U.U.F.z.R Y sXsXsXsXsXsX",
"sXsXsXsXsXsXsXsXsXsXsXsXsXsXsX: 3 z.A.A.r.y ; 5 1.Z.3XT.3XP.i.y.u.N.D.D.F.F.z.l.P P sXsXsXsXsXsX",
"sXsXsXsXsXsXsXsXsXsXsXsXsXsXsXsX6 R.A.u.5.>.7 5 3.Z.4X3XR.B.i.5.3.3.a.a.a.N.l.P P sXsXsXsXsXsXsX",
"sXsXsXsXsXsXsXsXsXsXsXsXsXsXsXsXsXG.i.y.B.B.r.7.K.K.Y.1Xl.O     X 4     . o sXsXsXsXsXsXsXsXsXsX",
"sXsXsXsXsXsXsXsXsXsXsXsXsXsXsXsXsXe.u.i.S.B.i.y.D.G.U.I.r.6 .   . X 7 4 sXsXsXsXsXsXsXsXsXsXsXsX",
"sXsXsXsXsXsXsXsXsXsXsXsXsXsXsXsX0 7 0.S.G.B.B.B.f.D.K.G.N.t X       <.sXsXsXsXsXsXsXsXsXsXsXsXsX",
"sXsXsXsXsXsXsXsXsXsXsXsXsXsXsXsXsX4 6 6 9 ,.5.5.s.a.f.B.B.a.i.s.u.5.sXsXsXsXsXsXsXsXsXsXsXsXsXsX",
"sXsXsXsXsXsXsXsXsXsXsXsXsXsXsXsXsXsX= u 3 y } D j.k.i.f.f.f.i.i.sXsXsXsXsXsXsXsXsXsXsXsXsXsXsXsX",
"sXsXsXsXsXsXsXsXsXsXsXsXsXsXsXsXsXsXG Z ! ! i G B D q.p.p.q.0.sXsXsXsXsXsXsXsXsXsXsXsXsXsXsXsXsX",
"sXsXsXsXsXsXsXsXsXsXsXsXsXsXsXsXsX`.{ ) ` ) ~ i n B C ^ ^ Z G sXsXsXsXsXsXsXsXsXsXsXsXsXsXsXsXsX",
"sXsXsXsXsXsXsXsXsXsXsXsXsXsXsXsX&.#.@.@.` ` { K ~.G i ( ( Z G sXsXsXsXsXsXsXsXsXsXsXsXsXsXsXsXsX",
"sXsXsXsXsXsXsXsXsXsXsXsXsXsXsX*.*.*.*.*.o.{ L ).).F ~ ` ) Z c sXsXsXsXsXsXsXsXsXsXsXsXsXsXsXsXsX",
"sXsXsXsXsXsXsXsXsXsXsXsXsXsX*.*.*.*.*.*.@.J _._._.L Q ) ~ Z c sXsXsXsXsXsXsXsXsXsXsXsXsXsXsXsXsX",
"sXsXsXsXsXsXsXsXsXsXsXsXsXpXaXaXaX*.*.*.#.'._._.[.K i c B p 4.sXsXsXsXsXsXsXsXsXsXsXsXsXsXsXsXsX",
"sXsXsXsXsXsXsXsXsXsXsXsXrXrXrXrXwXv.:.@.h.'._._.R g i v N p 4.sXsXsXsXsXsXsXsXsXsXsXsXsXsXsXsXsX",
"sXsXsXsXsXsXsXsXsXsXiXiXeX0X0X0X9XwXc.h.{.{.|.T V.m.g B N S g sXsXsXsXsXsXsXsXsXsXsXsXsXsXsXsXsX",
"sXsXsXsXsXsXsXsXsXiXiXiXyXtXyXtXtX7X*X X{.{.T g V.M.w./.Q.V G sXsXsXsXsXsXsXsXsXsXsXsXsXsXsXsXsX",
"sXsXsXsXsXsXsXsXyXiXiXiXiXiXiXiXuX0X8X+X{.{.`.I M.n.E ].W.M sXsXsXsXsXsXsXsXsXsXsXsXsXsXsXsXsXsX",
"sXsXsXsXsXsXsX:XqXeXrXuXiXuXeXyXiXuXeX7X.X|.}.{.l.T {.{.!.sXsXsXsXsXsXsXsXsXsXsXsXsXsXsXsXsXsXsX",
"sXsXsXsXsXsXsX:X>X7X9XtXiXyX7XrXiXiXyXqX-X.X[.[.].]._.).W.sXsXsXsXsXsXsXsXsXsXsXsXsXsXsXsXsXsXsX",
"sXsXsXsXsXsXsXsX:X;X;X9X7X>XeXyXuX:X9X9X+X.X[.[.{._.).W.E.sXsXsXsXsXsXsXsXsXsXsXsXsXsXsXsXsXsXsX",
"sXsXsXsXsXsXsXsX@X&X$X;X%X-XtXrXeX+X%X-XXX}.[.[.~.~.!.v N sXsXsXsXsXsXsXsXsXsXsXsXsXsXsXsXsXsXsX",
"sXsXsXsXsXsXsXw 5 h #X#X@X%X:X:X,XY Y U _._.[.[.N N M M N N N sXsXsXsXsXsXsXsXsXsXsXsXsXsXsXsXsX",
"sXsXsXsXsXsX0 5 o # z z z V %X%X#XB B B E.E.E.E.N N N N N N m N sXsXsXsXsXsXsXsXsXsXsXsXsXsXsXsX",
"sXsXsXsXsXw 8 o o @ j j j l U U U x v N N N N N N N N N N N N N sXsXsXsXsXsXsXsXsXsXsXsXsXsXsXsX",
"sXsXsXsXsXw 0 o o + $ j k k j j k l x v v v N N N N N N N N N N N sXsXsXsXsXsXsXsXsXsXsXsXsXsXsX",
"sXsXsXsXsXw 8 4 o o @ $ k j j j j j l l l sXsXsXsXsXN N N N N N N N 0 w w w sXsXsXsXsXsXsXsXsXsX",
"sXsXsXsXsXw 8 o 4 o O % j k k k k k j j sXsXsXsXsXsXN N N N N W.W.N f 3.2.<.<.sXsXsXsXsXsXsXsXsX",
"sXsXsXsXsXsX0 5 4 o o & j j k k j % % % sXsXsXsXsXsXN N m N N ~.~.N 3.8.8.7.2.sXsXsXsXsXsXsXsXsX",
"sXsXsXsXsXsXsX8 4 4 o O & j j j j O + O sXsXsXsXsXsXsXN m N N ^.~.E.6.9.8.8.2.sXsXsXsXsXsXsXsXsX",
"sXsXsXsXsXsXsXw 5 4 o 4 + * * * * 4 o 4 sXsXsXsXsXsXsXN N N N ~.K h 8.9.8.6.2.1.sXsXsXsXsXsXsXsX",
"sXsXsXsXsXsXsXw 5 4 4 o 4 o 4 o 4 o 4 o sXsXsXsXsXsXsXN n n Q.!.K 1.8.8.6.2.<.1.1.sXsXsXsXsXsXsX",
"sXsXsXsXsXsXsXsXe 8 o 4 o 4 o 4 o 4 o 4 sXsXsXsXsXsXsXN n (.^.Q.S 1.1.1.1.1.r d <.sXsXsXsXsXsXsX",
"sXsXsXsXsXsXsXsXsXsX4 o 4 o o o o 4 sXsXsXsXsXsXsXsXp N n N B p f 1.1.1.<.s w s <.sXsXsXsXsXsXsX",
"sXsXsXsXsXsXsXsXsXsXo 4 o 4 4 o 4 sXsXsXsXsXsXsXsXsX9 A A A A 9 d >.>.>.>.w r >.1.sXsXsXsXsXsXsX",
"sXsXsXsXsXsXsXsXsXsXsXsXsX4 o 4 o sXsXsXsXsXsXsXsXsXw w w w w w w w w w d d >.sXsXsXsXsXsXsXsXsX",
"sXsXsXsXsXsXsXsXsXsXsXsXsXsXsXsXsXsXsXsXsXsXsXsXsXsXe w w w w w w w w s 1.6.sXsXsXsXsXsXsXsXsXsX",
"sXsXsXsXsXsXsXsXsXsXsXsXsXsXsXsXsXsXsXsXsXsXsXsXsXsXw w w w w w d s s <.sXsXsXsXsXsXsXsXsXsXsXsX",
"sXsXsXsXsXsXsXsXsXsXsXsXsXsXsXsXsXsXsXsXsXsXsXsXsXsXsXw w f g g t.e.e.sXsXsXsXsXsXsXsXsXsXsXsXsX"
};
