/* XPM */
static char *result[] = {
/* columns rows colors chars-per-pixel */
"48 60 186 2 ",
"   c #3E1E04",
".  c #2D1518",
"X  c #190A3A",
"o  c #311A32",
"O  c #3F2534",
"+  c #411F01",
"@  c #4C1B06",
"#  c #4F1B08",
"$  c #541B09",
"%  c #5A180B",
"&  c #63150F",
"*  c #69170E",
"=  c #7D0F17",
"-  c #6D1313",
";  c #671710",
":  c #741116",
">  c #791116",
",  c #781118",
"<  c #781617",
"1  c #442101",
"2  c #4B2601",
"3  c #4A2807",
"4  c #5D3000",
"5  c #5A330D",
"6  c #462A18",
"7  c #57321A",
"8  c #5A2F00",
"9  c #672509",
"0  c #683700",
"q  c #693900",
"w  c #633504",
"e  c #713E00",
"r  c #692E13",
"t  c #761B26",
"y  c #522F2F",
"u  c #762629",
"i  c #764100",
"p  c #7A4401",
"a  c #7D4A05",
"s  c #7A4E1B",
"d  c #7D592F",
"f  c #1C1156",
"g  c #3F2F42",
"h  c #382F54",
"j  c #3F3149",
"k  c #2C1D6C",
"l  c #382869",
"z  c #2F217A",
"x  c #30227A",
"c  c #3E2F7C",
"v  c #383879",
"b  c #641D40",
"n  c #4C2D41",
"m  c #4A384A",
"M  c #572659",
"N  c #402855",
"B  c #463C65",
"V  c #4B2E71",
"C  c #433C75",
"Z  c #513170",
"A  c #5B444C",
"S  c #5C4956",
"D  c #6C484C",
"F  c #515961",
"G  c #5F676F",
"H  c #686564",
"J  c #75726C",
"K  c #666D75",
"L  c #74707D",
"P  c #9D0B0F",
"I  c #950D0D",
"U  c #830F15",
"Y  c #8C0D13",
"T  c #940C11",
"R  c #9B1D1F",
"E  c #AC0A0B",
"W  c #A50C0B",
"Q  c #BC0807",
"!  c #B50A0A",
"~  c #B80808",
"^  c #B40A07",
"/  c #A51513",
"(  c #882717",
")  c #8A3F07",
"_  c #A5201E",
"`  c #8F1629",
"'  c #BD3C25",
"]  c #A33D25",
"[  c #C30806",
"{  c #CB0805",
"}  c #D30804",
"|  c #DB0803",
" . c #E50801",
".. c #ED0800",
"X. c #F00800",
"o. c #F0140C",
"O. c #F11D15",
"+. c #D41722",
"@. c #C81421",
"#. c #F23D37",
"$. c #834B00",
"%. c #8B4E02",
"&. c #844807",
"*. c #8E5000",
"=. c #935400",
"-. c #995A00",
";. c #975D00",
":. c #A85019",
">. c #9C6100",
",. c #A26400",
"<. c #B96819",
"1. c #B76F36",
"2. c #C17135",
"3. c #955346",
"4. c #967F6D",
"5. c #CE4351",
"6. c #D77948",
"7. c #C26747",
"8. c #F27874",
"9. c #F4736F",
"0. c #9C8369",
"q. c #E89852",
"w. c #EEB473",
"e. c #EDAD69",
"r. c #2F2F8E",
"t. c #302986",
"y. c #302C8A",
"u. c #342880",
"i. c #31318E",
"p. c #2F2F90",
"a. c #303394",
"s. c #30369A",
"d. c #323C9D",
"f. c #383C97",
"g. c #303EA5",
"h. c #7A3C83",
"j. c #2F40A8",
"k. c #2F40A7",
"l. c #3041A9",
"z. c #3543A8",
"x. c #364AB4",
"c. c #394EBA",
"v. c #3446B0",
"b. c #3C51BD",
"n. c #5A5696",
"m. c #704A93",
"M. c #797694",
"N. c #4352BC",
"B. c #5666B1",
"V. c #3E54C3",
"C. c #4456C4",
"Z. c #4158C6",
"A. c #4058C8",
"S. c #4057C8",
"D. c #A86E81",
"F. c #7D848C",
"G. c #828A91",
"H. c #8C8D9A",
"J. c #8C9198",
"K. c #A09081",
"L. c #A6989C",
"P. c #979BA3",
"I. c #8D95AC",
"U. c #9EA1A9",
"Y. c #AAABB3",
"T. c #A3A2B7",
"R. c #B2B4BA",
"E. c #E88987",
"W. c #D0B085",
"Q. c #D4B7BA",
"!. c #F7C98E",
"~. c #B9BAC0",
"^. c #C9C9CE",
"/. c #C3C3C8",
"(. c #CCCCD1",
"). c #D6D6DA",
"_. c #DADBDE",
"`. c #D3CDD0",
"'. c #EED3D3",
"]. c #DDDEE0",
"[. c #DFE0E2",
"{. c #EAEAEC",
"}. c #E5E5E7",
"|. c #F5F5F6",
" X c #F9F9F9",
".X c None",
/* pixels */
".X.X.X.X.X.X.X.X.X.X.X.X.X.X.X.X.X.X.X.X.X.X.X.X.X.X.X.X.X.X.X.X.X.X.X.X.X.X.X.X.X.X.X.X.X.X.X.X",
".X.X.X.X.X.X.X.X.X.X.X.X.X.X.X.X.X.X.X.X.XX.X.X.X.X.X.X..X.X.X.X.X.X.X.X.X.X.X.X.X.X.X.X.X.X.X.X",
".X.X.X.X.X.X.X.X.X.X.X.X.X.X.X.X.X.X..X.X.X.X.X.X.X.X.X.X.X..X.X.X.X.X.X.X.X.X.X.X.X.X.X.X.X.X.X",
".X.X.X.X.X.X.X.X.X.X.X.X.X.X.X.X.XX.X.X.X.X.X.X.X.X.X.X.X.X.X..X.X.X.X.X.X.X.X.X.X.X.X.X.X.X.X.X",
".X.X.X.X.X.X.X.X.X.X.X.X.X.X.X.XX.X.X.X.X.X.X.X.X.X.X.X.X.X.X....X.X.X.X.X.X.X.X.X.X.X.X.X.X.X.X",
".X.X.X.X.X.X.X.X.X.X.X.X.X.X.X.XX.X.X.X.X.X.X.X.X.X.X.X.X.X.X.X.X..X.X.X.X.X.X.X.X.X.X.X.X.X.X.X",
".X.X.X.X.X.X.X.X.X.X.X.X.X.X.X..X.X.X.X.X.X.X.X.X.X.X.X.X.X.X.X.X..X.X.X.X.X.X.X.X.X.X.X.X.X.X.X",
".X.X.X.X.X.X.X.X.X.X.X.X.X.X.X ...X.X.X.X.X.X.X.X.X.X.X.X.X.X.X.X..X.X.X.X.X.X.X.X.X.X.X.X.X.X.X",
".X.X.X.X.X.X.X.X.X.X.X.X.X.X[ |  .X.X.X.X.X.X.X.X.X.X.X.X.X.X.X.X.~ .X.X.X.X.X.X.X.X.X.X.X.X.X.X",
".X.X.X.X.X.X.X.X.X.X.X.X.X.X[ }  .X.X.X.X.X.X.X.X.X.X.X.X.X.X. . .Q .X.X.X.X.X.X.X.X.X.X.X.X.X.X",
".X.X.X.X.X.X.X.X.X.X.X.X.X~ Q [ | X.X.X.X.X.X.X.X.X.X.X.X.X.X.| { ~ ~ .X.X.X.X.X.X.X.X.X.X.X.X.X",
".X.X.X.X.X.X.X.X.X.X.X.X.X~ ~ ~ { | X.X.X.X.X.X.X.X.X.X.X.X.| [ ~ ~ ~ ~ .X.X.X.X.X.X.X.X.X.X.X.X",
".X.X.X.X.X.X.X.X.X.X.X.X.X~ ~ ~ ~ [ | |  .X.X.X.X.X.X. .| | [ Q ~ ~ ~ ~ .X.X.X.X.X.X.X.X.X.X.X.X",
".X.X.X.X.X.X.X.X.X.X.X.X.X~ ~ ~ ~ ~ [ [ {  . . . . . .} [ [ Q ~ ~ ~ ~ ~ .X.X.X.X.X.X.X.X.X.X.X.X",
".X.X.X.X.X.X.X.X.X.X.X.X~ ~ ~ ~ ~ ~ ~ ~ [ [ { { { { { [ ~ ~ ~ ~ ~ ~ ~ ~ .X.X.X.X.X.X.X.X.X.X.X.X",
".X.X.X.X.X.X.X.X.X.X.X~ ~ ~ ~ ~ ~ ~ ~ ~ ~ [ { } } } Q Q Q ~ ~ ~ ~ ~ ~ ~ ~ .X.X.X.X.X.X.X.X.X.X.X",
".X.X.X.X.X.X.X.X.X.X.X~ ~ ~ ~ ~ ~ ~ ~ [ { }  .X. . .} { [ Q Q ~ ~ ~ ~ ~ E .X.X.X.X.X.X.X.X.X.X.X",
".X.X.X.X.X.X.X.X.X.X.X~ ~ ~ ~ ~ ~ ~ [ |  . .X.X.X.X. . .} [ Q ~ ~ ~ ~ E R D .X.X.X.X.X.X.X.X.X.X",
".X.X.X.X.X.X.X.X.X.X.X.X! ! ^ ~ ~ [ }  .X.X.X.X.X.X.X.X. .| [ ~ ~ ~ ~ R D S .X.X.X.X.X.X.X.X.X.X",
".X.X.X.X.X.X.X.X.X.X.X.Xq.' / E ~ [ }  .X.X.X.X.X.X.X.X. .} Q ~ ~ P ' 7.4.H F .X.X.X.X.X.X.X.X.X",
".X.X.X.X.X.X.X.X.X.X.X!.w.7.( / W E Q }  . .X.X.X.X. . .} Q E E / ( 1.e.W.J F F .X.X.X.X.X.X.X.X",
".X.X.X.X.X.X.X.X.X.X.X!.w.1.r * U Y E [ [ }  .X.X. .{ [ Q ~ T U U r 1.w.W.J F F .X.X.X.X.X.X.X.X",
".X.X.X.X.X.X.X.X.X.X.X.Xq.2.&.9 ; = U Y Y P ~ [ [ ~ T Y Y Y = & # &.<.6.3.S F .X.X.X.X.X.X.X.X.X",
".X.X.X.X.X.X.X.X.X.X.X.X.X<.&.4 $ & & : , U T P P T U = - & & # 3 =.:.] u A .X.X.X.X.X.X.X.X.X.X",
".X.X.X.X.X.X.X.X.X.X.X.X.X.X$.8 1 + @ % - : > = = = - - % @ + + 1 &.( < t A .X.X.X.X.X.X.X.X.X.X",
".X.X.X.X.X.X.X.X.X.X.X.X.X.X.X3 1   1 @ @ % - : : - % # @ + + + 1 < < = , .X.X.X.X.X.X.X.X.X.X.X",
".X.X.X.X.X.X.X.X.X.X.X.X.X.X.X.X+ + + + + @ @ $ $ # + + + + + $ & = , , .X.X.X.X.X.X.X.X.X.X.X.X",
".X.X.X.X.X.X.X.X.X.X.X.X.X.X.X.X2 2 2 1 +   1   + + + + + 2 2 & , , : , .X.X.X.X.X.X.X.X.X.X.X.X",
".X.X.X.X.X.X.X.X.X.X.X.X.X.X.X.X.Xw 4 2     +   +   1 1 2 4 w 9 , , , , .X.X.X.X.X.X.X.X.X.X.X.X",
".X.X.X.X.X.X.X.X.X.X.X.X.X.X.X.X^ W t V B 7 3 h h 6 5 m f.f.d.M , , .X.X.X.X.X.X.X.X.X.X.X.X.X.X",
".X.X.X.X.X.X.X.X.X.X.X.X.X.X.X{ { ! ` V C m g v v j m C k.g.k.M , .X.X.X.X.X.X.X.X.X.X.X.X.X.X.X",
".X.X.X.X.X.X.X.X.X.X.X.X.X.X{  ...| R Z v.l.j.j.j.g.l.g.z.l.k.V b .X.X.X.X.X.X.X.X.X.X.X.X.X.X.X",
".X.X.X.X.X.X.X.X.X.X.X.X.X.X....X.X.@.h.N.c.v.l.l.g.l.l.j.j.j.g.f..X.X.X.X.X.X.X.X.X.X.X.X.X.X.X",
".X.X.X.X.X.X.X.X.X.X.X.X.XO.o.o.o.X.+.h.N.C.c.c.x.l.l.g.j.j.j.j.g..X.X.X.X.X.X.X.X.X.X.X.X.X.X.X",
".X.X.X.X.X.X.X.X.X.X.X.XE.8.9.9.#.o.+.h.C.C.S.S.V.x.l.l.j.j.g.g.l..X.X.X.X.X.X.X.X.X.X.X.X.X.X.X",
".X.X.X.X.X.X.X.X.X.X.X/.`.'.'.'.8.O.+.h.C.C.S.S.V.V.v.l.j.j.j.g.g..X.X.X.X.X.X.X.X.X.X.X.X.X.X.X",
".X.X.X.X.X.X.X.X.X.X|.{.).^.^.^.Q.E.5.m.C.S.S.S.V.V.v.g.g.g.g.s.t..X.X.X.X.X.X.X.X.X.X.X.X.X.X.X",
".X.X.X.X.X.X.X.X.X X X|.}._.)._.).R.D.m.C.S.S.S.V.x.v.g.j.j.g.p.x .X.X.X.X.X.X.X.X.X.X.X.X.X.X.X",
".X.X.X.X.X.X.X.X.X X X X X X X X'.~.I.B.Z.Z.V.V.x.v.g.g.g.g.g.y.x .X.X.X.X.X.X.X.X.X.X.X.X.X.X.X",
".X.X.X.X.X.X.X.X.X{.{.|. X X X X|._.I.B.c.c.x.g.g.g.g.g.g.s.y.z x .X.X.X.X.X.X.X.X.X.X.X.X.X.X.X",
".X.X.X.X.X.X.X.X.X^.`.{. X|. X X|.].T.n.g.g.g.g.g.g.g.s.y.t.x .X.X.X.X.X.X.X.X.X.X.X.X.X.X.X.X.X",
".X.X.X.X.X.X.X.X.XY.Y._.{.}.|. X}.(.T.n.u.p.a.a.p.p.r.t.x x x .X.X.X.X.X.X.X.X.X.X.X.X.X.X.X.X.X",
".X.X.X.X.X.X.X.X.XH.J./.^./._.}.^.T.M.v z z x x z z x u.t.t.t..X.X.X.X.X.X.X.X.X.X.X.X.X.X.X.X.X",
".X.X.X.X.X.X.X.X.XK K P.U.U.R.R.~.H.F f f k k V u.x x t.a.s.s.i.x .X.X.X.X.X.X.X.X.X.X.X.X.X.X.X",
".X.X.X.X.X.X.X.X.XK G K K F.U.U.P.L n X X o O M.M.u.x u.y.y.y.i.s..X.X.X.X.X.X.X.X.X.X.X.X.X.X.X",
".X.X.X.X.X.X.X.X.X.XF G K F.J.J.G.H 6 . .   1 K.L.S n n n m n l i..X.X.X.X.X.X.X.X.X.X.X.X.X.X.X",
".X.X.X.X.X.X.X.X.X.X.X.XF.F.G.F..X.X.X      3 0.0.s &.&.a a i y N .X.X.X.X.X.X.X.X.X.X.X.X.X.X.X",
".X.X.X.X.X.X.X.X.X.X.X.X.X.X.X.X.X.X.X+   + .Xd s &.;.,.,.>.&.w 7 q .X.X.X.X.X.X.X.X.X.X.X.X.X.X",
".X.X.X.X.X.X.X.X.X.X.X.X.X.X.X.X.X.X.X.X.X.X.X.Xa ;.,.,.,.,.-.$.q q .X.X.X.X.X.X.X.X.X.X.X.X.X.X",
".X.X.X.X.X.X.X.X.X.X.X.X.X.X.X.X.X.X.X.X.X.X.X.X$.-.-.-.=.-.,.%.q q .X.X.X.X.X.X.X.X.X.X.X.X.X.X",
".X.X.X.X.X.X.X.X.X.X.X.X.X.X.X.X.X.X.X.X.X.X.X.Xp =.=.=.%.%.*.p q q .X.X.X.X.X.X.X.X.X.X.X.X.X.X",
".X.X.X.X.X.X.X.X.X.X.X.X.X.X.X.X.X.X.X.X.X.X.X.Xp %.=.$.e e e q q q q .X.X.X.X.X.X.X.X.X.X.X.X.X",
".X.X.X.X.X.X.X.X.X.X.X.X.X.X.X.X.X.X.X.X.X.X.X.Xe i i e e $.$.p 0 0 0 0 .X.X.X.X.X.X.X.X.X.X.X.X",
".X.X.X.X.X.X.X.X.X.X.X.X.X.X.X.X.X.X.X.X.X.X.X.Xq p p p $.=.=.$.p 0 0 q .X.X.X.X.X.X.X.X.X.X.X.X",
".X.X.X.X.X.X.X.X.X.X.X.X.X.X.X.X.X.X.X.X.X.X.X.X.X=.=.=.=.=.=.=.*.q q .X.X.X.X.X.X.X.X.X.X.X.X.X",
".X.X.X.X.X.X.X.X.X.X.X.X.X.X.X.X.X.X.X.X.X.X.X.X.X=.=.=.=.=.-.=.=.q .X.X.X.X.X.X.X.X.X.X.X.X.X.X",
".X.X.X.X.X.X.X.X.X.X.X.X.X.X.X.X.X.X.X.X.X.X.X.X.X$.*.=.=.=.=.=.=.q .X.X.X.X.X.X.X.X.X.X.X.X.X.X",
".X.X.X.X.X.X.X.X.X.X.X.X.X.X.X.X.X.X.X.X.X.X.X.X.Xi $.%.*.=.=.*.$..X.X.X.X.X.X.X.X.X.X.X.X.X.X.X",
".X.X.X.X.X.X.X.X.X.X.X.X.X.X.X.X.X.X.X.X.X.X.X.X.X.Xi q $.=.=.$.i .X.X.X.X.X.X.X.X.X.X.X.X.X.X.X",
".X.X.X.X.X.X.X.X.X.X.X.X.X.X.X.X.X.X.X.X.X.X.X.X.X.X.X.X.X.X.X.X.X.X.X.X.X.X.X.X.X.X.X.X.X.X.X.X"
};
