/* XPM */
static char *result[] = {
/* columns rows colors chars-per-pixel */
"48 60 228 2 ",
"   c #280D02",
".  c #2A1106",
"X  c #391804",
"o  c #2B1619",
"O  c #351A12",
"+  c #3F220F",
"@  c #180933",
"#  c #38252C",
"$  c #240F23",
"%  c #401F01",
"&  c #591D09",
"*  c #7C0F17",
"=  c #761017",
"-  c #781018",
";  c #791219",
":  c #691412",
">  c #492407",
",  c #5A2C07",
"<  c #462919",
"1  c #6B3A01",
"2  c #66390A",
"3  c #723A04",
"4  c #643515",
"5  c #773B16",
"6  c #711923",
"7  c #6A1737",
"8  c #63353D",
"9  c #702A35",
"0  c #533B3E",
"q  c #754200",
"w  c #7E4700",
"e  c #744723",
"r  c #090149",
"t  c #0B0144",
"y  c #160B56",
"u  c #0F0651",
"i  c #2B1D73",
"p  c #28196E",
"a  c #30217A",
"s  c #352674",
"d  c #372C71",
"f  c #1D1161",
"g  c #501A4F",
"h  c #572D55",
"j  c #6A315A",
"k  c #563767",
"l  c #4E3574",
"z  c #6D2760",
"x  c #564E54",
"c  c #51565E",
"v  c #565A5F",
"b  c #564B53",
"n  c #655152",
"m  c #4D4E66",
"M  c #685469",
"N  c #636970",
"B  c #5B6066",
"V  c #890E13",
"C  c #940C11",
"Z  c #971A18",
"A  c #8F1415",
"S  c #A50A0C",
"D  c #AD090B",
"F  c #BC0907",
"G  c #B40909",
"H  c #B80808",
"J  c #A8121A",
"K  c #983418",
"L  c #8F1224",
"P  c #9A382E",
"I  c #AD332B",
"U  c #A62318",
"Y  c #C30806",
"T  c #C40C07",
"R  c #D40804",
"E  c #DD0802",
"W  c #D10F08",
"Q  c #C5130C",
"!  c #C31713",
"~  c #DB1107",
"^  c #E50801",
"/  c #EC0901",
"(  c #F00800",
")  c #EA110B",
"_  c #C82814",
"`  c #D3311C",
"'  c #EB2317",
"]  c #EB3314",
"[  c #D23634",
"{  c #F12D27",
"}  c #E9322D",
"|  c #824B00",
" . c #8A4B03",
".. c #87410A",
"X. c #964B0B",
"o. c #955500",
"O. c #9B5B00",
"+. c #925907",
"@. c #8A481D",
"#. c #8F5410",
"$. c #A65D0A",
"%. c #A74318",
"&. c #AD5B17",
"*. c #9F6400",
"=. c #A36300",
"-. c #AB6B00",
";. c #A66800",
":. c #B47400",
">. c #B97900",
",. c #BA681A",
"<. c #AD6D11",
"1. c #96502C",
"2. c #A65A28",
"3. c #B2532E",
"4. c #926B28",
"5. c #B76427",
"6. c #B97A37",
"7. c #AF6C2D",
"8. c #C64B16",
"9. c #C16317",
"0. c #C75C27",
"q. c #D95B28",
"w. c #C56C28",
"e. c #D66A27",
"r. c #C67727",
"t. c #D9782C",
"y. c #CA6833",
"u. c #D37237",
"i. c #E47C36",
"p. c #925359",
"a. c #B67543",
"s. c #AE7252",
"d. c #877B72",
"f. c #97664E",
"g. c #C87B46",
"h. c #D97878",
"j. c #D86564",
"k. c #B1891C",
"l. c #C69806",
"z. c #D6B710",
"x. c #D58438",
"c. c #CF833A",
"v. c #E88239",
"b. c #E7833B",
"n. c #AA8F6F",
"m. c #D68B45",
"M. c #DD9443",
"N. c #E7964B",
"B. c #EB9855",
"V. c #E48E41",
"C. c #ECA358",
"Z. c #F0A858",
"A. c #DF8A73",
"S. c #EC9B61",
"D. c #E8A96A",
"F. c #F3B978",
"G. c #EEB06E",
"H. c #F5C17F",
"J. c #312B87",
"K. c #353998",
"L. c #36348B",
"P. c #313EA4",
"I. c #2F3FA6",
"U. c #4A3A89",
"Y. c #3140A6",
"T. c #3141A9",
"R. c #3F4EAE",
"E. c #3649B4",
"W. c #394DBA",
"Q. c #3446B1",
"!. c #4D4C93",
"~. c #63618C",
"^. c #4455B8",
"/. c #4451AA",
"(. c #6F78B4",
"). c #3E54C3",
"_. c #4058C7",
"`. c #707BC1",
"'. c #957B80",
"]. c #7B828C",
"[. c #7580C5",
"{. c #98848C",
"}. c #818991",
"|. c #898F97",
" X c #8E939B",
".X c #90969E",
"XX c #8B8584",
"oX c #969AA4",
"OX c #9091B1",
"+X c #9FA1A6",
"@X c #A4A6AD",
"#X c #A5A7A9",
"$X c #ACADB5",
"%X c #B2B3BA",
"&X c #B7B8BF",
"*X c #B2A9AA",
"=X c #B49B9C",
"-X c #E39187",
";X c #EDB584",
":X c #D1B7A5",
">X c #F7BBB9",
",X c #C2979C",
"<X c #F6C88C",
"1X c #F6CC94",
"2X c #F8D098",
"3X c #EACCAF",
"4X c #BCBDC3",
"5X c #B1B2C1",
"6X c #A5ACD7",
"7X c #BEC1C6",
"8X c #C5C5CB",
"9X c #CACBD2",
"0X c #D5D6D9",
"qX c #D7D7DB",
"wX c #CFD1D4",
"eX c #F5DDC9",
"rX c #EBD9D5",
"tX c #E9D1CD",
"yX c #D5D7E8",
"uX c #DFE1EA",
"iX c #EBEBEC",
"pX c #E5E5E7",
"aX c #EFEFF0",
"sX c #F4F4F4",
"dX c #F9F9F9",
"fX c #F7F8F8",
"gX c #F1EFEF",
"hX c #72751B",
/* pixels */
"hXhXhXhXhXhXhXhXhXhXhXhXhXhXhXhXhXhXhXhXhXhXhXhXhXhXhXhXhXhXhXhXhXhXhXhXhXhXhXhXhXhXhXhXhXhXhXhX",
"hXhXhXhXhXhXhXhXhXhXhXhXhXhXhXhXhXhXhXhXhX( ( ( ( ( ( ( hXhXhXhXhXhXhXhXhXhXhXhXhXhXhXhXhXhXhXhX",
"hXhXhXhXhXhXhXhXhXhXhXhXhXhXhXhXhXhX( ( ( ( ( ( ( ( ( ( ( ( ( hXhXhXhXhXhXhXhXhXhXhXhXhXhXhXhXhX",
"hXhXhXhXhXhXhXhXhXhXhXhXhXhXhXhXhX( ( ( ( ( ( ( ( ( ( ( ( ( ( ( hXhXhXhXhXhXhXhXhXhXhXhXhXhXhXhX",
"hXhXhXhXhXhXhXhXhXhXhXhXhXhXhXhX( / ( ( ( ( ( ( ( ( ( ( ( ( ( ( ( hXhXhXhXhXhXhXhXhXhXhXhXhXhXhX",
"hXhXhXhXhXhXhXhXhXhXhXhXhXhXhX^ / ( ( ( / ^ ' { { { ' / ( ( ( ( ^ ^ hXhXhXhXhXhXhXhXhXhXhXhXhXhX",
"hXhXhXhXhXhXhXhXhXhXhXhXhXhXH Y E ( ( ( ^ W -X>X>X>Xh.R / ( ( ( R T H hXhXhXhXhXhXhXhXhXhXhXhXhX",
"hXhXhXhXhXhXhXhXhXhXhXhXhXH H H Y R R R [ h.tXfXdXdXtXh.` R R R T H H hXhXhXhXhXhXhXhXhXhXhXhXhX",
"hXhXhXhXhXhXhXhXhXhXhXhXH H H H H Y H H [ tXgXsXsXsXgXtX[ Y H H H H H H G hXhXhXhXhXhXhXhXhXhXhX",
"hXhXhXhXhXhXhXhXhXhXhXhXH H H H H H H H 3.=X%X5X%X5X5X*XI H H H H H H H H hXhXhXhXhXhXhXhXhXhXhX",
"hXhXhXhXhXhXhXhXhXhXhXhXC S H H H H H G I p.{.@X$XoX'.p.J H H H G G G S C hXhXhXhXhXhXhXhXhXhXhX",
"hXhXhXhXhXhXhXhXhXhXhX- = C D D D D H Y D L p.'.=X'.p.V H H H G S S D V * = hXhXhXhXhXhXhXhXhXhX",
"hXhXhXhXhXhXhXhXhXhXhX- - * * * L V H R ^ ^ ) ) ) ) ) ^ / R D C ; * * * - - hXhXhXhXhXhXhXhXhXhX",
"hXhXhXhXhXhXhXhXhXhXhX= = = - - V C R ^ ( ( ( ( ( ( ( ( ( ^ Y S V = = ; = - hXhXhXhXhXhXhXhXhXhX",
"hXhXhXhXhXhXhXhXhXhXhX- = = = - J _ E E E E E E ^ E E E E ^ ~ _ Z = - - - - hXhXhXhXhXhXhXhXhXhX",
"hXhXhXhXhXhXhXhXhXhXhXhX- = = ; 3.e.! ! ! Q Q F Q F F T ! ! ` q.I ; = = - hXhXhXhXhXhXhXhXhXhXhX",
"hXhXhXhXhXhXhXhXhXhXhXhX= : & %.0.i.q.A.-Xu.8.8.q.8.8.q.-XA.u.i.,.K , : = hXhXhXhXhXhXhXhXhXhXhX",
"hXhXhXhXhXhXhXhXhXhXhXhX3.5 > $.r.N.;X:X=Xs.w.t.i.e.6.s.*X:XG.B.w.X.> 1.s.hXhXhXhXhXhXhXhXhXhXhX",
"hXhXhXhXhXhXhXhXhXhXhX<XD.1.> o.r.G.rX#XB B a.i.i.i.a.v M +XeXF.,.| & n.;X2XhXhXhXhXhXhXhXhXhXhX",
"hXhXhXhXhXhXhXhXhXhXn.;Xc.+.1 o.9.B.rXd.. O 2.i.v.v.2.  o d.eXS.,. .1 &.m.2XhXhXhXhXhXhXhXhXhXhX",
"hXhXhXhXhXhXhXhXhXc n.D.x.$. .o.5.B.rXXXo . 4.N.C.V.2.  # n.tXS.,.o. .,.t.H.hXhXhXhXhXhXhXhXhXhX",
"hXhXhXhXhXhXhXhXc c N m.b.e.9.$.r.B.tX#Xx < c.F.1XG.s.+ v +XtXB.9.<.,.t.V.Z.hXhXhXhXhXhXhXhXhXhX",
"hXhXhXhXhXhXhXc c x n P w.e.,.M.N.N.F.3X:Xm.D.1X2X<XD.a.:X3XG.C.N.x.9.t.v.hXhXhXhXhXhXhXhXhXhXhX",
"hXhXhXhXhXhXhXc c b 9 V I %.%.N.c.6.Z.F.;XZ.;X2X2X2XF.C.;X;XM.c.m.V.hXhXhXhXhXhXhXhXhXhXhXhXhXhX",
"hXhXhXhXhXhXhXc c 8 6 * * = ; i.2.2 6.u.u.N.F.<X2X<XF.N.6.7.7.2 &.x.hXhXhXhXhXhXhXhXhXhXhXhXhXhX",
"hXhXhXhXhXhXhXhXc x 8 - - = L i.@.. + O e u.Z.H.1XG.Z.u.4 > < X 2.b.hXhXhXhXhXhXhXhXhXhXhXhXhXhX",
"hXhXhXhXhXhXhXhXhXhXb 8 6 = * K %.@.    > q 5.t.x.t.5.5 %   X @.` ] hXhXhXhXhXhXhXhXhXhXhXhXhXhX",
"hXhXhXhXhXhXhXhXhXhXhXb 9 = = = P f.4 , , % 3 X.O.X.3 X , , 5 3.] ( hXhXhXhXhXhXhXhXhXhXhXhXhXhX",
"hXhXhXhXhXhXhXhXhXhXhXhXhXhX= = 7 k y.&...X . X & .   O X.0.q._ ) / / hXhXhXhXhXhXhXhXhXhXhXhXhX",
"hXhXhXhXhXhXhXhXhXhXhXhXhXhXhX= g i j j K 3.5.5.5.5.5.3.M j U W / ( ( ( hXhXhXhXhXhXhXhXhXhXhXhX",
"hXhXhXhXhXhXhXhXhXhXhXhXhXhXhX7 g p g 7 U 3.y.y.y.y.y.s.!.l P [ } } } } } hXhXhXhXhXhXhXhXhXhXhX",
"hXhXhXhXhXhXhXhXhXhXhXhXhXhXhXs d l ; V S V V * - ; h Q./.(.9XsXdXiX5X4X,X} hXhXhXhXhXhXhXhXhXhX",
"hXhXhXhXhXhXhXhXhXhXhXhXhXhXhXe 4.k.A C G D S C * l L./.6XyXpXgXdXsXpXpXrX>XhXhXhXhXhXhXhXhXhXhX",
"hXhXhXhXhXhXhXhXhXhXhXhXhXhXhX;.l.z.j L H G H D C L./.(.yXfXgXpXgXdXdXdXdXdXhXhXhXhXhXhXhXhXhXhX",
"hXhXhXhXhXhXhXhXhXhXhXhXhXhXhX<.l.z.!.z J S D J L /.(.5XiXfXpX4XyXfXdXaXiXdXdXdXhXhXhXhXhXhXhXhX",
"hXhXhXhXhXhXhXhXhXhXhXhXhXhXhXk 4.k.!.K.h L V 7 U.'.@X5XiXsXuX@XwXfXdXwXwXdXdXdXhXhXhXhXhXhXhXhX",
"hXhXhXhXhXhXhXhXhXhXhXhXhXhXhXa k M P.P.K.l l U.P.9XqXqX4X4X5X@XqXfXfX8X7XfXdXdXdXhXhXhXhXhXhXhX",
"hXhXhXhXhXhXhXhXhXhXhXhXhXhXhXa J.K.P.P.^._._.).Q.yXsXgX$X.X.X@X0XiXpX9X8XfXaXaXfXhXhXhXhXhXhXhX",
"hXhXhXhXhXhXhXhXhXhXhXhXhXhXhXa a J.P._._._.).)._.uXfXfXiX4X X@X:X4X.X0XsXaXwXwXiX8XhXhXhXhXhXhX",
"hXhXhXhXhXhXhXhXhXhXhXhXhXhXhXa i J.P.I.I._.).).W.[.6XsX0X$X}. XOXoXoX7X9X7X@X&XiX4XhXhXhXhXhXhX",
"hXhXhXhXhXhXhXhXhXhXhXhXhXhXhXa J.J.I.I.Q.)._.).T.I.`.uX5X X].].].|.$X%X%X@X.X$XpX8XhXhXhXhXhXhX",
"hXhXhXhXhXhXhXhXhXhXhXhXhXhXT.T.).).).E.I.I.I.I.T.I.I.I.I.K.d m c N @X%X@X|.+X$X%XhXhXhXhXhXhXhX",
"hXhXhXhXhXhXhXhXhXhXhXhXhXhXT.W.).).).W.E.I.I.I.I.T.I.J.J.J.i d m hXhXoX.X}. XoXhXhXhXhXhXhXhXhX",
"hXhXhXhXhXhXhXhXhXhXhXhXhXhXm ~.~.~.~.^.).E.I.I.K.P.J.a i p p p hXhXhXhX}.].}.hXhXhXhXhXhXhXhXhX",
"hXhXhXhXhXhXhXhXhXhXhXhXhXhX#.<.<.<.#.N ^.^.R.K.i i i i p f r r hXhXhXhXhXhXhXhXhXhXhXhXhXhXhXhX",
"hXhXhXhXhXhXhXhXhXhXhXhXhX=.-.l.;.*.+.#.B ^.).L.# y y y y u r r hXhXhXhXhXhXhXhXhXhXhXhXhXhXhXhX",
"hXhXhXhXhXhXhXhXhXhXhXhXo.$.=.-.*.o.w q e c R.d < $ @ r r r @ @ hXhXhXhXhXhXhXhXhXhXhXhXhXhXhXhX",
"hXhXhXhXhXhXhXhXhXhXhX3 | o.O.o.o.+.q q q 4 l d > X $ r r r @ o hXhXhXhXhXhXhXhXhXhXhXhXhXhXhXhX",
"hXhXhXhXhXhXhXhXhXhXhX1 1 o.:.:.:.:.-.| 1 2 d Y.hX> X O @ $ X hXhXhXhXhXhXhXhXhXhXhXhXhXhXhXhXhX",
"hXhXhXhXhXhXhXhXhXhXhX3 w *.;.;.;.-.;.*.w q 0 hXhXX X X $ o > hXhXhXhXhXhXhXhXhXhXhXhXhXhXhXhXhX",
"hXhXhXhXhXhXhXhXhXhXhXq ;.;.o.o.o.o.o.-.*.q q hXhX> > X > > X hXhXhXhXhXhXhXhXhXhXhXhXhXhXhXhXhX",
"hXhXhXhXhXhXhXhXhXhXhXo.O.o.o.o.o.o.o.o. .1 1 hXhXhXhX> X hXhXhXhXhXhXhXhXhXhXhXhXhXhXhXhXhXhXhX",
"hXhXhXhXhXhXhXhXhXhXhXo.o.o.o.o.o.o.o.o.o.w 1 hXhXhXhXhXhXhXhXhXhXhXhXhXhXhXhXhXhXhXhXhXhXhXhXhX",
"hXhXhXhXhXhXhXhXhXhXhXo.o.o.o.o.o.o.o.o.o.o.q hXhXhXhXhXhXhXhXhXhXhXhXhXhXhXhXhXhXhXhXhXhXhXhXhX",
"hXhXhXhXhXhXhXhXhXhXhXhXo.o.o.o.o.o.o.o.o.o.q hXhXhXhXhXhXhXhXhXhXhXhXhXhXhXhXhXhXhXhXhXhXhXhXhX",
"hXhXhXhXhXhXhXhXhXhXhXhXhXo.o.o.o.O.;.:.-.;.w hXhXhXhXhXhXhXhXhXhXhXhXhXhXhXhXhXhXhXhXhXhXhXhXhX",
"hXhXhXhXhXhXhXhXhXhXhXhXhXhX=.=.=.=.-.-.-.-. .hXhXhXhXhXhXhXhXhXhXhXhXhXhXhXhXhXhXhXhXhXhXhXhXhX",
"hXhXhXhXhXhXhXhXhXhXhXhXhXhX:.:.:.:.O.O.O.O.hXhXhXhXhXhXhXhXhXhXhXhXhXhXhXhXhXhXhXhXhXhXhXhXhXhX",
"hXhXhXhXhXhXhXhXhXhXhXhXhXhXhXO.O.O.o.o.o.hXhXhXhXhXhXhXhXhXhXhXhXhXhXhXhXhXhXhXhXhXhXhXhXhXhXhX",
"hXhXhXhXhXhXhXhXhXhXhXhXhXhXhXhXhXhXhXhXhXhXhXhXhXhXhXhXhXhXhXhXhXhXhXhXhXhXhXhXhXhXhXhXhXhXhXhX"
};
