/* XPM */
static char *result[] = {
/* columns rows colors chars-per-pixel */
"48 60 232 2 ",
"   c #181516",
".  c #281C1B",
"X  c #271E0B",
"o  c #1B261D",
"O  c #27241A",
"+  c #362A16",
"@  c #1D1B20",
"#  c #211823",
"$  c #2B2928",
"%  c #352928",
"&  c #3B3539",
"*  c #2E302C",
"=  c #443B26",
"-  c #443B35",
";  c #443C3C",
":  c #483B38",
">  c #513F35",
",  c #423B16",
"<  c #394135",
"1  c #4E422D",
"2  c #554729",
"3  c #4A4238",
"4  c #53453C",
"5  c #5C4C3C",
"6  c #584836",
"7  c #535332",
"8  c #685738",
"9  c #6F5327",
"0  c #7A6825",
"q  c #7C772B",
"w  c #7F6838",
"e  c #716D30",
"r  c #5A632B",
"t  c #3A3B40",
"y  c #453D41",
"u  c #4B4748",
"i  c #534644",
"p  c #564B43",
"a  c #5B4C43",
"s  c #534C4B",
"d  c #584A49",
"f  c #5C534D",
"g  c #5B5445",
"h  c #4C4D54",
"j  c #574C52",
"k  c #535354",
"l  c #5D5954",
"z  c #54555C",
"x  c #57585E",
"c  c #5B5B5C",
"v  c #5C5456",
"b  c #614D42",
"n  c #635445",
"m  c #6A5544",
"M  c #62544C",
"N  c #6A5A4C",
"B  c #68594A",
"V  c #745C4C",
"C  c #745F41",
"Z  c #645553",
"A  c #635B54",
"S  c #6C5C53",
"D  c #645C5B",
"F  c #695A5A",
"G  c #735E54",
"H  c #776649",
"J  c #6B655C",
"K  c #6B6157",
"L  c #736254",
"P  c #7B6355",
"I  c #73665C",
"U  c #7A655C",
"Y  c #75695C",
"T  c #7B6B5B",
"R  c #7D6854",
"E  c #6F775F",
"W  c #5C5D64",
"Q  c #555660",
"!  c #635961",
"~  c #5F6162",
"^  c #636364",
"/  c #6D6464",
"(  c #63646B",
")  c #6B696A",
"_  c #716C63",
"`  c #7C6B64",
"'  c #766765",
"]  c #7C746A",
"[  c #777269",
"{  c #6A6A73",
"}  c #74757D",
"|  c #7B767D",
" . c #777777",
".. c #707075",
"X. c #973607",
"o. c #8A3208",
"O. c #A23404",
"+. c #B75C18",
"@. c #AD520E",
"#. c #86771C",
"$. c #947017",
"%. c #B6681A",
"&. c #AA6819",
"*. c #997B2A",
"=. c #8B6E34",
"-. c #AA6925",
";. c #B67130",
":. c #975728",
">. c #C76124",
",. c #C87418",
"<. c #836C5C",
"1. c #85735B",
"2. c #89735F",
"3. c #9C7D56",
"4. c #826E67",
"5. c #837363",
"6. c #8C7462",
"7. c #887968",
"8. c #917A66",
"9. c #927766",
"0. c #887B74",
"q. c #947E72",
"w. c #A87351",
"e. c #908D2F",
"r. c #A8873D",
"t. c #BD8633",
"y. c #B69B2C",
"u. c #B8AC32",
"i. c #DE9D0E",
"p. c #D4941C",
"a. c #D8A41F",
"s. c #C78427",
"d. c #D5852B",
"f. c #CA9825",
"g. c #C88532",
"h. c #CE9739",
"j. c #D9B828",
"k. c #D2AB37",
"l. c #E8A52B",
"z. c #ECD11C",
"x. c #D6C637",
"c. c #D6D43F",
"v. c #EBCD29",
"b. c #EDE334",
"n. c #F7EA2B",
"m. c #9F8442",
"M. c #A9894D",
"N. c #9C866B",
"B. c #88867B",
"V. c #98887A",
"C. c #A48B77",
"Z. c #AA967C",
"A. c #B09A7B",
"S. c #A9A555",
"D. c #CDB447",
"F. c #E2BB45",
"G. c #C78F51",
"H. c #CBC944",
"J. c #E6CE69",
"K. c #787982",
"L. c #847D86",
"P. c #7E8183",
"I. c #7F818A",
"U. c #838486",
"Y. c #87888B",
"T. c #958C87",
"R. c #98968C",
"E. c #8A8B94",
"W. c #888792",
"Q. c #8E919A",
"!. c #929394",
"~. c #92929B",
"^. c #98989B",
"/. c #928F97",
"(. c #A69688",
"). c #B29884",
"_. c #A69896",
"`. c #A08C8B",
"'. c #B6A699",
"]. c #B4A88B",
"[. c #9696A2",
"{. c #9A9BA4",
"}. c #9C9DA9",
"|. c #9798A3",
" X c #A19BA0",
".X c #9EA1A5",
"XX c #A2A4AC",
"oX c #A3A6A7",
"OX c #B6ACA6",
"+X c #A5A5B2",
"@X c #AAACB6",
"#X c #AEB1B7",
"$X c #B1B3BC",
"%X c #B7B9BA",
"&X c #C4AA91",
"*X c #C9BBB6",
"=X c #CEBDB2",
"-X c #D2C7BA",
";X c #DFD3B8",
":X c #BBBCC5",
">X c #B8B8C5",
",X c #BFC2C7",
"<X c #C2C4CC",
"1X c #C9C9C6",
"2X c #CBCDD4",
"3X c #CDCEDA",
"4X c #C5C7D3",
"5X c #CFD1D5",
"6X c #D2D5DB",
"7X c #DADCDD",
"8X c #D3D7D7",
"9X c #D3CAD2",
"0X c #DBE1DB",
"qX c #DADCE4",
"wX c #D9DAE5",
"eX c #DEE1E4",
"rX c #DFE1EB",
"tX c #E1E4E5",
"yX c #E2E4EB",
"uX c #E6E9EC",
"iX c #E9EDEE",
"pX c #EAECE4",
"aX c #E7EAF0",
"sX c #EBEEF3",
"dX c #E3E6F0",
"fX c #EDF1F4",
"gX c #EDF4F8",
"hX c #F1F5FB",
"jX c #F6FAFD",
"kX c #FAFEFF",
"lX c #F1F5F6",
"zX c #72751B",
/* pixels */
"zXzXzXzXzXzXzXzXzXzXzXzXzXzXzXzXzXzXzXzXzXzXzXzXzXzXzXzXzXzXzXzXzXzXzXzXzXzXzXzXzXzXzXzXzXzXzXzX",
"zXzXzXzXzXzXzXzXzXzXzXzXzXzXzXzXzXzXzXzXzXzXzXzXzXzXzXzXzXzXzXzXzXzXzXzXzXzXzXzXzXzXzXzXzXzXzXzX",
"zXzXzXzXzXzXzXzXzXzXzXzXzXzXzXzXzXzXzXzXzXzXzXzXzXzXzXzXzXzXzXzXzXzXzXzXzXzXzXzXzXzXzXzXzXzXzXzX",
"zXzXzXzXzXzXzXzXzXzXzXzXzXzXzXzXzXzXzXzXzXzXzXzXzXzXzXzXzXzXzXzXzXzXzXzXzXzXzXzXzXzXzXzXzXzXzXzX",
"zXzXzXzXzXzXzXzXzXzXzXzXzXzXzXzXzXzXzXzXzXzXzXzXzXzXzXzXzXzXzXzXzXzXzXzXzXzXzXzXzXzXzXzXzXzXzXzX",
"zXzXzXzXzXzXzXzXzXzXzXzXzXzXzXzXzXzXzXzXzXzXzXzXzXzXzXzXzXzXzXzXzXzXzXzXzXzXzXzXzXzXzXzXzXzXzXzX",
"zXzXzXzXzXzXzXzXzXzXzXzXzXzXzXzXzXzXzXzXzXzXzXzXzXzXzXzXzXzXzXzXzXzXzXzXzXzXzXzXzXzXzXzXzXzXzXzX",
"zXzXzXzXzXzXzXzXzXzXzXzXzXzXzXzXzXzXzXzXzXzXzXzXzXzXzXzXzXzXzXzXzXzXzXzXzXzXzXzXzXzXzXzXzXzXzXzX",
"zXzXzXzXzXzXzXzXzXzXzXzXzXzXzXzXzXzXzXzXzXzXzXzXzXzXzXzXzXzXzXzXzXzXzXzXzXzXzXzXzXzXzXzXzXzXzXzX",
"zXzXzXzXzXzXzXzXzXzXzXzXzXzXzXzXzXzXzXzXzXzXzXzXzXzXzXzXzXzXzXzXzXzXzXzXzXzXzXzXzXzXzXzXzXzXzXzX",
"zXzXzXzXzXzXzXzXzXzXzXzXzXzXzXzXzXzXzXzXzXzXzXzXzXzXzXzXzXzXzXzXzXzXzXzXzXzXzXzXzXzXzXzXzXzXzXzX",
"zXzXzXzXzXzXzXzXzXzXzXzXzXzXzXzXzXzXzXzXzXzXzXzXzXzXzXzXzXzXzXzXzXzXzXzXzXzXzXzXzXzXzXzXzXzXzXzX",
"zXzXzXzXzXzXzXzXzXzXzXzXzXzXzXzXzXzXzXzXzXzXzXzXzXzXzXzXzXzXzXzXzXzXzXzXzXzXzXzXzXzXzXzXzXzXzXzX",
"zXzXzXzXzXzXzXzXzXzXzXzXzXzXzXzXzXzXzXzXzXzXzXzXzXzXzXzXzXzXzXzXzXzXzXzXzXzXzXzXzXzXzXzXzXzXzXzX",
"zXzXzXzXzXzXzXzXzXzXzXzXzXzXzXzXzXzXzXzXzXzXzXzXzXzXzXzXzXzXzXzXzXzXzXzXzXzXzXzXzXzXzXzXzXzXzXzX",
"zXzXzXzXzXzXzXzXzXzXzXzXzXzXzXzXzXzXzXzXzXzXzXzXzXzXzXzXzXzXzXzXzXzXzXzXzXzXzXzXzXzXzXzXzXzXzXzX",
"zXzXzXzXzXzXzXzXzXzXzXzXzXzXzXzXzXzXzXzXzXzXzXzXzXzXzXzXzXzXzXzXzXzXzXzXzXzXzXzXzXzXzXzXzXzXzXzX",
"zXzXzXzXzXzXzXzXzXzXzXzXzXzXzXzXzXzXzX_.L./ A d g 4 3 - A 0./ zXzXzXzXzXzXzXzXzXzXzXzXzXzXzXzXzX",
"zXzXzXzXzXzXzXzXzXzXzXzXzXzXzXzXzXzXzX XL.' l s p i 3 - Z 0.' zXzXzXzXzXzXzXzXzXzXzXzXzXzXzXzXzX",
"zXzXzXzXzXzXzXzXzXzXzXzXzXzXzXzXzX`.L.{ ! E.*X-X'.'.'._.0.i : f U.OXzXzXzXzXzXzXzXzXzXzXzXzXzXzX",
"zXzXzXzXzXzXzXzXzXzXzXzXzXzXzX_.] B.OX9X9X*XOX&X'.]._.(.(.V.4.I A f ^ zXzXzXzXzXzXzXzXzXzXzXzXzX",
"zXzXzXzXzXzXzXzXzXzXzXzXzXzX' ` =X;X-X1X-X=X&X).A.(.N.1.<.4.G 4 5 _ / K zXzXzXzXzXzXzXzXzXzXzXzX",
"zXzXzXzXzXzXzXzXzXzXzXB.! ' R.&X&XA.&X).).q.9.3.N.A.).C.2.m m 5 5 n K A s zXzXzXzXzXzXzXzXzXzXzX",
"zXzXzXzXzXzXzXzXv ^ [ R.OXOXOXN.w.M.w.:.:.=.w.=.w N.Z.).C.N.9.<.m > 6 K p zXzXzXzXzXzXzXzXzXzXzX",
"zXzXzXzXzXzX*Xi ` _.'.'.&X'.V.w G.G.;.%.$.k.J.m.8 1.N.C.C.C.N.N.2.8 > m F : zXzXzXzXzXzXzXzXzXzX",
"zXzXzXzXzX' ` `._._.`.(.C.V.C m.t.:.X.@.p.v.x.q 2 H 1.2.N.8.8.8.9.2.6.<.G b i zXzXzXzXzXzXzXzXzX",
"zXzXzXzX7.V.(.(.(.V.V.9.9.8.8 r.h.@.O.@.i.v.x.0 2 e Y <.2.6.7.6.3.6.9.9.<.G M B.zXzXzXzXzXzXzXzX",
"zXzXzXM 0.(.T.V.8.5.4.9.4.6.9 r.h.+.O.@.i.n.x.q 2 B T T <.<.R P <.2.6.6.4.<.I I R.zXzXzXzXzXzXzX",
"zXzXzXE V.V.q.1.T T 1.R T 1.9 *.t.@.>.h.z.n.H.e = n U <.4.4.P P <.V <.<.8.7.` Y f d zXzXzXzXzXzX",
"zXzXM ] V.5.Y T L L L K K 5 q u.-.o.@.d.z.b.D.e = 4 Z ' ` 4.U P G V V <.P <.7.4.' f : zXzXzXzXzX",
"zXzXl V.T N L L M 4 p f 5 = #.F.;.o.+.a.z.b.e.+ . $ % y Z F M U U G V V m C T T 4.] F : zXzXzXzX",
"zXzXK V.S n L 4 3 i D l 3 + $.F.s.X.%.j.z.b.e.= i i h j y & i ' 4.U U R V m m N ` 4.` A 3 zXzXzX",
"zXzXM T.n Z > > Z i t < O X e.k.%.@.,.p.j.x.e.l  .P. . ...{ x j Z Z G G <.V b b b F G I A f zXzX",
"zXzXD 5.B b % i ' j * o O , M.g.+.+.d.p.f.k.q E I.!.^.~.Q.Q.K.{ j i F G G <.G V b > n U I g R.R.",
"zXzXJ M G > . i ! y @ $ 7 0 *.&.>.%.d.s.f.*.r B.^.^.^.~.E.Q.[.Q.K.' j d d Z 4.U m > 5 V Y 3 0. .",
"zXzXT.4 G b . - j & * < r q $.g.g.&.g.d.g.=.H ^.{.{.!.} h ( Q.|.~.L.F y F d b G N 5 > 5 N 3 _ _ ",
"zXzXzX- g S - O * < O < q u.x.j.f.f.f.,.-.=.4.|.XX.X} ..E.} ( Q.[.[.K.y y y % > L n 2 6 g 1 _ _ ",
"zXzXzXzXu D l *   O O r u.H.b.x.k.k.j.y.*.<.4.W..X@XL.| }.} Q Q.|.[.W.h # y . % Y B 2 6 g 3 J J ",
"zXzXzXzXzXv c f u $ * r e.e.y.u.D.D.D.D.=.8 D K.@X4X:X{.P.} I.|.}.}.[.{ # y & % T 8 2 1 B 3 ] ] ",
"zXzXzXzXzX!...c s z P.R.].].S.q =.0 0 e H ] K.[.:X6XuX6X,X>X#XXX}.}.}.K.t & # : [ p 7 2 B g B.Y.",
"zXzXzXzXzXzX^.c k ^.,X0XpXpX;XR.8.3.5.] V..X+X>X4XwXsXfXgXaX2X>X+X}.}.Q.^   $ f J 5 5 B g B.zXzX",
"zXzXzXzXzXzXY.U..X1X0XtXpXuX8X1X1X1X1X-X%X%X,X,XwXyXsXsXaXaXeX,X$XXX}.|.U.$ l _ K A 5 g 7.zXzXzX",
"zXzXzXzXzX^.B.%X7XeXiXlXgXgXrXeX0X0X0X7X7X6X6XwXrXaXaXsXaXaXdXwX,X@X{.}.U.u [ _ g s f T zXzXzXzX",
"zXzXzXzXzXP.!.5XeXuXfXlXgXjXgXgXlXlXfXsXiXiXdXaXsXsXaXgXsXaXsXyX3X@X}.}.Y.s s s f 3 ] _.zXzXzXzX",
"zXzXzXzXzXU.%X7XpXiXiXlXgXkXkXkXkXkXkXkXjXhXhXsXsXgXsXsXsXsXsXaXwX,X+X.X~.c . zXzXzXzXzXzXzXzXzX",
"zXzXzXzX) oX5XtXuXfXfXlXjXjXkXkXkXkXkXkXkXjXhXgXsXsXsXgXsXsXiXiXrX,X>X}./.^ zXzXzXzXzXzXzXzXzXzX",
"zXzXzXzX^ :X8XtXiXlXlXhXjXjXkXkXkXkXkXhXhXhXgXsXsXgXsXsXsXiXsXiXrX3X>XQ.E...) zXzXzXzXzXzXzXzXzX",
"zXzXzXzXk 5X7XuXsXsXsXlXhXjXjXkXkXjXhXhXhXsXsXsXsXsXsXgXfXfXfXsXrX,X>X[.W.| k zXzXzXzXzXzXzXzXzX",
"zXzXzXzXk 2XeXiXfXfXfXsXlXhXhXhXhXhXhXsXsXsXsXsXsXsXfXfXfXiXsXsXdX4X@XQ.I. .h zXzXzXzXzXzXzXzXzX",
"zXzXzXzXk 1XeXuXfXfXfXsXfXfXhXhXhXhXfXsXsXsXsXsXsXsXsXfXfXfXiXiXrX,X@XQ.I...h zXzXzXzXzXzXzXzXzX",
"zXzXzXzXzXoX0XiXfXiXfXfXsXfXfXfXfXfXhXfXfXsXsXsXsXiXuXsXiXuXuXtX6X%X.X^.P.) s zXzXzXzXzXzXzXzXzX",
"zXzXzXzXzX^.8XuXfXiXiXfXsXsXsXlXfXfXsXfXfXfXsXsXsXsXuXyXpXtXqX8X,X.X|.!.P.~ c zXzXzXzXzXzXzXzXzX",
"zXzXzXzXzXP.%XtXfXiXiXfXfXfXfXfXsXhXsXhXsXsXsXsXaXyXyXyXqXqX6X<X#X.X^.I. .k zXzXzXzXzXzXzXzXzXzX",
"zXzXzXzXzXP.Y.8XiXuXiXsXiXiXiXsXaXsXdXdXaXdXdXdXdXrXqXrXqX3X<X@X.X|.Y.} ~ z zXzXzXzXzXzXzXzXzXzX",
"zXzXzXzXzXzXB..X8XuXuXpXuXuXrXtXyXrXrXrXrXrXwXrXwXwXwX6X4X:X@X}..XI.K...k zXzXzXzXzXzXzXzXzXzXzX",
"zXzXzXzXzXzXzX^ Y.1XeXeXeX7X7X7XwXwXwXwXwXwXwX6X3X4X4X>X$X+X}.Q.I.K.{ { zXzXzXzXzXzXzXzXzXzXzXzX",
"zXzXzXzXzXzXzXzXzXY.#X5X6X5X2X2X9X9X3X3X3X3X3X>X>X>X>X+X}.[.Q.E.K.Q Q zXzXzXzXzXzXzXzXzXzXzXzXzX",
"zXzXzXzXzXzXzXzXzX~ ~ !.oX%X,X,X>X:X<X:X:X>X>X>X@X+X}.|.[.K.{ { ~ ~ zXzXzXzXzXzXzXzXzXzXzXzXzXzX",
"zXzXzXzXzXzXzXzXzXzXzXzX~ ) ( ( ( { / ( W W W W W Q Q Q z h t u zXzXzXzXzXzXzXzXzXzXzXzXzXzXzXzX",
"zXzXzXzXzXzXzXzXzXzXzXzXzXY.^ c z v Q Q Q v Q z z Q Q Q z zXzXzXzXzXzXzXzXzXzXzXzXzXzXzXzXzXzXzX"
};
