/* XPM */
static char *result[] = {
/* columns rows colors chars-per-pixel */
"48 60 227 2 ",
"   c #171618",
".  c #120C1A",
"X  c #271D1A",
"o  c #1E2116",
"O  c #2A231E",
"+  c #26211E",
"@  c #32241D",
"#  c #342D0D",
"$  c #1C1923",
"%  c #231D23",
"&  c #262324",
"*  c #2C2A2B",
"=  c #2A2727",
"-  c #342A24",
";  c #3B2C26",
":  c #332C2A",
">  c #3A2B28",
",  c #39342A",
"<  c #2B2836",
"1  c #372F32",
"2  c #3A3333",
"3  c #3B3A3A",
"4  c #363535",
"5  c #4D3B15",
"6  c #46340F",
"7  c #43342A",
"8  c #433827",
"9  c #4B3C34",
"0  c #433C3B",
"q  c #453935",
"w  c #523D31",
"e  c #534619",
"r  c #564610",
"t  c #665917",
"y  c #6F6614",
"u  c #59492B",
"i  c #5C5727",
"p  c #4B453B",
"a  c #4C4337",
"s  c #5A4A34",
"d  c #53433B",
"f  c #5C4B3B",
"g  c #57473A",
"h  c #544C38",
"j  c #624D3C",
"k  c #624E34",
"l  c #64553B",
"z  c #71592E",
"x  c #6C6521",
"c  c #786A27",
"v  c #7A633B",
"b  c #7D743F",
"n  c #3D3A43",
"m  c #423F40",
"M  c #3F4044",
"N  c #464343",
"B  c #47494D",
"V  c #4D4B4C",
"C  c #494646",
"Z  c #5B4C41",
"A  c #554B47",
"S  c #5D514C",
"D  c #595349",
"F  c #524E58",
"G  c #5B5452",
"H  c #595757",
"J  c #4D4B53",
"K  c #645244",
"L  c #6A5646",
"P  c #64544C",
"I  c #6B5B4C",
"U  c #69594A",
"Y  c #705D4B",
"T  c #645A53",
"R  c #6A5C53",
"E  c #655A57",
"W  c #68564C",
"Q  c #69664A",
"!  c #6C635B",
"~  c #6A6456",
"^  c #736354",
"/  c #73655C",
"(  c #79695A",
")  c #777758",
"_  c #776A49",
"`  c #5C5B62",
"'  c #625E6A",
"]  c #686767",
"[  c #736B63",
"{  c #7B6D64",
"}  c #746A68",
"|  c #7C736A",
" . c #797469",
".. c #6A6974",
"X. c #716D72",
"o. c #717273",
"O. c #74757A",
"+. c #797B7C",
"@. c #7A7775",
"#. c #6E7174",
"$. c #8A360A",
"%. c #92470C",
"&. c #A75817",
"*. c #B85813",
"=. c #AA4E0D",
"-. c #BA691C",
";. c #805D3C",
":. c #847829",
">. c #BE7324",
",. c #AF7833",
"<. c #C57824",
"1. c #C26214",
"2. c #866E59",
"3. c #84756A",
"4. c #8C7B6D",
"5. c #867565",
"6. c #847B72",
"7. c #857B76",
"8. c #937D6E",
"9. c #A7861D",
"0. c #B0901B",
"q. c #95892C",
"w. c #B99C28",
"e. c #B89E39",
"r. c #B08F33",
"t. c #BAA738",
"y. c #D18C1F",
"u. c #C98524",
"i. c #D38D25",
"p. c #C99A25",
"a. c #D39529",
"s. c #CC9836",
"d. c #D4A529",
"f. c #C5AC3A",
"g. c #DBB436",
"h. c #D0AD34",
"j. c #E3BC3A",
"k. c #E7C53A",
"l. c #DFCA36",
"z. c #8C864F",
"x. c #B29B48",
"c. c #AFA14B",
"v. c #8B837B",
"b. c #898478",
"n. c #958779",
"m. c #949478",
"M. c #9A8E6D",
"N. c #A28F77",
"B. c #D1BB49",
"V. c #E3BC42",
"C. c #7C7A86",
"Z. c #7C7A93",
"A. c #827F83",
"S. c #807F8A",
"D. c #828386",
"F. c #84858A",
"G. c #86898D",
"H. c #898B8E",
"J. c #978C84",
"K. c #9D9389",
"L. c #8C8C92",
"P. c #888394",
"I. c #919296",
"U. c #96999C",
"Y. c #9B9B9D",
"T. c #95949A",
"R. c #909094",
"E. c #A39589",
"W. c #AB9C94",
"Q. c #A6A399",
"!. c #AEA68D",
"~. c #9B9CA3",
"^. c #9999A6",
"/. c #8A88A1",
"(. c #9DA1A6",
"). c #9FA3A8",
"_. c #A1A2A6",
"`. c #A3A5AB",
"'. c #A6A9AE",
"]. c #AAAAAD",
"[. c #A8A7AE",
"{. c #ABACB3",
"}. c #AAABB4",
"|. c #AEB1B5",
" X c #B3B4BC",
".X c #B5B9BD",
"XX c #B9BABD",
"oX c #B6B5B5",
"OX c #B2B1AC",
"+X c #C8CFBF",
"@X c #BCBDC4",
"#X c #B8B8C4",
"$X c #BDC0C3",
"%X c #BEC2C8",
"&X c #C3C5CC",
"*X c #C6C7CA",
"=X c #C7C8D1",
"-X c #CBCCD3",
";X c #C7C7D5",
":X c #CFD1D6",
">X c #D2D4DB",
",X c #D5D9DD",
"<X c #D7D7D8",
"1X c #D3D2D2",
"2X c #DFE4DC",
"3X c #DBDDE4",
"4X c #DDDEEA",
"5X c #D6D6E4",
"6X c #E1DFE3",
"7X c #DEE1E6",
"8X c #E2E4E5",
"9X c #E4E5EC",
"0X c #E6EAEC",
"qX c #EBEDEC",
"wX c #EAEDE5",
"eX c #EDF0EC",
"rX c #E6E9F1",
"tX c #ECEDF5",
"yX c #EEEEF9",
"uX c #E6E6F2",
"iX c #F0EFF9",
"pX c #F1EFF7",
"aX c #EDF1F4",
"sX c #EEF1FA",
"dX c #F1F3FB",
"fX c #F1F3F9",
"gX c #72751B",
/* pixels */
"gXgXgXgXgXgXgXgXgXgXgXgXgXgXgXgXgXgXgXgXgXgXgXgXgXgXgXgXgXgXgXgXgXgXgXgXgXgXgXgXgXgXgXgXgXgXgXgX",
"gXgXgXgXgXgXgXgXgXgXgXgXgXgXgXgXgXgXgXgXgXgXgXgXgXgXgXgXgXgXgXgXgXgXgXgXgXgXgXgXgXgXgXgXgXgXgXgX",
"gXgXgXgXgXgXgXgXgXgXgXgXgXgXgXgXgXgXgXgXgXgXgXgXgXgXgXgXgXgXgXgXgXgXgXgXgXgXgXgXgXgXgXgXgXgXgXgX",
"gXgXgXgXgXgXgXgXgXgXgXgXgXgXgXgXgXgXgXgXgXgXgXgXgXgXgXgXgXgXgXgXgXgXgXgXgXgXgXgXgXgXgXgXgXgXgXgX",
"gXgXgXgXgXgXgXgXgXgXgXgXgXgXgXgXgXgXgXgXgXgXgXgXgXgXgXgXgXgXgXgXgXgXgXgXgXgXgXgXgXgXgXgXgXgXgXgX",
"gXgXgXgXgXgXgXgXgXgXgXgXgXgXgXgXgXgXgXgXgXgXgXgXgXgXgXgXgXgXgXgXgXgXgXgXgXgXgXgXgXgXgXgXgXgXgXgX",
"gXgXgXgXgXgXgXgXgXgXgXgXgXgXgXgXgXgXgXgXgXgXgXgXgXgXgXgXgXgXgXgXgXgXgXgXgXgXgXgXgXgXgXgXgXgXgXgX",
"gXgXgXgXgXgXgXgXgXgXgXgXgXgXgXgXgXgXgXgXgXgXgXgXgXgXgXgXgXgXgXgXgXgXgXgXgXgXgXgXgXgXgXgXgXgXgXgX",
"gXgXgXgXgXgXgXgXgXgXgXgXgXgXgXgXgXgXgXgXgXgXgXgXgXgXgXgXgXgXgXgXgXgXgXgXgXgXgXgXgXgXgXgXgXgXgXgX",
"gXgXgXgXgXgXgXgXgXgXgXgXgXgXgXgXgXgXgXgXgXgXgXgXgXgXgXgXgXgXgXgXgXgXgXgXgXgXgXgXgXgXgXgXgXgXgXgX",
"gXgXgXgXgXgXgXgXgXgXgXgXgXgXgXgXgXgXgXgXgXgXgXgXgXgXgXgXgXgXgXgXgXgXgXgXgXgXgXgXgXgXgXgXgXgXgXgX",
"gXgXgXgXgXgXgXgXgXgXgXgXgXgXgXgXgXgXgXgXgXgXgXgXgXgXgXgXgXgXgXgXgXgXgXgXgXgXgXgXgXgXgXgXgXgXgXgX",
"gXgXgXgXgXgXgXgXgXgXgXgXgXgXgXgXgXgXgXgXgXgXgXgXgXgXgXgXgXgXgXgXgXgXgXgXgXgXgXgXgXgXgXgXgXgXgXgX",
"gXgXgXgXgXgXgXgXgXgXgXgXgXgXgXgXgXgXgXgX7.7.v.6.6. . .o.@. .gXgXgXgXgXgXgXgXgXgXgXgXgXgXgXgXgXgX",
"gXgXgXgXgXgXgXgXgXgXgXgXgXgXgX6.[ b.K.K.E.W.W.E.K.J.J.J.v.{ ~ D ! gXgXgXgXgXgXgXgXgXgXgXgXgXgXgX",
"gXgXgXgXgXgXgXgXgXgXgXgXgXb.@.m.Q / 3.4.4.8.8.3.3.J.E.E.J.6.[ T E E T gXgXgXgXgXgXgXgXgXgXgXgXgX",
"gXgXgXgXgXgXgXgXgXgXgXgXb.) m.M._ ;.;.;.z v v u w 5.N.E.E.N.4.3.{ ! S [ 7.gXgXgXgXgXgXgXgXgXgXgX",
"gXgXgXgXgXgXgXgXgXgX} b.m.m.M.z.c.x.r.r.,.r.r.e 6 I 2.M.N.8.J.8.4.5./ E ! @.gXgXgXgXgXgXgXgXgXgX",
"gXgXgXgXgXgXgXA.7.] J.OX!.M._ q.B.s.<.<.>.s.h.t e l Q 2.2.2.8.N.n.8.5.| [ / 7.gXgXgXgXgXgXgXgXgX",
"gXgXgXgXgXgX/ 7.J.E.b.( Q i t t.9.%.$.&.a.g.w.r e s u k z l j L / 2.3.5./ E E } gXgXgXgXgXgXgXgX",
"gXgXgXgXgX/ @.A.n.2.^ U s e r f.s.%.$.&.a.j.t.6 e u s s j f f K W I ^ ^ ( [ ^ E v.oXgXgXgXgXgXgX",
"gXgXgXXXR.} 8.4.( Y K f a 5 r t.p.&.$.=.a.k.t.6 u s d a 9 d g f Z Z P L ^ ^ ( / T | gXgXgXgXgXgX",
"gXgXgX7.v.6.2.2.Y K w q 8 # r w.d.-.%.=.a.k.t.r f U S m 3 0 3 9 Z S K K K L ^ ^ R R [ gXgXgXgXgX",
"gXgXgX{ 3.8.Y L g 9 q q , , e 0.g.>.=.=.y.k.t.6 g E H C n C m q 9 9 g j j j L Y ^ Q ~ } gXgXgXgX",
"gXgX3.[ 3.2.L g 7 7 p C a - # y V.<.=.*.i.j.e.# 7 9 p < 3 B V 2 9 ; 7 w g j j K I R ! !  .gXgXgX",
"gXQ.n.3.3.R K 7 ; 2 N C 4 o o y V.<.*.1.i.V.e.6 7 1 & $ = 4 3 - S 9 ; 7 w d h j K T ) /  .@.gXgX",
"gXv.7.6.2.K w > 9 0 : < = o o y h.1.*.1.<.d.e.i ^ ~ C 3 4 * + O T G a - @ 7 d j f U / { ! ~ gXgX",
"gX[ } 3./ Z > 1 S V 1 .   , 8 y s.>.*.<.i.a.9.i 4.H.L.P.A.] B * 2 3 0 3 - X - a A f L ^ ! ! [ gX",
"gX' ' 3./ Z @ > 1 m < $ 4 H Q y s.>.-.<.u.p.9.x ) P.P.S.P.S.Z.` $   : H A * X : d h Z L ^ P D gX",
"gX/ 3.3.E m @ q m % . < B D a y 9.<.<.<.p.p.9.y Q ^./.' F ..Z.Z.H 4 = 4 m N 3 + , f j K I ~ H gX",
"gX{ } / 2.m @ 7 1 . $ n ` H l c 0.p.u.u.d.h.9.t Q ^.Z...' ` ..^.+.V & & 3 F G : - d j k L R G gX",
"gXgX/ / R d X X $ . n ` X.[ ) c h.g.d.d.l.l.t.x ) ^.Z.O.o.` ' ^.L...4 & : H ] A O 9 j s L R P gX",
"gXgX{ [ [ P - X - . J ~._. .l :.B.B.t.w.w.0.q.i ) '.(.D.X.X.S.^.Y.A.F : * 3 N 3 + 8 j j L R P gX",
"gXgXgX{ / ~ a @ 2 1 b.<X1XK.~ z.c.c.q.b x x i Q D.$X%X}.~.[. X[.~.L.] 3 & & = O O g j K L R E gX",
"gXgXgXv.{ I f 8 , [ oXwXwX,X.X!.m.) D p D Q H U. X;X5X4X9X9X6X*X].Y.A.C & = = O 7 P K j L S P gX",
"gXgXgXgX6.Q D h p ].wXwXeXaX0X2X+XOXo.H ] +.+.%X5X5X4XrXtXtX8X,XoX`.T.J %   o : A Q K j L g A gX",
"gXgXgXgXgX| P D o.-XaX0XeXaXaXaX7X,X}.C.X.+.I.9XuXuXrXtXtXuXqX8X*XoX(.] =   O p S W K K K Z gXgX",
"gXgXgXgXgXgXgXX.oX,X0XaXaXaXaXaXtXyX4X|.S.P.;XiXsXrXaXyXyXtXwXwX2X*XOX+.M 4 C D S P W K d gXgXgX",
"gXgXgXgXgXgXT.Y.:X8XrXaXaXrXaXsXyXyXyX5X&X&X9XiXsXyXyXyXtXqXqXwXqX1X.X~.#.D H H S S S P ! gXgXgX",
"gXgXgXgXgXgXR.].7XaXaXaXaXsXsXsXyXyXiXyX4XuXiXuXuXsXsXyXtXeXeXqXqX,XXXOXb.H M D A m A E gXgXgXgX",
"gXgXgXgXgXgXA.oX8XaXfXfXfXaXsXsXyXsXsXyXyXyXyXuXtXiXpXaXeXqXqXqXqX2X*X.XU.` N H } ! gXgXgXgXgXgX",
"gXgXgXgXgXgX+.XX8XtXfXdXfXaXsXsXsXsXyXsXyXiXyXyXtXiXiXeXeXeXeXqX0X2X,X.X(.+.H ` Y.gXgXgXgXgXgXgX",
"gXgXgXgXgXgXD.$X8XtXtXdXdXsXsXsXsXsXyXdXiXiXiXyXiXiXfXtXeXeXqXqX0X0X,X$X'.H.] gXgXgXgXgXgXgXgXgX",
"gXgXgXgXgXgXY.:X0XtXtXdXdXsXsXsXsXsXyXyXiXyXyXyXyXyXiXpXeXaXtXtX0X7X:XXX'.U.O.M gXgXgXgXgXgXgXgX",
"gXgXgXgXgXgX%X0XaXrXsXsXdXdXdXdXsXsXsXdXiXyXyXyXyXyXyXyXtXtXtXtX7X,X%X.X{.'.G.B gXgXgXgXgXgXgXgX",
"gXgXgXgXgXgX$XqXaXrXaXaXdXdXdXdXsXsXsXsXyXyXyXyXyXyXyXtXyXtXyXtX7X:X%X|.{.'.G.B gXgXgXgXgXgXgXgX",
"gXgXgXgXgXgX$X0XaXrXtXsXsXsXdXsXsXsXsXyXdXyXyXyXyXtXyXtXtXyXtXuX,X:X$X|.}.'.L.B gXgXgXgXgXgXgXgX",
"gXgXgXgXgXgX$X7XrXaXaXsXsXsXsXsXsXsXdXiXdXyXtXyXyXyXtXyXtXuX9X3X-X%X.X'.`.'.H.B gXgXgXgXgXgXgXgX",
"gXgXgXgXgXgXXX8XrXaXaXtXsXsXsXsXsXsXsXsXsXsXsXyXtXyXtXtXuX4X5X>X%X$X|.).).).G.M gXgXgXgXgXgXgXgX",
"gXgXgXgXgXgX_.-X7XaXaXsXtXsXsXsXsXsXsXsXsXtXsXtXyXtXtX9X4X>X:X=X.X}.'.(.).(.G.M gXgXgXgXgXgXgXgX",
"gXgXgXgXgXgXD.oX3XrXtXtXrXsXsXsXtXsXtXsXyXyXyXrXuX9X9X3X>X-X=X@X|.'.(.(.).U.C.gXgXgXgXgXgXgXgXgX",
"gXgXgXgXgXgXO.'.:X7X0X0XrX7X7XrXrXrXrXrXrXrXrX9X9X3X5X-X=X&X@X X'.(.~.(.'.U.O.gXgXgXgXgXgXgXgXgX",
"gXgXgXgXgXgXD.U.$X>X3X8X3X7X3X3X4X4X4X8X7X4X3X5X5X-X=X&X@X#X X}.(.(.(.'.).G.] gXgXgXgXgXgXgXgXgX",
"gXgXgXgXgXgXgX+._.*X>X,X,X>X>X>X>X>X>X>X>X:X-X;X;X@X@X#X#X|.'.~.U.Y.(.|.).G.gXgXgXgXgXgXgXgXgXgX",
"gXgXgXgXgXgXgXgX+.{.-X:X>X-X*X*X&X=X=X;X;X&X&X%X#X#X X X}.`.~.^.U.).|.(.G.D.gXgXgXgXgXgXgXgXgXgX",
"gXgXgXgXgXgXgXgXgXo._.&X*X*X@X&X$X%X%X@X#X.X#X X X|.}.'._.^.Y.^.{.|.).L.F.gXgXgXgXgXgXgXgXgXgXgX",
"gXgXgXgXgXgXgXgXgXgX+.T.].XXXXXX@X#X X X{.{.{.[.[.`.`.^._.`.'.`.L.F.+.gXgXgXgXgXgXgXgXgXgXgXgXgX",
"gXgXgXgXgXgXgXgXgXgXgXo.F.I.T.[.{.{.{.{.oX{.{.{.[.[.[.[.`._.^.G.] ..gXgXgXgXgXgXgXgXgXgXgXgXgXgX",
"gXgXgXgXgXgXgXgXgXgXgXgXO.#...D.A.I._.[.[.[.`.`.[.[.}.(.I.G.+.` gXgXgXgXgXgXgXgXgXgXgXgXgXgXgXgX",
"gXgXgXgXgXgXgXgXgXgXgXgXgXgXH ] ` O.H.L.L.L.P.L.L.I.T./.D.O...gXgXgXgXgXgXgXgXgXgXgXgXgXgXgXgXgX"
};
