/* XPM */
static char *result[] = {
/* columns rows colors chars-per-pixel */
"48 60 229 2 ",
"   c #0A0206",
".  c #150807",
"X  c #1B110D",
"o  c #1B171A",
"O  c #0F0C13",
"+  c #281B17",
"@  c #2E1E13",
"#  c #322915",
"$  c #2B2729",
"%  c #362C27",
"&  c #393738",
"*  c #2D312F",
"=  c #311F20",
"-  c #432703",
";  c #4B370F",
":  c #44382D",
">  c #433433",
",  c #433C3D",
"<  c #473C35",
"1  c #5A3E34",
"2  c #5A3D2C",
"3  c #3D410E",
"4  c #554912",
"5  c #705A18",
"6  c #6E691D",
"7  c #4B443B",
"8  c #494338",
"9  c #524433",
"0  c #5B4C3B",
"q  c #574939",
"w  c #5B4934",
"e  c #644B3C",
"r  c #665737",
"t  c #715C23",
"y  c #756A27",
"u  c #74673A",
"i  c #716C21",
"p  c #363A42",
"a  c #433D42",
"s  c #3F424A",
"d  c #464647",
"f  c #534C43",
"g  c #5B4A42",
"h  c #544A48",
"j  c #5C5143",
"k  c #5C534C",
"l  c #57534B",
"z  c #4C4D53",
"x  c #474852",
"c  c #585758",
"v  c #4E535A",
"b  c #654C45",
"n  c #635444",
"m  c #695446",
"M  c #6A554B",
"N  c #655A4B",
"B  c #6C5B4C",
"V  c #675748",
"C  c #735E4C",
"Z  c #7A5F4F",
"A  c #625B53",
"S  c #6A5C54",
"D  c #6B5D5A",
"F  c #655A56",
"G  c #735D52",
"H  c #696246",
"J  c #796A48",
"K  c #6C6354",
"L  c #6D645A",
"P  c #69635A",
"I  c #736356",
"U  c #7B6454",
"Y  c #74655A",
"T  c #7B655A",
"R  c #7D6A5B",
"E  c #766A5A",
"W  c #7F7051",
"Q  c #585B62",
"!  c #755D62",
"~  c #64656A",
"^  c #696868",
"/  c #746C63",
"(  c #7C6D62",
")  c #756B6B",
"_  c #7B746A",
"`  c #6C6E73",
"'  c #666A71",
"]  c #6E7277",
"[  c #72747D",
"{  c #777878",
"}  c #5F6162",
"|  c #977405",
" . c #8A6E16",
".. c #A77A01",
"X. c #8F782C",
"o. c #936C11",
"O. c #836B5C",
"+. c #826955",
"@. c #89765B",
"#. c #8D7653",
"$. c #846D63",
"%. c #856E68",
"&. c #857265",
"*. c #8C7364",
"=. c #83746A",
"-. c #8A796A",
";. c #927A6C",
":. c #917666",
">. c #867C77",
",. c #977C74",
"<. c #83841D",
"1. c #928C0F",
"2. c #AA8609",
"3. c #AE9113",
"4. c #B8AD11",
"5. c #848428",
"6. c #89843A",
"7. c #958B2E",
"8. c #A99537",
"9. c #B6A828",
"0. c #C29808",
"q. c #CCB517",
"w. c #D7B617",
"e. c #CCAD0D",
"r. c #D4B72C",
"t. c #E5D415",
"y. c #EACB17",
"u. c #D8C63B",
"i. c #D0CA32",
"p. c #EED428",
"a. c #E8E332",
"s. c #EFE32A",
"d. c #CDC51C",
"f. c #928949",
"g. c #908F55",
"h. c #B7AE4C",
"j. c #9A896B",
"k. c #868075",
"l. c #9A8579",
"z. c #A18B78",
"x. c #A79B78",
"c. c #A79C6E",
"v. c #A2A570",
"b. c #9F9E55",
"n. c #CBB440",
"m. c #EEE942",
"M. c #F4E665",
"N. c #F1DB4F",
"B. c #7B7D84",
"V. c #817F8A",
"C. c #7E828A",
"Z. c #7F8081",
"A. c #828386",
"S. c #83848C",
"D. c #84888E",
"F. c #88898A",
"G. c #858691",
"H. c #8B8C93",
"J. c #888C94",
"K. c #968D9A",
"L. c #8D9096",
"P. c #8D939A",
"I. c #92959C",
"U. c #93969A",
"Y. c #969187",
"T. c #A99689",
"R. c #B3998A",
"E. c #A99B94",
"W. c #B39D93",
"Q. c #B19F98",
"!. c #A98E81",
"~. c #B3A68B",
"^. c #ADA496",
"/. c #BAA699",
"(. c #AEB081",
"). c #9596A2",
"_. c #959BA3",
"`. c #9B9CA5",
"'. c #9A99A7",
"]. c #9DA1A9",
"[. c #A6A8AC",
"{. c #A9ACB4",
"}. c #A6A9B2",
"|. c #AEB2B9",
" X c #B3B4BD",
".X c #B5B7B6",
"XX c #B8B3A8",
"oX c #A09EB0",
"OX c #C1AC9B",
"+X c #C7BB96",
"@X c #C2B1A6",
"#X c #D1C8B0",
"$X c #E7D9BD",
"%X c #B9BCC5",
"&X c #B6B9C4",
"*X c #BDC1C9",
"=X c #C2C5CD",
"-X c #C6C8CB",
";X c #C6C9D2",
":X c #CACCD5",
">X c #CDCFD9",
",X c #C5C7D1",
"<X c #CED1DA",
"1X c #D2D4DB",
"2X c #D5D7DB",
"3X c #D1CAC8",
"4X c #E3D9CD",
"5X c #EEF2D6",
"6X c #D7D9E2",
"7X c #DBDCE4",
"8X c #D9DBE5",
"9X c #DEE1EA",
"0X c #DEE1E7",
"qX c #E3E4ED",
"wX c #E6E9ED",
"eX c #ECEEEF",
"rX c #E4E6F1",
"tX c #E6E9F1",
"yX c #EBEDF4",
"uX c #EDEEFA",
"iX c #F0EFF7",
"pX c #EEF0F4",
"aX c #EEF1FA",
"sX c #F1F2F6",
"dX c #F1F4FB",
"fX c #F6F9FE",
"gX c #FAFDFE",
"hX c #F6F5EB",
"jX c #72751B",
/* pixels */
"jXjXjXjXjXjXjXjXjXjXjXjXjXjXjXjXjXjXjXjXjXjXjXjXjXjXjXjXjXjXjXjXjXjXjXjXjXjXjXjXjXjXjXjXjXjXjXjX",
"jXjXjXjXjXjXjXjXjXjXjXjXjXjXjXjXjXjXjXjXjXjXjXjXjXjXjXjXjXjXjXjXjXjXjXjXjXjXjXjXjXjXjXjXjXjXjXjX",
"jXjXjXjXjXjXjXjXjXjXjXjXjXjXjXjXjXjXjXjXjXjXjXjXjXjXjXjXjXjXjXjXjXjXjXjXjXjXjXjXjXjXjXjXjXjXjXjX",
"jXjXjXjXjXjXjXjXjXjXjXjXjXjXjXjXjXjXjXjXjXjXjXjXjXjXjXjXjXjXjXjXjXjXjXjXjXjXjXjXjXjXjXjXjXjXjXjX",
"jXjXjXjXjXjXjXjXjXjXjXjXjXjXjXjXjXjXjXjXjXjXjXjXjXjXjXjXjXjXjXjXjXjXjXjXjXjXjXjXjXjXjXjXjXjXjXjX",
"jXjXjXjXjXjXjXjXjXjXjXjXjXjXjXjXjXjXjXjXjXjXjXjXjXjXjXjXjXjXjXjXjXjXjXjXjXjXjXjXjXjXjXjXjXjXjXjX",
"jXjXjXjXjXjXjXjXjXjXjXjXjXjXjXjXjXjXjXjXjXjXjXjXjXjXjXjXjXjXjXjXjXjXjXjXjXjXjXjXjXjXjXjXjXjXjXjX",
"jXjXjXjXjXjXjXjXjXjXjXjXjXjXjXjXjXjXjXjXjXjXjXjXjXjXjXjXjXjXjXjXjXjXjXjXjXjXjXjXjXjXjXjXjXjXjXjX",
"jXjXjXjXjXjXjXjXjXjXjXjXjXjXjXjXjXjXjXjXjXjXjXjXjXjXjXjXjXjXjXjXjXjXjXjXjXjXjXjXjXjXjXjXjXjXjXjX",
"jXjXjXjXjXjXjX4XjX+X(.~.~.v.(.Y.H.jXjXjXjXjXjXjXjXjXjXjXjXjXjXjXjXjXjXjXjXjXjXjXjXjXjXjXjXjXjXjX",
"jXjXjXjXjXjX#Xv.b.g.i i i i i 3 % 2XjXjXjXjXjXjXjXjXjXjXjXjXjXjXjXjXjXjXjXjXjXjXjXjXjXjXjXjXjXjX",
"jXjXjXjXjXjXg.g.h.u.m.m.a.a.m.<.v.jXjXjXjXjXjXjXjXjXjXjXjXjXjXjXjXjXjXjXjXjXjXjXjXjXjXjXjXjXjXjX",
"jXjXjXjXjXjXH h.i.a.s.s.s.d.i.5.v.jXjXjXjXjXjXjXjXjXjXjXjXjXjXjXjXjXjXjXjXjXjXjXjXjXjXjXjXjXjXjX",
"jXjXjXjXjXjXH 8.1.t.t.e.t.q.i.6.+XjXjXjXjXjXjXjXjXjXjXjXjXjXjXjXjXjXjXjXjXjXjXjXjXjXjXjXjXjXjXjX",
"jXjXjXjXjXjXu h.4.t.t.t.p.q.u.i (.jXjXjXjXjXjXjXjXjXjXjXjXjXjXjXjXjXjXjXjXjXjXjXjXjXjXjXjXjXjXjX",
"jXjXjXjXjXjXH h.4.e.t.t.y.e.a.X.g.jXjXjXjXjXjXjXjXjXjXjXjXjXjXjXjXjXjXjXjXjXjXjXjXjXjXjXjXjXjXjX",
"jXjXjXjXjXjXz.6.u.0.0.0.0.e.p.5.b.5XjXjXjXjXjXjXjXjXjXjXjXjXjXjXjXjXjXjXjXjXjXjXjXjXjXjXjXjXjXjX",
"jXjXjXjXjXjX+Xu M.e.0.2.w.w.y.1.f.5XjXjXjXjXjXjXjXjXjXjXjXjXjXjXjXjXjXjXjXjXjXjXjXjXjXjXjXjXjXjX",
"jXjXjXjXjXjX$Xf.n.a.w.....w.u.M.5.(.jXjXjX3X>.>.k.>.k.>.E.jXjXjXjXjXjXjXjXjXjXjXjXjXjXjXjXjXjXjX",
"jXjXjXjXjXjXjXc.4 N.r.......2.9.9.6 (.E / ) Y.-.E E / / F F k A jXjXjXjXjXjXjXjXjXjXjXjXjXjXjXjX",
"jXjXjXjXjXjXjXjX5 n.3.| ..2.| r.n.4 r ~.^.XX4X#X@X@X/.Q.E.) S D f P jXjXjXjXjXjXjXjXjXjXjXjXjXjX",
"jXjXjXjXjXjXjXjX#. .8.3...| | 3.9.9.y g.$X#X/.W.W.W.Q.W.T.!.T.Y._ L f k.hXjXjXjXjXjXjXjXjXjXjXjX",
"jXjXjXjXjXjXjXjXjXJ X.h.3.o. .2.1.3.7.6 f.+X/.W.W.W.OX!.%.Z $.,.j K _ 8 ^.jXjXjXjXjXjXjXjXjXjXjX",
"jXjXjXjXjXjXjXjXjX0 - X.o.X.o.o.1.3.b.b.y H 0 O.W.R.R.!.;.Z b e 9 & H _ : k.jXjXjXjXjXjXjXjXjXjX",
"jXjXjXjXjXjXjXXX_ ( @.t 5 8.8.o. .1.7.7.f.; . b R.R.R.R.z.,.+.e 9 9 9 K =.f jXjXjXjXjXjXjXjXjXjX",
"jXjXjXjXjX_ F / ^.@XOXc.#.; - - - - ; # # X 2 %.,.,.,.,.,.!.,.:.( q 9 K ( n ) jXjXjXjXjXjXjXjXjX",
"jXjXjXjXD S >.T.@XT.T.j.#.r 2 2 1 1 ; 9 w w M ! %.:.:.$.:.:.:.:.-.&.V B &.B 7 jXjXjXjXjXjXjXjXjX",
"jXjXjX! %.OX~.z.z.#.:.$.+.r w r b b C r r m b +.+.+.+.+.:.:.:.:.:.O.:.+.C &.k c jXjXjXjXjXjXjXjX",
"jXjX^ k W.z.j.:.+.#.@.T B H V M Z G M m M G T O.+.@.U O.O.+.+.Z O.O.:.&.;.*.=.F k jXjXjXjXjXjXjX",
"jXjXN k.z.*.+.+.O.O.$.Z I B I S G G G M G G $.O.O.R C &.:.O.Z C H C +.O.,.:.&.-.9 g >.jXjXjXjXjX",
"jX/ L ~.O.+.J C *.T G M S j k f q S S S g g G ( G g %.( E $.$.T B C C B T O.;.*.;.Y m Y jXjXjXjX",
"jXk -.-.m r U +.M g q , k b D 1 $ % , , + = < < % + g 7 D D M ( I E B B S m T &.;.=.R 0 L jXjXjX",
"jXk k.K 0 n V w : b ) !   , & . o d 8 l 8 p 8 8 p 8 p 8 & O h Y.%./ L L S B g q $.%.&.( 7 _ jXjX",
"jXk _ 9 V e # < F < z a O $ d ` Z.P.C.P.L.P.U.P.L.C.F.C.~ ' v & D h ^ / L S M b b M K L ( & { jX",
"jXl E j j : = L >.a $ O v B.J.I._.C.C.C.C.C.C.C.C.J.].C.C.J.C.C.p + F L D / ) M b 1 0 B L / d jX",
"jX/ f L l # : L ^ & o a P.B.Q ` C.C.}.C._.P.P._.P._.].]._.).P.C.A.^ d F h S %.$.S 9 9 j K _ 8 l ",
"jXY.k K H 8 X d $ O O v C.p p $ Q }.C._.].P.]._._.]._.v * v _.].H.F.) + f % 1 $.E q 8 q 0 _ q l ",
"jXjXk.8 / f X + x Q x C.p ' *XB.x _.}.|.|.|.;X{..X|.Q Q C.v v ].U.U.U.F X D @ > =.H 0 w 9 K 8 l ",
"jXjXjXl H L : + o $ s _.C.Q Q v B.*X] *X*X*X:XP.*X<XQ ] *X' p P.[.I.`./ . > = @ =.K r 8 8 H 8 l ",
"jXjXjX4X/ l _ c p * C.&X*X{.C.}.:X*X' ' B.] ' J.rXyX*X] x Q _._.).'.'.K.a h > . l.N q 9 0 K 8 K ",
"jXjXjX5X^._ < ) v Q }.>X>X9X>X8X<X<X|.S. XL.[ <XrX9X7X%X}.&X%X}.'.oXK.K.V.> + + l.N 9 w q H K XX",
"jXjXjXjXjXjX3X& x &X>X9XrXrXuXuXyXqXaXgXpXdXfXaXaXaX7X7X6XqX8X<X&XoX'.K.K.F   : =.k 8 0 E l * jX",
"jXjXjXjXjXjXK.[ >X1XrXuXaXuXuXuXdXdXdXdXpXpXaXuXaXaXyX9X8X7XqX7X>X%XoX'.B.~ % k P K l A f 8 jXjX",
"jXjXjXjXjXI.[  X8XrXuXrXfXfXfXfXfXgXgXgXfXdXaXuXaXaXaXtXrXtXtXrX8X>X XoXV.V.z 8 / A 7 7 8 jXjXjX",
"jXjXjXjXjX` ,X2X7XdXaXaXgXgXgXgXgXgXgXgXgXfXdXuXaXuXaXaXiXyXyXtXqX9X:X|.P.J.] 8 l l ^ k.jXjXjXjX",
"jXjXjXjX] F.6X7XpXyXaXfXgXgXgXgXgXgXgXgXgXgXuXuXaXaXuXsXiXyXyXyXiXyX1X%X`.D.A.c d jXjXjXjXjXjXjX",
"jXjXjXjXc 2X>X6XyXgXdXfXgXgXgXgXgXgXgXgXgXfXuXuXuXiXiXiXuXuXyXuXuXyXqX1X|.P.U.} z jXjXjXjXjXjXjX",
"jXjXjXQ [.1XqXtXuXuXyXgXgXgXgXgXgXgXgXgXfXdXdXuXuXuXsXyXpXpXyXpXtXiXyX8X*X].Z.C.& F.jXjXjXjXjXjX",
"jXjXjX& .XwXqXyXuXdXaXdXfXgXfXgXfXsXsXsXsXpXsXsXsXpXpXsXyXpXpXpXuXuXrX8X,X`.G.S.s ~ jXjXjXjXjXjX",
"jXjXjX* .XyXrXuXuXaXaXaXdXdXdXfXsXyXyXsXpXpXeXeXeXpXyXpXeXsXpXpXuXuXtX8X>XoXJ.G.& } jXjXjXjXjXjX",
"jXjXjXd .XyXqXyXuXaXuXuXuXuXuXuXiXuXuXsXpXpXeXeXpXeXpXeXpXpXpXeXuXuXrX8X;X`.C.D.& Z.jXjXjXjXjXjX",
"jXjXjXc .X2XrXyXdXuXuXuXuXuXuXuXuXdXiXyXpXeXpXpXyXeXpXsXpXpXeXeXuXtX9X6X%X).S.D.& ` jXjXjXjXjXjX",
"jXjXjX.X` 2XwXyXiXyXuXdXuXuXuXuXuXuXyXyXeXeXiXyXeXyXeXiXeXeXwXwXrX9X1X;X|.).B.B.p jXjXjXjXjXjXjX",
"jXjXjXjXA.F.qXqXtXqXtXyXtXyXyXyXyXyXyXyXyXyXyXwXqXtXtXwXwXqXqX7X6X6X;X&X'.J.G.' z jXjXjXjXjXjXjX",
"jXjXjXjX^ ~ :X2X7X7X7XqXrX9XwXwX9XqXqXqXqXqXqX0X7X9X0X7X2X2X2X>X*X*X&XoX).G.] z jXjXjXjXjXjXjXjX",
"jXjXjXjXjXjXA.-X1X:X,X>X>X6X2X6X6X6X6X>X>X:X,X:X:X1X<X-X*X*X%X{.}.|.`.P.).B.a jXjXjXjXjXjXjXjXjX",
"jXjXjXjXjXjXF.~ G.}.[.|.*X=X-X;X,X,X,X=X%X%X X X X&X X{.{.{.[.`.`.P.G.C.x d jXjXjXjXjXjXjXjXjXjX",
"jXjXjXjXjXjXjX~ { c Q { H.U.I.I.K.).I.U.P.J.H.U.U.H.L.H.G.H.L.F.C.] z z [ jXjXjXjXjXjXjXjXjXjXjX",
"jXjXjXjXjXjXjXjXjXjXjX] ~ ~ ~ ^ ~ ~ ~ ~ ~ ~ ~ ~ ~ ~ ^ ^ ~ ' ' ` ` B.jXjXjXjXjXjXjXjXjXjXjXjXjXjX",
"jXjXjXjXjXjXjXjXjXjXjXjXjXjXjXjXjXjXjXjXjXjXjXjXjXjXjXjXjXjXjXjXjXjXjXjXjXjXjXjXjXjXjXjXjXjXjXjX"
};
