/* XPM */
static char *result[] = {
/* columns rows colors chars-per-pixel */
"48 60 73 1 ",
"  c #000000",
". c #0A0502",
"X c #120A05",
"o c #190E06",
"O c #160F09",
"+ c #17100B",
"@ c #1D120A",
"# c #432513",
"$ c #4F2913",
"% c #522C15",
"& c #522E19",
"* c #563017",
"= c #55321B",
"- c #5A341B",
"; c #5D381E",
": c #613B1F",
"> c #563621",
", c #583620",
"< c #563A26",
"1 c #5D3B22",
"2 c #573D2B",
"3 c #593E2A",
"4 c #623E23",
"5 c #5C412D",
"6 c #5C4532",
"7 c #5F4836",
"8 c #634226",
"9 c #65452A",
"0 c #69462A",
"q c #66492C",
"w c #6B4A2E",
"e c #624732",
"r c #634936",
"t c #6B4D31",
"y c #634D3A",
"u c #694F38",
"i c #714F32",
"p c #6D5133",
"a c #65513E",
"s c #6B523C",
"d c #725335",
"f c #725639",
"g c #765A3B",
"h c #795C3E",
"j c #665240",
"k c #695543",
"l c #6C5945",
"z c #6E5C49",
"x c #735B45",
"c c #7A5E40",
"v c #715E4A",
"b c #7D6243",
"n c #74604C",
"m c #7A634D",
"M c #766553",
"N c #7A6651",
"B c #7D6A54",
"V c #7B6C5A",
"C c #816646",
"Z c #826748",
"A c #856B4B",
"S c #896E4D",
"D c #896F53",
"F c #806F5C",
"G c #8C7454",
"H c #84725D",
"J c #8E7659",
"K c #8F785A",
"L c #937B5C",
"P c #96805F",
"I c #99815E",
"U c #988161",
"Y c #72751B",
/* pixels */
"YYYYYYYYidido                      X;qqwYYYYYYYY",
"YYYYYYYgCCSi+                      .=fbbcYYYYYYY",
"YYYYYYYgSSGi+                      .-cbDhwYYYYYY",
"YYYYYYhAGSZio                      .*dbSAbYYYYYY",
"YYYYYibGGGbiO                      .=tbSGCwYYYYY",
"YYYYYihGGLbwO                      .=pbSGCwYYYYY",
"YYYYYdAKLIC0O                      .*tbDGAdYYYYY",
"YYYYiCKLLLbtO                      .*tbGGGAqYYYY",
"YYYYwZLLLCC0O                      .=wpbGJA0YYYY",
"YYYY0ALLLCbiO                      .*tpBJLD0YYYY",
"YYYY0ALULbbi+                      .*wpAJLD9YYYY",
"YYYY0SUULCC0+                      .%wpbJJG0YYYY",
"YYY0hGLULCC4@.                     .&qpZJJJb90YY",
"YYY8SLLLDCCio.                     .%qthAJKJ00YY",
"YYY8SLLLCCcio                      .*wtpbJKJ88YY",
"YYY4ALULCbC4o                      .%wttmJKJq8YY",
"YYY4ZJLKCbbi+                      .*qwpbDJJ88YY",
"YYY:ZLLLhibw+                      .*q;8bAGJ88YY",
"YYY:CDLDgAw0+                      .%*e3pDGJ88YY",
"YYY:0idiuN09o                      .%%911qqt49YY",
"YYY:xvZZxii8@                      .$5;5sxxx44YY",
"YYY:MHHHc4C4+                      .%q-5vBBn48YY",
"YYY-xAAvtiC:X                      .$q:;unnx48YY",
"YYY-uxxd0hC4o                      .$qq59sss44YY",
"YYY-:::0gCb:o                      .%qtt8**-44YY",
"YYY-igbCbCb:o                      .$9qtwwiw14YY",
"YYY-hCSShCc4o                      .%0qwfbbc41YY",
"YYY-gCSSCb4Z>o                    X#y-5qdbbc41YY",
"YYY-gCSSbh:m9@                    X%6*5qfbbb41YY",
"YYY*dCAShg:x4@                    X%5*4qpbbb1-YY",
"YYY*dbAAhg-m4@                    X$6&:qpgxc11YY",
"YYY%dhAZhd:v4@                    X&5&5qpgcc11YY",
"YYY*pbbAgf:f=o                    .#5*58pgcc:;YY",
"YYY%pcbAggd:X                      .*485pgcc;;YY",
"YYY%phbbdgg-X                      .$588pghc11YY",
"YYY%pbAbddd-X                      .$:85pghh;1YY",
"YYY%tgbbddd*X                      .$188tggc;;YY",
"YYY%whbbw0d*X                      .$485qfgh;;YY",
"YYY%wfbhws0&X                      .$1;1pfgh;;YY",
"YYY%wfbf9v-%X                      .$->1qfgf==YY",
"YYY$5tpp9y4%X                      .$%7>5qpp%*YY",
"YYY%=>-rl-0%X                      .$%<=-5:5$$YY",
"YYY%xHVBy=w&o                      .$;*7nVFm%$YY",
"YYY$avvu;4%n=o                    X$7=$2snns$%YY",
"YYY$aznr;0%j=+                    X&6&==ezvj$%YY",
"YYY$=1;180$7=YYYYYYYYYYYYYYYYYYYYYY$6$>-,11-%$YY",
"YYY$;1880;ra=YYYYYYYYYYYYYYYYYYYYYY%66--1;4;%$YY",
"YYY$0pdd8=zj=YYYYYYYYYYYYYYYYYYYYYY&67=*0ptw$%YY",
"YYY$wfhh9%k7=YYYYYYYYYYYYYYYYYYYYYY%26&=qfff$$YY",
"YYY$qfhf83k%YYYYYYYYYYYYYYYYYYYYYYYY$5>=qfgf$$YY",
"YYY$9pft<Vk&YYYYYYYYYYYYYYYYYYYYYYYY$57<1pdp$$YY",
"YYY$$$$$>zl&YYYYYYYYYYYYYYYYYYYYYYYY$66=$$$%$$YY",
"YYY$ylznMk&YYYYYYYYYYYYYYYYYYYYYYYYYY$57kvvk$$YY",
"YYY$rllnVk%YYYYYYYYYYYYYYYYYYYYYYYYYY$26jzzz$$YY",
"YYY$7kjvVk$YYYYYYYYYYYYYYYYYYYYYYYYYY$26yzzl$$YY",
"YYY$7jkvM5YYYYYYYYYYYYYYYYYYYYYYYYYYYY>5ylzl$$YY",
"YYY$rjkvv$YYYYYYYYYYYYYYYYYYYYYYYYYYYY$<ylzl$$YY",
"YYY$rkjvz$YYYYYYYYYYYYYYYYYYYYYYYYYYYY$<yzzl$$YY",
"YYY$6yykj%YYYYYYYYYYYYYYYYYYYYYYYYYYYY$<ryay$$YY",
"YYY$$$$$%YYYYYYYYYYYYYYYYYYYYYYYYYYYYYY$$$$$$$YY"
};
