/* XPM */
static char *result[] = {
/* columns rows colors chars-per-pixel */
"48 60 57 1 ",
"  c #4F2913",
". c #512A14",
"X c #522E19",
"o c #54321D",
"O c #563521",
"+ c #583722",
"@ c #5A3B26",
"# c #563C2B",
"$ c #5B3E2A",
"% c #5D412E",
"& c #5B4434",
"* c #5E4937",
"= c #574638",
"- c #5B4738",
"; c #5D4B3D",
": c #604532",
"> c #614C3C",
", c #5E4E41",
"< c #5F5043",
"1 c #604E41",
"2 c #645445",
"3 c #64564B",
"4 c #69574A",
"5 c #65594D",
"6 c #6A5B4D",
"7 c #705F4F",
"8 c #655C53",
"9 c #695E54",
"0 c #676057",
"q c #6B6156",
"w c #6D645B",
"e c #6E685F",
"r c #716253",
"t c #72665A",
"y c #73695E",
"u c #78695C",
"i c #756D62",
"p c #7B6E61",
"a c #7B7165",
"s c #7C766C",
"d c #7E796E",
"f c #7F7970",
"g c #81766A",
"h c #82796D",
"j c #817C72",
"k c #848276",
"l c #868379",
"z c #89857C",
"x c #8B897E",
"c c #8E8B81",
"v c #918E83",
"b c #939087",
"n c #95938B",
"m c #98968E",
"M c #9A9791",
"N c #9A9890",
"B c #72751B",
/* pixels */
"BBBBBBBBBBBBBBBBBBBBBBBBBBBBBBBBBBBBBBBBBBBBBBBB",
"BBBBBBBBBBBBBBBBBBBBBBBBBBBBBBBBBBBBBBBBBBBBBBBB",
"BBBBBBBBBBBBBBBBBBBBBBBBBBBBBBBBBBBBBBBBBBBBBBBB",
"BBBBBBBBBBBBBBBBBBBBBBBBBBBBBBBBBBBBBBBBBBBBBBBB",
"BBBBBBBBBBBBBBBBBBBBBBBBBBBBBBBBBBBBBBBBBBBBBBBB",
"BBBBBBBBBBBBBBBBBBBBBBBBBBBBBBBBBBBBBBBBBBBBBBBB",
"BBBBBBBBBBBBBBBBBBBBBBBBBBBBBBBBBBBBBBBBBBBBBBBB",
"BBBBBBBBBBBBBBBBBBBBBBBBBBBBBBBBBBBBBBBBBBBBBBBB",
"BBBBBBBBBBBBBBBBBBBBBBBBBBBBBBBBBBBBBBBBBBBBBBBB",
"BBBBBBBBBBBBBBBBBBBBBBBBBBBBBBBBBBBBBBBBBBBBBBBB",
"BBBBBBBBBBBBBBBBBBBBBBBBBBBBBBBBBBBBBBBBBBBBBBBB",
"BBBBBBBBBBBBBBBBBBBBBBBBBBBBBBBBBBBBBBBBBBBBBBBB",
"BBBBBBBBBBB++@%@%$$%%%:%%::&::::%%$@@BBBBBBBBBBB",
"BBBBBBBBBBB++@@@%%%%%%%::::*:::::&%$@BBBBBBBBBBB",
"BBBBBBBBBB.*22266uggapappaaaahsyiutr6@@BBBBBBBBB",
"BBBBBBBBBB.;qq0wygxzzzzzzzzzzbzjjfssr$$BBBBBBBBB",
"BBBBBBBBBB >060qtgbzzzzzzxxxxvljfsss9#@BBBBBBBBB",
"BBBBBBBBBBX*000qwsbzzzcxxxxcxvkdssssw#$BBBBBBBBB",
"BBBBBBBBBB.>608qwsbczcccccxxcbkdsssst$$BBBBBBBBB",
"BBBBBBBBBB *0qqwesvccccccxcccbkdsssst$$BBBBBBBBB",
"BBBBBBBBBBX*9qwyefnccccccccccnldssfsr$$BBBBBBBBB",
"BBBBBBBBBB >qqwyijnccccccvcccmzssfsst$$BBBBBBBBB",
"BBBBBBBBBBX>9qwiejnMmMmmmmmmMMzsssfst$$BBBBBBBBB",
"BBBBBBBBBBX;88wijcccccccccvvccvcfssa7$$BBBBBBBBB",
"BBBBBBBBBBX:58wjxNxxxxxxccvxxxbxcfsa9$$BBBBBBBBB",
"BBBBBBBBBBX>8qfvxxxxvvvvccccxbxbnjsi7$%BBBBBBBBB",
"BBBBBBBBBBX>qanvxxxxbxvxbcccxxxbvnja6$$BBBBBBBBB",
"BBBBBBBBBBX>avcvxNbxbbvvcccbbbxxccbjr$$BBBBBBBBB",
"BBBBBBBBBBXtxvvvxxxNvbvvvvvvxxxxvvvcg$$BBBBBBBBB",
"BBBBBBBBBBXpnbbvNxNxvbnbvnvvNnmNbnbng+oBBBBBBBBB",
"BBBBBBBBBB.uxzjzljxxjzzzzzzzzzxzjczcu..BBBBBBBBB",
"BBBBBBBBBB.4w5847477888888886966888t6..BBBBBBBBB",
"BBBBBBBBBB.4w5888888888888888888888w6..BBBBBBBBB",
"BBBBBBBBBB.4e58<3838888988888988888w6..BBBBBBBBB",
"BBBBBBBBBB &*===--&-=--------------;:.XBBBBBBBBB",
"BBBBBBBBBB     XXX XXXXXooooXXXOX.  ..XBBBBBBBBB",
"BBBBBBBBBBBBBB &;#X==--=----=X%;-XBBBBBBBBBBBBBB",
"BBBBBBBBBBBBBB &;#X-=--=----%X#;-.BBBBBBBBBBBBBB",
"BBBBBBBBBBBBBB ;3#X---;;>;1;-X-41XBBBBBBBBBBBBBB",
"BBBBBBBBBBBBBo 391##&##=$%%=-$1w9XoBBBBBBBBBBBBB",
"BBBBBBBBBBB@@+ 3831XXXXoooooo3996.%::BBBBBBBBBBB",
"BBBBBBBBBBX&2*.383833338555899996.ukg>>BBBBBBBBB",
"BBBBBBBBBB &22*$==;;;;;;1,,,1,81%>sxg::BBBBBBBBB",
"BBBBBBBBBBX-222&##========-==,$%>6gxg::BBBBBBBBB",
"BBBBBBBBBB.*4244#O1;;;11111113$$77dxg::BBBBBBBBB",
"BBBBBBBBBB *6644#%w3839q999w9t%%q7dxg:%BBBBBBBBB",
"BBBBBBBBBB *6666#%w338999w9w9t:%qqdxa%:BBBBBBBBB",
"BBBBBBBBBBordi66$#w989qq99w99u%%tqdxg&$BBBBBBBBB",
"BBBBBBBBBBOpzjiq%%w006q0wqqq9q:%yakxs%%BBBBBBBBB",
"BBBBBBBBBBOpzkkw%%e0908999q98t::akxxa%*BBBBBBBBB",
"BBBBBBBBBBOpzkkt%%q0989833558q:1kzkxg%%BBBBBBBBB",
"BBBBBBBBBBOpxlkks6oooOoOOOOOO+4hzkxxg%%BBBBBBBBB",
"BBBBBBBBBB@azkkkza997r7r9rr778sclccva%%BBBBBBBBB",
"BBBBBBBBBBoacczzzxxcczxxcccccccccccbg@@BBBBBBBBB",
"BBBBBBBBBB iccccccccccccvcvvccvcccccaooBBBBBBBBB",
"BBBBBBBBBB <0000888888888089999w00wy4 XBBBBBBBBB",
"BBBBBBBBBBX5w8888888888888889899000e3..BBBBBBBBB",
"BBBBBBBBBBX>w0888888885888888889090w3..BBBBBBBBB",
"BBBBBBBBBB.*<;;;;,,;;;;,,,,,1,,1,,<3*..BBBBBBBBB",
"BBBBBBBBBB   .X.         ...... ..  . .BBBBBBBBB"
};
