/* XPM */
static char *result[] = {
/* columns rows colors chars-per-pixel */
"48 60 35 1 ",
"  c #376E8B",
". c #396D89",
"X c #386C88",
"o c #366D88",
"O c #346E88",
"+ c #376E89",
"@ c #346D8A",
"# c #387796",
"$ c #387592",
"% c #397D9E",
"& c #3A7C9E",
"* c #3D91BB",
"= c #3D8FB8",
"- c #3B84A8",
"; c #37708C",
": c #397999",
"> c #3A81A5",
", c #377B9B",
"< c #3C8AB2",
"1 c #3B81A5",
"2 c #3B88AE",
"3 c #377492",
"4 c #387898",
"5 c #3A83A8",
"6 c #397B9B",
"7 c #37718E",
"8 c #397FA1",
"9 c #387695",
"0 c #366F8B",
"q c #3B86AB",
"w c #3C8DB5",
"e c #3B87AC",
"r c #366E89",
"t c #366F8A",
"y c #3B85AA",
/* pixels */
"       .XXXoooOOOOOOOOOOOOOOooooooooXXXXXXXXXXXX",
"++++++++oooooo@@OOOOOOOOOOOOooooooooXXXXXXXXXXXX",
"++++++++ooooooooOOOOOOOOOOOOooooooooXXXXXXXXXXXX",
"++++++++ooooooooOOOOOOOOOOOOooooooooXXXXXXXXXXXX",
"+++++#+++++++$++OOOOOOOOOOOOoooo%oooXXXX&XXXXXXX",
"+++++*++++++++=-OOOOOOOOOOOOoooo*oooXXXX**XXXXXX",
"+++++*+;+++++++:*OOOOOOOOOOOoooo*>ooXXXXX*XXXXXX",
"+++++*+$++++++++,*OOOOOOOOOOoooo*<ooXXXXX1*XXXXX",
"ooooo*2oooooooooo*3oooooooooooo***4ooooooo**5667",
"ooooo*ooooooooooo6*oooooo**********6oooooo>**>68",
"ooooo<oooooooooooo***896*%ooooo0oo0**8777q*ooooo",
"oooo*ooooooooooooo*oo>**3oooooo4ooooo<****9ooooo",
"*****oooooooooooo26ooo9*oooooooooooooooow*oooooo",
"o**5oooooooooooow=ooooo*ooooooooooooooooo*oooooo",
"o**%oooooooooooo9oooooo*ooooooooooooooooo*oooooo",
"o0*ooooooooooooo7oooooo4*oooooooooooooooo**ooooo",
"oo*>oooooooooooo0ooooooo*oooooooooooooooo***6ooo",
"oo6*oooooooooooooooooooo8*ooooo6oooooooo**oo*6oo",
"oo4*=oooooooooooooooooooo*oooo6<oooooo2**oooo*oo",
"oo3**2700oooooooooooooooo=6o90oo0oooo5*7ooooo*oo",
"oo3qooooow4oooo7ooooooooo9*oooooo7ooo*ooooooo*oo",
"oo=ooooooo*ooo7oooooooooo0ooooooooo3<*ooooooow7o",
"o0*496ooooo*%q4oooooooooo8ooooooooooo8o3ooooo3*o",
"**%oooo9%oo>=ooooooooooo6ooooooooooooooo9ooooo=2",
"*2ooooooooooooooooooooo9ooooooooooooooooooooooo*",
"**oooooooooooooooq>3ooooooooooooooooooooooooooo*",
"oo*oooooooooooo55oo9oooooooooooooooooooooooo678*",
"oo8qooooooooo0=9oooooooooooooooooooooooooooooo%*",
"ooo=7ooooo%*=3ooooooooooooooooooooowoooooooooo6*",
"oooo>*ooo3>oooooooooooooooooooooooo*oooooooooo4*",
"oooooo*0o*oooooooooooooooooooooooooo*ooooooooo3*",
"ooooooo**2oooooooooooooooooooooooooo0*ooooooooo*",
"ooooooo**7oooooooooooooooooooo7oooooo<>oooooooo=",
"ooooooo=*ooooooooooooooooooooooooooooo*ooooooooo",
"ooooooo**2ooooooooooooooooooooooooooooq%oooooooo",
"ooooo7*97*=ooooooooooooooooooooooooooo5*7ooooo44",
"*=2<**oooo0****6oooooooooooooooooooo>oo*7ooo7w3o",
"=****ooooooooo%*ooooooooooooooooo3<7oo>**ooooooo",
"ooo9*3ooooooooo*oooooooo8<%ooooooo3oo9*=*2ooooo0",
"ooooo5*0ooooooo7=ooooo0o0985>oooo0oo=*7oo=*oo<2*",
"ooooooo=eooooooo*2ooooooooooo*=28****ooooo******",
"ooooooooo*3oooooo5*24ooooooooo7q**>ooooooo**oooo",
"oooooooooo*oooooooooooooooooooooooooooooo7*ooroo",
"oooooooooo0=ooooooooooooooooooooooooooooo*oooooo",
"ooooooooooo*oooooooooooooooooooooooooooo7*ooooto",
"ooooooooooo*oooooooooooooooooooooooooooo*0ooooo7",
"**oooooooo7*ooooooooooooooooooooooooooo*3ooooooo",
"o9*5oooooo*ooooooooooooooooooooo3ooooo5>oooooooo",
"ooo<*7ooo%*oooooooooooooooooooooq8>>2**ooooooooo",
"ooooo*w72**oooooooooooooooooooo7*q86>**ooooooooo",
"oooooo******ooo9w<7oooooooooooo50ooooo58oooooooo",
"oooooo8*=ooo***w33q**w88856ooooyooooooo2oooooooo",
"ooooooo*ooooo**oooooo3666370y**8ooooooooqooooooo",
"ooooooo*ooooo*5oooooooooooooo=*<oooooooo5ooooooo",
"ooooooo*ooooo*oooooooooooooooo**oooooooo>qoooooo",
"oooooo*4oooo6*ooooooooooooooooo*oooooooo<6oooooo",
"ooooo5*>oooo=3oooooooooooooooooqqooooooo*7oooooo",
"ooooo*3>6ooooooooooooooooooooooo8ooooooo4ooooooo",
"oooooooooooooooooooooooooooooooooooooooooooooooo",
"oooooooooooooooooooooooooooooooooooooooooooooooo"
};
