/* XPM */
static char *result[] = {
/* columns rows colors chars-per-pixel */
"48 60 75 1 ",
"  c #4C2711",
". c #4E2812",
"X c #4F2E1B",
"o c #512B15",
"O c #502F1B",
"+ c #52311C",
"@ c #5B381F",
"# c #523421",
"$ c #593622",
"% c #553926",
"& c #5C3C27",
"* c #573C2A",
"= c #5D3E2A",
"- c #5C402E",
"; c #574234",
": c #5B4534",
"> c #5B4739",
", c #5C4A3B",
"< c #61432E",
"1 c #624533",
"2 c #634835",
"3 c #634C3B",
"4 c #684E39",
"5 c #6A513C",
"6 c #5D4D41",
"7 c #5E5246",
"8 c #5F5449",
"9 c #654F40",
"0 c #625245",
"q c #6B5645",
"w c #6C5846",
"e c #62564B",
"r c #64594E",
"t c #6B5B4D",
"y c #715D4D",
"u c #645C51",
"i c #6B5D50",
"p c #725F50",
"a c #676156",
"s c #6A6156",
"d c #676158",
"f c #6B655B",
"g c #6E685E",
"h c #736354",
"j c #796657",
"k c #776855",
"l c #786857",
"z c #726659",
"x c #7B6758",
"c c #74695D",
"v c #786D5F",
"b c #6F6A61",
"n c #726D63",
"m c #796E60",
"M c #777066",
"N c #7B7265",
"B c #767269",
"V c #7B756B",
"C c #7E796E",
"Z c #7E7A71",
"A c #807467",
"S c #83766A",
"D c #83796D",
"F c #887A6E",
"G c #827D73",
"H c #848277",
"J c #868478",
"K c #89877A",
"L c #8B887B",
"P c #8D8B81",
"I c #918E84",
"U c #929087",
"Y c #959289",
"T c #99958C",
"R c #72751B",
/* pixels */
"RRRRRRRR1111111221223333323322221112111=RRRRRRRR",
"RRRRRRRRimcmmmmnmmmmnMmmmmmmmmmmnnVmmANp=RRRRRRR",
"RRRRRRRwBJHHGHHJJGGJPZHHJHHGGHGJPPPPIPPGy2RRRRRR",
"RRRRRR3DPZHHHHHJJJJHGHHGHHHHHHHJHHPPPPPPKt2RRRRR",
"RRRRR3KHHHHHHHHLPPPGGGGPGJGKHHJHHHHHHHHHGPy&RRRR",
"RRR1yDHHHHHHHHHPPPPPPPJGJJJGHHHHHHHHHHHHGJGz1RRR",
"RRR=pPHHHHJGHZBVVZVZBVBVBVVMMnMMnMVHHHHHJHPN<RRR",
"RRR*pPHHHHHHGntrrrrrrrrrrurrteee00fZHHHHHHPn<RRR",
"RRR&hLHHHHHGb6&&&&--------=-<<=&&&,sHHJHHJLA<RRR",
"RRR&pLHHHHGb3>twtwtzhfkkzczcpbcptw31uCHJHGKA<RRR",
"RRR&hPHHHHG02qzcvccMNMMMMMMMMMMmczt3>NHHHHKA<RRR",
"RRR&kPHHHHH<qzcnMMMMMMBVMMMMMMMMMczw@mJHHHKA<RRR",
"RRR=jUJHJHH<5ABNMNMMNVVVBmMMMMMMNMct@AJJLHPS<RRR",
"RRR&jUHJJJH<yNNNNBNMNCVVVVVVMMMMBBct@mJHHHPS1RRR",
"RRR=hUHJJJH<wNNVNNBBVVVVVVVVMMMVVVBh@vJJJJLV<RRR",
"RRR=jUJJJJH<wNVNBVNVVVVVVCVVNMVCVVVk@mHJJHPA<RRR",
"RRR=jYJJKHH<wBmVVNVVVVVVCVVVVVCCCVVg@mJJJJLS<RRR",
"RRR=jIKJHKH<wNVVNVVVZVCCCCCCCCCVCZCg@NJJJJLS<RRR",
"RRR&jYKJKHG<tVVVVVSVCZCCDCZZCCCCCCZc@NJKKKLJ<RRR",
"RRR&jYKFKKK1wVmVVVVGCDCGZCCCCCCCCZCl@NJJKLLF<RRR",
"RRR=yYFKJKL<tVVVDZZVGCDCGGVGVVVCCCCv@vKKJKYF<RRR",
"RRR=ATKKKKL1yVVVZZGVZGZZVVGVffnDCDCl@AJKKKLS<RRR",
"RRR<pTKKKLIFwwVDZZZGZGZGnnngzffnHDp4AHKKLLTF<RRR",
"RRR&ATKKKLILAhqwqqqqqqqq333323335y5kJKKLLLTH&RRR",
"RRR=ATKKKKILIS55444444444444444444kKKKKLPITF<RRR",
"RRR&pYKKKKJKKIILLLLLKKKKKKLKKKKKKKKLKJLLIPTD&RRR",
"RRR@3NYLHKKKKLLLLLLLKKKKKKKKKLKKKKKLKKLLLTIl-RRR",
"RRR+:zFLIKKKKKLLLLLKKKKJKKLKKKKLKKKLLKLLTPGk&RRR",
"RRR+1ssDPIIIIPIPLLLUPPPPPPPPLLILPPIIIIIIIGVh-RRR",
"RRR+:iifGTUUUYIUUYYTYUUUIUIUYYTTYYTTTTTUGVVs$RRR",
"RRRO-uaVVnnnnnnnnBDGGGCnnMnnnnmmVCVCVCMCICVt$RRR",
"RRRo-fBMbfbgbgggbnnmnnbbfbggbgbnbbbbBBnnVHZi$RRR",
"RRRo>nBbbfbfbfbigggggccgggggfbfzbfbfnnbfbVZiXRRR",
"RRRo9ZbffbfbzbbbggggggggggggbbbffbbffbfbgfZpoRRR",
"RRRo9ZgfffnnnbbbggggggggbbggbbbbbbfzffffffZfORRR",
"RRR.9Vfgfbnnnr*=----:*:***:*>*==*=0bfffdffBioRRR",
"RRRo3Bgdfbnnr9:=:::::,::>:>>>:>:**>8ffffdbBioRRR",
"RRR.,Mdgfbbi9>uuuuauuuuuuuurrrrr88>*udfffdBi.RRR",
"RRRo2ngdffb*6uuuuiaauiuuuuuuuruiu86>Xrffdfni.RRR",
"RRR.,nfffff*6uuuuuuiuuiuuuirruuruu8>Xrffddni.RRR",
"RRR.6bffffi*9uuuuuuuuuuuuuuuuuuuuu8,+efffdnt.RRR",
"RRR.=bfbfff*6ruuureeeuuuuuruuuuuuue,+rdddfbr RRR",
"RRRo6nfuuuf*6ruurreuerurwurrwur8err6$edffubt.RRR",
"RRR 6ndfffu*>rrrrer8u8rrrurrurur888,$edsubbr.RRR",
"RRR.*Bddufu*>rrereerr8r8rruru8uu8886+eadaace.RRR",
"RRR.6nddfdf*>rreeeeerr8rrrrruuu7888,Xeaaaage.RRR",
"RRR.=nfuudu*>eeereer8rr8rruruuu8888,+easaaf0.RRR",
"RRR.6nufudu**77e8878e8r8rrrr8878888,+0uuaag0.RRR",
"RRR.,buuaau;;788888888u8u8uu8r87777,X7aaaag5.RRR",
"RRR.2buduau,,,88888888888888r87777,:,ruuuaf8oRRR",
"RRR.>budauaa7,,,,,,,,,,,,,7,4,,,,,,,fduuufg0.RRR",
"RRR.>bduuuaua,#++##XXX##++++++++X#0cauuuuag8.RRR",
"RRR.>guuuuuuuuuuttuuuuutuuauuauuiuauuuuuafg8oRRR",
"RRR.>fuuuuuuuafdfgggggggbakgaaaaaaauuuadafg,oRRR",
"RRR.:ruuuuuuuuuuuafffsssaaaaauuuuuuuuddfffu,.RRR",
"RRRRR#dauuuuuuuuuafffauuuuuuuuuuuuuuuddffa-oRRRR",
"RRRRRR#rauuuuu8uuuuuuuu8uuu8u8u8uuuuuuuaa;XRRRRR",
"RRRRRRR*0auuuuauuuuuuuuuuuuuuuuuur8uuuau;+RRRRRR",
"RRRRRRRR:,,,,,,,,,,,,,,,,,,,,,;,,,,,,,,;ORRRRRRR",
"RRRRRRRR     ...                        RRRRRRRR"
};
